%TF.GenerationSoftware,KiCad,Pcbnew,5.1.10*%
%TF.CreationDate,2021-06-16T20:56:35+02:00*%
%TF.ProjectId,filter,66696c74-6572-42e6-9b69-6361645f7063,rev?*%
%TF.SameCoordinates,Original*%
%TF.FileFunction,Copper,L1,Top*%
%TF.FilePolarity,Positive*%
%FSLAX46Y46*%
G04 Gerber Fmt 4.6, Leading zero omitted, Abs format (unit mm)*
G04 Created by KiCad (PCBNEW 5.1.10) date 2021-06-16 20:56:35*
%MOMM*%
%LPD*%
G01*
G04 APERTURE LIST*
%TA.AperFunction,ComponentPad*%
%ADD10C,2.400000*%
%TD*%
%TA.AperFunction,ComponentPad*%
%ADD11R,1.700000X1.700000*%
%TD*%
%TA.AperFunction,ComponentPad*%
%ADD12O,1.700000X1.700000*%
%TD*%
%TA.AperFunction,ViaPad*%
%ADD13C,0.800000*%
%TD*%
%TA.AperFunction,Conductor*%
%ADD14C,0.500000*%
%TD*%
%TA.AperFunction,Conductor*%
%ADD15C,0.254000*%
%TD*%
%TA.AperFunction,Conductor*%
%ADD16C,0.100000*%
%TD*%
G04 APERTURE END LIST*
D10*
%TO.P,L1,2*%
%TO.N,Net-(C1-Pad2)*%
X170180000Y-92470000D03*
%TO.P,L1,1*%
%TO.N,Net-(C1-Pad1)*%
X170180000Y-77470000D03*
%TD*%
%TO.P,C2,1*%
%TO.N,GND*%
%TA.AperFunction,SMDPad,CuDef*%
G36*
G01*
X168435000Y-83465000D02*
X169385000Y-83465000D01*
G75*
G02*
X169635000Y-83715000I0J-250000D01*
G01*
X169635000Y-84390000D01*
G75*
G02*
X169385000Y-84640000I-250000J0D01*
G01*
X168435000Y-84640000D01*
G75*
G02*
X168185000Y-84390000I0J250000D01*
G01*
X168185000Y-83715000D01*
G75*
G02*
X168435000Y-83465000I250000J0D01*
G01*
G37*
%TD.AperFunction*%
%TO.P,C2,2*%
%TO.N,Net-(C1-Pad2)*%
%TA.AperFunction,SMDPad,CuDef*%
G36*
G01*
X168435000Y-85540000D02*
X169385000Y-85540000D01*
G75*
G02*
X169635000Y-85790000I0J-250000D01*
G01*
X169635000Y-86465000D01*
G75*
G02*
X169385000Y-86715000I-250000J0D01*
G01*
X168435000Y-86715000D01*
G75*
G02*
X168185000Y-86465000I0J250000D01*
G01*
X168185000Y-85790000D01*
G75*
G02*
X168435000Y-85540000I250000J0D01*
G01*
G37*
%TD.AperFunction*%
%TD*%
%TO.P,C1,2*%
%TO.N,Net-(C1-Pad2)*%
%TA.AperFunction,SMDPad,CuDef*%
G36*
G01*
X170975000Y-85540000D02*
X171925000Y-85540000D01*
G75*
G02*
X172175000Y-85790000I0J-250000D01*
G01*
X172175000Y-86465000D01*
G75*
G02*
X171925000Y-86715000I-250000J0D01*
G01*
X170975000Y-86715000D01*
G75*
G02*
X170725000Y-86465000I0J250000D01*
G01*
X170725000Y-85790000D01*
G75*
G02*
X170975000Y-85540000I250000J0D01*
G01*
G37*
%TD.AperFunction*%
%TO.P,C1,1*%
%TO.N,Net-(C1-Pad1)*%
%TA.AperFunction,SMDPad,CuDef*%
G36*
G01*
X170975000Y-83465000D02*
X171925000Y-83465000D01*
G75*
G02*
X172175000Y-83715000I0J-250000D01*
G01*
X172175000Y-84390000D01*
G75*
G02*
X171925000Y-84640000I-250000J0D01*
G01*
X170975000Y-84640000D01*
G75*
G02*
X170725000Y-84390000I0J250000D01*
G01*
X170725000Y-83715000D01*
G75*
G02*
X170975000Y-83465000I250000J0D01*
G01*
G37*
%TD.AperFunction*%
%TD*%
%TO.P,L101,1*%
%TO.N,Net-(C104-Pad1)*%
X147320000Y-77470000D03*
%TO.P,L101,2*%
%TO.N,Net-(C101-Pad2)*%
X147320000Y-92470000D03*
%TD*%
%TO.P,C101,1*%
%TO.N,Net-(C101-Pad1)*%
%TA.AperFunction,SMDPad,CuDef*%
G36*
G01*
X154660000Y-90965000D02*
X154660000Y-91915000D01*
G75*
G02*
X154410000Y-92165000I-250000J0D01*
G01*
X153735000Y-92165000D01*
G75*
G02*
X153485000Y-91915000I0J250000D01*
G01*
X153485000Y-90965000D01*
G75*
G02*
X153735000Y-90715000I250000J0D01*
G01*
X154410000Y-90715000D01*
G75*
G02*
X154660000Y-90965000I0J-250000D01*
G01*
G37*
%TD.AperFunction*%
%TO.P,C101,2*%
%TO.N,Net-(C101-Pad2)*%
%TA.AperFunction,SMDPad,CuDef*%
G36*
G01*
X152585000Y-90965000D02*
X152585000Y-91915000D01*
G75*
G02*
X152335000Y-92165000I-250000J0D01*
G01*
X151660000Y-92165000D01*
G75*
G02*
X151410000Y-91915000I0J250000D01*
G01*
X151410000Y-90965000D01*
G75*
G02*
X151660000Y-90715000I250000J0D01*
G01*
X152335000Y-90715000D01*
G75*
G02*
X152585000Y-90965000I0J-250000D01*
G01*
G37*
%TD.AperFunction*%
%TD*%
%TO.P,C102,1*%
%TO.N,Net-(C101-Pad1)*%
%TA.AperFunction,SMDPad,CuDef*%
G36*
G01*
X157955000Y-84175000D02*
X157005000Y-84175000D01*
G75*
G02*
X156755000Y-83925000I0J250000D01*
G01*
X156755000Y-83250000D01*
G75*
G02*
X157005000Y-83000000I250000J0D01*
G01*
X157955000Y-83000000D01*
G75*
G02*
X158205000Y-83250000I0J-250000D01*
G01*
X158205000Y-83925000D01*
G75*
G02*
X157955000Y-84175000I-250000J0D01*
G01*
G37*
%TD.AperFunction*%
%TO.P,C102,2*%
%TO.N,Net-(C1-Pad1)*%
%TA.AperFunction,SMDPad,CuDef*%
G36*
G01*
X157955000Y-82100000D02*
X157005000Y-82100000D01*
G75*
G02*
X156755000Y-81850000I0J250000D01*
G01*
X156755000Y-81175000D01*
G75*
G02*
X157005000Y-80925000I250000J0D01*
G01*
X157955000Y-80925000D01*
G75*
G02*
X158205000Y-81175000I0J-250000D01*
G01*
X158205000Y-81850000D01*
G75*
G02*
X157955000Y-82100000I-250000J0D01*
G01*
G37*
%TD.AperFunction*%
%TD*%
%TO.P,C103,2*%
%TO.N,Net-(C101-Pad2)*%
%TA.AperFunction,SMDPad,CuDef*%
G36*
G01*
X152585000Y-88425000D02*
X152585000Y-89375000D01*
G75*
G02*
X152335000Y-89625000I-250000J0D01*
G01*
X151660000Y-89625000D01*
G75*
G02*
X151410000Y-89375000I0J250000D01*
G01*
X151410000Y-88425000D01*
G75*
G02*
X151660000Y-88175000I250000J0D01*
G01*
X152335000Y-88175000D01*
G75*
G02*
X152585000Y-88425000I0J-250000D01*
G01*
G37*
%TD.AperFunction*%
%TO.P,C103,1*%
%TO.N,Net-(C101-Pad1)*%
%TA.AperFunction,SMDPad,CuDef*%
G36*
G01*
X154660000Y-88425000D02*
X154660000Y-89375000D01*
G75*
G02*
X154410000Y-89625000I-250000J0D01*
G01*
X153735000Y-89625000D01*
G75*
G02*
X153485000Y-89375000I0J250000D01*
G01*
X153485000Y-88425000D01*
G75*
G02*
X153735000Y-88175000I250000J0D01*
G01*
X154410000Y-88175000D01*
G75*
G02*
X154660000Y-88425000I0J-250000D01*
G01*
G37*
%TD.AperFunction*%
%TD*%
%TO.P,C104,1*%
%TO.N,Net-(C104-Pad1)*%
%TA.AperFunction,SMDPad,CuDef*%
G36*
G01*
X143035000Y-83465000D02*
X143985000Y-83465000D01*
G75*
G02*
X144235000Y-83715000I0J-250000D01*
G01*
X144235000Y-84390000D01*
G75*
G02*
X143985000Y-84640000I-250000J0D01*
G01*
X143035000Y-84640000D01*
G75*
G02*
X142785000Y-84390000I0J250000D01*
G01*
X142785000Y-83715000D01*
G75*
G02*
X143035000Y-83465000I250000J0D01*
G01*
G37*
%TD.AperFunction*%
%TO.P,C104,2*%
%TO.N,GND*%
%TA.AperFunction,SMDPad,CuDef*%
G36*
G01*
X143035000Y-85540000D02*
X143985000Y-85540000D01*
G75*
G02*
X144235000Y-85790000I0J-250000D01*
G01*
X144235000Y-86465000D01*
G75*
G02*
X143985000Y-86715000I-250000J0D01*
G01*
X143035000Y-86715000D01*
G75*
G02*
X142785000Y-86465000I0J250000D01*
G01*
X142785000Y-85790000D01*
G75*
G02*
X143035000Y-85540000I250000J0D01*
G01*
G37*
%TD.AperFunction*%
%TD*%
%TO.P,C105,2*%
%TO.N,Net-(C101-Pad1)*%
%TA.AperFunction,SMDPad,CuDef*%
G36*
G01*
X159545000Y-88080000D02*
X160495000Y-88080000D01*
G75*
G02*
X160745000Y-88330000I0J-250000D01*
G01*
X160745000Y-89005000D01*
G75*
G02*
X160495000Y-89255000I-250000J0D01*
G01*
X159545000Y-89255000D01*
G75*
G02*
X159295000Y-89005000I0J250000D01*
G01*
X159295000Y-88330000D01*
G75*
G02*
X159545000Y-88080000I250000J0D01*
G01*
G37*
%TD.AperFunction*%
%TO.P,C105,1*%
%TO.N,GND*%
%TA.AperFunction,SMDPad,CuDef*%
G36*
G01*
X159545000Y-86005000D02*
X160495000Y-86005000D01*
G75*
G02*
X160745000Y-86255000I0J-250000D01*
G01*
X160745000Y-86930000D01*
G75*
G02*
X160495000Y-87180000I-250000J0D01*
G01*
X159545000Y-87180000D01*
G75*
G02*
X159295000Y-86930000I0J250000D01*
G01*
X159295000Y-86255000D01*
G75*
G02*
X159545000Y-86005000I250000J0D01*
G01*
G37*
%TD.AperFunction*%
%TD*%
%TO.P,C106,2*%
%TO.N,Net-(C1-Pad1)*%
%TA.AperFunction,SMDPad,CuDef*%
G36*
G01*
X160495000Y-82100000D02*
X159545000Y-82100000D01*
G75*
G02*
X159295000Y-81850000I0J250000D01*
G01*
X159295000Y-81175000D01*
G75*
G02*
X159545000Y-80925000I250000J0D01*
G01*
X160495000Y-80925000D01*
G75*
G02*
X160745000Y-81175000I0J-250000D01*
G01*
X160745000Y-81850000D01*
G75*
G02*
X160495000Y-82100000I-250000J0D01*
G01*
G37*
%TD.AperFunction*%
%TO.P,C106,1*%
%TO.N,GND*%
%TA.AperFunction,SMDPad,CuDef*%
G36*
G01*
X160495000Y-84175000D02*
X159545000Y-84175000D01*
G75*
G02*
X159295000Y-83925000I0J250000D01*
G01*
X159295000Y-83250000D01*
G75*
G02*
X159545000Y-83000000I250000J0D01*
G01*
X160495000Y-83000000D01*
G75*
G02*
X160745000Y-83250000I0J-250000D01*
G01*
X160745000Y-83925000D01*
G75*
G02*
X160495000Y-84175000I-250000J0D01*
G01*
G37*
%TD.AperFunction*%
%TD*%
D11*
%TO.P,J101,1*%
%TO.N,Net-(C104-Pad1)*%
X139700000Y-81280000D03*
D12*
%TO.P,J101,2*%
%TO.N,GND*%
X139700000Y-83820000D03*
%TO.P,J101,3*%
X139700000Y-86360000D03*
%TO.P,J101,4*%
X139700000Y-88900000D03*
%TD*%
%TO.P,J102,4*%
%TO.N,GND*%
X177800000Y-88900000D03*
%TO.P,J102,3*%
X177800000Y-86360000D03*
%TO.P,J102,2*%
X177800000Y-83820000D03*
D11*
%TO.P,J102,1*%
%TO.N,Net-(C1-Pad2)*%
X177800000Y-81280000D03*
%TD*%
D10*
%TO.P,L102,2*%
%TO.N,Net-(C1-Pad1)*%
X158750000Y-77470000D03*
%TO.P,L102,1*%
%TO.N,Net-(C101-Pad1)*%
X158750000Y-92470000D03*
%TD*%
D13*
%TO.N,GND*%
X177800000Y-77470000D03*
X177800000Y-92710000D03*
X139700000Y-92710000D03*
X139700000Y-77470000D03*
X149860000Y-77470000D03*
X144780000Y-92710000D03*
X154940000Y-77470000D03*
X162560000Y-92710000D03*
X167640000Y-92710000D03*
X172720000Y-77470000D03*
%TD*%
D14*
%TO.N,Net-(C101-Pad1)*%
X154072500Y-88900000D02*
X154072500Y-91440000D01*
X155102500Y-92470000D02*
X154072500Y-91440000D01*
X158750000Y-90170000D02*
X158750000Y-92470000D01*
X157480000Y-88900000D02*
X158750000Y-90170000D01*
X157480000Y-83587500D02*
X157480000Y-88900000D01*
X158750000Y-90170000D02*
X160020000Y-88900000D01*
X160020000Y-88900000D02*
X160020000Y-88667500D01*
X158750000Y-92470000D02*
X155102500Y-92470000D01*
%TO.N,Net-(C101-Pad2)*%
X150967500Y-92470000D02*
X151997500Y-91440000D01*
X151997500Y-88900000D02*
X151997500Y-91440000D01*
X147320000Y-92470000D02*
X150967500Y-92470000D01*
%TO.N,Net-(C104-Pad1)*%
X143510000Y-82550000D02*
X143510000Y-84052500D01*
X142240000Y-81280000D02*
X143510000Y-82550000D01*
X139700000Y-81280000D02*
X142240000Y-81280000D01*
X146050000Y-77470000D02*
X147320000Y-77470000D01*
X142240000Y-81280000D02*
X146050000Y-77470000D01*
%TO.N,Net-(C1-Pad2)*%
X168910000Y-86127500D02*
X171450000Y-86127500D01*
X168910000Y-91200000D02*
X170180000Y-92470000D01*
X168910000Y-86127500D02*
X168910000Y-91200000D01*
X172952500Y-86127500D02*
X177800000Y-81280000D01*
X171450000Y-86127500D02*
X172952500Y-86127500D01*
%TO.N,Net-(C1-Pad1)*%
X157480000Y-78740000D02*
X158750000Y-77470000D01*
X157480000Y-81512500D02*
X157480000Y-78740000D01*
X157480000Y-81512500D02*
X160020000Y-81512500D01*
X158750000Y-77470000D02*
X170180000Y-77470000D01*
X170180000Y-82782500D02*
X171450000Y-84052500D01*
X170180000Y-77470000D02*
X170180000Y-82782500D01*
%TD*%
D15*
%TO.N,GND*%
X179187869Y-75604722D02*
X179301246Y-75638953D01*
X179405819Y-75694555D01*
X179497596Y-75769407D01*
X179573091Y-75860664D01*
X179629419Y-75964844D01*
X179664440Y-76077976D01*
X179680001Y-76226031D01*
X179680000Y-93947721D01*
X179665278Y-94097869D01*
X179631047Y-94211246D01*
X179575446Y-94315817D01*
X179500594Y-94407595D01*
X179409335Y-94483091D01*
X179305160Y-94539419D01*
X179192024Y-94574440D01*
X179043979Y-94590000D01*
X138462279Y-94590000D01*
X138312131Y-94575278D01*
X138198754Y-94541047D01*
X138094183Y-94485446D01*
X138002405Y-94410594D01*
X137926909Y-94319335D01*
X137870581Y-94215160D01*
X137835560Y-94102024D01*
X137820000Y-93953979D01*
X137820000Y-92289268D01*
X145485000Y-92289268D01*
X145485000Y-92650732D01*
X145555518Y-93005250D01*
X145693844Y-93339199D01*
X145894662Y-93639744D01*
X146150256Y-93895338D01*
X146450801Y-94096156D01*
X146784750Y-94234482D01*
X147139268Y-94305000D01*
X147500732Y-94305000D01*
X147855250Y-94234482D01*
X148189199Y-94096156D01*
X148489744Y-93895338D01*
X148745338Y-93639744D01*
X148935598Y-93355000D01*
X150924031Y-93355000D01*
X150967500Y-93359281D01*
X151010969Y-93355000D01*
X151010977Y-93355000D01*
X151140990Y-93342195D01*
X151307813Y-93291589D01*
X151461559Y-93209411D01*
X151596317Y-93098817D01*
X151624034Y-93065044D01*
X151886006Y-92803072D01*
X152335000Y-92803072D01*
X152508254Y-92786008D01*
X152674850Y-92735472D01*
X152828386Y-92653405D01*
X152962962Y-92542962D01*
X153035000Y-92455183D01*
X153107038Y-92542962D01*
X153241614Y-92653405D01*
X153395150Y-92735472D01*
X153561746Y-92786008D01*
X153735000Y-92803072D01*
X154183993Y-92803072D01*
X154445970Y-93065049D01*
X154473683Y-93098817D01*
X154507451Y-93126530D01*
X154507453Y-93126532D01*
X154578952Y-93185210D01*
X154608441Y-93209411D01*
X154762187Y-93291589D01*
X154867761Y-93323615D01*
X154929009Y-93342195D01*
X154943806Y-93343652D01*
X155059023Y-93355000D01*
X155059031Y-93355000D01*
X155102500Y-93359281D01*
X155145969Y-93355000D01*
X157134402Y-93355000D01*
X157324662Y-93639744D01*
X157580256Y-93895338D01*
X157880801Y-94096156D01*
X158214750Y-94234482D01*
X158569268Y-94305000D01*
X158930732Y-94305000D01*
X159285250Y-94234482D01*
X159619199Y-94096156D01*
X159919744Y-93895338D01*
X160175338Y-93639744D01*
X160376156Y-93339199D01*
X160514482Y-93005250D01*
X160585000Y-92650732D01*
X160585000Y-92289268D01*
X160514482Y-91934750D01*
X160376156Y-91600801D01*
X160175338Y-91300256D01*
X159919744Y-91044662D01*
X159635000Y-90854402D01*
X159635000Y-90536578D01*
X160278507Y-89893072D01*
X160495000Y-89893072D01*
X160668254Y-89876008D01*
X160834850Y-89825472D01*
X160988386Y-89743405D01*
X161122962Y-89632962D01*
X161233405Y-89498386D01*
X161315472Y-89344850D01*
X161366008Y-89178254D01*
X161383072Y-89005000D01*
X161383072Y-88330000D01*
X161366008Y-88156746D01*
X161315472Y-87990150D01*
X161233405Y-87836614D01*
X161122962Y-87702038D01*
X161116406Y-87696658D01*
X161196185Y-87631185D01*
X161275537Y-87534494D01*
X161334502Y-87424180D01*
X161370812Y-87304482D01*
X161383072Y-87180000D01*
X161380000Y-86878250D01*
X161221250Y-86719500D01*
X160147000Y-86719500D01*
X160147000Y-86739500D01*
X159893000Y-86739500D01*
X159893000Y-86719500D01*
X158818750Y-86719500D01*
X158660000Y-86878250D01*
X158656928Y-87180000D01*
X158669188Y-87304482D01*
X158705498Y-87424180D01*
X158764463Y-87534494D01*
X158843815Y-87631185D01*
X158923594Y-87696658D01*
X158917038Y-87702038D01*
X158806595Y-87836614D01*
X158724528Y-87990150D01*
X158673992Y-88156746D01*
X158656928Y-88330000D01*
X158656928Y-88825350D01*
X158365000Y-88533422D01*
X158365000Y-86005000D01*
X158656928Y-86005000D01*
X158660000Y-86306750D01*
X158818750Y-86465500D01*
X159893000Y-86465500D01*
X159893000Y-85528750D01*
X160147000Y-85528750D01*
X160147000Y-86465500D01*
X161221250Y-86465500D01*
X161380000Y-86306750D01*
X161383072Y-86005000D01*
X161370812Y-85880518D01*
X161334502Y-85760820D01*
X161275537Y-85650506D01*
X161196185Y-85553815D01*
X161099494Y-85474463D01*
X160989180Y-85415498D01*
X160869482Y-85379188D01*
X160745000Y-85366928D01*
X160305750Y-85370000D01*
X160147000Y-85528750D01*
X159893000Y-85528750D01*
X159734250Y-85370000D01*
X159295000Y-85366928D01*
X159170518Y-85379188D01*
X159050820Y-85415498D01*
X158940506Y-85474463D01*
X158843815Y-85553815D01*
X158764463Y-85650506D01*
X158705498Y-85760820D01*
X158669188Y-85880518D01*
X158656928Y-86005000D01*
X158365000Y-86005000D01*
X158365000Y-84707976D01*
X158448386Y-84663405D01*
X158582962Y-84552962D01*
X158693405Y-84418386D01*
X158700966Y-84404240D01*
X158705498Y-84419180D01*
X158764463Y-84529494D01*
X158843815Y-84626185D01*
X158940506Y-84705537D01*
X159050820Y-84764502D01*
X159170518Y-84800812D01*
X159295000Y-84813072D01*
X159734250Y-84810000D01*
X159893000Y-84651250D01*
X159893000Y-83714500D01*
X160147000Y-83714500D01*
X160147000Y-84651250D01*
X160305750Y-84810000D01*
X160745000Y-84813072D01*
X160869482Y-84800812D01*
X160989180Y-84764502D01*
X161099494Y-84705537D01*
X161196185Y-84626185D01*
X161275537Y-84529494D01*
X161334502Y-84419180D01*
X161370812Y-84299482D01*
X161383072Y-84175000D01*
X161380000Y-83873250D01*
X161221250Y-83714500D01*
X160147000Y-83714500D01*
X159893000Y-83714500D01*
X159873000Y-83714500D01*
X159873000Y-83465000D01*
X167546928Y-83465000D01*
X167550000Y-83766750D01*
X167708750Y-83925500D01*
X168783000Y-83925500D01*
X168783000Y-82988750D01*
X168624250Y-82830000D01*
X168185000Y-82826928D01*
X168060518Y-82839188D01*
X167940820Y-82875498D01*
X167830506Y-82934463D01*
X167733815Y-83013815D01*
X167654463Y-83110506D01*
X167595498Y-83220820D01*
X167559188Y-83340518D01*
X167546928Y-83465000D01*
X159873000Y-83465000D01*
X159873000Y-83460500D01*
X159893000Y-83460500D01*
X159893000Y-83440500D01*
X160147000Y-83440500D01*
X160147000Y-83460500D01*
X161221250Y-83460500D01*
X161380000Y-83301750D01*
X161383072Y-83000000D01*
X161370812Y-82875518D01*
X161334502Y-82755820D01*
X161275537Y-82645506D01*
X161196185Y-82548815D01*
X161116406Y-82483342D01*
X161122962Y-82477962D01*
X161233405Y-82343386D01*
X161315472Y-82189850D01*
X161366008Y-82023254D01*
X161383072Y-81850000D01*
X161383072Y-81175000D01*
X161366008Y-81001746D01*
X161315472Y-80835150D01*
X161233405Y-80681614D01*
X161122962Y-80547038D01*
X160988386Y-80436595D01*
X160834850Y-80354528D01*
X160668254Y-80303992D01*
X160495000Y-80286928D01*
X159545000Y-80286928D01*
X159371746Y-80303992D01*
X159205150Y-80354528D01*
X159051614Y-80436595D01*
X158917038Y-80547038D01*
X158851005Y-80627500D01*
X158648995Y-80627500D01*
X158582962Y-80547038D01*
X158448386Y-80436595D01*
X158365000Y-80392024D01*
X158365000Y-79264369D01*
X158569268Y-79305000D01*
X158930732Y-79305000D01*
X159285250Y-79234482D01*
X159619199Y-79096156D01*
X159919744Y-78895338D01*
X160175338Y-78639744D01*
X160365598Y-78355000D01*
X168564402Y-78355000D01*
X168754662Y-78639744D01*
X169010256Y-78895338D01*
X169295000Y-79085598D01*
X169295001Y-82739021D01*
X169290719Y-82782500D01*
X169295328Y-82829304D01*
X169195750Y-82830000D01*
X169037000Y-82988750D01*
X169037000Y-83925500D01*
X169057000Y-83925500D01*
X169057000Y-84179500D01*
X169037000Y-84179500D01*
X169037000Y-84199500D01*
X168783000Y-84199500D01*
X168783000Y-84179500D01*
X167708750Y-84179500D01*
X167550000Y-84338250D01*
X167546928Y-84640000D01*
X167559188Y-84764482D01*
X167595498Y-84884180D01*
X167654463Y-84994494D01*
X167733815Y-85091185D01*
X167813594Y-85156658D01*
X167807038Y-85162038D01*
X167696595Y-85296614D01*
X167614528Y-85450150D01*
X167563992Y-85616746D01*
X167546928Y-85790000D01*
X167546928Y-86465000D01*
X167563992Y-86638254D01*
X167614528Y-86804850D01*
X167696595Y-86958386D01*
X167807038Y-87092962D01*
X167941614Y-87203405D01*
X168025000Y-87247976D01*
X168025001Y-91156521D01*
X168020719Y-91200000D01*
X168037805Y-91373490D01*
X168088412Y-91540313D01*
X168170590Y-91694059D01*
X168253468Y-91795046D01*
X168253471Y-91795049D01*
X168281184Y-91828817D01*
X168314951Y-91856529D01*
X168411811Y-91953389D01*
X168345000Y-92289268D01*
X168345000Y-92650732D01*
X168415518Y-93005250D01*
X168553844Y-93339199D01*
X168754662Y-93639744D01*
X169010256Y-93895338D01*
X169310801Y-94096156D01*
X169644750Y-94234482D01*
X169999268Y-94305000D01*
X170360732Y-94305000D01*
X170715250Y-94234482D01*
X171049199Y-94096156D01*
X171349744Y-93895338D01*
X171605338Y-93639744D01*
X171806156Y-93339199D01*
X171944482Y-93005250D01*
X172015000Y-92650732D01*
X172015000Y-92289268D01*
X171944482Y-91934750D01*
X171806156Y-91600801D01*
X171605338Y-91300256D01*
X171349744Y-91044662D01*
X171049199Y-90843844D01*
X170715250Y-90705518D01*
X170360732Y-90635000D01*
X169999268Y-90635000D01*
X169795000Y-90675631D01*
X169795000Y-89256890D01*
X176358524Y-89256890D01*
X176403175Y-89404099D01*
X176528359Y-89666920D01*
X176702412Y-89900269D01*
X176918645Y-90095178D01*
X177168748Y-90244157D01*
X177443109Y-90341481D01*
X177673000Y-90220814D01*
X177673000Y-89027000D01*
X177927000Y-89027000D01*
X177927000Y-90220814D01*
X178156891Y-90341481D01*
X178431252Y-90244157D01*
X178681355Y-90095178D01*
X178897588Y-89900269D01*
X179071641Y-89666920D01*
X179196825Y-89404099D01*
X179241476Y-89256890D01*
X179120155Y-89027000D01*
X177927000Y-89027000D01*
X177673000Y-89027000D01*
X176479845Y-89027000D01*
X176358524Y-89256890D01*
X169795000Y-89256890D01*
X169795000Y-87247976D01*
X169878386Y-87203405D01*
X170012962Y-87092962D01*
X170078995Y-87012500D01*
X170281005Y-87012500D01*
X170347038Y-87092962D01*
X170481614Y-87203405D01*
X170635150Y-87285472D01*
X170801746Y-87336008D01*
X170975000Y-87353072D01*
X171925000Y-87353072D01*
X172098254Y-87336008D01*
X172264850Y-87285472D01*
X172418386Y-87203405D01*
X172552962Y-87092962D01*
X172618995Y-87012500D01*
X172909031Y-87012500D01*
X172952500Y-87016781D01*
X172995969Y-87012500D01*
X172995977Y-87012500D01*
X173125990Y-86999695D01*
X173292813Y-86949089D01*
X173446559Y-86866911D01*
X173581317Y-86756317D01*
X173609034Y-86722544D01*
X173614688Y-86716890D01*
X176358524Y-86716890D01*
X176403175Y-86864099D01*
X176528359Y-87126920D01*
X176702412Y-87360269D01*
X176918645Y-87555178D01*
X177044255Y-87630000D01*
X176918645Y-87704822D01*
X176702412Y-87899731D01*
X176528359Y-88133080D01*
X176403175Y-88395901D01*
X176358524Y-88543110D01*
X176479845Y-88773000D01*
X177673000Y-88773000D01*
X177673000Y-86487000D01*
X177927000Y-86487000D01*
X177927000Y-88773000D01*
X179120155Y-88773000D01*
X179241476Y-88543110D01*
X179196825Y-88395901D01*
X179071641Y-88133080D01*
X178897588Y-87899731D01*
X178681355Y-87704822D01*
X178555745Y-87630000D01*
X178681355Y-87555178D01*
X178897588Y-87360269D01*
X179071641Y-87126920D01*
X179196825Y-86864099D01*
X179241476Y-86716890D01*
X179120155Y-86487000D01*
X177927000Y-86487000D01*
X177673000Y-86487000D01*
X176479845Y-86487000D01*
X176358524Y-86716890D01*
X173614688Y-86716890D01*
X176384577Y-83947002D01*
X176479844Y-83947002D01*
X176358524Y-84176890D01*
X176403175Y-84324099D01*
X176528359Y-84586920D01*
X176702412Y-84820269D01*
X176918645Y-85015178D01*
X177044255Y-85090000D01*
X176918645Y-85164822D01*
X176702412Y-85359731D01*
X176528359Y-85593080D01*
X176403175Y-85855901D01*
X176358524Y-86003110D01*
X176479845Y-86233000D01*
X177673000Y-86233000D01*
X177673000Y-83947000D01*
X177927000Y-83947000D01*
X177927000Y-86233000D01*
X179120155Y-86233000D01*
X179241476Y-86003110D01*
X179196825Y-85855901D01*
X179071641Y-85593080D01*
X178897588Y-85359731D01*
X178681355Y-85164822D01*
X178555745Y-85090000D01*
X178681355Y-85015178D01*
X178897588Y-84820269D01*
X179071641Y-84586920D01*
X179196825Y-84324099D01*
X179241476Y-84176890D01*
X179120155Y-83947000D01*
X177927000Y-83947000D01*
X177673000Y-83947000D01*
X177653000Y-83947000D01*
X177653000Y-83693000D01*
X177673000Y-83693000D01*
X177673000Y-83673000D01*
X177927000Y-83673000D01*
X177927000Y-83693000D01*
X179120155Y-83693000D01*
X179241476Y-83463110D01*
X179196825Y-83315901D01*
X179071641Y-83053080D01*
X178897588Y-82819731D01*
X178813534Y-82743966D01*
X178894180Y-82719502D01*
X179004494Y-82660537D01*
X179101185Y-82581185D01*
X179180537Y-82484494D01*
X179239502Y-82374180D01*
X179275812Y-82254482D01*
X179288072Y-82130000D01*
X179288072Y-80430000D01*
X179275812Y-80305518D01*
X179239502Y-80185820D01*
X179180537Y-80075506D01*
X179101185Y-79978815D01*
X179004494Y-79899463D01*
X178894180Y-79840498D01*
X178774482Y-79804188D01*
X178650000Y-79791928D01*
X176950000Y-79791928D01*
X176825518Y-79804188D01*
X176705820Y-79840498D01*
X176595506Y-79899463D01*
X176498815Y-79978815D01*
X176419463Y-80075506D01*
X176360498Y-80185820D01*
X176324188Y-80305518D01*
X176311928Y-80430000D01*
X176311928Y-81516493D01*
X172604087Y-85224335D01*
X172552962Y-85162038D01*
X172465183Y-85090000D01*
X172552962Y-85017962D01*
X172663405Y-84883386D01*
X172745472Y-84729850D01*
X172796008Y-84563254D01*
X172813072Y-84390000D01*
X172813072Y-83715000D01*
X172796008Y-83541746D01*
X172745472Y-83375150D01*
X172663405Y-83221614D01*
X172552962Y-83087038D01*
X172418386Y-82976595D01*
X172264850Y-82894528D01*
X172098254Y-82843992D01*
X171925000Y-82826928D01*
X171476007Y-82826928D01*
X171065000Y-82415922D01*
X171065000Y-79085598D01*
X171349744Y-78895338D01*
X171605338Y-78639744D01*
X171806156Y-78339199D01*
X171944482Y-78005250D01*
X172015000Y-77650732D01*
X172015000Y-77289268D01*
X171944482Y-76934750D01*
X171806156Y-76600801D01*
X171605338Y-76300256D01*
X171349744Y-76044662D01*
X171049199Y-75843844D01*
X170715250Y-75705518D01*
X170360732Y-75635000D01*
X169999268Y-75635000D01*
X169644750Y-75705518D01*
X169310801Y-75843844D01*
X169010256Y-76044662D01*
X168754662Y-76300256D01*
X168564402Y-76585000D01*
X160365598Y-76585000D01*
X160175338Y-76300256D01*
X159919744Y-76044662D01*
X159619199Y-75843844D01*
X159285250Y-75705518D01*
X158930732Y-75635000D01*
X158569268Y-75635000D01*
X158214750Y-75705518D01*
X157880801Y-75843844D01*
X157580256Y-76044662D01*
X157324662Y-76300256D01*
X157123844Y-76600801D01*
X156985518Y-76934750D01*
X156915000Y-77289268D01*
X156915000Y-77650732D01*
X156981811Y-77986611D01*
X156884951Y-78083471D01*
X156851184Y-78111183D01*
X156823471Y-78144951D01*
X156823468Y-78144954D01*
X156740590Y-78245941D01*
X156658412Y-78399687D01*
X156607805Y-78566510D01*
X156590719Y-78740000D01*
X156595001Y-78783479D01*
X156595000Y-80392024D01*
X156511614Y-80436595D01*
X156377038Y-80547038D01*
X156266595Y-80681614D01*
X156184528Y-80835150D01*
X156133992Y-81001746D01*
X156116928Y-81175000D01*
X156116928Y-81850000D01*
X156133992Y-82023254D01*
X156184528Y-82189850D01*
X156266595Y-82343386D01*
X156377038Y-82477962D01*
X156464817Y-82550000D01*
X156377038Y-82622038D01*
X156266595Y-82756614D01*
X156184528Y-82910150D01*
X156133992Y-83076746D01*
X156116928Y-83250000D01*
X156116928Y-83925000D01*
X156133992Y-84098254D01*
X156184528Y-84264850D01*
X156266595Y-84418386D01*
X156377038Y-84552962D01*
X156511614Y-84663405D01*
X156595000Y-84707976D01*
X156595001Y-88856521D01*
X156590719Y-88900000D01*
X156607805Y-89073490D01*
X156658412Y-89240313D01*
X156740590Y-89394059D01*
X156823468Y-89495046D01*
X156823469Y-89495047D01*
X156851184Y-89528817D01*
X156884951Y-89556529D01*
X157865000Y-90536579D01*
X157865000Y-90854402D01*
X157580256Y-91044662D01*
X157324662Y-91300256D01*
X157134402Y-91585000D01*
X155469079Y-91585000D01*
X155298072Y-91413993D01*
X155298072Y-90965000D01*
X155281008Y-90791746D01*
X155230472Y-90625150D01*
X155148405Y-90471614D01*
X155037962Y-90337038D01*
X154957500Y-90271005D01*
X154957500Y-90068995D01*
X155037962Y-90002962D01*
X155148405Y-89868386D01*
X155230472Y-89714850D01*
X155281008Y-89548254D01*
X155298072Y-89375000D01*
X155298072Y-88425000D01*
X155281008Y-88251746D01*
X155230472Y-88085150D01*
X155148405Y-87931614D01*
X155037962Y-87797038D01*
X154903386Y-87686595D01*
X154749850Y-87604528D01*
X154583254Y-87553992D01*
X154410000Y-87536928D01*
X153735000Y-87536928D01*
X153561746Y-87553992D01*
X153395150Y-87604528D01*
X153241614Y-87686595D01*
X153107038Y-87797038D01*
X153035000Y-87884817D01*
X152962962Y-87797038D01*
X152828386Y-87686595D01*
X152674850Y-87604528D01*
X152508254Y-87553992D01*
X152335000Y-87536928D01*
X151660000Y-87536928D01*
X151486746Y-87553992D01*
X151320150Y-87604528D01*
X151166614Y-87686595D01*
X151032038Y-87797038D01*
X150921595Y-87931614D01*
X150839528Y-88085150D01*
X150788992Y-88251746D01*
X150771928Y-88425000D01*
X150771928Y-89375000D01*
X150788992Y-89548254D01*
X150839528Y-89714850D01*
X150921595Y-89868386D01*
X151032038Y-90002962D01*
X151112500Y-90068995D01*
X151112501Y-90271005D01*
X151032038Y-90337038D01*
X150921595Y-90471614D01*
X150839528Y-90625150D01*
X150788992Y-90791746D01*
X150771928Y-90965000D01*
X150771928Y-91413994D01*
X150600922Y-91585000D01*
X148935598Y-91585000D01*
X148745338Y-91300256D01*
X148489744Y-91044662D01*
X148189199Y-90843844D01*
X147855250Y-90705518D01*
X147500732Y-90635000D01*
X147139268Y-90635000D01*
X146784750Y-90705518D01*
X146450801Y-90843844D01*
X146150256Y-91044662D01*
X145894662Y-91300256D01*
X145693844Y-91600801D01*
X145555518Y-91934750D01*
X145485000Y-92289268D01*
X137820000Y-92289268D01*
X137820000Y-89256890D01*
X138258524Y-89256890D01*
X138303175Y-89404099D01*
X138428359Y-89666920D01*
X138602412Y-89900269D01*
X138818645Y-90095178D01*
X139068748Y-90244157D01*
X139343109Y-90341481D01*
X139573000Y-90220814D01*
X139573000Y-89027000D01*
X139827000Y-89027000D01*
X139827000Y-90220814D01*
X140056891Y-90341481D01*
X140331252Y-90244157D01*
X140581355Y-90095178D01*
X140797588Y-89900269D01*
X140971641Y-89666920D01*
X141096825Y-89404099D01*
X141141476Y-89256890D01*
X141020155Y-89027000D01*
X139827000Y-89027000D01*
X139573000Y-89027000D01*
X138379845Y-89027000D01*
X138258524Y-89256890D01*
X137820000Y-89256890D01*
X137820000Y-86716890D01*
X138258524Y-86716890D01*
X138303175Y-86864099D01*
X138428359Y-87126920D01*
X138602412Y-87360269D01*
X138818645Y-87555178D01*
X138944255Y-87630000D01*
X138818645Y-87704822D01*
X138602412Y-87899731D01*
X138428359Y-88133080D01*
X138303175Y-88395901D01*
X138258524Y-88543110D01*
X138379845Y-88773000D01*
X139573000Y-88773000D01*
X139573000Y-86487000D01*
X139827000Y-86487000D01*
X139827000Y-88773000D01*
X141020155Y-88773000D01*
X141141476Y-88543110D01*
X141096825Y-88395901D01*
X140971641Y-88133080D01*
X140797588Y-87899731D01*
X140581355Y-87704822D01*
X140455745Y-87630000D01*
X140581355Y-87555178D01*
X140797588Y-87360269D01*
X140971641Y-87126920D01*
X141096825Y-86864099D01*
X141141476Y-86716890D01*
X141140479Y-86715000D01*
X142146928Y-86715000D01*
X142159188Y-86839482D01*
X142195498Y-86959180D01*
X142254463Y-87069494D01*
X142333815Y-87166185D01*
X142430506Y-87245537D01*
X142540820Y-87304502D01*
X142660518Y-87340812D01*
X142785000Y-87353072D01*
X143224250Y-87350000D01*
X143383000Y-87191250D01*
X143383000Y-86254500D01*
X143637000Y-86254500D01*
X143637000Y-87191250D01*
X143795750Y-87350000D01*
X144235000Y-87353072D01*
X144359482Y-87340812D01*
X144479180Y-87304502D01*
X144589494Y-87245537D01*
X144686185Y-87166185D01*
X144765537Y-87069494D01*
X144824502Y-86959180D01*
X144860812Y-86839482D01*
X144873072Y-86715000D01*
X144870000Y-86413250D01*
X144711250Y-86254500D01*
X143637000Y-86254500D01*
X143383000Y-86254500D01*
X142308750Y-86254500D01*
X142150000Y-86413250D01*
X142146928Y-86715000D01*
X141140479Y-86715000D01*
X141020155Y-86487000D01*
X139827000Y-86487000D01*
X139573000Y-86487000D01*
X138379845Y-86487000D01*
X138258524Y-86716890D01*
X137820000Y-86716890D01*
X137820000Y-84176890D01*
X138258524Y-84176890D01*
X138303175Y-84324099D01*
X138428359Y-84586920D01*
X138602412Y-84820269D01*
X138818645Y-85015178D01*
X138944255Y-85090000D01*
X138818645Y-85164822D01*
X138602412Y-85359731D01*
X138428359Y-85593080D01*
X138303175Y-85855901D01*
X138258524Y-86003110D01*
X138379845Y-86233000D01*
X139573000Y-86233000D01*
X139573000Y-83947000D01*
X139827000Y-83947000D01*
X139827000Y-86233000D01*
X141020155Y-86233000D01*
X141141476Y-86003110D01*
X141096825Y-85855901D01*
X140971641Y-85593080D01*
X140797588Y-85359731D01*
X140581355Y-85164822D01*
X140455745Y-85090000D01*
X140581355Y-85015178D01*
X140797588Y-84820269D01*
X140971641Y-84586920D01*
X141096825Y-84324099D01*
X141141476Y-84176890D01*
X141020155Y-83947000D01*
X139827000Y-83947000D01*
X139573000Y-83947000D01*
X138379845Y-83947000D01*
X138258524Y-84176890D01*
X137820000Y-84176890D01*
X137820000Y-80430000D01*
X138211928Y-80430000D01*
X138211928Y-82130000D01*
X138224188Y-82254482D01*
X138260498Y-82374180D01*
X138319463Y-82484494D01*
X138398815Y-82581185D01*
X138495506Y-82660537D01*
X138605820Y-82719502D01*
X138686466Y-82743966D01*
X138602412Y-82819731D01*
X138428359Y-83053080D01*
X138303175Y-83315901D01*
X138258524Y-83463110D01*
X138379845Y-83693000D01*
X139573000Y-83693000D01*
X139573000Y-83673000D01*
X139827000Y-83673000D01*
X139827000Y-83693000D01*
X141020155Y-83693000D01*
X141141476Y-83463110D01*
X141096825Y-83315901D01*
X140971641Y-83053080D01*
X140797588Y-82819731D01*
X140713534Y-82743966D01*
X140794180Y-82719502D01*
X140904494Y-82660537D01*
X141001185Y-82581185D01*
X141080537Y-82484494D01*
X141139502Y-82374180D01*
X141175812Y-82254482D01*
X141184625Y-82165000D01*
X141873422Y-82165000D01*
X142625000Y-82916579D01*
X142625000Y-82932024D01*
X142541614Y-82976595D01*
X142407038Y-83087038D01*
X142296595Y-83221614D01*
X142214528Y-83375150D01*
X142163992Y-83541746D01*
X142146928Y-83715000D01*
X142146928Y-84390000D01*
X142163992Y-84563254D01*
X142214528Y-84729850D01*
X142296595Y-84883386D01*
X142407038Y-85017962D01*
X142413594Y-85023342D01*
X142333815Y-85088815D01*
X142254463Y-85185506D01*
X142195498Y-85295820D01*
X142159188Y-85415518D01*
X142146928Y-85540000D01*
X142150000Y-85841750D01*
X142308750Y-86000500D01*
X143383000Y-86000500D01*
X143383000Y-85980500D01*
X143637000Y-85980500D01*
X143637000Y-86000500D01*
X144711250Y-86000500D01*
X144870000Y-85841750D01*
X144873072Y-85540000D01*
X144860812Y-85415518D01*
X144824502Y-85295820D01*
X144765537Y-85185506D01*
X144686185Y-85088815D01*
X144606406Y-85023342D01*
X144612962Y-85017962D01*
X144723405Y-84883386D01*
X144805472Y-84729850D01*
X144856008Y-84563254D01*
X144873072Y-84390000D01*
X144873072Y-83715000D01*
X144856008Y-83541746D01*
X144805472Y-83375150D01*
X144723405Y-83221614D01*
X144612962Y-83087038D01*
X144478386Y-82976595D01*
X144395000Y-82932024D01*
X144395000Y-82593465D01*
X144399281Y-82549999D01*
X144395000Y-82506533D01*
X144395000Y-82506523D01*
X144382195Y-82376510D01*
X144331589Y-82209687D01*
X144249411Y-82055941D01*
X144138817Y-81921183D01*
X144105050Y-81893471D01*
X143491578Y-81280000D01*
X146013248Y-78758330D01*
X146150256Y-78895338D01*
X146450801Y-79096156D01*
X146784750Y-79234482D01*
X147139268Y-79305000D01*
X147500732Y-79305000D01*
X147855250Y-79234482D01*
X148189199Y-79096156D01*
X148489744Y-78895338D01*
X148745338Y-78639744D01*
X148946156Y-78339199D01*
X149084482Y-78005250D01*
X149155000Y-77650732D01*
X149155000Y-77289268D01*
X149084482Y-76934750D01*
X148946156Y-76600801D01*
X148745338Y-76300256D01*
X148489744Y-76044662D01*
X148189199Y-75843844D01*
X147855250Y-75705518D01*
X147500732Y-75635000D01*
X147139268Y-75635000D01*
X146784750Y-75705518D01*
X146450801Y-75843844D01*
X146150256Y-76044662D01*
X145894662Y-76300256D01*
X145693844Y-76600801D01*
X145664011Y-76672825D01*
X145555941Y-76730589D01*
X145454953Y-76813468D01*
X145454951Y-76813470D01*
X145421183Y-76841183D01*
X145393470Y-76874951D01*
X141873422Y-80395000D01*
X141184625Y-80395000D01*
X141175812Y-80305518D01*
X141139502Y-80185820D01*
X141080537Y-80075506D01*
X141001185Y-79978815D01*
X140904494Y-79899463D01*
X140794180Y-79840498D01*
X140674482Y-79804188D01*
X140550000Y-79791928D01*
X138850000Y-79791928D01*
X138725518Y-79804188D01*
X138605820Y-79840498D01*
X138495506Y-79899463D01*
X138398815Y-79978815D01*
X138319463Y-80075506D01*
X138260498Y-80185820D01*
X138224188Y-80305518D01*
X138211928Y-80430000D01*
X137820000Y-80430000D01*
X137820000Y-76232279D01*
X137834722Y-76082131D01*
X137868953Y-75968754D01*
X137924555Y-75864181D01*
X137999407Y-75772404D01*
X138090664Y-75696909D01*
X138194844Y-75640581D01*
X138307976Y-75605560D01*
X138456022Y-75590000D01*
X179037721Y-75590000D01*
X179187869Y-75604722D01*
%TA.AperFunction,Conductor*%
D16*
G36*
X179187869Y-75604722D02*
G01*
X179301246Y-75638953D01*
X179405819Y-75694555D01*
X179497596Y-75769407D01*
X179573091Y-75860664D01*
X179629419Y-75964844D01*
X179664440Y-76077976D01*
X179680001Y-76226031D01*
X179680000Y-93947721D01*
X179665278Y-94097869D01*
X179631047Y-94211246D01*
X179575446Y-94315817D01*
X179500594Y-94407595D01*
X179409335Y-94483091D01*
X179305160Y-94539419D01*
X179192024Y-94574440D01*
X179043979Y-94590000D01*
X138462279Y-94590000D01*
X138312131Y-94575278D01*
X138198754Y-94541047D01*
X138094183Y-94485446D01*
X138002405Y-94410594D01*
X137926909Y-94319335D01*
X137870581Y-94215160D01*
X137835560Y-94102024D01*
X137820000Y-93953979D01*
X137820000Y-92289268D01*
X145485000Y-92289268D01*
X145485000Y-92650732D01*
X145555518Y-93005250D01*
X145693844Y-93339199D01*
X145894662Y-93639744D01*
X146150256Y-93895338D01*
X146450801Y-94096156D01*
X146784750Y-94234482D01*
X147139268Y-94305000D01*
X147500732Y-94305000D01*
X147855250Y-94234482D01*
X148189199Y-94096156D01*
X148489744Y-93895338D01*
X148745338Y-93639744D01*
X148935598Y-93355000D01*
X150924031Y-93355000D01*
X150967500Y-93359281D01*
X151010969Y-93355000D01*
X151010977Y-93355000D01*
X151140990Y-93342195D01*
X151307813Y-93291589D01*
X151461559Y-93209411D01*
X151596317Y-93098817D01*
X151624034Y-93065044D01*
X151886006Y-92803072D01*
X152335000Y-92803072D01*
X152508254Y-92786008D01*
X152674850Y-92735472D01*
X152828386Y-92653405D01*
X152962962Y-92542962D01*
X153035000Y-92455183D01*
X153107038Y-92542962D01*
X153241614Y-92653405D01*
X153395150Y-92735472D01*
X153561746Y-92786008D01*
X153735000Y-92803072D01*
X154183993Y-92803072D01*
X154445970Y-93065049D01*
X154473683Y-93098817D01*
X154507451Y-93126530D01*
X154507453Y-93126532D01*
X154578952Y-93185210D01*
X154608441Y-93209411D01*
X154762187Y-93291589D01*
X154867761Y-93323615D01*
X154929009Y-93342195D01*
X154943806Y-93343652D01*
X155059023Y-93355000D01*
X155059031Y-93355000D01*
X155102500Y-93359281D01*
X155145969Y-93355000D01*
X157134402Y-93355000D01*
X157324662Y-93639744D01*
X157580256Y-93895338D01*
X157880801Y-94096156D01*
X158214750Y-94234482D01*
X158569268Y-94305000D01*
X158930732Y-94305000D01*
X159285250Y-94234482D01*
X159619199Y-94096156D01*
X159919744Y-93895338D01*
X160175338Y-93639744D01*
X160376156Y-93339199D01*
X160514482Y-93005250D01*
X160585000Y-92650732D01*
X160585000Y-92289268D01*
X160514482Y-91934750D01*
X160376156Y-91600801D01*
X160175338Y-91300256D01*
X159919744Y-91044662D01*
X159635000Y-90854402D01*
X159635000Y-90536578D01*
X160278507Y-89893072D01*
X160495000Y-89893072D01*
X160668254Y-89876008D01*
X160834850Y-89825472D01*
X160988386Y-89743405D01*
X161122962Y-89632962D01*
X161233405Y-89498386D01*
X161315472Y-89344850D01*
X161366008Y-89178254D01*
X161383072Y-89005000D01*
X161383072Y-88330000D01*
X161366008Y-88156746D01*
X161315472Y-87990150D01*
X161233405Y-87836614D01*
X161122962Y-87702038D01*
X161116406Y-87696658D01*
X161196185Y-87631185D01*
X161275537Y-87534494D01*
X161334502Y-87424180D01*
X161370812Y-87304482D01*
X161383072Y-87180000D01*
X161380000Y-86878250D01*
X161221250Y-86719500D01*
X160147000Y-86719500D01*
X160147000Y-86739500D01*
X159893000Y-86739500D01*
X159893000Y-86719500D01*
X158818750Y-86719500D01*
X158660000Y-86878250D01*
X158656928Y-87180000D01*
X158669188Y-87304482D01*
X158705498Y-87424180D01*
X158764463Y-87534494D01*
X158843815Y-87631185D01*
X158923594Y-87696658D01*
X158917038Y-87702038D01*
X158806595Y-87836614D01*
X158724528Y-87990150D01*
X158673992Y-88156746D01*
X158656928Y-88330000D01*
X158656928Y-88825350D01*
X158365000Y-88533422D01*
X158365000Y-86005000D01*
X158656928Y-86005000D01*
X158660000Y-86306750D01*
X158818750Y-86465500D01*
X159893000Y-86465500D01*
X159893000Y-85528750D01*
X160147000Y-85528750D01*
X160147000Y-86465500D01*
X161221250Y-86465500D01*
X161380000Y-86306750D01*
X161383072Y-86005000D01*
X161370812Y-85880518D01*
X161334502Y-85760820D01*
X161275537Y-85650506D01*
X161196185Y-85553815D01*
X161099494Y-85474463D01*
X160989180Y-85415498D01*
X160869482Y-85379188D01*
X160745000Y-85366928D01*
X160305750Y-85370000D01*
X160147000Y-85528750D01*
X159893000Y-85528750D01*
X159734250Y-85370000D01*
X159295000Y-85366928D01*
X159170518Y-85379188D01*
X159050820Y-85415498D01*
X158940506Y-85474463D01*
X158843815Y-85553815D01*
X158764463Y-85650506D01*
X158705498Y-85760820D01*
X158669188Y-85880518D01*
X158656928Y-86005000D01*
X158365000Y-86005000D01*
X158365000Y-84707976D01*
X158448386Y-84663405D01*
X158582962Y-84552962D01*
X158693405Y-84418386D01*
X158700966Y-84404240D01*
X158705498Y-84419180D01*
X158764463Y-84529494D01*
X158843815Y-84626185D01*
X158940506Y-84705537D01*
X159050820Y-84764502D01*
X159170518Y-84800812D01*
X159295000Y-84813072D01*
X159734250Y-84810000D01*
X159893000Y-84651250D01*
X159893000Y-83714500D01*
X160147000Y-83714500D01*
X160147000Y-84651250D01*
X160305750Y-84810000D01*
X160745000Y-84813072D01*
X160869482Y-84800812D01*
X160989180Y-84764502D01*
X161099494Y-84705537D01*
X161196185Y-84626185D01*
X161275537Y-84529494D01*
X161334502Y-84419180D01*
X161370812Y-84299482D01*
X161383072Y-84175000D01*
X161380000Y-83873250D01*
X161221250Y-83714500D01*
X160147000Y-83714500D01*
X159893000Y-83714500D01*
X159873000Y-83714500D01*
X159873000Y-83465000D01*
X167546928Y-83465000D01*
X167550000Y-83766750D01*
X167708750Y-83925500D01*
X168783000Y-83925500D01*
X168783000Y-82988750D01*
X168624250Y-82830000D01*
X168185000Y-82826928D01*
X168060518Y-82839188D01*
X167940820Y-82875498D01*
X167830506Y-82934463D01*
X167733815Y-83013815D01*
X167654463Y-83110506D01*
X167595498Y-83220820D01*
X167559188Y-83340518D01*
X167546928Y-83465000D01*
X159873000Y-83465000D01*
X159873000Y-83460500D01*
X159893000Y-83460500D01*
X159893000Y-83440500D01*
X160147000Y-83440500D01*
X160147000Y-83460500D01*
X161221250Y-83460500D01*
X161380000Y-83301750D01*
X161383072Y-83000000D01*
X161370812Y-82875518D01*
X161334502Y-82755820D01*
X161275537Y-82645506D01*
X161196185Y-82548815D01*
X161116406Y-82483342D01*
X161122962Y-82477962D01*
X161233405Y-82343386D01*
X161315472Y-82189850D01*
X161366008Y-82023254D01*
X161383072Y-81850000D01*
X161383072Y-81175000D01*
X161366008Y-81001746D01*
X161315472Y-80835150D01*
X161233405Y-80681614D01*
X161122962Y-80547038D01*
X160988386Y-80436595D01*
X160834850Y-80354528D01*
X160668254Y-80303992D01*
X160495000Y-80286928D01*
X159545000Y-80286928D01*
X159371746Y-80303992D01*
X159205150Y-80354528D01*
X159051614Y-80436595D01*
X158917038Y-80547038D01*
X158851005Y-80627500D01*
X158648995Y-80627500D01*
X158582962Y-80547038D01*
X158448386Y-80436595D01*
X158365000Y-80392024D01*
X158365000Y-79264369D01*
X158569268Y-79305000D01*
X158930732Y-79305000D01*
X159285250Y-79234482D01*
X159619199Y-79096156D01*
X159919744Y-78895338D01*
X160175338Y-78639744D01*
X160365598Y-78355000D01*
X168564402Y-78355000D01*
X168754662Y-78639744D01*
X169010256Y-78895338D01*
X169295000Y-79085598D01*
X169295001Y-82739021D01*
X169290719Y-82782500D01*
X169295328Y-82829304D01*
X169195750Y-82830000D01*
X169037000Y-82988750D01*
X169037000Y-83925500D01*
X169057000Y-83925500D01*
X169057000Y-84179500D01*
X169037000Y-84179500D01*
X169037000Y-84199500D01*
X168783000Y-84199500D01*
X168783000Y-84179500D01*
X167708750Y-84179500D01*
X167550000Y-84338250D01*
X167546928Y-84640000D01*
X167559188Y-84764482D01*
X167595498Y-84884180D01*
X167654463Y-84994494D01*
X167733815Y-85091185D01*
X167813594Y-85156658D01*
X167807038Y-85162038D01*
X167696595Y-85296614D01*
X167614528Y-85450150D01*
X167563992Y-85616746D01*
X167546928Y-85790000D01*
X167546928Y-86465000D01*
X167563992Y-86638254D01*
X167614528Y-86804850D01*
X167696595Y-86958386D01*
X167807038Y-87092962D01*
X167941614Y-87203405D01*
X168025000Y-87247976D01*
X168025001Y-91156521D01*
X168020719Y-91200000D01*
X168037805Y-91373490D01*
X168088412Y-91540313D01*
X168170590Y-91694059D01*
X168253468Y-91795046D01*
X168253471Y-91795049D01*
X168281184Y-91828817D01*
X168314951Y-91856529D01*
X168411811Y-91953389D01*
X168345000Y-92289268D01*
X168345000Y-92650732D01*
X168415518Y-93005250D01*
X168553844Y-93339199D01*
X168754662Y-93639744D01*
X169010256Y-93895338D01*
X169310801Y-94096156D01*
X169644750Y-94234482D01*
X169999268Y-94305000D01*
X170360732Y-94305000D01*
X170715250Y-94234482D01*
X171049199Y-94096156D01*
X171349744Y-93895338D01*
X171605338Y-93639744D01*
X171806156Y-93339199D01*
X171944482Y-93005250D01*
X172015000Y-92650732D01*
X172015000Y-92289268D01*
X171944482Y-91934750D01*
X171806156Y-91600801D01*
X171605338Y-91300256D01*
X171349744Y-91044662D01*
X171049199Y-90843844D01*
X170715250Y-90705518D01*
X170360732Y-90635000D01*
X169999268Y-90635000D01*
X169795000Y-90675631D01*
X169795000Y-89256890D01*
X176358524Y-89256890D01*
X176403175Y-89404099D01*
X176528359Y-89666920D01*
X176702412Y-89900269D01*
X176918645Y-90095178D01*
X177168748Y-90244157D01*
X177443109Y-90341481D01*
X177673000Y-90220814D01*
X177673000Y-89027000D01*
X177927000Y-89027000D01*
X177927000Y-90220814D01*
X178156891Y-90341481D01*
X178431252Y-90244157D01*
X178681355Y-90095178D01*
X178897588Y-89900269D01*
X179071641Y-89666920D01*
X179196825Y-89404099D01*
X179241476Y-89256890D01*
X179120155Y-89027000D01*
X177927000Y-89027000D01*
X177673000Y-89027000D01*
X176479845Y-89027000D01*
X176358524Y-89256890D01*
X169795000Y-89256890D01*
X169795000Y-87247976D01*
X169878386Y-87203405D01*
X170012962Y-87092962D01*
X170078995Y-87012500D01*
X170281005Y-87012500D01*
X170347038Y-87092962D01*
X170481614Y-87203405D01*
X170635150Y-87285472D01*
X170801746Y-87336008D01*
X170975000Y-87353072D01*
X171925000Y-87353072D01*
X172098254Y-87336008D01*
X172264850Y-87285472D01*
X172418386Y-87203405D01*
X172552962Y-87092962D01*
X172618995Y-87012500D01*
X172909031Y-87012500D01*
X172952500Y-87016781D01*
X172995969Y-87012500D01*
X172995977Y-87012500D01*
X173125990Y-86999695D01*
X173292813Y-86949089D01*
X173446559Y-86866911D01*
X173581317Y-86756317D01*
X173609034Y-86722544D01*
X173614688Y-86716890D01*
X176358524Y-86716890D01*
X176403175Y-86864099D01*
X176528359Y-87126920D01*
X176702412Y-87360269D01*
X176918645Y-87555178D01*
X177044255Y-87630000D01*
X176918645Y-87704822D01*
X176702412Y-87899731D01*
X176528359Y-88133080D01*
X176403175Y-88395901D01*
X176358524Y-88543110D01*
X176479845Y-88773000D01*
X177673000Y-88773000D01*
X177673000Y-86487000D01*
X177927000Y-86487000D01*
X177927000Y-88773000D01*
X179120155Y-88773000D01*
X179241476Y-88543110D01*
X179196825Y-88395901D01*
X179071641Y-88133080D01*
X178897588Y-87899731D01*
X178681355Y-87704822D01*
X178555745Y-87630000D01*
X178681355Y-87555178D01*
X178897588Y-87360269D01*
X179071641Y-87126920D01*
X179196825Y-86864099D01*
X179241476Y-86716890D01*
X179120155Y-86487000D01*
X177927000Y-86487000D01*
X177673000Y-86487000D01*
X176479845Y-86487000D01*
X176358524Y-86716890D01*
X173614688Y-86716890D01*
X176384577Y-83947002D01*
X176479844Y-83947002D01*
X176358524Y-84176890D01*
X176403175Y-84324099D01*
X176528359Y-84586920D01*
X176702412Y-84820269D01*
X176918645Y-85015178D01*
X177044255Y-85090000D01*
X176918645Y-85164822D01*
X176702412Y-85359731D01*
X176528359Y-85593080D01*
X176403175Y-85855901D01*
X176358524Y-86003110D01*
X176479845Y-86233000D01*
X177673000Y-86233000D01*
X177673000Y-83947000D01*
X177927000Y-83947000D01*
X177927000Y-86233000D01*
X179120155Y-86233000D01*
X179241476Y-86003110D01*
X179196825Y-85855901D01*
X179071641Y-85593080D01*
X178897588Y-85359731D01*
X178681355Y-85164822D01*
X178555745Y-85090000D01*
X178681355Y-85015178D01*
X178897588Y-84820269D01*
X179071641Y-84586920D01*
X179196825Y-84324099D01*
X179241476Y-84176890D01*
X179120155Y-83947000D01*
X177927000Y-83947000D01*
X177673000Y-83947000D01*
X177653000Y-83947000D01*
X177653000Y-83693000D01*
X177673000Y-83693000D01*
X177673000Y-83673000D01*
X177927000Y-83673000D01*
X177927000Y-83693000D01*
X179120155Y-83693000D01*
X179241476Y-83463110D01*
X179196825Y-83315901D01*
X179071641Y-83053080D01*
X178897588Y-82819731D01*
X178813534Y-82743966D01*
X178894180Y-82719502D01*
X179004494Y-82660537D01*
X179101185Y-82581185D01*
X179180537Y-82484494D01*
X179239502Y-82374180D01*
X179275812Y-82254482D01*
X179288072Y-82130000D01*
X179288072Y-80430000D01*
X179275812Y-80305518D01*
X179239502Y-80185820D01*
X179180537Y-80075506D01*
X179101185Y-79978815D01*
X179004494Y-79899463D01*
X178894180Y-79840498D01*
X178774482Y-79804188D01*
X178650000Y-79791928D01*
X176950000Y-79791928D01*
X176825518Y-79804188D01*
X176705820Y-79840498D01*
X176595506Y-79899463D01*
X176498815Y-79978815D01*
X176419463Y-80075506D01*
X176360498Y-80185820D01*
X176324188Y-80305518D01*
X176311928Y-80430000D01*
X176311928Y-81516493D01*
X172604087Y-85224335D01*
X172552962Y-85162038D01*
X172465183Y-85090000D01*
X172552962Y-85017962D01*
X172663405Y-84883386D01*
X172745472Y-84729850D01*
X172796008Y-84563254D01*
X172813072Y-84390000D01*
X172813072Y-83715000D01*
X172796008Y-83541746D01*
X172745472Y-83375150D01*
X172663405Y-83221614D01*
X172552962Y-83087038D01*
X172418386Y-82976595D01*
X172264850Y-82894528D01*
X172098254Y-82843992D01*
X171925000Y-82826928D01*
X171476007Y-82826928D01*
X171065000Y-82415922D01*
X171065000Y-79085598D01*
X171349744Y-78895338D01*
X171605338Y-78639744D01*
X171806156Y-78339199D01*
X171944482Y-78005250D01*
X172015000Y-77650732D01*
X172015000Y-77289268D01*
X171944482Y-76934750D01*
X171806156Y-76600801D01*
X171605338Y-76300256D01*
X171349744Y-76044662D01*
X171049199Y-75843844D01*
X170715250Y-75705518D01*
X170360732Y-75635000D01*
X169999268Y-75635000D01*
X169644750Y-75705518D01*
X169310801Y-75843844D01*
X169010256Y-76044662D01*
X168754662Y-76300256D01*
X168564402Y-76585000D01*
X160365598Y-76585000D01*
X160175338Y-76300256D01*
X159919744Y-76044662D01*
X159619199Y-75843844D01*
X159285250Y-75705518D01*
X158930732Y-75635000D01*
X158569268Y-75635000D01*
X158214750Y-75705518D01*
X157880801Y-75843844D01*
X157580256Y-76044662D01*
X157324662Y-76300256D01*
X157123844Y-76600801D01*
X156985518Y-76934750D01*
X156915000Y-77289268D01*
X156915000Y-77650732D01*
X156981811Y-77986611D01*
X156884951Y-78083471D01*
X156851184Y-78111183D01*
X156823471Y-78144951D01*
X156823468Y-78144954D01*
X156740590Y-78245941D01*
X156658412Y-78399687D01*
X156607805Y-78566510D01*
X156590719Y-78740000D01*
X156595001Y-78783479D01*
X156595000Y-80392024D01*
X156511614Y-80436595D01*
X156377038Y-80547038D01*
X156266595Y-80681614D01*
X156184528Y-80835150D01*
X156133992Y-81001746D01*
X156116928Y-81175000D01*
X156116928Y-81850000D01*
X156133992Y-82023254D01*
X156184528Y-82189850D01*
X156266595Y-82343386D01*
X156377038Y-82477962D01*
X156464817Y-82550000D01*
X156377038Y-82622038D01*
X156266595Y-82756614D01*
X156184528Y-82910150D01*
X156133992Y-83076746D01*
X156116928Y-83250000D01*
X156116928Y-83925000D01*
X156133992Y-84098254D01*
X156184528Y-84264850D01*
X156266595Y-84418386D01*
X156377038Y-84552962D01*
X156511614Y-84663405D01*
X156595000Y-84707976D01*
X156595001Y-88856521D01*
X156590719Y-88900000D01*
X156607805Y-89073490D01*
X156658412Y-89240313D01*
X156740590Y-89394059D01*
X156823468Y-89495046D01*
X156823469Y-89495047D01*
X156851184Y-89528817D01*
X156884951Y-89556529D01*
X157865000Y-90536579D01*
X157865000Y-90854402D01*
X157580256Y-91044662D01*
X157324662Y-91300256D01*
X157134402Y-91585000D01*
X155469079Y-91585000D01*
X155298072Y-91413993D01*
X155298072Y-90965000D01*
X155281008Y-90791746D01*
X155230472Y-90625150D01*
X155148405Y-90471614D01*
X155037962Y-90337038D01*
X154957500Y-90271005D01*
X154957500Y-90068995D01*
X155037962Y-90002962D01*
X155148405Y-89868386D01*
X155230472Y-89714850D01*
X155281008Y-89548254D01*
X155298072Y-89375000D01*
X155298072Y-88425000D01*
X155281008Y-88251746D01*
X155230472Y-88085150D01*
X155148405Y-87931614D01*
X155037962Y-87797038D01*
X154903386Y-87686595D01*
X154749850Y-87604528D01*
X154583254Y-87553992D01*
X154410000Y-87536928D01*
X153735000Y-87536928D01*
X153561746Y-87553992D01*
X153395150Y-87604528D01*
X153241614Y-87686595D01*
X153107038Y-87797038D01*
X153035000Y-87884817D01*
X152962962Y-87797038D01*
X152828386Y-87686595D01*
X152674850Y-87604528D01*
X152508254Y-87553992D01*
X152335000Y-87536928D01*
X151660000Y-87536928D01*
X151486746Y-87553992D01*
X151320150Y-87604528D01*
X151166614Y-87686595D01*
X151032038Y-87797038D01*
X150921595Y-87931614D01*
X150839528Y-88085150D01*
X150788992Y-88251746D01*
X150771928Y-88425000D01*
X150771928Y-89375000D01*
X150788992Y-89548254D01*
X150839528Y-89714850D01*
X150921595Y-89868386D01*
X151032038Y-90002962D01*
X151112500Y-90068995D01*
X151112501Y-90271005D01*
X151032038Y-90337038D01*
X150921595Y-90471614D01*
X150839528Y-90625150D01*
X150788992Y-90791746D01*
X150771928Y-90965000D01*
X150771928Y-91413994D01*
X150600922Y-91585000D01*
X148935598Y-91585000D01*
X148745338Y-91300256D01*
X148489744Y-91044662D01*
X148189199Y-90843844D01*
X147855250Y-90705518D01*
X147500732Y-90635000D01*
X147139268Y-90635000D01*
X146784750Y-90705518D01*
X146450801Y-90843844D01*
X146150256Y-91044662D01*
X145894662Y-91300256D01*
X145693844Y-91600801D01*
X145555518Y-91934750D01*
X145485000Y-92289268D01*
X137820000Y-92289268D01*
X137820000Y-89256890D01*
X138258524Y-89256890D01*
X138303175Y-89404099D01*
X138428359Y-89666920D01*
X138602412Y-89900269D01*
X138818645Y-90095178D01*
X139068748Y-90244157D01*
X139343109Y-90341481D01*
X139573000Y-90220814D01*
X139573000Y-89027000D01*
X139827000Y-89027000D01*
X139827000Y-90220814D01*
X140056891Y-90341481D01*
X140331252Y-90244157D01*
X140581355Y-90095178D01*
X140797588Y-89900269D01*
X140971641Y-89666920D01*
X141096825Y-89404099D01*
X141141476Y-89256890D01*
X141020155Y-89027000D01*
X139827000Y-89027000D01*
X139573000Y-89027000D01*
X138379845Y-89027000D01*
X138258524Y-89256890D01*
X137820000Y-89256890D01*
X137820000Y-86716890D01*
X138258524Y-86716890D01*
X138303175Y-86864099D01*
X138428359Y-87126920D01*
X138602412Y-87360269D01*
X138818645Y-87555178D01*
X138944255Y-87630000D01*
X138818645Y-87704822D01*
X138602412Y-87899731D01*
X138428359Y-88133080D01*
X138303175Y-88395901D01*
X138258524Y-88543110D01*
X138379845Y-88773000D01*
X139573000Y-88773000D01*
X139573000Y-86487000D01*
X139827000Y-86487000D01*
X139827000Y-88773000D01*
X141020155Y-88773000D01*
X141141476Y-88543110D01*
X141096825Y-88395901D01*
X140971641Y-88133080D01*
X140797588Y-87899731D01*
X140581355Y-87704822D01*
X140455745Y-87630000D01*
X140581355Y-87555178D01*
X140797588Y-87360269D01*
X140971641Y-87126920D01*
X141096825Y-86864099D01*
X141141476Y-86716890D01*
X141140479Y-86715000D01*
X142146928Y-86715000D01*
X142159188Y-86839482D01*
X142195498Y-86959180D01*
X142254463Y-87069494D01*
X142333815Y-87166185D01*
X142430506Y-87245537D01*
X142540820Y-87304502D01*
X142660518Y-87340812D01*
X142785000Y-87353072D01*
X143224250Y-87350000D01*
X143383000Y-87191250D01*
X143383000Y-86254500D01*
X143637000Y-86254500D01*
X143637000Y-87191250D01*
X143795750Y-87350000D01*
X144235000Y-87353072D01*
X144359482Y-87340812D01*
X144479180Y-87304502D01*
X144589494Y-87245537D01*
X144686185Y-87166185D01*
X144765537Y-87069494D01*
X144824502Y-86959180D01*
X144860812Y-86839482D01*
X144873072Y-86715000D01*
X144870000Y-86413250D01*
X144711250Y-86254500D01*
X143637000Y-86254500D01*
X143383000Y-86254500D01*
X142308750Y-86254500D01*
X142150000Y-86413250D01*
X142146928Y-86715000D01*
X141140479Y-86715000D01*
X141020155Y-86487000D01*
X139827000Y-86487000D01*
X139573000Y-86487000D01*
X138379845Y-86487000D01*
X138258524Y-86716890D01*
X137820000Y-86716890D01*
X137820000Y-84176890D01*
X138258524Y-84176890D01*
X138303175Y-84324099D01*
X138428359Y-84586920D01*
X138602412Y-84820269D01*
X138818645Y-85015178D01*
X138944255Y-85090000D01*
X138818645Y-85164822D01*
X138602412Y-85359731D01*
X138428359Y-85593080D01*
X138303175Y-85855901D01*
X138258524Y-86003110D01*
X138379845Y-86233000D01*
X139573000Y-86233000D01*
X139573000Y-83947000D01*
X139827000Y-83947000D01*
X139827000Y-86233000D01*
X141020155Y-86233000D01*
X141141476Y-86003110D01*
X141096825Y-85855901D01*
X140971641Y-85593080D01*
X140797588Y-85359731D01*
X140581355Y-85164822D01*
X140455745Y-85090000D01*
X140581355Y-85015178D01*
X140797588Y-84820269D01*
X140971641Y-84586920D01*
X141096825Y-84324099D01*
X141141476Y-84176890D01*
X141020155Y-83947000D01*
X139827000Y-83947000D01*
X139573000Y-83947000D01*
X138379845Y-83947000D01*
X138258524Y-84176890D01*
X137820000Y-84176890D01*
X137820000Y-80430000D01*
X138211928Y-80430000D01*
X138211928Y-82130000D01*
X138224188Y-82254482D01*
X138260498Y-82374180D01*
X138319463Y-82484494D01*
X138398815Y-82581185D01*
X138495506Y-82660537D01*
X138605820Y-82719502D01*
X138686466Y-82743966D01*
X138602412Y-82819731D01*
X138428359Y-83053080D01*
X138303175Y-83315901D01*
X138258524Y-83463110D01*
X138379845Y-83693000D01*
X139573000Y-83693000D01*
X139573000Y-83673000D01*
X139827000Y-83673000D01*
X139827000Y-83693000D01*
X141020155Y-83693000D01*
X141141476Y-83463110D01*
X141096825Y-83315901D01*
X140971641Y-83053080D01*
X140797588Y-82819731D01*
X140713534Y-82743966D01*
X140794180Y-82719502D01*
X140904494Y-82660537D01*
X141001185Y-82581185D01*
X141080537Y-82484494D01*
X141139502Y-82374180D01*
X141175812Y-82254482D01*
X141184625Y-82165000D01*
X141873422Y-82165000D01*
X142625000Y-82916579D01*
X142625000Y-82932024D01*
X142541614Y-82976595D01*
X142407038Y-83087038D01*
X142296595Y-83221614D01*
X142214528Y-83375150D01*
X142163992Y-83541746D01*
X142146928Y-83715000D01*
X142146928Y-84390000D01*
X142163992Y-84563254D01*
X142214528Y-84729850D01*
X142296595Y-84883386D01*
X142407038Y-85017962D01*
X142413594Y-85023342D01*
X142333815Y-85088815D01*
X142254463Y-85185506D01*
X142195498Y-85295820D01*
X142159188Y-85415518D01*
X142146928Y-85540000D01*
X142150000Y-85841750D01*
X142308750Y-86000500D01*
X143383000Y-86000500D01*
X143383000Y-85980500D01*
X143637000Y-85980500D01*
X143637000Y-86000500D01*
X144711250Y-86000500D01*
X144870000Y-85841750D01*
X144873072Y-85540000D01*
X144860812Y-85415518D01*
X144824502Y-85295820D01*
X144765537Y-85185506D01*
X144686185Y-85088815D01*
X144606406Y-85023342D01*
X144612962Y-85017962D01*
X144723405Y-84883386D01*
X144805472Y-84729850D01*
X144856008Y-84563254D01*
X144873072Y-84390000D01*
X144873072Y-83715000D01*
X144856008Y-83541746D01*
X144805472Y-83375150D01*
X144723405Y-83221614D01*
X144612962Y-83087038D01*
X144478386Y-82976595D01*
X144395000Y-82932024D01*
X144395000Y-82593465D01*
X144399281Y-82549999D01*
X144395000Y-82506533D01*
X144395000Y-82506523D01*
X144382195Y-82376510D01*
X144331589Y-82209687D01*
X144249411Y-82055941D01*
X144138817Y-81921183D01*
X144105050Y-81893471D01*
X143491578Y-81280000D01*
X146013248Y-78758330D01*
X146150256Y-78895338D01*
X146450801Y-79096156D01*
X146784750Y-79234482D01*
X147139268Y-79305000D01*
X147500732Y-79305000D01*
X147855250Y-79234482D01*
X148189199Y-79096156D01*
X148489744Y-78895338D01*
X148745338Y-78639744D01*
X148946156Y-78339199D01*
X149084482Y-78005250D01*
X149155000Y-77650732D01*
X149155000Y-77289268D01*
X149084482Y-76934750D01*
X148946156Y-76600801D01*
X148745338Y-76300256D01*
X148489744Y-76044662D01*
X148189199Y-75843844D01*
X147855250Y-75705518D01*
X147500732Y-75635000D01*
X147139268Y-75635000D01*
X146784750Y-75705518D01*
X146450801Y-75843844D01*
X146150256Y-76044662D01*
X145894662Y-76300256D01*
X145693844Y-76600801D01*
X145664011Y-76672825D01*
X145555941Y-76730589D01*
X145454953Y-76813468D01*
X145454951Y-76813470D01*
X145421183Y-76841183D01*
X145393470Y-76874951D01*
X141873422Y-80395000D01*
X141184625Y-80395000D01*
X141175812Y-80305518D01*
X141139502Y-80185820D01*
X141080537Y-80075506D01*
X141001185Y-79978815D01*
X140904494Y-79899463D01*
X140794180Y-79840498D01*
X140674482Y-79804188D01*
X140550000Y-79791928D01*
X138850000Y-79791928D01*
X138725518Y-79804188D01*
X138605820Y-79840498D01*
X138495506Y-79899463D01*
X138398815Y-79978815D01*
X138319463Y-80075506D01*
X138260498Y-80185820D01*
X138224188Y-80305518D01*
X138211928Y-80430000D01*
X137820000Y-80430000D01*
X137820000Y-76232279D01*
X137834722Y-76082131D01*
X137868953Y-75968754D01*
X137924555Y-75864181D01*
X137999407Y-75772404D01*
X138090664Y-75696909D01*
X138194844Y-75640581D01*
X138307976Y-75605560D01*
X138456022Y-75590000D01*
X179037721Y-75590000D01*
X179187869Y-75604722D01*
G37*
%TD.AperFunction*%
%TD*%
M02*
