M48
; DRILL file {KiCad 5.1.10} date Wed Jun 16 13:21:47 2021
; FORMAT={-:-/ absolute / inch / decimal}
; #@! TF.CreationDate,2021-06-16T13:21:47+02:00
; #@! TF.GenerationSoftware,Kicad,Pcbnew,5.1.10
; #@! TF.FileFunction,Plated,1,2,PTH
FMAT,2
INCH
T1C0.0157
T2C0.0394
T3C0.0472
%
G90
G05
T1
X5.5Y-3.05
X5.5Y-3.65
X5.7Y-3.65
X5.9Y-3.05
X6.1Y-3.05
X6.4Y-3.65
X6.6Y-3.65
X6.8Y-3.05
X7.0Y-3.05
X7.0Y-3.65
T2
X5.5Y-3.2
X5.5Y-3.3
X5.5Y-3.4
X5.5Y-3.5
X7.0Y-3.2
X7.0Y-3.3
X7.0Y-3.4
X7.0Y-3.5
T3
X5.8Y-3.05
X5.8Y-3.6406
X6.25Y-3.05
X6.25Y-3.6406
X6.7Y-3.05
X6.7Y-3.6406
T0
M30
