%TF.GenerationSoftware,KiCad,Pcbnew,5.1.10*%
%TF.CreationDate,2021-06-16T13:21:42+02:00*%
%TF.ProjectId,filter,66696c74-6572-42e6-9b69-6361645f7063,rev?*%
%TF.SameCoordinates,Original*%
%TF.FileFunction,Legend,Bot*%
%TF.FilePolarity,Positive*%
%FSLAX46Y46*%
G04 Gerber Fmt 4.6, Leading zero omitted, Abs format (unit mm)*
G04 Created by KiCad (PCBNEW 5.1.10) date 2021-06-16 13:21:42*
%MOMM*%
%LPD*%
G01*
G04 APERTURE LIST*
%ADD10C,0.120000*%
%ADD11C,0.150000*%
G04 APERTURE END LIST*
D10*
%TO.C,L1*%
X171640000Y-89629099D02*
G75*
G03*
X171640000Y-80310901I-1460000J4659099D01*
G01*
X168720000Y-89629099D02*
G75*
G02*
X168720000Y-80310901I1460000J4659099D01*
G01*
X172663500Y-84970000D02*
G75*
G03*
X172663500Y-84970000I-2483500J0D01*
G01*
%TO.C,L101*%
X149803500Y-84970000D02*
G75*
G03*
X149803500Y-84970000I-2483500J0D01*
G01*
X145860000Y-89629099D02*
G75*
G02*
X145860000Y-80310901I1460000J4659099D01*
G01*
X148780000Y-89629099D02*
G75*
G03*
X148780000Y-80310901I-1460000J4659099D01*
G01*
%TO.C,J101*%
X141030000Y-90230000D02*
X138370000Y-90230000D01*
X141030000Y-82550000D02*
X141030000Y-90230000D01*
X138370000Y-82550000D02*
X138370000Y-90230000D01*
X141030000Y-82550000D02*
X138370000Y-82550000D01*
X141030000Y-81280000D02*
X141030000Y-79950000D01*
X141030000Y-79950000D02*
X139700000Y-79950000D01*
%TO.C,J102*%
X179130000Y-79950000D02*
X177800000Y-79950000D01*
X179130000Y-81280000D02*
X179130000Y-79950000D01*
X179130000Y-82550000D02*
X176470000Y-82550000D01*
X176470000Y-82550000D02*
X176470000Y-90230000D01*
X179130000Y-82550000D02*
X179130000Y-90230000D01*
X179130000Y-90230000D02*
X176470000Y-90230000D01*
%TO.C,L102*%
X161233500Y-84970000D02*
G75*
G03*
X161233500Y-84970000I-2483500J0D01*
G01*
X157290000Y-80310901D02*
G75*
G03*
X157290000Y-89629099I1460000J-4659099D01*
G01*
X160210000Y-80310901D02*
G75*
G02*
X160210000Y-89629099I-1460000J-4659099D01*
G01*
%TO.C,L1*%
D11*
X167806666Y-91257380D02*
X168282857Y-91257380D01*
X168282857Y-90257380D01*
X166949523Y-91257380D02*
X167520952Y-91257380D01*
X167235238Y-91257380D02*
X167235238Y-90257380D01*
X167330476Y-90400238D01*
X167425714Y-90495476D01*
X167520952Y-90543095D01*
%TO.C,L101*%
X144629047Y-91892380D02*
X145105238Y-91892380D01*
X145105238Y-90892380D01*
X143771904Y-91892380D02*
X144343333Y-91892380D01*
X144057619Y-91892380D02*
X144057619Y-90892380D01*
X144152857Y-91035238D01*
X144248095Y-91130476D01*
X144343333Y-91178095D01*
X143152857Y-90892380D02*
X143057619Y-90892380D01*
X142962380Y-90940000D01*
X142914761Y-90987619D01*
X142867142Y-91082857D01*
X142819523Y-91273333D01*
X142819523Y-91511428D01*
X142867142Y-91701904D01*
X142914761Y-91797142D01*
X142962380Y-91844761D01*
X143057619Y-91892380D01*
X143152857Y-91892380D01*
X143248095Y-91844761D01*
X143295714Y-91797142D01*
X143343333Y-91701904D01*
X143390952Y-91511428D01*
X143390952Y-91273333D01*
X143343333Y-91082857D01*
X143295714Y-90987619D01*
X143248095Y-90940000D01*
X143152857Y-90892380D01*
X141867142Y-91892380D02*
X142438571Y-91892380D01*
X142152857Y-91892380D02*
X142152857Y-90892380D01*
X142248095Y-91035238D01*
X142343333Y-91130476D01*
X142438571Y-91178095D01*
%TO.C,J101*%
X140985714Y-78402380D02*
X140985714Y-79116666D01*
X141033333Y-79259523D01*
X141128571Y-79354761D01*
X141271428Y-79402380D01*
X141366666Y-79402380D01*
X139985714Y-79402380D02*
X140557142Y-79402380D01*
X140271428Y-79402380D02*
X140271428Y-78402380D01*
X140366666Y-78545238D01*
X140461904Y-78640476D01*
X140557142Y-78688095D01*
X139366666Y-78402380D02*
X139271428Y-78402380D01*
X139176190Y-78450000D01*
X139128571Y-78497619D01*
X139080952Y-78592857D01*
X139033333Y-78783333D01*
X139033333Y-79021428D01*
X139080952Y-79211904D01*
X139128571Y-79307142D01*
X139176190Y-79354761D01*
X139271428Y-79402380D01*
X139366666Y-79402380D01*
X139461904Y-79354761D01*
X139509523Y-79307142D01*
X139557142Y-79211904D01*
X139604761Y-79021428D01*
X139604761Y-78783333D01*
X139557142Y-78592857D01*
X139509523Y-78497619D01*
X139461904Y-78450000D01*
X139366666Y-78402380D01*
X138080952Y-79402380D02*
X138652380Y-79402380D01*
X138366666Y-79402380D02*
X138366666Y-78402380D01*
X138461904Y-78545238D01*
X138557142Y-78640476D01*
X138652380Y-78688095D01*
%TO.C,J102*%
X179085714Y-78402380D02*
X179085714Y-79116666D01*
X179133333Y-79259523D01*
X179228571Y-79354761D01*
X179371428Y-79402380D01*
X179466666Y-79402380D01*
X178085714Y-79402380D02*
X178657142Y-79402380D01*
X178371428Y-79402380D02*
X178371428Y-78402380D01*
X178466666Y-78545238D01*
X178561904Y-78640476D01*
X178657142Y-78688095D01*
X177466666Y-78402380D02*
X177371428Y-78402380D01*
X177276190Y-78450000D01*
X177228571Y-78497619D01*
X177180952Y-78592857D01*
X177133333Y-78783333D01*
X177133333Y-79021428D01*
X177180952Y-79211904D01*
X177228571Y-79307142D01*
X177276190Y-79354761D01*
X177371428Y-79402380D01*
X177466666Y-79402380D01*
X177561904Y-79354761D01*
X177609523Y-79307142D01*
X177657142Y-79211904D01*
X177704761Y-79021428D01*
X177704761Y-78783333D01*
X177657142Y-78592857D01*
X177609523Y-78497619D01*
X177561904Y-78450000D01*
X177466666Y-78402380D01*
X176752380Y-78497619D02*
X176704761Y-78450000D01*
X176609523Y-78402380D01*
X176371428Y-78402380D01*
X176276190Y-78450000D01*
X176228571Y-78497619D01*
X176180952Y-78592857D01*
X176180952Y-78688095D01*
X176228571Y-78830952D01*
X176800000Y-79402380D01*
X176180952Y-79402380D01*
%TO.C,L102*%
X156059047Y-91892380D02*
X156535238Y-91892380D01*
X156535238Y-90892380D01*
X155201904Y-91892380D02*
X155773333Y-91892380D01*
X155487619Y-91892380D02*
X155487619Y-90892380D01*
X155582857Y-91035238D01*
X155678095Y-91130476D01*
X155773333Y-91178095D01*
X154582857Y-90892380D02*
X154487619Y-90892380D01*
X154392380Y-90940000D01*
X154344761Y-90987619D01*
X154297142Y-91082857D01*
X154249523Y-91273333D01*
X154249523Y-91511428D01*
X154297142Y-91701904D01*
X154344761Y-91797142D01*
X154392380Y-91844761D01*
X154487619Y-91892380D01*
X154582857Y-91892380D01*
X154678095Y-91844761D01*
X154725714Y-91797142D01*
X154773333Y-91701904D01*
X154820952Y-91511428D01*
X154820952Y-91273333D01*
X154773333Y-91082857D01*
X154725714Y-90987619D01*
X154678095Y-90940000D01*
X154582857Y-90892380D01*
X153868571Y-90987619D02*
X153820952Y-90940000D01*
X153725714Y-90892380D01*
X153487619Y-90892380D01*
X153392380Y-90940000D01*
X153344761Y-90987619D01*
X153297142Y-91082857D01*
X153297142Y-91178095D01*
X153344761Y-91320952D01*
X153916190Y-91892380D01*
X153297142Y-91892380D01*
%TD*%
M02*
