%TF.GenerationSoftware,KiCad,Pcbnew,5.1.10*%
%TF.CreationDate,2021-06-16T20:56:35+02:00*%
%TF.ProjectId,filter,66696c74-6572-42e6-9b69-6361645f7063,rev?*%
%TF.SameCoordinates,Original*%
%TF.FileFunction,Legend,Top*%
%TF.FilePolarity,Positive*%
%FSLAX46Y46*%
G04 Gerber Fmt 4.6, Leading zero omitted, Abs format (unit mm)*
G04 Created by KiCad (PCBNEW 5.1.10) date 2021-06-16 20:56:35*
%MOMM*%
%LPD*%
G01*
G04 APERTURE LIST*
%ADD10C,0.400000*%
%ADD11C,0.100000*%
%ADD12C,0.120000*%
G04 APERTURE END LIST*
D10*
X154924285Y-87717142D02*
X154924285Y-85717142D01*
X154924285Y-86002857D02*
X155067142Y-85860000D01*
X155352857Y-85717142D01*
X155781428Y-85717142D01*
X156067142Y-85860000D01*
X156210000Y-86145714D01*
X156210000Y-87717142D01*
X156210000Y-86145714D02*
X156352857Y-85860000D01*
X156638571Y-85717142D01*
X157067142Y-85717142D01*
X157352857Y-85860000D01*
X157495714Y-86145714D01*
X157495714Y-87717142D01*
D11*
G36*
X153670000Y-87630000D02*
G01*
X146050000Y-87630000D01*
X146050000Y-80010000D01*
X153670000Y-80010000D01*
X153670000Y-87630000D01*
G37*
X153670000Y-87630000D02*
X146050000Y-87630000D01*
X146050000Y-80010000D01*
X153670000Y-80010000D01*
X153670000Y-87630000D01*
D12*
%TO.C,C2*%
X169645000Y-84828748D02*
X169645000Y-85351252D01*
X168175000Y-84828748D02*
X168175000Y-85351252D01*
%TO.C,C1*%
X170715000Y-84828748D02*
X170715000Y-85351252D01*
X172185000Y-84828748D02*
X172185000Y-85351252D01*
%TO.C,C101*%
X153296252Y-90705000D02*
X152773748Y-90705000D01*
X153296252Y-92175000D02*
X152773748Y-92175000D01*
%TO.C,C102*%
X158215000Y-82811252D02*
X158215000Y-82288748D01*
X156745000Y-82811252D02*
X156745000Y-82288748D01*
%TO.C,C103*%
X153296252Y-89635000D02*
X152773748Y-89635000D01*
X153296252Y-88165000D02*
X152773748Y-88165000D01*
%TO.C,C104*%
X142775000Y-84828748D02*
X142775000Y-85351252D01*
X144245000Y-84828748D02*
X144245000Y-85351252D01*
%TO.C,C105*%
X160755000Y-87368748D02*
X160755000Y-87891252D01*
X159285000Y-87368748D02*
X159285000Y-87891252D01*
%TO.C,C106*%
X159285000Y-82811252D02*
X159285000Y-82288748D01*
X160755000Y-82811252D02*
X160755000Y-82288748D01*
%TD*%
M02*
