%TF.GenerationSoftware,KiCad,Pcbnew,5.1.10*%
%TF.CreationDate,2021-06-16T13:21:42+02:00*%
%TF.ProjectId,filter,66696c74-6572-42e6-9b69-6361645f7063,rev?*%
%TF.SameCoordinates,Original*%
%TF.FileFunction,Copper,L2,Bot*%
%TF.FilePolarity,Positive*%
%FSLAX46Y46*%
G04 Gerber Fmt 4.6, Leading zero omitted, Abs format (unit mm)*
G04 Created by KiCad (PCBNEW 5.1.10) date 2021-06-16 13:21:42*
%MOMM*%
%LPD*%
G01*
G04 APERTURE LIST*
%TA.AperFunction,ComponentPad*%
%ADD10C,2.400000*%
%TD*%
%TA.AperFunction,ComponentPad*%
%ADD11R,1.700000X1.700000*%
%TD*%
%TA.AperFunction,ComponentPad*%
%ADD12O,1.700000X1.700000*%
%TD*%
%TA.AperFunction,ViaPad*%
%ADD13C,0.800000*%
%TD*%
%TA.AperFunction,Conductor*%
%ADD14C,0.254000*%
%TD*%
%TA.AperFunction,Conductor*%
%ADD15C,0.100000*%
%TD*%
G04 APERTURE END LIST*
D10*
%TO.P,L1,2*%
%TO.N,Net-(C1-Pad2)*%
X170180000Y-92470000D03*
%TO.P,L1,1*%
%TO.N,Net-(C1-Pad1)*%
X170180000Y-77470000D03*
%TD*%
%TO.P,L101,1*%
%TO.N,Net-(C104-Pad1)*%
X147320000Y-77470000D03*
%TO.P,L101,2*%
%TO.N,Net-(C101-Pad2)*%
X147320000Y-92470000D03*
%TD*%
D11*
%TO.P,J101,1*%
%TO.N,Net-(C104-Pad1)*%
X139700000Y-81280000D03*
D12*
%TO.P,J101,2*%
%TO.N,GND*%
X139700000Y-83820000D03*
%TO.P,J101,3*%
X139700000Y-86360000D03*
%TO.P,J101,4*%
X139700000Y-88900000D03*
%TD*%
%TO.P,J102,4*%
%TO.N,GND*%
X177800000Y-88900000D03*
%TO.P,J102,3*%
X177800000Y-86360000D03*
%TO.P,J102,2*%
X177800000Y-83820000D03*
D11*
%TO.P,J102,1*%
%TO.N,Net-(C1-Pad2)*%
X177800000Y-81280000D03*
%TD*%
D10*
%TO.P,L102,2*%
%TO.N,Net-(C1-Pad1)*%
X158750000Y-77470000D03*
%TO.P,L102,1*%
%TO.N,Net-(C101-Pad1)*%
X158750000Y-92470000D03*
%TD*%
D13*
%TO.N,GND*%
X177800000Y-77470000D03*
X177800000Y-92710000D03*
X139700000Y-92710000D03*
X139700000Y-77470000D03*
X149860000Y-77470000D03*
X144780000Y-92710000D03*
X154940000Y-77470000D03*
X162560000Y-92710000D03*
X167640000Y-92710000D03*
X172720000Y-77470000D03*
%TD*%
D14*
%TO.N,GND*%
X179187869Y-75604722D02*
X179301246Y-75638953D01*
X179405819Y-75694555D01*
X179497596Y-75769407D01*
X179573091Y-75860664D01*
X179629419Y-75964844D01*
X179664440Y-76077976D01*
X179680001Y-76226031D01*
X179680000Y-93947721D01*
X179665278Y-94097869D01*
X179631047Y-94211246D01*
X179575446Y-94315817D01*
X179500594Y-94407595D01*
X179409335Y-94483091D01*
X179305160Y-94539419D01*
X179192024Y-94574440D01*
X179043979Y-94590000D01*
X138462279Y-94590000D01*
X138312131Y-94575278D01*
X138198754Y-94541047D01*
X138094183Y-94485446D01*
X138002405Y-94410594D01*
X137926909Y-94319335D01*
X137870581Y-94215160D01*
X137835560Y-94102024D01*
X137820000Y-93953979D01*
X137820000Y-92289268D01*
X145485000Y-92289268D01*
X145485000Y-92650732D01*
X145555518Y-93005250D01*
X145693844Y-93339199D01*
X145894662Y-93639744D01*
X146150256Y-93895338D01*
X146450801Y-94096156D01*
X146784750Y-94234482D01*
X147139268Y-94305000D01*
X147500732Y-94305000D01*
X147855250Y-94234482D01*
X148189199Y-94096156D01*
X148489744Y-93895338D01*
X148745338Y-93639744D01*
X148946156Y-93339199D01*
X149084482Y-93005250D01*
X149155000Y-92650732D01*
X149155000Y-92289268D01*
X156915000Y-92289268D01*
X156915000Y-92650732D01*
X156985518Y-93005250D01*
X157123844Y-93339199D01*
X157324662Y-93639744D01*
X157580256Y-93895338D01*
X157880801Y-94096156D01*
X158214750Y-94234482D01*
X158569268Y-94305000D01*
X158930732Y-94305000D01*
X159285250Y-94234482D01*
X159619199Y-94096156D01*
X159919744Y-93895338D01*
X160175338Y-93639744D01*
X160376156Y-93339199D01*
X160514482Y-93005250D01*
X160585000Y-92650732D01*
X160585000Y-92289268D01*
X168345000Y-92289268D01*
X168345000Y-92650732D01*
X168415518Y-93005250D01*
X168553844Y-93339199D01*
X168754662Y-93639744D01*
X169010256Y-93895338D01*
X169310801Y-94096156D01*
X169644750Y-94234482D01*
X169999268Y-94305000D01*
X170360732Y-94305000D01*
X170715250Y-94234482D01*
X171049199Y-94096156D01*
X171349744Y-93895338D01*
X171605338Y-93639744D01*
X171806156Y-93339199D01*
X171944482Y-93005250D01*
X172015000Y-92650732D01*
X172015000Y-92289268D01*
X171944482Y-91934750D01*
X171806156Y-91600801D01*
X171605338Y-91300256D01*
X171349744Y-91044662D01*
X171049199Y-90843844D01*
X170715250Y-90705518D01*
X170360732Y-90635000D01*
X169999268Y-90635000D01*
X169644750Y-90705518D01*
X169310801Y-90843844D01*
X169010256Y-91044662D01*
X168754662Y-91300256D01*
X168553844Y-91600801D01*
X168415518Y-91934750D01*
X168345000Y-92289268D01*
X160585000Y-92289268D01*
X160514482Y-91934750D01*
X160376156Y-91600801D01*
X160175338Y-91300256D01*
X159919744Y-91044662D01*
X159619199Y-90843844D01*
X159285250Y-90705518D01*
X158930732Y-90635000D01*
X158569268Y-90635000D01*
X158214750Y-90705518D01*
X157880801Y-90843844D01*
X157580256Y-91044662D01*
X157324662Y-91300256D01*
X157123844Y-91600801D01*
X156985518Y-91934750D01*
X156915000Y-92289268D01*
X149155000Y-92289268D01*
X149084482Y-91934750D01*
X148946156Y-91600801D01*
X148745338Y-91300256D01*
X148489744Y-91044662D01*
X148189199Y-90843844D01*
X147855250Y-90705518D01*
X147500732Y-90635000D01*
X147139268Y-90635000D01*
X146784750Y-90705518D01*
X146450801Y-90843844D01*
X146150256Y-91044662D01*
X145894662Y-91300256D01*
X145693844Y-91600801D01*
X145555518Y-91934750D01*
X145485000Y-92289268D01*
X137820000Y-92289268D01*
X137820000Y-89256890D01*
X138258524Y-89256890D01*
X138303175Y-89404099D01*
X138428359Y-89666920D01*
X138602412Y-89900269D01*
X138818645Y-90095178D01*
X139068748Y-90244157D01*
X139343109Y-90341481D01*
X139573000Y-90220814D01*
X139573000Y-89027000D01*
X139827000Y-89027000D01*
X139827000Y-90220814D01*
X140056891Y-90341481D01*
X140331252Y-90244157D01*
X140581355Y-90095178D01*
X140797588Y-89900269D01*
X140971641Y-89666920D01*
X141096825Y-89404099D01*
X141141476Y-89256890D01*
X176358524Y-89256890D01*
X176403175Y-89404099D01*
X176528359Y-89666920D01*
X176702412Y-89900269D01*
X176918645Y-90095178D01*
X177168748Y-90244157D01*
X177443109Y-90341481D01*
X177673000Y-90220814D01*
X177673000Y-89027000D01*
X177927000Y-89027000D01*
X177927000Y-90220814D01*
X178156891Y-90341481D01*
X178431252Y-90244157D01*
X178681355Y-90095178D01*
X178897588Y-89900269D01*
X179071641Y-89666920D01*
X179196825Y-89404099D01*
X179241476Y-89256890D01*
X179120155Y-89027000D01*
X177927000Y-89027000D01*
X177673000Y-89027000D01*
X176479845Y-89027000D01*
X176358524Y-89256890D01*
X141141476Y-89256890D01*
X141020155Y-89027000D01*
X139827000Y-89027000D01*
X139573000Y-89027000D01*
X138379845Y-89027000D01*
X138258524Y-89256890D01*
X137820000Y-89256890D01*
X137820000Y-86716890D01*
X138258524Y-86716890D01*
X138303175Y-86864099D01*
X138428359Y-87126920D01*
X138602412Y-87360269D01*
X138818645Y-87555178D01*
X138944255Y-87630000D01*
X138818645Y-87704822D01*
X138602412Y-87899731D01*
X138428359Y-88133080D01*
X138303175Y-88395901D01*
X138258524Y-88543110D01*
X138379845Y-88773000D01*
X139573000Y-88773000D01*
X139573000Y-86487000D01*
X139827000Y-86487000D01*
X139827000Y-88773000D01*
X141020155Y-88773000D01*
X141141476Y-88543110D01*
X141096825Y-88395901D01*
X140971641Y-88133080D01*
X140797588Y-87899731D01*
X140581355Y-87704822D01*
X140455745Y-87630000D01*
X140581355Y-87555178D01*
X140797588Y-87360269D01*
X140971641Y-87126920D01*
X141096825Y-86864099D01*
X141141476Y-86716890D01*
X176358524Y-86716890D01*
X176403175Y-86864099D01*
X176528359Y-87126920D01*
X176702412Y-87360269D01*
X176918645Y-87555178D01*
X177044255Y-87630000D01*
X176918645Y-87704822D01*
X176702412Y-87899731D01*
X176528359Y-88133080D01*
X176403175Y-88395901D01*
X176358524Y-88543110D01*
X176479845Y-88773000D01*
X177673000Y-88773000D01*
X177673000Y-86487000D01*
X177927000Y-86487000D01*
X177927000Y-88773000D01*
X179120155Y-88773000D01*
X179241476Y-88543110D01*
X179196825Y-88395901D01*
X179071641Y-88133080D01*
X178897588Y-87899731D01*
X178681355Y-87704822D01*
X178555745Y-87630000D01*
X178681355Y-87555178D01*
X178897588Y-87360269D01*
X179071641Y-87126920D01*
X179196825Y-86864099D01*
X179241476Y-86716890D01*
X179120155Y-86487000D01*
X177927000Y-86487000D01*
X177673000Y-86487000D01*
X176479845Y-86487000D01*
X176358524Y-86716890D01*
X141141476Y-86716890D01*
X141020155Y-86487000D01*
X139827000Y-86487000D01*
X139573000Y-86487000D01*
X138379845Y-86487000D01*
X138258524Y-86716890D01*
X137820000Y-86716890D01*
X137820000Y-84176890D01*
X138258524Y-84176890D01*
X138303175Y-84324099D01*
X138428359Y-84586920D01*
X138602412Y-84820269D01*
X138818645Y-85015178D01*
X138944255Y-85090000D01*
X138818645Y-85164822D01*
X138602412Y-85359731D01*
X138428359Y-85593080D01*
X138303175Y-85855901D01*
X138258524Y-86003110D01*
X138379845Y-86233000D01*
X139573000Y-86233000D01*
X139573000Y-83947000D01*
X139827000Y-83947000D01*
X139827000Y-86233000D01*
X141020155Y-86233000D01*
X141141476Y-86003110D01*
X141096825Y-85855901D01*
X140971641Y-85593080D01*
X140797588Y-85359731D01*
X140581355Y-85164822D01*
X140455745Y-85090000D01*
X140581355Y-85015178D01*
X140797588Y-84820269D01*
X140971641Y-84586920D01*
X141096825Y-84324099D01*
X141141476Y-84176890D01*
X176358524Y-84176890D01*
X176403175Y-84324099D01*
X176528359Y-84586920D01*
X176702412Y-84820269D01*
X176918645Y-85015178D01*
X177044255Y-85090000D01*
X176918645Y-85164822D01*
X176702412Y-85359731D01*
X176528359Y-85593080D01*
X176403175Y-85855901D01*
X176358524Y-86003110D01*
X176479845Y-86233000D01*
X177673000Y-86233000D01*
X177673000Y-83947000D01*
X177927000Y-83947000D01*
X177927000Y-86233000D01*
X179120155Y-86233000D01*
X179241476Y-86003110D01*
X179196825Y-85855901D01*
X179071641Y-85593080D01*
X178897588Y-85359731D01*
X178681355Y-85164822D01*
X178555745Y-85090000D01*
X178681355Y-85015178D01*
X178897588Y-84820269D01*
X179071641Y-84586920D01*
X179196825Y-84324099D01*
X179241476Y-84176890D01*
X179120155Y-83947000D01*
X177927000Y-83947000D01*
X177673000Y-83947000D01*
X176479845Y-83947000D01*
X176358524Y-84176890D01*
X141141476Y-84176890D01*
X141020155Y-83947000D01*
X139827000Y-83947000D01*
X139573000Y-83947000D01*
X138379845Y-83947000D01*
X138258524Y-84176890D01*
X137820000Y-84176890D01*
X137820000Y-80430000D01*
X138211928Y-80430000D01*
X138211928Y-82130000D01*
X138224188Y-82254482D01*
X138260498Y-82374180D01*
X138319463Y-82484494D01*
X138398815Y-82581185D01*
X138495506Y-82660537D01*
X138605820Y-82719502D01*
X138686466Y-82743966D01*
X138602412Y-82819731D01*
X138428359Y-83053080D01*
X138303175Y-83315901D01*
X138258524Y-83463110D01*
X138379845Y-83693000D01*
X139573000Y-83693000D01*
X139573000Y-83673000D01*
X139827000Y-83673000D01*
X139827000Y-83693000D01*
X141020155Y-83693000D01*
X141141476Y-83463110D01*
X141096825Y-83315901D01*
X140971641Y-83053080D01*
X140797588Y-82819731D01*
X140713534Y-82743966D01*
X140794180Y-82719502D01*
X140904494Y-82660537D01*
X141001185Y-82581185D01*
X141080537Y-82484494D01*
X141139502Y-82374180D01*
X141175812Y-82254482D01*
X141188072Y-82130000D01*
X141188072Y-80430000D01*
X176311928Y-80430000D01*
X176311928Y-82130000D01*
X176324188Y-82254482D01*
X176360498Y-82374180D01*
X176419463Y-82484494D01*
X176498815Y-82581185D01*
X176595506Y-82660537D01*
X176705820Y-82719502D01*
X176786466Y-82743966D01*
X176702412Y-82819731D01*
X176528359Y-83053080D01*
X176403175Y-83315901D01*
X176358524Y-83463110D01*
X176479845Y-83693000D01*
X177673000Y-83693000D01*
X177673000Y-83673000D01*
X177927000Y-83673000D01*
X177927000Y-83693000D01*
X179120155Y-83693000D01*
X179241476Y-83463110D01*
X179196825Y-83315901D01*
X179071641Y-83053080D01*
X178897588Y-82819731D01*
X178813534Y-82743966D01*
X178894180Y-82719502D01*
X179004494Y-82660537D01*
X179101185Y-82581185D01*
X179180537Y-82484494D01*
X179239502Y-82374180D01*
X179275812Y-82254482D01*
X179288072Y-82130000D01*
X179288072Y-80430000D01*
X179275812Y-80305518D01*
X179239502Y-80185820D01*
X179180537Y-80075506D01*
X179101185Y-79978815D01*
X179004494Y-79899463D01*
X178894180Y-79840498D01*
X178774482Y-79804188D01*
X178650000Y-79791928D01*
X176950000Y-79791928D01*
X176825518Y-79804188D01*
X176705820Y-79840498D01*
X176595506Y-79899463D01*
X176498815Y-79978815D01*
X176419463Y-80075506D01*
X176360498Y-80185820D01*
X176324188Y-80305518D01*
X176311928Y-80430000D01*
X141188072Y-80430000D01*
X141175812Y-80305518D01*
X141139502Y-80185820D01*
X141080537Y-80075506D01*
X141001185Y-79978815D01*
X140904494Y-79899463D01*
X140794180Y-79840498D01*
X140674482Y-79804188D01*
X140550000Y-79791928D01*
X138850000Y-79791928D01*
X138725518Y-79804188D01*
X138605820Y-79840498D01*
X138495506Y-79899463D01*
X138398815Y-79978815D01*
X138319463Y-80075506D01*
X138260498Y-80185820D01*
X138224188Y-80305518D01*
X138211928Y-80430000D01*
X137820000Y-80430000D01*
X137820000Y-77289268D01*
X145485000Y-77289268D01*
X145485000Y-77650732D01*
X145555518Y-78005250D01*
X145693844Y-78339199D01*
X145894662Y-78639744D01*
X146150256Y-78895338D01*
X146450801Y-79096156D01*
X146784750Y-79234482D01*
X147139268Y-79305000D01*
X147500732Y-79305000D01*
X147855250Y-79234482D01*
X148189199Y-79096156D01*
X148489744Y-78895338D01*
X148745338Y-78639744D01*
X148946156Y-78339199D01*
X149084482Y-78005250D01*
X149155000Y-77650732D01*
X149155000Y-77289268D01*
X156915000Y-77289268D01*
X156915000Y-77650732D01*
X156985518Y-78005250D01*
X157123844Y-78339199D01*
X157324662Y-78639744D01*
X157580256Y-78895338D01*
X157880801Y-79096156D01*
X158214750Y-79234482D01*
X158569268Y-79305000D01*
X158930732Y-79305000D01*
X159285250Y-79234482D01*
X159619199Y-79096156D01*
X159919744Y-78895338D01*
X160175338Y-78639744D01*
X160376156Y-78339199D01*
X160514482Y-78005250D01*
X160585000Y-77650732D01*
X160585000Y-77289268D01*
X168345000Y-77289268D01*
X168345000Y-77650732D01*
X168415518Y-78005250D01*
X168553844Y-78339199D01*
X168754662Y-78639744D01*
X169010256Y-78895338D01*
X169310801Y-79096156D01*
X169644750Y-79234482D01*
X169999268Y-79305000D01*
X170360732Y-79305000D01*
X170715250Y-79234482D01*
X171049199Y-79096156D01*
X171349744Y-78895338D01*
X171605338Y-78639744D01*
X171806156Y-78339199D01*
X171944482Y-78005250D01*
X172015000Y-77650732D01*
X172015000Y-77289268D01*
X171944482Y-76934750D01*
X171806156Y-76600801D01*
X171605338Y-76300256D01*
X171349744Y-76044662D01*
X171049199Y-75843844D01*
X170715250Y-75705518D01*
X170360732Y-75635000D01*
X169999268Y-75635000D01*
X169644750Y-75705518D01*
X169310801Y-75843844D01*
X169010256Y-76044662D01*
X168754662Y-76300256D01*
X168553844Y-76600801D01*
X168415518Y-76934750D01*
X168345000Y-77289268D01*
X160585000Y-77289268D01*
X160514482Y-76934750D01*
X160376156Y-76600801D01*
X160175338Y-76300256D01*
X159919744Y-76044662D01*
X159619199Y-75843844D01*
X159285250Y-75705518D01*
X158930732Y-75635000D01*
X158569268Y-75635000D01*
X158214750Y-75705518D01*
X157880801Y-75843844D01*
X157580256Y-76044662D01*
X157324662Y-76300256D01*
X157123844Y-76600801D01*
X156985518Y-76934750D01*
X156915000Y-77289268D01*
X149155000Y-77289268D01*
X149084482Y-76934750D01*
X148946156Y-76600801D01*
X148745338Y-76300256D01*
X148489744Y-76044662D01*
X148189199Y-75843844D01*
X147855250Y-75705518D01*
X147500732Y-75635000D01*
X147139268Y-75635000D01*
X146784750Y-75705518D01*
X146450801Y-75843844D01*
X146150256Y-76044662D01*
X145894662Y-76300256D01*
X145693844Y-76600801D01*
X145555518Y-76934750D01*
X145485000Y-77289268D01*
X137820000Y-77289268D01*
X137820000Y-76232279D01*
X137834722Y-76082131D01*
X137868953Y-75968754D01*
X137924555Y-75864181D01*
X137999407Y-75772404D01*
X138090664Y-75696909D01*
X138194844Y-75640581D01*
X138307976Y-75605560D01*
X138456022Y-75590000D01*
X179037721Y-75590000D01*
X179187869Y-75604722D01*
%TA.AperFunction,Conductor*%
D15*
G36*
X179187869Y-75604722D02*
G01*
X179301246Y-75638953D01*
X179405819Y-75694555D01*
X179497596Y-75769407D01*
X179573091Y-75860664D01*
X179629419Y-75964844D01*
X179664440Y-76077976D01*
X179680001Y-76226031D01*
X179680000Y-93947721D01*
X179665278Y-94097869D01*
X179631047Y-94211246D01*
X179575446Y-94315817D01*
X179500594Y-94407595D01*
X179409335Y-94483091D01*
X179305160Y-94539419D01*
X179192024Y-94574440D01*
X179043979Y-94590000D01*
X138462279Y-94590000D01*
X138312131Y-94575278D01*
X138198754Y-94541047D01*
X138094183Y-94485446D01*
X138002405Y-94410594D01*
X137926909Y-94319335D01*
X137870581Y-94215160D01*
X137835560Y-94102024D01*
X137820000Y-93953979D01*
X137820000Y-92289268D01*
X145485000Y-92289268D01*
X145485000Y-92650732D01*
X145555518Y-93005250D01*
X145693844Y-93339199D01*
X145894662Y-93639744D01*
X146150256Y-93895338D01*
X146450801Y-94096156D01*
X146784750Y-94234482D01*
X147139268Y-94305000D01*
X147500732Y-94305000D01*
X147855250Y-94234482D01*
X148189199Y-94096156D01*
X148489744Y-93895338D01*
X148745338Y-93639744D01*
X148946156Y-93339199D01*
X149084482Y-93005250D01*
X149155000Y-92650732D01*
X149155000Y-92289268D01*
X156915000Y-92289268D01*
X156915000Y-92650732D01*
X156985518Y-93005250D01*
X157123844Y-93339199D01*
X157324662Y-93639744D01*
X157580256Y-93895338D01*
X157880801Y-94096156D01*
X158214750Y-94234482D01*
X158569268Y-94305000D01*
X158930732Y-94305000D01*
X159285250Y-94234482D01*
X159619199Y-94096156D01*
X159919744Y-93895338D01*
X160175338Y-93639744D01*
X160376156Y-93339199D01*
X160514482Y-93005250D01*
X160585000Y-92650732D01*
X160585000Y-92289268D01*
X168345000Y-92289268D01*
X168345000Y-92650732D01*
X168415518Y-93005250D01*
X168553844Y-93339199D01*
X168754662Y-93639744D01*
X169010256Y-93895338D01*
X169310801Y-94096156D01*
X169644750Y-94234482D01*
X169999268Y-94305000D01*
X170360732Y-94305000D01*
X170715250Y-94234482D01*
X171049199Y-94096156D01*
X171349744Y-93895338D01*
X171605338Y-93639744D01*
X171806156Y-93339199D01*
X171944482Y-93005250D01*
X172015000Y-92650732D01*
X172015000Y-92289268D01*
X171944482Y-91934750D01*
X171806156Y-91600801D01*
X171605338Y-91300256D01*
X171349744Y-91044662D01*
X171049199Y-90843844D01*
X170715250Y-90705518D01*
X170360732Y-90635000D01*
X169999268Y-90635000D01*
X169644750Y-90705518D01*
X169310801Y-90843844D01*
X169010256Y-91044662D01*
X168754662Y-91300256D01*
X168553844Y-91600801D01*
X168415518Y-91934750D01*
X168345000Y-92289268D01*
X160585000Y-92289268D01*
X160514482Y-91934750D01*
X160376156Y-91600801D01*
X160175338Y-91300256D01*
X159919744Y-91044662D01*
X159619199Y-90843844D01*
X159285250Y-90705518D01*
X158930732Y-90635000D01*
X158569268Y-90635000D01*
X158214750Y-90705518D01*
X157880801Y-90843844D01*
X157580256Y-91044662D01*
X157324662Y-91300256D01*
X157123844Y-91600801D01*
X156985518Y-91934750D01*
X156915000Y-92289268D01*
X149155000Y-92289268D01*
X149084482Y-91934750D01*
X148946156Y-91600801D01*
X148745338Y-91300256D01*
X148489744Y-91044662D01*
X148189199Y-90843844D01*
X147855250Y-90705518D01*
X147500732Y-90635000D01*
X147139268Y-90635000D01*
X146784750Y-90705518D01*
X146450801Y-90843844D01*
X146150256Y-91044662D01*
X145894662Y-91300256D01*
X145693844Y-91600801D01*
X145555518Y-91934750D01*
X145485000Y-92289268D01*
X137820000Y-92289268D01*
X137820000Y-89256890D01*
X138258524Y-89256890D01*
X138303175Y-89404099D01*
X138428359Y-89666920D01*
X138602412Y-89900269D01*
X138818645Y-90095178D01*
X139068748Y-90244157D01*
X139343109Y-90341481D01*
X139573000Y-90220814D01*
X139573000Y-89027000D01*
X139827000Y-89027000D01*
X139827000Y-90220814D01*
X140056891Y-90341481D01*
X140331252Y-90244157D01*
X140581355Y-90095178D01*
X140797588Y-89900269D01*
X140971641Y-89666920D01*
X141096825Y-89404099D01*
X141141476Y-89256890D01*
X176358524Y-89256890D01*
X176403175Y-89404099D01*
X176528359Y-89666920D01*
X176702412Y-89900269D01*
X176918645Y-90095178D01*
X177168748Y-90244157D01*
X177443109Y-90341481D01*
X177673000Y-90220814D01*
X177673000Y-89027000D01*
X177927000Y-89027000D01*
X177927000Y-90220814D01*
X178156891Y-90341481D01*
X178431252Y-90244157D01*
X178681355Y-90095178D01*
X178897588Y-89900269D01*
X179071641Y-89666920D01*
X179196825Y-89404099D01*
X179241476Y-89256890D01*
X179120155Y-89027000D01*
X177927000Y-89027000D01*
X177673000Y-89027000D01*
X176479845Y-89027000D01*
X176358524Y-89256890D01*
X141141476Y-89256890D01*
X141020155Y-89027000D01*
X139827000Y-89027000D01*
X139573000Y-89027000D01*
X138379845Y-89027000D01*
X138258524Y-89256890D01*
X137820000Y-89256890D01*
X137820000Y-86716890D01*
X138258524Y-86716890D01*
X138303175Y-86864099D01*
X138428359Y-87126920D01*
X138602412Y-87360269D01*
X138818645Y-87555178D01*
X138944255Y-87630000D01*
X138818645Y-87704822D01*
X138602412Y-87899731D01*
X138428359Y-88133080D01*
X138303175Y-88395901D01*
X138258524Y-88543110D01*
X138379845Y-88773000D01*
X139573000Y-88773000D01*
X139573000Y-86487000D01*
X139827000Y-86487000D01*
X139827000Y-88773000D01*
X141020155Y-88773000D01*
X141141476Y-88543110D01*
X141096825Y-88395901D01*
X140971641Y-88133080D01*
X140797588Y-87899731D01*
X140581355Y-87704822D01*
X140455745Y-87630000D01*
X140581355Y-87555178D01*
X140797588Y-87360269D01*
X140971641Y-87126920D01*
X141096825Y-86864099D01*
X141141476Y-86716890D01*
X176358524Y-86716890D01*
X176403175Y-86864099D01*
X176528359Y-87126920D01*
X176702412Y-87360269D01*
X176918645Y-87555178D01*
X177044255Y-87630000D01*
X176918645Y-87704822D01*
X176702412Y-87899731D01*
X176528359Y-88133080D01*
X176403175Y-88395901D01*
X176358524Y-88543110D01*
X176479845Y-88773000D01*
X177673000Y-88773000D01*
X177673000Y-86487000D01*
X177927000Y-86487000D01*
X177927000Y-88773000D01*
X179120155Y-88773000D01*
X179241476Y-88543110D01*
X179196825Y-88395901D01*
X179071641Y-88133080D01*
X178897588Y-87899731D01*
X178681355Y-87704822D01*
X178555745Y-87630000D01*
X178681355Y-87555178D01*
X178897588Y-87360269D01*
X179071641Y-87126920D01*
X179196825Y-86864099D01*
X179241476Y-86716890D01*
X179120155Y-86487000D01*
X177927000Y-86487000D01*
X177673000Y-86487000D01*
X176479845Y-86487000D01*
X176358524Y-86716890D01*
X141141476Y-86716890D01*
X141020155Y-86487000D01*
X139827000Y-86487000D01*
X139573000Y-86487000D01*
X138379845Y-86487000D01*
X138258524Y-86716890D01*
X137820000Y-86716890D01*
X137820000Y-84176890D01*
X138258524Y-84176890D01*
X138303175Y-84324099D01*
X138428359Y-84586920D01*
X138602412Y-84820269D01*
X138818645Y-85015178D01*
X138944255Y-85090000D01*
X138818645Y-85164822D01*
X138602412Y-85359731D01*
X138428359Y-85593080D01*
X138303175Y-85855901D01*
X138258524Y-86003110D01*
X138379845Y-86233000D01*
X139573000Y-86233000D01*
X139573000Y-83947000D01*
X139827000Y-83947000D01*
X139827000Y-86233000D01*
X141020155Y-86233000D01*
X141141476Y-86003110D01*
X141096825Y-85855901D01*
X140971641Y-85593080D01*
X140797588Y-85359731D01*
X140581355Y-85164822D01*
X140455745Y-85090000D01*
X140581355Y-85015178D01*
X140797588Y-84820269D01*
X140971641Y-84586920D01*
X141096825Y-84324099D01*
X141141476Y-84176890D01*
X176358524Y-84176890D01*
X176403175Y-84324099D01*
X176528359Y-84586920D01*
X176702412Y-84820269D01*
X176918645Y-85015178D01*
X177044255Y-85090000D01*
X176918645Y-85164822D01*
X176702412Y-85359731D01*
X176528359Y-85593080D01*
X176403175Y-85855901D01*
X176358524Y-86003110D01*
X176479845Y-86233000D01*
X177673000Y-86233000D01*
X177673000Y-83947000D01*
X177927000Y-83947000D01*
X177927000Y-86233000D01*
X179120155Y-86233000D01*
X179241476Y-86003110D01*
X179196825Y-85855901D01*
X179071641Y-85593080D01*
X178897588Y-85359731D01*
X178681355Y-85164822D01*
X178555745Y-85090000D01*
X178681355Y-85015178D01*
X178897588Y-84820269D01*
X179071641Y-84586920D01*
X179196825Y-84324099D01*
X179241476Y-84176890D01*
X179120155Y-83947000D01*
X177927000Y-83947000D01*
X177673000Y-83947000D01*
X176479845Y-83947000D01*
X176358524Y-84176890D01*
X141141476Y-84176890D01*
X141020155Y-83947000D01*
X139827000Y-83947000D01*
X139573000Y-83947000D01*
X138379845Y-83947000D01*
X138258524Y-84176890D01*
X137820000Y-84176890D01*
X137820000Y-80430000D01*
X138211928Y-80430000D01*
X138211928Y-82130000D01*
X138224188Y-82254482D01*
X138260498Y-82374180D01*
X138319463Y-82484494D01*
X138398815Y-82581185D01*
X138495506Y-82660537D01*
X138605820Y-82719502D01*
X138686466Y-82743966D01*
X138602412Y-82819731D01*
X138428359Y-83053080D01*
X138303175Y-83315901D01*
X138258524Y-83463110D01*
X138379845Y-83693000D01*
X139573000Y-83693000D01*
X139573000Y-83673000D01*
X139827000Y-83673000D01*
X139827000Y-83693000D01*
X141020155Y-83693000D01*
X141141476Y-83463110D01*
X141096825Y-83315901D01*
X140971641Y-83053080D01*
X140797588Y-82819731D01*
X140713534Y-82743966D01*
X140794180Y-82719502D01*
X140904494Y-82660537D01*
X141001185Y-82581185D01*
X141080537Y-82484494D01*
X141139502Y-82374180D01*
X141175812Y-82254482D01*
X141188072Y-82130000D01*
X141188072Y-80430000D01*
X176311928Y-80430000D01*
X176311928Y-82130000D01*
X176324188Y-82254482D01*
X176360498Y-82374180D01*
X176419463Y-82484494D01*
X176498815Y-82581185D01*
X176595506Y-82660537D01*
X176705820Y-82719502D01*
X176786466Y-82743966D01*
X176702412Y-82819731D01*
X176528359Y-83053080D01*
X176403175Y-83315901D01*
X176358524Y-83463110D01*
X176479845Y-83693000D01*
X177673000Y-83693000D01*
X177673000Y-83673000D01*
X177927000Y-83673000D01*
X177927000Y-83693000D01*
X179120155Y-83693000D01*
X179241476Y-83463110D01*
X179196825Y-83315901D01*
X179071641Y-83053080D01*
X178897588Y-82819731D01*
X178813534Y-82743966D01*
X178894180Y-82719502D01*
X179004494Y-82660537D01*
X179101185Y-82581185D01*
X179180537Y-82484494D01*
X179239502Y-82374180D01*
X179275812Y-82254482D01*
X179288072Y-82130000D01*
X179288072Y-80430000D01*
X179275812Y-80305518D01*
X179239502Y-80185820D01*
X179180537Y-80075506D01*
X179101185Y-79978815D01*
X179004494Y-79899463D01*
X178894180Y-79840498D01*
X178774482Y-79804188D01*
X178650000Y-79791928D01*
X176950000Y-79791928D01*
X176825518Y-79804188D01*
X176705820Y-79840498D01*
X176595506Y-79899463D01*
X176498815Y-79978815D01*
X176419463Y-80075506D01*
X176360498Y-80185820D01*
X176324188Y-80305518D01*
X176311928Y-80430000D01*
X141188072Y-80430000D01*
X141175812Y-80305518D01*
X141139502Y-80185820D01*
X141080537Y-80075506D01*
X141001185Y-79978815D01*
X140904494Y-79899463D01*
X140794180Y-79840498D01*
X140674482Y-79804188D01*
X140550000Y-79791928D01*
X138850000Y-79791928D01*
X138725518Y-79804188D01*
X138605820Y-79840498D01*
X138495506Y-79899463D01*
X138398815Y-79978815D01*
X138319463Y-80075506D01*
X138260498Y-80185820D01*
X138224188Y-80305518D01*
X138211928Y-80430000D01*
X137820000Y-80430000D01*
X137820000Y-77289268D01*
X145485000Y-77289268D01*
X145485000Y-77650732D01*
X145555518Y-78005250D01*
X145693844Y-78339199D01*
X145894662Y-78639744D01*
X146150256Y-78895338D01*
X146450801Y-79096156D01*
X146784750Y-79234482D01*
X147139268Y-79305000D01*
X147500732Y-79305000D01*
X147855250Y-79234482D01*
X148189199Y-79096156D01*
X148489744Y-78895338D01*
X148745338Y-78639744D01*
X148946156Y-78339199D01*
X149084482Y-78005250D01*
X149155000Y-77650732D01*
X149155000Y-77289268D01*
X156915000Y-77289268D01*
X156915000Y-77650732D01*
X156985518Y-78005250D01*
X157123844Y-78339199D01*
X157324662Y-78639744D01*
X157580256Y-78895338D01*
X157880801Y-79096156D01*
X158214750Y-79234482D01*
X158569268Y-79305000D01*
X158930732Y-79305000D01*
X159285250Y-79234482D01*
X159619199Y-79096156D01*
X159919744Y-78895338D01*
X160175338Y-78639744D01*
X160376156Y-78339199D01*
X160514482Y-78005250D01*
X160585000Y-77650732D01*
X160585000Y-77289268D01*
X168345000Y-77289268D01*
X168345000Y-77650732D01*
X168415518Y-78005250D01*
X168553844Y-78339199D01*
X168754662Y-78639744D01*
X169010256Y-78895338D01*
X169310801Y-79096156D01*
X169644750Y-79234482D01*
X169999268Y-79305000D01*
X170360732Y-79305000D01*
X170715250Y-79234482D01*
X171049199Y-79096156D01*
X171349744Y-78895338D01*
X171605338Y-78639744D01*
X171806156Y-78339199D01*
X171944482Y-78005250D01*
X172015000Y-77650732D01*
X172015000Y-77289268D01*
X171944482Y-76934750D01*
X171806156Y-76600801D01*
X171605338Y-76300256D01*
X171349744Y-76044662D01*
X171049199Y-75843844D01*
X170715250Y-75705518D01*
X170360732Y-75635000D01*
X169999268Y-75635000D01*
X169644750Y-75705518D01*
X169310801Y-75843844D01*
X169010256Y-76044662D01*
X168754662Y-76300256D01*
X168553844Y-76600801D01*
X168415518Y-76934750D01*
X168345000Y-77289268D01*
X160585000Y-77289268D01*
X160514482Y-76934750D01*
X160376156Y-76600801D01*
X160175338Y-76300256D01*
X159919744Y-76044662D01*
X159619199Y-75843844D01*
X159285250Y-75705518D01*
X158930732Y-75635000D01*
X158569268Y-75635000D01*
X158214750Y-75705518D01*
X157880801Y-75843844D01*
X157580256Y-76044662D01*
X157324662Y-76300256D01*
X157123844Y-76600801D01*
X156985518Y-76934750D01*
X156915000Y-77289268D01*
X149155000Y-77289268D01*
X149084482Y-76934750D01*
X148946156Y-76600801D01*
X148745338Y-76300256D01*
X148489744Y-76044662D01*
X148189199Y-75843844D01*
X147855250Y-75705518D01*
X147500732Y-75635000D01*
X147139268Y-75635000D01*
X146784750Y-75705518D01*
X146450801Y-75843844D01*
X146150256Y-76044662D01*
X145894662Y-76300256D01*
X145693844Y-76600801D01*
X145555518Y-76934750D01*
X145485000Y-77289268D01*
X137820000Y-77289268D01*
X137820000Y-76232279D01*
X137834722Y-76082131D01*
X137868953Y-75968754D01*
X137924555Y-75864181D01*
X137999407Y-75772404D01*
X138090664Y-75696909D01*
X138194844Y-75640581D01*
X138307976Y-75605560D01*
X138456022Y-75590000D01*
X179037721Y-75590000D01*
X179187869Y-75604722D01*
G37*
%TD.AperFunction*%
%TD*%
M02*
