%TF.GenerationSoftware,KiCad,Pcbnew,5.1.10*%
%TF.CreationDate,2021-06-13T21:02:04+02:00*%
%TF.ProjectId,filter,66696c74-6572-42e6-9b69-6361645f7063,rev?*%
%TF.SameCoordinates,Original*%
%TF.FileFunction,Copper,L2,Bot*%
%TF.FilePolarity,Positive*%
%FSLAX46Y46*%
G04 Gerber Fmt 4.6, Leading zero omitted, Abs format (unit mm)*
G04 Created by KiCad (PCBNEW 5.1.10) date 2021-06-13 21:02:04*
%MOMM*%
%LPD*%
G01*
G04 APERTURE LIST*
%TA.AperFunction,ComponentPad*%
%ADD10C,2.400000*%
%TD*%
%TA.AperFunction,ComponentPad*%
%ADD11R,1.700000X1.700000*%
%TD*%
%TA.AperFunction,ComponentPad*%
%ADD12O,1.700000X1.700000*%
%TD*%
%TA.AperFunction,Conductor*%
%ADD13C,0.254000*%
%TD*%
%TA.AperFunction,Conductor*%
%ADD14C,0.100000*%
%TD*%
G04 APERTURE END LIST*
D10*
%TO.P,L101,1*%
%TO.N,Net-(C104-Pad1)*%
X147320000Y-77470000D03*
%TO.P,L101,2*%
%TO.N,Net-(C101-Pad2)*%
X147320000Y-92470000D03*
%TD*%
D11*
%TO.P,J101,1*%
%TO.N,Net-(C104-Pad1)*%
X139700000Y-81280000D03*
D12*
%TO.P,J101,2*%
%TO.N,Net-(J101-Pad2)*%
X139700000Y-83820000D03*
%TO.P,J101,3*%
%TO.N,Net-(J101-Pad3)*%
X139700000Y-86360000D03*
%TO.P,J101,4*%
%TO.N,GND*%
X139700000Y-88900000D03*
%TD*%
%TO.P,J102,4*%
%TO.N,GND*%
X166370000Y-88900000D03*
%TO.P,J102,3*%
%TO.N,Net-(J102-Pad3)*%
X166370000Y-86360000D03*
%TO.P,J102,2*%
%TO.N,Net-(J102-Pad2)*%
X166370000Y-83820000D03*
D11*
%TO.P,J102,1*%
%TO.N,Net-(C102-Pad2)*%
X166370000Y-81280000D03*
%TD*%
D10*
%TO.P,L102,2*%
%TO.N,Net-(C102-Pad2)*%
X158750000Y-77470000D03*
%TO.P,L102,1*%
%TO.N,Net-(C101-Pad1)*%
X158750000Y-92470000D03*
%TD*%
D13*
%TO.N,GND*%
X167757869Y-75604722D02*
X167871246Y-75638953D01*
X167975819Y-75694555D01*
X168067596Y-75769407D01*
X168143091Y-75860664D01*
X168199419Y-75964844D01*
X168234440Y-76077976D01*
X168250001Y-76226031D01*
X168250000Y-93947721D01*
X168235278Y-94097869D01*
X168201047Y-94211246D01*
X168145446Y-94315817D01*
X168070594Y-94407595D01*
X167979335Y-94483091D01*
X167875160Y-94539419D01*
X167762024Y-94574440D01*
X167613979Y-94590000D01*
X138462279Y-94590000D01*
X138312131Y-94575278D01*
X138198754Y-94541047D01*
X138094183Y-94485446D01*
X138002405Y-94410594D01*
X137926909Y-94319335D01*
X137870581Y-94215160D01*
X137835560Y-94102024D01*
X137820000Y-93953979D01*
X137820000Y-92289268D01*
X145485000Y-92289268D01*
X145485000Y-92650732D01*
X145555518Y-93005250D01*
X145693844Y-93339199D01*
X145894662Y-93639744D01*
X146150256Y-93895338D01*
X146450801Y-94096156D01*
X146784750Y-94234482D01*
X147139268Y-94305000D01*
X147500732Y-94305000D01*
X147855250Y-94234482D01*
X148189199Y-94096156D01*
X148489744Y-93895338D01*
X148745338Y-93639744D01*
X148946156Y-93339199D01*
X149084482Y-93005250D01*
X149155000Y-92650732D01*
X149155000Y-92289268D01*
X156915000Y-92289268D01*
X156915000Y-92650732D01*
X156985518Y-93005250D01*
X157123844Y-93339199D01*
X157324662Y-93639744D01*
X157580256Y-93895338D01*
X157880801Y-94096156D01*
X158214750Y-94234482D01*
X158569268Y-94305000D01*
X158930732Y-94305000D01*
X159285250Y-94234482D01*
X159619199Y-94096156D01*
X159919744Y-93895338D01*
X160175338Y-93639744D01*
X160376156Y-93339199D01*
X160514482Y-93005250D01*
X160585000Y-92650732D01*
X160585000Y-92289268D01*
X160514482Y-91934750D01*
X160376156Y-91600801D01*
X160175338Y-91300256D01*
X159919744Y-91044662D01*
X159619199Y-90843844D01*
X159285250Y-90705518D01*
X158930732Y-90635000D01*
X158569268Y-90635000D01*
X158214750Y-90705518D01*
X157880801Y-90843844D01*
X157580256Y-91044662D01*
X157324662Y-91300256D01*
X157123844Y-91600801D01*
X156985518Y-91934750D01*
X156915000Y-92289268D01*
X149155000Y-92289268D01*
X149084482Y-91934750D01*
X148946156Y-91600801D01*
X148745338Y-91300256D01*
X148489744Y-91044662D01*
X148189199Y-90843844D01*
X147855250Y-90705518D01*
X147500732Y-90635000D01*
X147139268Y-90635000D01*
X146784750Y-90705518D01*
X146450801Y-90843844D01*
X146150256Y-91044662D01*
X145894662Y-91300256D01*
X145693844Y-91600801D01*
X145555518Y-91934750D01*
X145485000Y-92289268D01*
X137820000Y-92289268D01*
X137820000Y-89256890D01*
X138258524Y-89256890D01*
X138303175Y-89404099D01*
X138428359Y-89666920D01*
X138602412Y-89900269D01*
X138818645Y-90095178D01*
X139068748Y-90244157D01*
X139343109Y-90341481D01*
X139573000Y-90220814D01*
X139573000Y-89027000D01*
X139827000Y-89027000D01*
X139827000Y-90220814D01*
X140056891Y-90341481D01*
X140331252Y-90244157D01*
X140581355Y-90095178D01*
X140797588Y-89900269D01*
X140971641Y-89666920D01*
X141096825Y-89404099D01*
X141141476Y-89256890D01*
X164928524Y-89256890D01*
X164973175Y-89404099D01*
X165098359Y-89666920D01*
X165272412Y-89900269D01*
X165488645Y-90095178D01*
X165738748Y-90244157D01*
X166013109Y-90341481D01*
X166243000Y-90220814D01*
X166243000Y-89027000D01*
X166497000Y-89027000D01*
X166497000Y-90220814D01*
X166726891Y-90341481D01*
X167001252Y-90244157D01*
X167251355Y-90095178D01*
X167467588Y-89900269D01*
X167641641Y-89666920D01*
X167766825Y-89404099D01*
X167811476Y-89256890D01*
X167690155Y-89027000D01*
X166497000Y-89027000D01*
X166243000Y-89027000D01*
X165049845Y-89027000D01*
X164928524Y-89256890D01*
X141141476Y-89256890D01*
X141020155Y-89027000D01*
X139827000Y-89027000D01*
X139573000Y-89027000D01*
X138379845Y-89027000D01*
X138258524Y-89256890D01*
X137820000Y-89256890D01*
X137820000Y-80430000D01*
X138211928Y-80430000D01*
X138211928Y-82130000D01*
X138224188Y-82254482D01*
X138260498Y-82374180D01*
X138319463Y-82484494D01*
X138398815Y-82581185D01*
X138495506Y-82660537D01*
X138605820Y-82719502D01*
X138678380Y-82741513D01*
X138546525Y-82873368D01*
X138384010Y-83116589D01*
X138272068Y-83386842D01*
X138215000Y-83673740D01*
X138215000Y-83966260D01*
X138272068Y-84253158D01*
X138384010Y-84523411D01*
X138546525Y-84766632D01*
X138753368Y-84973475D01*
X138927760Y-85090000D01*
X138753368Y-85206525D01*
X138546525Y-85413368D01*
X138384010Y-85656589D01*
X138272068Y-85926842D01*
X138215000Y-86213740D01*
X138215000Y-86506260D01*
X138272068Y-86793158D01*
X138384010Y-87063411D01*
X138546525Y-87306632D01*
X138753368Y-87513475D01*
X138935534Y-87635195D01*
X138818645Y-87704822D01*
X138602412Y-87899731D01*
X138428359Y-88133080D01*
X138303175Y-88395901D01*
X138258524Y-88543110D01*
X138379845Y-88773000D01*
X139573000Y-88773000D01*
X139573000Y-88753000D01*
X139827000Y-88753000D01*
X139827000Y-88773000D01*
X141020155Y-88773000D01*
X141141476Y-88543110D01*
X141096825Y-88395901D01*
X140971641Y-88133080D01*
X140797588Y-87899731D01*
X140581355Y-87704822D01*
X140464466Y-87635195D01*
X140646632Y-87513475D01*
X140853475Y-87306632D01*
X141015990Y-87063411D01*
X141127932Y-86793158D01*
X141185000Y-86506260D01*
X141185000Y-86213740D01*
X141127932Y-85926842D01*
X141015990Y-85656589D01*
X140853475Y-85413368D01*
X140646632Y-85206525D01*
X140472240Y-85090000D01*
X140646632Y-84973475D01*
X140853475Y-84766632D01*
X141015990Y-84523411D01*
X141127932Y-84253158D01*
X141185000Y-83966260D01*
X141185000Y-83673740D01*
X141127932Y-83386842D01*
X141015990Y-83116589D01*
X140853475Y-82873368D01*
X140721620Y-82741513D01*
X140794180Y-82719502D01*
X140904494Y-82660537D01*
X141001185Y-82581185D01*
X141080537Y-82484494D01*
X141139502Y-82374180D01*
X141175812Y-82254482D01*
X141188072Y-82130000D01*
X141188072Y-80430000D01*
X164881928Y-80430000D01*
X164881928Y-82130000D01*
X164894188Y-82254482D01*
X164930498Y-82374180D01*
X164989463Y-82484494D01*
X165068815Y-82581185D01*
X165165506Y-82660537D01*
X165275820Y-82719502D01*
X165348380Y-82741513D01*
X165216525Y-82873368D01*
X165054010Y-83116589D01*
X164942068Y-83386842D01*
X164885000Y-83673740D01*
X164885000Y-83966260D01*
X164942068Y-84253158D01*
X165054010Y-84523411D01*
X165216525Y-84766632D01*
X165423368Y-84973475D01*
X165597760Y-85090000D01*
X165423368Y-85206525D01*
X165216525Y-85413368D01*
X165054010Y-85656589D01*
X164942068Y-85926842D01*
X164885000Y-86213740D01*
X164885000Y-86506260D01*
X164942068Y-86793158D01*
X165054010Y-87063411D01*
X165216525Y-87306632D01*
X165423368Y-87513475D01*
X165605534Y-87635195D01*
X165488645Y-87704822D01*
X165272412Y-87899731D01*
X165098359Y-88133080D01*
X164973175Y-88395901D01*
X164928524Y-88543110D01*
X165049845Y-88773000D01*
X166243000Y-88773000D01*
X166243000Y-88753000D01*
X166497000Y-88753000D01*
X166497000Y-88773000D01*
X167690155Y-88773000D01*
X167811476Y-88543110D01*
X167766825Y-88395901D01*
X167641641Y-88133080D01*
X167467588Y-87899731D01*
X167251355Y-87704822D01*
X167134466Y-87635195D01*
X167316632Y-87513475D01*
X167523475Y-87306632D01*
X167685990Y-87063411D01*
X167797932Y-86793158D01*
X167855000Y-86506260D01*
X167855000Y-86213740D01*
X167797932Y-85926842D01*
X167685990Y-85656589D01*
X167523475Y-85413368D01*
X167316632Y-85206525D01*
X167142240Y-85090000D01*
X167316632Y-84973475D01*
X167523475Y-84766632D01*
X167685990Y-84523411D01*
X167797932Y-84253158D01*
X167855000Y-83966260D01*
X167855000Y-83673740D01*
X167797932Y-83386842D01*
X167685990Y-83116589D01*
X167523475Y-82873368D01*
X167391620Y-82741513D01*
X167464180Y-82719502D01*
X167574494Y-82660537D01*
X167671185Y-82581185D01*
X167750537Y-82484494D01*
X167809502Y-82374180D01*
X167845812Y-82254482D01*
X167858072Y-82130000D01*
X167858072Y-80430000D01*
X167845812Y-80305518D01*
X167809502Y-80185820D01*
X167750537Y-80075506D01*
X167671185Y-79978815D01*
X167574494Y-79899463D01*
X167464180Y-79840498D01*
X167344482Y-79804188D01*
X167220000Y-79791928D01*
X165520000Y-79791928D01*
X165395518Y-79804188D01*
X165275820Y-79840498D01*
X165165506Y-79899463D01*
X165068815Y-79978815D01*
X164989463Y-80075506D01*
X164930498Y-80185820D01*
X164894188Y-80305518D01*
X164881928Y-80430000D01*
X141188072Y-80430000D01*
X141175812Y-80305518D01*
X141139502Y-80185820D01*
X141080537Y-80075506D01*
X141001185Y-79978815D01*
X140904494Y-79899463D01*
X140794180Y-79840498D01*
X140674482Y-79804188D01*
X140550000Y-79791928D01*
X138850000Y-79791928D01*
X138725518Y-79804188D01*
X138605820Y-79840498D01*
X138495506Y-79899463D01*
X138398815Y-79978815D01*
X138319463Y-80075506D01*
X138260498Y-80185820D01*
X138224188Y-80305518D01*
X138211928Y-80430000D01*
X137820000Y-80430000D01*
X137820000Y-77289268D01*
X145485000Y-77289268D01*
X145485000Y-77650732D01*
X145555518Y-78005250D01*
X145693844Y-78339199D01*
X145894662Y-78639744D01*
X146150256Y-78895338D01*
X146450801Y-79096156D01*
X146784750Y-79234482D01*
X147139268Y-79305000D01*
X147500732Y-79305000D01*
X147855250Y-79234482D01*
X148189199Y-79096156D01*
X148489744Y-78895338D01*
X148745338Y-78639744D01*
X148946156Y-78339199D01*
X149084482Y-78005250D01*
X149155000Y-77650732D01*
X149155000Y-77289268D01*
X156915000Y-77289268D01*
X156915000Y-77650732D01*
X156985518Y-78005250D01*
X157123844Y-78339199D01*
X157324662Y-78639744D01*
X157580256Y-78895338D01*
X157880801Y-79096156D01*
X158214750Y-79234482D01*
X158569268Y-79305000D01*
X158930732Y-79305000D01*
X159285250Y-79234482D01*
X159619199Y-79096156D01*
X159919744Y-78895338D01*
X160175338Y-78639744D01*
X160376156Y-78339199D01*
X160514482Y-78005250D01*
X160585000Y-77650732D01*
X160585000Y-77289268D01*
X160514482Y-76934750D01*
X160376156Y-76600801D01*
X160175338Y-76300256D01*
X159919744Y-76044662D01*
X159619199Y-75843844D01*
X159285250Y-75705518D01*
X158930732Y-75635000D01*
X158569268Y-75635000D01*
X158214750Y-75705518D01*
X157880801Y-75843844D01*
X157580256Y-76044662D01*
X157324662Y-76300256D01*
X157123844Y-76600801D01*
X156985518Y-76934750D01*
X156915000Y-77289268D01*
X149155000Y-77289268D01*
X149084482Y-76934750D01*
X148946156Y-76600801D01*
X148745338Y-76300256D01*
X148489744Y-76044662D01*
X148189199Y-75843844D01*
X147855250Y-75705518D01*
X147500732Y-75635000D01*
X147139268Y-75635000D01*
X146784750Y-75705518D01*
X146450801Y-75843844D01*
X146150256Y-76044662D01*
X145894662Y-76300256D01*
X145693844Y-76600801D01*
X145555518Y-76934750D01*
X145485000Y-77289268D01*
X137820000Y-77289268D01*
X137820000Y-76232279D01*
X137834722Y-76082131D01*
X137868953Y-75968754D01*
X137924555Y-75864181D01*
X137999407Y-75772404D01*
X138090664Y-75696909D01*
X138194844Y-75640581D01*
X138307976Y-75605560D01*
X138456022Y-75590000D01*
X167607721Y-75590000D01*
X167757869Y-75604722D01*
%TA.AperFunction,Conductor*%
D14*
G36*
X167757869Y-75604722D02*
G01*
X167871246Y-75638953D01*
X167975819Y-75694555D01*
X168067596Y-75769407D01*
X168143091Y-75860664D01*
X168199419Y-75964844D01*
X168234440Y-76077976D01*
X168250001Y-76226031D01*
X168250000Y-93947721D01*
X168235278Y-94097869D01*
X168201047Y-94211246D01*
X168145446Y-94315817D01*
X168070594Y-94407595D01*
X167979335Y-94483091D01*
X167875160Y-94539419D01*
X167762024Y-94574440D01*
X167613979Y-94590000D01*
X138462279Y-94590000D01*
X138312131Y-94575278D01*
X138198754Y-94541047D01*
X138094183Y-94485446D01*
X138002405Y-94410594D01*
X137926909Y-94319335D01*
X137870581Y-94215160D01*
X137835560Y-94102024D01*
X137820000Y-93953979D01*
X137820000Y-92289268D01*
X145485000Y-92289268D01*
X145485000Y-92650732D01*
X145555518Y-93005250D01*
X145693844Y-93339199D01*
X145894662Y-93639744D01*
X146150256Y-93895338D01*
X146450801Y-94096156D01*
X146784750Y-94234482D01*
X147139268Y-94305000D01*
X147500732Y-94305000D01*
X147855250Y-94234482D01*
X148189199Y-94096156D01*
X148489744Y-93895338D01*
X148745338Y-93639744D01*
X148946156Y-93339199D01*
X149084482Y-93005250D01*
X149155000Y-92650732D01*
X149155000Y-92289268D01*
X156915000Y-92289268D01*
X156915000Y-92650732D01*
X156985518Y-93005250D01*
X157123844Y-93339199D01*
X157324662Y-93639744D01*
X157580256Y-93895338D01*
X157880801Y-94096156D01*
X158214750Y-94234482D01*
X158569268Y-94305000D01*
X158930732Y-94305000D01*
X159285250Y-94234482D01*
X159619199Y-94096156D01*
X159919744Y-93895338D01*
X160175338Y-93639744D01*
X160376156Y-93339199D01*
X160514482Y-93005250D01*
X160585000Y-92650732D01*
X160585000Y-92289268D01*
X160514482Y-91934750D01*
X160376156Y-91600801D01*
X160175338Y-91300256D01*
X159919744Y-91044662D01*
X159619199Y-90843844D01*
X159285250Y-90705518D01*
X158930732Y-90635000D01*
X158569268Y-90635000D01*
X158214750Y-90705518D01*
X157880801Y-90843844D01*
X157580256Y-91044662D01*
X157324662Y-91300256D01*
X157123844Y-91600801D01*
X156985518Y-91934750D01*
X156915000Y-92289268D01*
X149155000Y-92289268D01*
X149084482Y-91934750D01*
X148946156Y-91600801D01*
X148745338Y-91300256D01*
X148489744Y-91044662D01*
X148189199Y-90843844D01*
X147855250Y-90705518D01*
X147500732Y-90635000D01*
X147139268Y-90635000D01*
X146784750Y-90705518D01*
X146450801Y-90843844D01*
X146150256Y-91044662D01*
X145894662Y-91300256D01*
X145693844Y-91600801D01*
X145555518Y-91934750D01*
X145485000Y-92289268D01*
X137820000Y-92289268D01*
X137820000Y-89256890D01*
X138258524Y-89256890D01*
X138303175Y-89404099D01*
X138428359Y-89666920D01*
X138602412Y-89900269D01*
X138818645Y-90095178D01*
X139068748Y-90244157D01*
X139343109Y-90341481D01*
X139573000Y-90220814D01*
X139573000Y-89027000D01*
X139827000Y-89027000D01*
X139827000Y-90220814D01*
X140056891Y-90341481D01*
X140331252Y-90244157D01*
X140581355Y-90095178D01*
X140797588Y-89900269D01*
X140971641Y-89666920D01*
X141096825Y-89404099D01*
X141141476Y-89256890D01*
X164928524Y-89256890D01*
X164973175Y-89404099D01*
X165098359Y-89666920D01*
X165272412Y-89900269D01*
X165488645Y-90095178D01*
X165738748Y-90244157D01*
X166013109Y-90341481D01*
X166243000Y-90220814D01*
X166243000Y-89027000D01*
X166497000Y-89027000D01*
X166497000Y-90220814D01*
X166726891Y-90341481D01*
X167001252Y-90244157D01*
X167251355Y-90095178D01*
X167467588Y-89900269D01*
X167641641Y-89666920D01*
X167766825Y-89404099D01*
X167811476Y-89256890D01*
X167690155Y-89027000D01*
X166497000Y-89027000D01*
X166243000Y-89027000D01*
X165049845Y-89027000D01*
X164928524Y-89256890D01*
X141141476Y-89256890D01*
X141020155Y-89027000D01*
X139827000Y-89027000D01*
X139573000Y-89027000D01*
X138379845Y-89027000D01*
X138258524Y-89256890D01*
X137820000Y-89256890D01*
X137820000Y-80430000D01*
X138211928Y-80430000D01*
X138211928Y-82130000D01*
X138224188Y-82254482D01*
X138260498Y-82374180D01*
X138319463Y-82484494D01*
X138398815Y-82581185D01*
X138495506Y-82660537D01*
X138605820Y-82719502D01*
X138678380Y-82741513D01*
X138546525Y-82873368D01*
X138384010Y-83116589D01*
X138272068Y-83386842D01*
X138215000Y-83673740D01*
X138215000Y-83966260D01*
X138272068Y-84253158D01*
X138384010Y-84523411D01*
X138546525Y-84766632D01*
X138753368Y-84973475D01*
X138927760Y-85090000D01*
X138753368Y-85206525D01*
X138546525Y-85413368D01*
X138384010Y-85656589D01*
X138272068Y-85926842D01*
X138215000Y-86213740D01*
X138215000Y-86506260D01*
X138272068Y-86793158D01*
X138384010Y-87063411D01*
X138546525Y-87306632D01*
X138753368Y-87513475D01*
X138935534Y-87635195D01*
X138818645Y-87704822D01*
X138602412Y-87899731D01*
X138428359Y-88133080D01*
X138303175Y-88395901D01*
X138258524Y-88543110D01*
X138379845Y-88773000D01*
X139573000Y-88773000D01*
X139573000Y-88753000D01*
X139827000Y-88753000D01*
X139827000Y-88773000D01*
X141020155Y-88773000D01*
X141141476Y-88543110D01*
X141096825Y-88395901D01*
X140971641Y-88133080D01*
X140797588Y-87899731D01*
X140581355Y-87704822D01*
X140464466Y-87635195D01*
X140646632Y-87513475D01*
X140853475Y-87306632D01*
X141015990Y-87063411D01*
X141127932Y-86793158D01*
X141185000Y-86506260D01*
X141185000Y-86213740D01*
X141127932Y-85926842D01*
X141015990Y-85656589D01*
X140853475Y-85413368D01*
X140646632Y-85206525D01*
X140472240Y-85090000D01*
X140646632Y-84973475D01*
X140853475Y-84766632D01*
X141015990Y-84523411D01*
X141127932Y-84253158D01*
X141185000Y-83966260D01*
X141185000Y-83673740D01*
X141127932Y-83386842D01*
X141015990Y-83116589D01*
X140853475Y-82873368D01*
X140721620Y-82741513D01*
X140794180Y-82719502D01*
X140904494Y-82660537D01*
X141001185Y-82581185D01*
X141080537Y-82484494D01*
X141139502Y-82374180D01*
X141175812Y-82254482D01*
X141188072Y-82130000D01*
X141188072Y-80430000D01*
X164881928Y-80430000D01*
X164881928Y-82130000D01*
X164894188Y-82254482D01*
X164930498Y-82374180D01*
X164989463Y-82484494D01*
X165068815Y-82581185D01*
X165165506Y-82660537D01*
X165275820Y-82719502D01*
X165348380Y-82741513D01*
X165216525Y-82873368D01*
X165054010Y-83116589D01*
X164942068Y-83386842D01*
X164885000Y-83673740D01*
X164885000Y-83966260D01*
X164942068Y-84253158D01*
X165054010Y-84523411D01*
X165216525Y-84766632D01*
X165423368Y-84973475D01*
X165597760Y-85090000D01*
X165423368Y-85206525D01*
X165216525Y-85413368D01*
X165054010Y-85656589D01*
X164942068Y-85926842D01*
X164885000Y-86213740D01*
X164885000Y-86506260D01*
X164942068Y-86793158D01*
X165054010Y-87063411D01*
X165216525Y-87306632D01*
X165423368Y-87513475D01*
X165605534Y-87635195D01*
X165488645Y-87704822D01*
X165272412Y-87899731D01*
X165098359Y-88133080D01*
X164973175Y-88395901D01*
X164928524Y-88543110D01*
X165049845Y-88773000D01*
X166243000Y-88773000D01*
X166243000Y-88753000D01*
X166497000Y-88753000D01*
X166497000Y-88773000D01*
X167690155Y-88773000D01*
X167811476Y-88543110D01*
X167766825Y-88395901D01*
X167641641Y-88133080D01*
X167467588Y-87899731D01*
X167251355Y-87704822D01*
X167134466Y-87635195D01*
X167316632Y-87513475D01*
X167523475Y-87306632D01*
X167685990Y-87063411D01*
X167797932Y-86793158D01*
X167855000Y-86506260D01*
X167855000Y-86213740D01*
X167797932Y-85926842D01*
X167685990Y-85656589D01*
X167523475Y-85413368D01*
X167316632Y-85206525D01*
X167142240Y-85090000D01*
X167316632Y-84973475D01*
X167523475Y-84766632D01*
X167685990Y-84523411D01*
X167797932Y-84253158D01*
X167855000Y-83966260D01*
X167855000Y-83673740D01*
X167797932Y-83386842D01*
X167685990Y-83116589D01*
X167523475Y-82873368D01*
X167391620Y-82741513D01*
X167464180Y-82719502D01*
X167574494Y-82660537D01*
X167671185Y-82581185D01*
X167750537Y-82484494D01*
X167809502Y-82374180D01*
X167845812Y-82254482D01*
X167858072Y-82130000D01*
X167858072Y-80430000D01*
X167845812Y-80305518D01*
X167809502Y-80185820D01*
X167750537Y-80075506D01*
X167671185Y-79978815D01*
X167574494Y-79899463D01*
X167464180Y-79840498D01*
X167344482Y-79804188D01*
X167220000Y-79791928D01*
X165520000Y-79791928D01*
X165395518Y-79804188D01*
X165275820Y-79840498D01*
X165165506Y-79899463D01*
X165068815Y-79978815D01*
X164989463Y-80075506D01*
X164930498Y-80185820D01*
X164894188Y-80305518D01*
X164881928Y-80430000D01*
X141188072Y-80430000D01*
X141175812Y-80305518D01*
X141139502Y-80185820D01*
X141080537Y-80075506D01*
X141001185Y-79978815D01*
X140904494Y-79899463D01*
X140794180Y-79840498D01*
X140674482Y-79804188D01*
X140550000Y-79791928D01*
X138850000Y-79791928D01*
X138725518Y-79804188D01*
X138605820Y-79840498D01*
X138495506Y-79899463D01*
X138398815Y-79978815D01*
X138319463Y-80075506D01*
X138260498Y-80185820D01*
X138224188Y-80305518D01*
X138211928Y-80430000D01*
X137820000Y-80430000D01*
X137820000Y-77289268D01*
X145485000Y-77289268D01*
X145485000Y-77650732D01*
X145555518Y-78005250D01*
X145693844Y-78339199D01*
X145894662Y-78639744D01*
X146150256Y-78895338D01*
X146450801Y-79096156D01*
X146784750Y-79234482D01*
X147139268Y-79305000D01*
X147500732Y-79305000D01*
X147855250Y-79234482D01*
X148189199Y-79096156D01*
X148489744Y-78895338D01*
X148745338Y-78639744D01*
X148946156Y-78339199D01*
X149084482Y-78005250D01*
X149155000Y-77650732D01*
X149155000Y-77289268D01*
X156915000Y-77289268D01*
X156915000Y-77650732D01*
X156985518Y-78005250D01*
X157123844Y-78339199D01*
X157324662Y-78639744D01*
X157580256Y-78895338D01*
X157880801Y-79096156D01*
X158214750Y-79234482D01*
X158569268Y-79305000D01*
X158930732Y-79305000D01*
X159285250Y-79234482D01*
X159619199Y-79096156D01*
X159919744Y-78895338D01*
X160175338Y-78639744D01*
X160376156Y-78339199D01*
X160514482Y-78005250D01*
X160585000Y-77650732D01*
X160585000Y-77289268D01*
X160514482Y-76934750D01*
X160376156Y-76600801D01*
X160175338Y-76300256D01*
X159919744Y-76044662D01*
X159619199Y-75843844D01*
X159285250Y-75705518D01*
X158930732Y-75635000D01*
X158569268Y-75635000D01*
X158214750Y-75705518D01*
X157880801Y-75843844D01*
X157580256Y-76044662D01*
X157324662Y-76300256D01*
X157123844Y-76600801D01*
X156985518Y-76934750D01*
X156915000Y-77289268D01*
X149155000Y-77289268D01*
X149084482Y-76934750D01*
X148946156Y-76600801D01*
X148745338Y-76300256D01*
X148489744Y-76044662D01*
X148189199Y-75843844D01*
X147855250Y-75705518D01*
X147500732Y-75635000D01*
X147139268Y-75635000D01*
X146784750Y-75705518D01*
X146450801Y-75843844D01*
X146150256Y-76044662D01*
X145894662Y-76300256D01*
X145693844Y-76600801D01*
X145555518Y-76934750D01*
X145485000Y-77289268D01*
X137820000Y-77289268D01*
X137820000Y-76232279D01*
X137834722Y-76082131D01*
X137868953Y-75968754D01*
X137924555Y-75864181D01*
X137999407Y-75772404D01*
X138090664Y-75696909D01*
X138194844Y-75640581D01*
X138307976Y-75605560D01*
X138456022Y-75590000D01*
X167607721Y-75590000D01*
X167757869Y-75604722D01*
G37*
%TD.AperFunction*%
%TD*%
M02*
