%TF.GenerationSoftware,KiCad,Pcbnew,5.1.10*%
%TF.CreationDate,2021-06-16T13:21:42+02:00*%
%TF.ProjectId,filter,66696c74-6572-42e6-9b69-6361645f7063,rev?*%
%TF.SameCoordinates,Original*%
%TF.FileFunction,Soldermask,Top*%
%TF.FilePolarity,Negative*%
%FSLAX46Y46*%
G04 Gerber Fmt 4.6, Leading zero omitted, Abs format (unit mm)*
G04 Created by KiCad (PCBNEW 5.1.10) date 2021-06-16 13:21:42*
%MOMM*%
%LPD*%
G01*
G04 APERTURE LIST*
%ADD10C,2.400000*%
%ADD11R,1.700000X1.700000*%
%ADD12O,1.700000X1.700000*%
G04 APERTURE END LIST*
D10*
%TO.C,L1*%
X170180000Y-92470000D03*
X170180000Y-77470000D03*
%TD*%
%TO.C,C2*%
G36*
G01*
X168435000Y-83465000D02*
X169385000Y-83465000D01*
G75*
G02*
X169635000Y-83715000I0J-250000D01*
G01*
X169635000Y-84390000D01*
G75*
G02*
X169385000Y-84640000I-250000J0D01*
G01*
X168435000Y-84640000D01*
G75*
G02*
X168185000Y-84390000I0J250000D01*
G01*
X168185000Y-83715000D01*
G75*
G02*
X168435000Y-83465000I250000J0D01*
G01*
G37*
G36*
G01*
X168435000Y-85540000D02*
X169385000Y-85540000D01*
G75*
G02*
X169635000Y-85790000I0J-250000D01*
G01*
X169635000Y-86465000D01*
G75*
G02*
X169385000Y-86715000I-250000J0D01*
G01*
X168435000Y-86715000D01*
G75*
G02*
X168185000Y-86465000I0J250000D01*
G01*
X168185000Y-85790000D01*
G75*
G02*
X168435000Y-85540000I250000J0D01*
G01*
G37*
%TD*%
%TO.C,C1*%
G36*
G01*
X170975000Y-85540000D02*
X171925000Y-85540000D01*
G75*
G02*
X172175000Y-85790000I0J-250000D01*
G01*
X172175000Y-86465000D01*
G75*
G02*
X171925000Y-86715000I-250000J0D01*
G01*
X170975000Y-86715000D01*
G75*
G02*
X170725000Y-86465000I0J250000D01*
G01*
X170725000Y-85790000D01*
G75*
G02*
X170975000Y-85540000I250000J0D01*
G01*
G37*
G36*
G01*
X170975000Y-83465000D02*
X171925000Y-83465000D01*
G75*
G02*
X172175000Y-83715000I0J-250000D01*
G01*
X172175000Y-84390000D01*
G75*
G02*
X171925000Y-84640000I-250000J0D01*
G01*
X170975000Y-84640000D01*
G75*
G02*
X170725000Y-84390000I0J250000D01*
G01*
X170725000Y-83715000D01*
G75*
G02*
X170975000Y-83465000I250000J0D01*
G01*
G37*
%TD*%
%TO.C,L101*%
X147320000Y-77470000D03*
X147320000Y-92470000D03*
%TD*%
%TO.C,C101*%
G36*
G01*
X154660000Y-90965000D02*
X154660000Y-91915000D01*
G75*
G02*
X154410000Y-92165000I-250000J0D01*
G01*
X153735000Y-92165000D01*
G75*
G02*
X153485000Y-91915000I0J250000D01*
G01*
X153485000Y-90965000D01*
G75*
G02*
X153735000Y-90715000I250000J0D01*
G01*
X154410000Y-90715000D01*
G75*
G02*
X154660000Y-90965000I0J-250000D01*
G01*
G37*
G36*
G01*
X152585000Y-90965000D02*
X152585000Y-91915000D01*
G75*
G02*
X152335000Y-92165000I-250000J0D01*
G01*
X151660000Y-92165000D01*
G75*
G02*
X151410000Y-91915000I0J250000D01*
G01*
X151410000Y-90965000D01*
G75*
G02*
X151660000Y-90715000I250000J0D01*
G01*
X152335000Y-90715000D01*
G75*
G02*
X152585000Y-90965000I0J-250000D01*
G01*
G37*
%TD*%
%TO.C,C102*%
G36*
G01*
X157955000Y-84175000D02*
X157005000Y-84175000D01*
G75*
G02*
X156755000Y-83925000I0J250000D01*
G01*
X156755000Y-83250000D01*
G75*
G02*
X157005000Y-83000000I250000J0D01*
G01*
X157955000Y-83000000D01*
G75*
G02*
X158205000Y-83250000I0J-250000D01*
G01*
X158205000Y-83925000D01*
G75*
G02*
X157955000Y-84175000I-250000J0D01*
G01*
G37*
G36*
G01*
X157955000Y-82100000D02*
X157005000Y-82100000D01*
G75*
G02*
X156755000Y-81850000I0J250000D01*
G01*
X156755000Y-81175000D01*
G75*
G02*
X157005000Y-80925000I250000J0D01*
G01*
X157955000Y-80925000D01*
G75*
G02*
X158205000Y-81175000I0J-250000D01*
G01*
X158205000Y-81850000D01*
G75*
G02*
X157955000Y-82100000I-250000J0D01*
G01*
G37*
%TD*%
%TO.C,C103*%
G36*
G01*
X152585000Y-88425000D02*
X152585000Y-89375000D01*
G75*
G02*
X152335000Y-89625000I-250000J0D01*
G01*
X151660000Y-89625000D01*
G75*
G02*
X151410000Y-89375000I0J250000D01*
G01*
X151410000Y-88425000D01*
G75*
G02*
X151660000Y-88175000I250000J0D01*
G01*
X152335000Y-88175000D01*
G75*
G02*
X152585000Y-88425000I0J-250000D01*
G01*
G37*
G36*
G01*
X154660000Y-88425000D02*
X154660000Y-89375000D01*
G75*
G02*
X154410000Y-89625000I-250000J0D01*
G01*
X153735000Y-89625000D01*
G75*
G02*
X153485000Y-89375000I0J250000D01*
G01*
X153485000Y-88425000D01*
G75*
G02*
X153735000Y-88175000I250000J0D01*
G01*
X154410000Y-88175000D01*
G75*
G02*
X154660000Y-88425000I0J-250000D01*
G01*
G37*
%TD*%
%TO.C,C104*%
G36*
G01*
X143035000Y-83465000D02*
X143985000Y-83465000D01*
G75*
G02*
X144235000Y-83715000I0J-250000D01*
G01*
X144235000Y-84390000D01*
G75*
G02*
X143985000Y-84640000I-250000J0D01*
G01*
X143035000Y-84640000D01*
G75*
G02*
X142785000Y-84390000I0J250000D01*
G01*
X142785000Y-83715000D01*
G75*
G02*
X143035000Y-83465000I250000J0D01*
G01*
G37*
G36*
G01*
X143035000Y-85540000D02*
X143985000Y-85540000D01*
G75*
G02*
X144235000Y-85790000I0J-250000D01*
G01*
X144235000Y-86465000D01*
G75*
G02*
X143985000Y-86715000I-250000J0D01*
G01*
X143035000Y-86715000D01*
G75*
G02*
X142785000Y-86465000I0J250000D01*
G01*
X142785000Y-85790000D01*
G75*
G02*
X143035000Y-85540000I250000J0D01*
G01*
G37*
%TD*%
%TO.C,C105*%
G36*
G01*
X159545000Y-88080000D02*
X160495000Y-88080000D01*
G75*
G02*
X160745000Y-88330000I0J-250000D01*
G01*
X160745000Y-89005000D01*
G75*
G02*
X160495000Y-89255000I-250000J0D01*
G01*
X159545000Y-89255000D01*
G75*
G02*
X159295000Y-89005000I0J250000D01*
G01*
X159295000Y-88330000D01*
G75*
G02*
X159545000Y-88080000I250000J0D01*
G01*
G37*
G36*
G01*
X159545000Y-86005000D02*
X160495000Y-86005000D01*
G75*
G02*
X160745000Y-86255000I0J-250000D01*
G01*
X160745000Y-86930000D01*
G75*
G02*
X160495000Y-87180000I-250000J0D01*
G01*
X159545000Y-87180000D01*
G75*
G02*
X159295000Y-86930000I0J250000D01*
G01*
X159295000Y-86255000D01*
G75*
G02*
X159545000Y-86005000I250000J0D01*
G01*
G37*
%TD*%
%TO.C,C106*%
G36*
G01*
X160495000Y-82100000D02*
X159545000Y-82100000D01*
G75*
G02*
X159295000Y-81850000I0J250000D01*
G01*
X159295000Y-81175000D01*
G75*
G02*
X159545000Y-80925000I250000J0D01*
G01*
X160495000Y-80925000D01*
G75*
G02*
X160745000Y-81175000I0J-250000D01*
G01*
X160745000Y-81850000D01*
G75*
G02*
X160495000Y-82100000I-250000J0D01*
G01*
G37*
G36*
G01*
X160495000Y-84175000D02*
X159545000Y-84175000D01*
G75*
G02*
X159295000Y-83925000I0J250000D01*
G01*
X159295000Y-83250000D01*
G75*
G02*
X159545000Y-83000000I250000J0D01*
G01*
X160495000Y-83000000D01*
G75*
G02*
X160745000Y-83250000I0J-250000D01*
G01*
X160745000Y-83925000D01*
G75*
G02*
X160495000Y-84175000I-250000J0D01*
G01*
G37*
%TD*%
D11*
%TO.C,J101*%
X139700000Y-81280000D03*
D12*
X139700000Y-83820000D03*
X139700000Y-86360000D03*
X139700000Y-88900000D03*
%TD*%
%TO.C,J102*%
X177800000Y-88900000D03*
X177800000Y-86360000D03*
X177800000Y-83820000D03*
D11*
X177800000Y-81280000D03*
%TD*%
D10*
%TO.C,L102*%
X158750000Y-77470000D03*
X158750000Y-92470000D03*
%TD*%
M02*
