%TF.GenerationSoftware,KiCad,Pcbnew,5.1.10*%
%TF.CreationDate,2021-06-16T16:49:43+02:00*%
%TF.ProjectId,uSDX,75534458-2e6b-4696-9361-645f70636258,rev?*%
%TF.SameCoordinates,Original*%
%TF.FileFunction,Soldermask,Top*%
%TF.FilePolarity,Negative*%
%FSLAX46Y46*%
G04 Gerber Fmt 4.6, Leading zero omitted, Abs format (unit mm)*
G04 Created by KiCad (PCBNEW 5.1.10) date 2021-06-16 16:49:43*
%MOMM*%
%LPD*%
G01*
G04 APERTURE LIST*
%ADD10C,1.524000*%
%ADD11C,2.400000*%
%ADD12R,1.524000X1.524000*%
%ADD13R,0.800000X0.900000*%
%ADD14C,5.600000*%
%ADD15O,2.200000X4.000000*%
%ADD16O,4.000000X2.200000*%
%ADD17R,4.000000X2.200000*%
%ADD18C,1.440000*%
%ADD19R,1.200000X1.400000*%
%ADD20O,1.600000X2.000000*%
%ADD21R,1.100000X1.100000*%
%ADD22R,0.900000X1.200000*%
%ADD23R,0.450000X0.700000*%
%ADD24O,1.800000X4.000000*%
%ADD25O,4.000000X1.800000*%
%ADD26R,4.400000X1.800000*%
%ADD27R,1.700000X1.700000*%
%ADD28O,1.700000X1.700000*%
%ADD29R,2.665000X4.190000*%
%ADD30R,1.780000X4.190000*%
%ADD31O,1.700000X2.000000*%
%ADD32C,1.200000*%
%ADD33R,0.900000X0.800000*%
%ADD34C,2.000000*%
%ADD35C,2.800000*%
%ADD36R,2.000000X2.000000*%
%ADD37R,1.200000X2.200000*%
%ADD38R,5.800000X6.400000*%
%ADD39R,3.800000X2.000000*%
%ADD40R,1.500000X2.000000*%
%ADD41R,1.600000X0.550000*%
%ADD42R,0.550000X1.600000*%
%ADD43R,1.560000X0.650000*%
%ADD44R,0.300000X1.400000*%
%ADD45R,1.300000X1.100000*%
G04 APERTURE END LIST*
%TO.C,L5*%
G36*
G01*
X129725000Y42995001D02*
X129725000Y42094999D01*
G75*
G02*
X129475001Y41845000I-249999J0D01*
G01*
X128824999Y41845000D01*
G75*
G02*
X128575000Y42094999I0J249999D01*
G01*
X128575000Y42995001D01*
G75*
G02*
X128824999Y43245000I249999J0D01*
G01*
X129475001Y43245000D01*
G75*
G02*
X129725000Y42995001I0J-249999D01*
G01*
G37*
G36*
G01*
X131775000Y42995001D02*
X131775000Y42094999D01*
G75*
G02*
X131525001Y41845000I-249999J0D01*
G01*
X130874999Y41845000D01*
G75*
G02*
X130625000Y42094999I0J249999D01*
G01*
X130625000Y42995001D01*
G75*
G02*
X130874999Y43245000I249999J0D01*
G01*
X131525001Y43245000D01*
G75*
G02*
X131775000Y42995001I0J-249999D01*
G01*
G37*
%TD*%
%TO.C,C12*%
G36*
G01*
X129725000Y44925000D02*
X129725000Y43975000D01*
G75*
G02*
X129475000Y43725000I-250000J0D01*
G01*
X128800000Y43725000D01*
G75*
G02*
X128550000Y43975000I0J250000D01*
G01*
X128550000Y44925000D01*
G75*
G02*
X128800000Y45175000I250000J0D01*
G01*
X129475000Y45175000D01*
G75*
G02*
X129725000Y44925000I0J-250000D01*
G01*
G37*
G36*
G01*
X131800000Y44925000D02*
X131800000Y43975000D01*
G75*
G02*
X131550000Y43725000I-250000J0D01*
G01*
X130875000Y43725000D01*
G75*
G02*
X130625000Y43975000I0J250000D01*
G01*
X130625000Y44925000D01*
G75*
G02*
X130875000Y45175000I250000J0D01*
G01*
X131550000Y45175000D01*
G75*
G02*
X131800000Y44925000I0J-250000D01*
G01*
G37*
%TD*%
D10*
%TO.C,SW2*%
X149860000Y22860000D03*
X149860000Y17780000D03*
X149860000Y12700000D03*
%TD*%
D11*
%TO.C,L4*%
X83820000Y26035000D03*
X68820000Y26035000D03*
%TD*%
D10*
%TO.C,U7*%
X74295000Y72390000D03*
X76835000Y72390000D03*
X79375000Y72390000D03*
X71755000Y72390000D03*
X79375000Y34290000D03*
X76835000Y34290000D03*
X74295000Y34290000D03*
D12*
X71755000Y34290000D03*
%TD*%
D13*
%TO.C,Q6*%
X71755000Y39640000D03*
X70805000Y41640000D03*
X72705000Y41640000D03*
%TD*%
%TO.C,Q5*%
X79375000Y39640000D03*
X78425000Y41640000D03*
X80325000Y41640000D03*
%TD*%
D14*
%TO.C,REF\u002A\u002A*%
X70000000Y100000000D03*
%TD*%
%TO.C,REF\u002A\u002A*%
X70000000Y10000000D03*
%TD*%
%TO.C,REF\u002A\u002A*%
X160000000Y10000000D03*
%TD*%
%TO.C,REF\u002A\u002A*%
X160000000Y100000000D03*
%TD*%
D15*
%TO.C,J6*%
X163285000Y55725000D03*
D16*
X155285000Y50525000D03*
X156485000Y53225000D03*
D15*
X152085000Y59825000D03*
D17*
X159385000Y60325000D03*
%TD*%
D15*
%TO.C,J5*%
X163285000Y37945000D03*
D16*
X155285000Y32745000D03*
X156485000Y35445000D03*
D15*
X152085000Y42045000D03*
D17*
X159385000Y42545000D03*
%TD*%
D18*
%TO.C,RV1*%
X124714000Y62230000D03*
X127254000Y62230000D03*
X129794000Y62230000D03*
%TD*%
D19*
%TO.C,Y1*%
X100750000Y78910000D03*
X100750000Y81110000D03*
X102450000Y81110000D03*
X102450000Y78910000D03*
%TD*%
D20*
%TO.C,Brd1*%
X110680000Y102040000D03*
X108140000Y102040000D03*
X103060000Y102040000D03*
X105600000Y102040000D03*
%TD*%
%TO.C,C1*%
G36*
G01*
X129201000Y94610000D02*
X128101000Y94610000D01*
G75*
G02*
X127851000Y94860000I0J250000D01*
G01*
X127851000Y97860000D01*
G75*
G02*
X128101000Y98110000I250000J0D01*
G01*
X129201000Y98110000D01*
G75*
G02*
X129451000Y97860000I0J-250000D01*
G01*
X129451000Y94860000D01*
G75*
G02*
X129201000Y94610000I-250000J0D01*
G01*
G37*
G36*
G01*
X129201000Y100010000D02*
X128101000Y100010000D01*
G75*
G02*
X127851000Y100260000I0J250000D01*
G01*
X127851000Y103260000D01*
G75*
G02*
X128101000Y103510000I250000J0D01*
G01*
X129201000Y103510000D01*
G75*
G02*
X129451000Y103260000I0J-250000D01*
G01*
X129451000Y100260000D01*
G75*
G02*
X129201000Y100010000I-250000J0D01*
G01*
G37*
%TD*%
%TO.C,C2*%
G36*
G01*
X133129000Y102209000D02*
X134079000Y102209000D01*
G75*
G02*
X134329000Y101959000I0J-250000D01*
G01*
X134329000Y101284000D01*
G75*
G02*
X134079000Y101034000I-250000J0D01*
G01*
X133129000Y101034000D01*
G75*
G02*
X132879000Y101284000I0J250000D01*
G01*
X132879000Y101959000D01*
G75*
G02*
X133129000Y102209000I250000J0D01*
G01*
G37*
G36*
G01*
X133129000Y100134000D02*
X134079000Y100134000D01*
G75*
G02*
X134329000Y99884000I0J-250000D01*
G01*
X134329000Y99209000D01*
G75*
G02*
X134079000Y98959000I-250000J0D01*
G01*
X133129000Y98959000D01*
G75*
G02*
X132879000Y99209000I0J250000D01*
G01*
X132879000Y99884000D01*
G75*
G02*
X133129000Y100134000I250000J0D01*
G01*
G37*
%TD*%
%TO.C,C3*%
G36*
G01*
X135034000Y100134000D02*
X135984000Y100134000D01*
G75*
G02*
X136234000Y99884000I0J-250000D01*
G01*
X136234000Y99209000D01*
G75*
G02*
X135984000Y98959000I-250000J0D01*
G01*
X135034000Y98959000D01*
G75*
G02*
X134784000Y99209000I0J250000D01*
G01*
X134784000Y99884000D01*
G75*
G02*
X135034000Y100134000I250000J0D01*
G01*
G37*
G36*
G01*
X135034000Y102209000D02*
X135984000Y102209000D01*
G75*
G02*
X136234000Y101959000I0J-250000D01*
G01*
X136234000Y101284000D01*
G75*
G02*
X135984000Y101034000I-250000J0D01*
G01*
X135034000Y101034000D01*
G75*
G02*
X134784000Y101284000I0J250000D01*
G01*
X134784000Y101959000D01*
G75*
G02*
X135034000Y102209000I250000J0D01*
G01*
G37*
%TD*%
%TO.C,C4*%
G36*
G01*
X141420000Y87282000D02*
X141420000Y88232000D01*
G75*
G02*
X141670000Y88482000I250000J0D01*
G01*
X142345000Y88482000D01*
G75*
G02*
X142595000Y88232000I0J-250000D01*
G01*
X142595000Y87282000D01*
G75*
G02*
X142345000Y87032000I-250000J0D01*
G01*
X141670000Y87032000D01*
G75*
G02*
X141420000Y87282000I0J250000D01*
G01*
G37*
G36*
G01*
X139345000Y87282000D02*
X139345000Y88232000D01*
G75*
G02*
X139595000Y88482000I250000J0D01*
G01*
X140270000Y88482000D01*
G75*
G02*
X140520000Y88232000I0J-250000D01*
G01*
X140520000Y87282000D01*
G75*
G02*
X140270000Y87032000I-250000J0D01*
G01*
X139595000Y87032000D01*
G75*
G02*
X139345000Y87282000I0J250000D01*
G01*
G37*
%TD*%
%TO.C,C5*%
G36*
G01*
X139345000Y89187000D02*
X139345000Y90137000D01*
G75*
G02*
X139595000Y90387000I250000J0D01*
G01*
X140270000Y90387000D01*
G75*
G02*
X140520000Y90137000I0J-250000D01*
G01*
X140520000Y89187000D01*
G75*
G02*
X140270000Y88937000I-250000J0D01*
G01*
X139595000Y88937000D01*
G75*
G02*
X139345000Y89187000I0J250000D01*
G01*
G37*
G36*
G01*
X141420000Y89187000D02*
X141420000Y90137000D01*
G75*
G02*
X141670000Y90387000I250000J0D01*
G01*
X142345000Y90387000D01*
G75*
G02*
X142595000Y90137000I0J-250000D01*
G01*
X142595000Y89187000D01*
G75*
G02*
X142345000Y88937000I-250000J0D01*
G01*
X141670000Y88937000D01*
G75*
G02*
X141420000Y89187000I0J250000D01*
G01*
G37*
%TD*%
%TO.C,C6*%
G36*
G01*
X153830000Y83540000D02*
X154780000Y83540000D01*
G75*
G02*
X155030000Y83290000I0J-250000D01*
G01*
X155030000Y82615000D01*
G75*
G02*
X154780000Y82365000I-250000J0D01*
G01*
X153830000Y82365000D01*
G75*
G02*
X153580000Y82615000I0J250000D01*
G01*
X153580000Y83290000D01*
G75*
G02*
X153830000Y83540000I250000J0D01*
G01*
G37*
G36*
G01*
X153830000Y81465000D02*
X154780000Y81465000D01*
G75*
G02*
X155030000Y81215000I0J-250000D01*
G01*
X155030000Y80540000D01*
G75*
G02*
X154780000Y80290000I-250000J0D01*
G01*
X153830000Y80290000D01*
G75*
G02*
X153580000Y80540000I0J250000D01*
G01*
X153580000Y81215000D01*
G75*
G02*
X153830000Y81465000I250000J0D01*
G01*
G37*
%TD*%
%TO.C,C7*%
G36*
G01*
X151925000Y83540000D02*
X152875000Y83540000D01*
G75*
G02*
X153125000Y83290000I0J-250000D01*
G01*
X153125000Y82615000D01*
G75*
G02*
X152875000Y82365000I-250000J0D01*
G01*
X151925000Y82365000D01*
G75*
G02*
X151675000Y82615000I0J250000D01*
G01*
X151675000Y83290000D01*
G75*
G02*
X151925000Y83540000I250000J0D01*
G01*
G37*
G36*
G01*
X151925000Y81465000D02*
X152875000Y81465000D01*
G75*
G02*
X153125000Y81215000I0J-250000D01*
G01*
X153125000Y80540000D01*
G75*
G02*
X152875000Y80290000I-250000J0D01*
G01*
X151925000Y80290000D01*
G75*
G02*
X151675000Y80540000I0J250000D01*
G01*
X151675000Y81215000D01*
G75*
G02*
X151925000Y81465000I250000J0D01*
G01*
G37*
%TD*%
%TO.C,C8*%
G36*
G01*
X99340000Y84615000D02*
X99340000Y85565000D01*
G75*
G02*
X99590000Y85815000I250000J0D01*
G01*
X100265000Y85815000D01*
G75*
G02*
X100515000Y85565000I0J-250000D01*
G01*
X100515000Y84615000D01*
G75*
G02*
X100265000Y84365000I-250000J0D01*
G01*
X99590000Y84365000D01*
G75*
G02*
X99340000Y84615000I0J250000D01*
G01*
G37*
G36*
G01*
X101415000Y84615000D02*
X101415000Y85565000D01*
G75*
G02*
X101665000Y85815000I250000J0D01*
G01*
X102340000Y85815000D01*
G75*
G02*
X102590000Y85565000I0J-250000D01*
G01*
X102590000Y84615000D01*
G75*
G02*
X102340000Y84365000I-250000J0D01*
G01*
X101665000Y84365000D01*
G75*
G02*
X101415000Y84615000I0J250000D01*
G01*
G37*
%TD*%
%TO.C,C9*%
G36*
G01*
X117635000Y83540000D02*
X118585000Y83540000D01*
G75*
G02*
X118835000Y83290000I0J-250000D01*
G01*
X118835000Y82615000D01*
G75*
G02*
X118585000Y82365000I-250000J0D01*
G01*
X117635000Y82365000D01*
G75*
G02*
X117385000Y82615000I0J250000D01*
G01*
X117385000Y83290000D01*
G75*
G02*
X117635000Y83540000I250000J0D01*
G01*
G37*
G36*
G01*
X117635000Y81465000D02*
X118585000Y81465000D01*
G75*
G02*
X118835000Y81215000I0J-250000D01*
G01*
X118835000Y80540000D01*
G75*
G02*
X118585000Y80290000I-250000J0D01*
G01*
X117635000Y80290000D01*
G75*
G02*
X117385000Y80540000I0J250000D01*
G01*
X117385000Y81215000D01*
G75*
G02*
X117635000Y81465000I250000J0D01*
G01*
G37*
%TD*%
%TO.C,C10*%
G36*
G01*
X101415000Y82710000D02*
X101415000Y83660000D01*
G75*
G02*
X101665000Y83910000I250000J0D01*
G01*
X102340000Y83910000D01*
G75*
G02*
X102590000Y83660000I0J-250000D01*
G01*
X102590000Y82710000D01*
G75*
G02*
X102340000Y82460000I-250000J0D01*
G01*
X101665000Y82460000D01*
G75*
G02*
X101415000Y82710000I0J250000D01*
G01*
G37*
G36*
G01*
X99340000Y82710000D02*
X99340000Y83660000D01*
G75*
G02*
X99590000Y83910000I250000J0D01*
G01*
X100265000Y83910000D01*
G75*
G02*
X100515000Y83660000I0J-250000D01*
G01*
X100515000Y82710000D01*
G75*
G02*
X100265000Y82460000I-250000J0D01*
G01*
X99590000Y82460000D01*
G75*
G02*
X99340000Y82710000I0J250000D01*
G01*
G37*
%TD*%
%TO.C,C11*%
G36*
G01*
X119540000Y81465000D02*
X120490000Y81465000D01*
G75*
G02*
X120740000Y81215000I0J-250000D01*
G01*
X120740000Y80540000D01*
G75*
G02*
X120490000Y80290000I-250000J0D01*
G01*
X119540000Y80290000D01*
G75*
G02*
X119290000Y80540000I0J250000D01*
G01*
X119290000Y81215000D01*
G75*
G02*
X119540000Y81465000I250000J0D01*
G01*
G37*
G36*
G01*
X119540000Y83540000D02*
X120490000Y83540000D01*
G75*
G02*
X120740000Y83290000I0J-250000D01*
G01*
X120740000Y82615000D01*
G75*
G02*
X120490000Y82365000I-250000J0D01*
G01*
X119540000Y82365000D01*
G75*
G02*
X119290000Y82615000I0J250000D01*
G01*
X119290000Y83290000D01*
G75*
G02*
X119540000Y83540000I250000J0D01*
G01*
G37*
%TD*%
%TO.C,C15*%
G36*
G01*
X119862000Y40480000D02*
X119862000Y39530000D01*
G75*
G02*
X119612000Y39280000I-250000J0D01*
G01*
X118937000Y39280000D01*
G75*
G02*
X118687000Y39530000I0J250000D01*
G01*
X118687000Y40480000D01*
G75*
G02*
X118937000Y40730000I250000J0D01*
G01*
X119612000Y40730000D01*
G75*
G02*
X119862000Y40480000I0J-250000D01*
G01*
G37*
G36*
G01*
X117787000Y40480000D02*
X117787000Y39530000D01*
G75*
G02*
X117537000Y39280000I-250000J0D01*
G01*
X116862000Y39280000D01*
G75*
G02*
X116612000Y39530000I0J250000D01*
G01*
X116612000Y40480000D01*
G75*
G02*
X116862000Y40730000I250000J0D01*
G01*
X117537000Y40730000D01*
G75*
G02*
X117787000Y40480000I0J-250000D01*
G01*
G37*
%TD*%
%TO.C,C16*%
G36*
G01*
X96172000Y45440000D02*
X97122000Y45440000D01*
G75*
G02*
X97372000Y45190000I0J-250000D01*
G01*
X97372000Y44515000D01*
G75*
G02*
X97122000Y44265000I-250000J0D01*
G01*
X96172000Y44265000D01*
G75*
G02*
X95922000Y44515000I0J250000D01*
G01*
X95922000Y45190000D01*
G75*
G02*
X96172000Y45440000I250000J0D01*
G01*
G37*
G36*
G01*
X96172000Y43365000D02*
X97122000Y43365000D01*
G75*
G02*
X97372000Y43115000I0J-250000D01*
G01*
X97372000Y42440000D01*
G75*
G02*
X97122000Y42190000I-250000J0D01*
G01*
X96172000Y42190000D01*
G75*
G02*
X95922000Y42440000I0J250000D01*
G01*
X95922000Y43115000D01*
G75*
G02*
X96172000Y43365000I250000J0D01*
G01*
G37*
%TD*%
%TO.C,C17*%
G36*
G01*
X95217000Y48075000D02*
X94267000Y48075000D01*
G75*
G02*
X94017000Y48325000I0J250000D01*
G01*
X94017000Y49000000D01*
G75*
G02*
X94267000Y49250000I250000J0D01*
G01*
X95217000Y49250000D01*
G75*
G02*
X95467000Y49000000I0J-250000D01*
G01*
X95467000Y48325000D01*
G75*
G02*
X95217000Y48075000I-250000J0D01*
G01*
G37*
G36*
G01*
X95217000Y46000000D02*
X94267000Y46000000D01*
G75*
G02*
X94017000Y46250000I0J250000D01*
G01*
X94017000Y46925000D01*
G75*
G02*
X94267000Y47175000I250000J0D01*
G01*
X95217000Y47175000D01*
G75*
G02*
X95467000Y46925000I0J-250000D01*
G01*
X95467000Y46250000D01*
G75*
G02*
X95217000Y46000000I-250000J0D01*
G01*
G37*
%TD*%
%TO.C,C18*%
G36*
G01*
X76787500Y53180000D02*
X76787500Y52230000D01*
G75*
G02*
X76537500Y51980000I-250000J0D01*
G01*
X75862500Y51980000D01*
G75*
G02*
X75612500Y52230000I0J250000D01*
G01*
X75612500Y53180000D01*
G75*
G02*
X75862500Y53430000I250000J0D01*
G01*
X76537500Y53430000D01*
G75*
G02*
X76787500Y53180000I0J-250000D01*
G01*
G37*
G36*
G01*
X74712500Y53180000D02*
X74712500Y52230000D01*
G75*
G02*
X74462500Y51980000I-250000J0D01*
G01*
X73787500Y51980000D01*
G75*
G02*
X73537500Y52230000I0J250000D01*
G01*
X73537500Y53180000D01*
G75*
G02*
X73787500Y53430000I250000J0D01*
G01*
X74462500Y53430000D01*
G75*
G02*
X74712500Y53180000I0J-250000D01*
G01*
G37*
%TD*%
%TO.C,C19*%
G36*
G01*
X99372000Y43655000D02*
X99372000Y42705000D01*
G75*
G02*
X99122000Y42455000I-250000J0D01*
G01*
X98447000Y42455000D01*
G75*
G02*
X98197000Y42705000I0J250000D01*
G01*
X98197000Y43655000D01*
G75*
G02*
X98447000Y43905000I250000J0D01*
G01*
X99122000Y43905000D01*
G75*
G02*
X99372000Y43655000I0J-250000D01*
G01*
G37*
G36*
G01*
X101447000Y43655000D02*
X101447000Y42705000D01*
G75*
G02*
X101197000Y42455000I-250000J0D01*
G01*
X100522000Y42455000D01*
G75*
G02*
X100272000Y42705000I0J250000D01*
G01*
X100272000Y43655000D01*
G75*
G02*
X100522000Y43905000I250000J0D01*
G01*
X101197000Y43905000D01*
G75*
G02*
X101447000Y43655000I0J-250000D01*
G01*
G37*
%TD*%
%TO.C,C20*%
G36*
G01*
X76675000Y44095000D02*
X75725000Y44095000D01*
G75*
G02*
X75475000Y44345000I0J250000D01*
G01*
X75475000Y45020000D01*
G75*
G02*
X75725000Y45270000I250000J0D01*
G01*
X76675000Y45270000D01*
G75*
G02*
X76925000Y45020000I0J-250000D01*
G01*
X76925000Y44345000D01*
G75*
G02*
X76675000Y44095000I-250000J0D01*
G01*
G37*
G36*
G01*
X76675000Y46170000D02*
X75725000Y46170000D01*
G75*
G02*
X75475000Y46420000I0J250000D01*
G01*
X75475000Y47095000D01*
G75*
G02*
X75725000Y47345000I250000J0D01*
G01*
X76675000Y47345000D01*
G75*
G02*
X76925000Y47095000I0J-250000D01*
G01*
X76925000Y46420000D01*
G75*
G02*
X76675000Y46170000I-250000J0D01*
G01*
G37*
%TD*%
%TO.C,C21*%
G36*
G01*
X97122000Y46000000D02*
X96172000Y46000000D01*
G75*
G02*
X95922000Y46250000I0J250000D01*
G01*
X95922000Y46925000D01*
G75*
G02*
X96172000Y47175000I250000J0D01*
G01*
X97122000Y47175000D01*
G75*
G02*
X97372000Y46925000I0J-250000D01*
G01*
X97372000Y46250000D01*
G75*
G02*
X97122000Y46000000I-250000J0D01*
G01*
G37*
G36*
G01*
X97122000Y48075000D02*
X96172000Y48075000D01*
G75*
G02*
X95922000Y48325000I0J250000D01*
G01*
X95922000Y49000000D01*
G75*
G02*
X96172000Y49250000I250000J0D01*
G01*
X97122000Y49250000D01*
G75*
G02*
X97372000Y49000000I0J-250000D01*
G01*
X97372000Y48325000D01*
G75*
G02*
X97122000Y48075000I-250000J0D01*
G01*
G37*
%TD*%
%TO.C,C22*%
G36*
G01*
X85565000Y31565000D02*
X84615000Y31565000D01*
G75*
G02*
X84365000Y31815000I0J250000D01*
G01*
X84365000Y32490000D01*
G75*
G02*
X84615000Y32740000I250000J0D01*
G01*
X85565000Y32740000D01*
G75*
G02*
X85815000Y32490000I0J-250000D01*
G01*
X85815000Y31815000D01*
G75*
G02*
X85565000Y31565000I-250000J0D01*
G01*
G37*
G36*
G01*
X85565000Y29490000D02*
X84615000Y29490000D01*
G75*
G02*
X84365000Y29740000I0J250000D01*
G01*
X84365000Y30415000D01*
G75*
G02*
X84615000Y30665000I250000J0D01*
G01*
X85565000Y30665000D01*
G75*
G02*
X85815000Y30415000I0J-250000D01*
G01*
X85815000Y29740000D01*
G75*
G02*
X85565000Y29490000I-250000J0D01*
G01*
G37*
%TD*%
%TO.C,C23*%
G36*
G01*
X81755000Y49980000D02*
X80805000Y49980000D01*
G75*
G02*
X80555000Y50230000I0J250000D01*
G01*
X80555000Y50905000D01*
G75*
G02*
X80805000Y51155000I250000J0D01*
G01*
X81755000Y51155000D01*
G75*
G02*
X82005000Y50905000I0J-250000D01*
G01*
X82005000Y50230000D01*
G75*
G02*
X81755000Y49980000I-250000J0D01*
G01*
G37*
G36*
G01*
X81755000Y47905000D02*
X80805000Y47905000D01*
G75*
G02*
X80555000Y48155000I0J250000D01*
G01*
X80555000Y48830000D01*
G75*
G02*
X80805000Y49080000I250000J0D01*
G01*
X81755000Y49080000D01*
G75*
G02*
X82005000Y48830000I0J-250000D01*
G01*
X82005000Y48155000D01*
G75*
G02*
X81755000Y47905000I-250000J0D01*
G01*
G37*
%TD*%
%TO.C,C24*%
G36*
G01*
X83025000Y29490000D02*
X82075000Y29490000D01*
G75*
G02*
X81825000Y29740000I0J250000D01*
G01*
X81825000Y30415000D01*
G75*
G02*
X82075000Y30665000I250000J0D01*
G01*
X83025000Y30665000D01*
G75*
G02*
X83275000Y30415000I0J-250000D01*
G01*
X83275000Y29740000D01*
G75*
G02*
X83025000Y29490000I-250000J0D01*
G01*
G37*
G36*
G01*
X83025000Y31565000D02*
X82075000Y31565000D01*
G75*
G02*
X81825000Y31815000I0J250000D01*
G01*
X81825000Y32490000D01*
G75*
G02*
X82075000Y32740000I250000J0D01*
G01*
X83025000Y32740000D01*
G75*
G02*
X83275000Y32490000I0J-250000D01*
G01*
X83275000Y31815000D01*
G75*
G02*
X83025000Y31565000I-250000J0D01*
G01*
G37*
%TD*%
%TO.C,C25*%
G36*
G01*
X113317000Y44635000D02*
X114267000Y44635000D01*
G75*
G02*
X114517000Y44385000I0J-250000D01*
G01*
X114517000Y43710000D01*
G75*
G02*
X114267000Y43460000I-250000J0D01*
G01*
X113317000Y43460000D01*
G75*
G02*
X113067000Y43710000I0J250000D01*
G01*
X113067000Y44385000D01*
G75*
G02*
X113317000Y44635000I250000J0D01*
G01*
G37*
G36*
G01*
X113317000Y46710000D02*
X114267000Y46710000D01*
G75*
G02*
X114517000Y46460000I0J-250000D01*
G01*
X114517000Y45785000D01*
G75*
G02*
X114267000Y45535000I-250000J0D01*
G01*
X113317000Y45535000D01*
G75*
G02*
X113067000Y45785000I0J250000D01*
G01*
X113067000Y46460000D01*
G75*
G02*
X113317000Y46710000I250000J0D01*
G01*
G37*
%TD*%
%TO.C,C26*%
G36*
G01*
X103987000Y32860000D02*
X103987000Y31910000D01*
G75*
G02*
X103737000Y31660000I-250000J0D01*
G01*
X103062000Y31660000D01*
G75*
G02*
X102812000Y31910000I0J250000D01*
G01*
X102812000Y32860000D01*
G75*
G02*
X103062000Y33110000I250000J0D01*
G01*
X103737000Y33110000D01*
G75*
G02*
X103987000Y32860000I0J-250000D01*
G01*
G37*
G36*
G01*
X101912000Y32860000D02*
X101912000Y31910000D01*
G75*
G02*
X101662000Y31660000I-250000J0D01*
G01*
X100987000Y31660000D01*
G75*
G02*
X100737000Y31910000I0J250000D01*
G01*
X100737000Y32860000D01*
G75*
G02*
X100987000Y33110000I250000J0D01*
G01*
X101662000Y33110000D01*
G75*
G02*
X101912000Y32860000I0J-250000D01*
G01*
G37*
%TD*%
%TO.C,C27*%
G36*
G01*
X101912000Y35400000D02*
X101912000Y34450000D01*
G75*
G02*
X101662000Y34200000I-250000J0D01*
G01*
X100987000Y34200000D01*
G75*
G02*
X100737000Y34450000I0J250000D01*
G01*
X100737000Y35400000D01*
G75*
G02*
X100987000Y35650000I250000J0D01*
G01*
X101662000Y35650000D01*
G75*
G02*
X101912000Y35400000I0J-250000D01*
G01*
G37*
G36*
G01*
X103987000Y35400000D02*
X103987000Y34450000D01*
G75*
G02*
X103737000Y34200000I-250000J0D01*
G01*
X103062000Y34200000D01*
G75*
G02*
X102812000Y34450000I0J250000D01*
G01*
X102812000Y35400000D01*
G75*
G02*
X103062000Y35650000I250000J0D01*
G01*
X103737000Y35650000D01*
G75*
G02*
X103987000Y35400000I0J-250000D01*
G01*
G37*
%TD*%
%TO.C,C28*%
G36*
G01*
X103987000Y37940000D02*
X103987000Y36990000D01*
G75*
G02*
X103737000Y36740000I-250000J0D01*
G01*
X103062000Y36740000D01*
G75*
G02*
X102812000Y36990000I0J250000D01*
G01*
X102812000Y37940000D01*
G75*
G02*
X103062000Y38190000I250000J0D01*
G01*
X103737000Y38190000D01*
G75*
G02*
X103987000Y37940000I0J-250000D01*
G01*
G37*
G36*
G01*
X101912000Y37940000D02*
X101912000Y36990000D01*
G75*
G02*
X101662000Y36740000I-250000J0D01*
G01*
X100987000Y36740000D01*
G75*
G02*
X100737000Y36990000I0J250000D01*
G01*
X100737000Y37940000D01*
G75*
G02*
X100987000Y38190000I250000J0D01*
G01*
X101662000Y38190000D01*
G75*
G02*
X101912000Y37940000I0J-250000D01*
G01*
G37*
%TD*%
%TO.C,C29*%
G36*
G01*
X101912000Y40480000D02*
X101912000Y39530000D01*
G75*
G02*
X101662000Y39280000I-250000J0D01*
G01*
X100987000Y39280000D01*
G75*
G02*
X100737000Y39530000I0J250000D01*
G01*
X100737000Y40480000D01*
G75*
G02*
X100987000Y40730000I250000J0D01*
G01*
X101662000Y40730000D01*
G75*
G02*
X101912000Y40480000I0J-250000D01*
G01*
G37*
G36*
G01*
X103987000Y40480000D02*
X103987000Y39530000D01*
G75*
G02*
X103737000Y39280000I-250000J0D01*
G01*
X103062000Y39280000D01*
G75*
G02*
X102812000Y39530000I0J250000D01*
G01*
X102812000Y40480000D01*
G75*
G02*
X103062000Y40730000I250000J0D01*
G01*
X103737000Y40730000D01*
G75*
G02*
X103987000Y40480000I0J-250000D01*
G01*
G37*
%TD*%
%TO.C,C30*%
G36*
G01*
X124112000Y37820000D02*
X125062000Y37820000D01*
G75*
G02*
X125312000Y37570000I0J-250000D01*
G01*
X125312000Y36895000D01*
G75*
G02*
X125062000Y36645000I-250000J0D01*
G01*
X124112000Y36645000D01*
G75*
G02*
X123862000Y36895000I0J250000D01*
G01*
X123862000Y37570000D01*
G75*
G02*
X124112000Y37820000I250000J0D01*
G01*
G37*
G36*
G01*
X124112000Y35745000D02*
X125062000Y35745000D01*
G75*
G02*
X125312000Y35495000I0J-250000D01*
G01*
X125312000Y34820000D01*
G75*
G02*
X125062000Y34570000I-250000J0D01*
G01*
X124112000Y34570000D01*
G75*
G02*
X123862000Y34820000I0J250000D01*
G01*
X123862000Y35495000D01*
G75*
G02*
X124112000Y35745000I250000J0D01*
G01*
G37*
%TD*%
%TO.C,C31*%
G36*
G01*
X108872000Y37650000D02*
X109822000Y37650000D01*
G75*
G02*
X110072000Y37400000I0J-250000D01*
G01*
X110072000Y36725000D01*
G75*
G02*
X109822000Y36475000I-250000J0D01*
G01*
X108872000Y36475000D01*
G75*
G02*
X108622000Y36725000I0J250000D01*
G01*
X108622000Y37400000D01*
G75*
G02*
X108872000Y37650000I250000J0D01*
G01*
G37*
G36*
G01*
X108872000Y39725000D02*
X109822000Y39725000D01*
G75*
G02*
X110072000Y39475000I0J-250000D01*
G01*
X110072000Y38800000D01*
G75*
G02*
X109822000Y38550000I-250000J0D01*
G01*
X108872000Y38550000D01*
G75*
G02*
X108622000Y38800000I0J250000D01*
G01*
X108622000Y39475000D01*
G75*
G02*
X108872000Y39725000I250000J0D01*
G01*
G37*
%TD*%
%TO.C,C32*%
G36*
G01*
X120302000Y47810000D02*
X121252000Y47810000D01*
G75*
G02*
X121502000Y47560000I0J-250000D01*
G01*
X121502000Y46885000D01*
G75*
G02*
X121252000Y46635000I-250000J0D01*
G01*
X120302000Y46635000D01*
G75*
G02*
X120052000Y46885000I0J250000D01*
G01*
X120052000Y47560000D01*
G75*
G02*
X120302000Y47810000I250000J0D01*
G01*
G37*
G36*
G01*
X120302000Y49885000D02*
X121252000Y49885000D01*
G75*
G02*
X121502000Y49635000I0J-250000D01*
G01*
X121502000Y48960000D01*
G75*
G02*
X121252000Y48710000I-250000J0D01*
G01*
X120302000Y48710000D01*
G75*
G02*
X120052000Y48960000I0J250000D01*
G01*
X120052000Y49635000D01*
G75*
G02*
X120302000Y49885000I250000J0D01*
G01*
G37*
%TD*%
%TO.C,C33*%
G36*
G01*
X117442000Y42190000D02*
X116492000Y42190000D01*
G75*
G02*
X116242000Y42440000I0J250000D01*
G01*
X116242000Y43115000D01*
G75*
G02*
X116492000Y43365000I250000J0D01*
G01*
X117442000Y43365000D01*
G75*
G02*
X117692000Y43115000I0J-250000D01*
G01*
X117692000Y42440000D01*
G75*
G02*
X117442000Y42190000I-250000J0D01*
G01*
G37*
G36*
G01*
X117442000Y44265000D02*
X116492000Y44265000D01*
G75*
G02*
X116242000Y44515000I0J250000D01*
G01*
X116242000Y45190000D01*
G75*
G02*
X116492000Y45440000I250000J0D01*
G01*
X117442000Y45440000D01*
G75*
G02*
X117692000Y45190000I0J-250000D01*
G01*
X117692000Y44515000D01*
G75*
G02*
X117442000Y44265000I-250000J0D01*
G01*
G37*
%TD*%
%TO.C,C34*%
G36*
G01*
X139695000Y59775000D02*
X139695000Y60875000D01*
G75*
G02*
X139945000Y61125000I250000J0D01*
G01*
X142945000Y61125000D01*
G75*
G02*
X143195000Y60875000I0J-250000D01*
G01*
X143195000Y59775000D01*
G75*
G02*
X142945000Y59525000I-250000J0D01*
G01*
X139945000Y59525000D01*
G75*
G02*
X139695000Y59775000I0J250000D01*
G01*
G37*
G36*
G01*
X145095000Y59775000D02*
X145095000Y60875000D01*
G75*
G02*
X145345000Y61125000I250000J0D01*
G01*
X148345000Y61125000D01*
G75*
G02*
X148595000Y60875000I0J-250000D01*
G01*
X148595000Y59775000D01*
G75*
G02*
X148345000Y59525000I-250000J0D01*
G01*
X145345000Y59525000D01*
G75*
G02*
X145095000Y59775000I0J250000D01*
G01*
G37*
%TD*%
%TO.C,C35*%
G36*
G01*
X134900000Y52230000D02*
X134900000Y53180000D01*
G75*
G02*
X135150000Y53430000I250000J0D01*
G01*
X135825000Y53430000D01*
G75*
G02*
X136075000Y53180000I0J-250000D01*
G01*
X136075000Y52230000D01*
G75*
G02*
X135825000Y51980000I-250000J0D01*
G01*
X135150000Y51980000D01*
G75*
G02*
X134900000Y52230000I0J250000D01*
G01*
G37*
G36*
G01*
X136975000Y52230000D02*
X136975000Y53180000D01*
G75*
G02*
X137225000Y53430000I250000J0D01*
G01*
X137900000Y53430000D01*
G75*
G02*
X138150000Y53180000I0J-250000D01*
G01*
X138150000Y52230000D01*
G75*
G02*
X137900000Y51980000I-250000J0D01*
G01*
X137225000Y51980000D01*
G75*
G02*
X136975000Y52230000I0J250000D01*
G01*
G37*
%TD*%
%TO.C,C36*%
G36*
G01*
X134435000Y43975000D02*
X134435000Y44925000D01*
G75*
G02*
X134685000Y45175000I250000J0D01*
G01*
X135360000Y45175000D01*
G75*
G02*
X135610000Y44925000I0J-250000D01*
G01*
X135610000Y43975000D01*
G75*
G02*
X135360000Y43725000I-250000J0D01*
G01*
X134685000Y43725000D01*
G75*
G02*
X134435000Y43975000I0J250000D01*
G01*
G37*
G36*
G01*
X132360000Y43975000D02*
X132360000Y44925000D01*
G75*
G02*
X132610000Y45175000I250000J0D01*
G01*
X133285000Y45175000D01*
G75*
G02*
X133535000Y44925000I0J-250000D01*
G01*
X133535000Y43975000D01*
G75*
G02*
X133285000Y43725000I-250000J0D01*
G01*
X132610000Y43725000D01*
G75*
G02*
X132360000Y43975000I0J250000D01*
G01*
G37*
%TD*%
%TO.C,C37*%
G36*
G01*
X135610000Y40988000D02*
X135610000Y40038000D01*
G75*
G02*
X135360000Y39788000I-250000J0D01*
G01*
X134685000Y39788000D01*
G75*
G02*
X134435000Y40038000I0J250000D01*
G01*
X134435000Y40988000D01*
G75*
G02*
X134685000Y41238000I250000J0D01*
G01*
X135360000Y41238000D01*
G75*
G02*
X135610000Y40988000I0J-250000D01*
G01*
G37*
G36*
G01*
X133535000Y40988000D02*
X133535000Y40038000D01*
G75*
G02*
X133285000Y39788000I-250000J0D01*
G01*
X132610000Y39788000D01*
G75*
G02*
X132360000Y40038000I0J250000D01*
G01*
X132360000Y40988000D01*
G75*
G02*
X132610000Y41238000I250000J0D01*
G01*
X133285000Y41238000D01*
G75*
G02*
X133535000Y40988000I0J-250000D01*
G01*
G37*
%TD*%
%TO.C,C38*%
G36*
G01*
X136245000Y62705000D02*
X136245000Y61755000D01*
G75*
G02*
X135995000Y61505000I-250000J0D01*
G01*
X135320000Y61505000D01*
G75*
G02*
X135070000Y61755000I0J250000D01*
G01*
X135070000Y62705000D01*
G75*
G02*
X135320000Y62955000I250000J0D01*
G01*
X135995000Y62955000D01*
G75*
G02*
X136245000Y62705000I0J-250000D01*
G01*
G37*
G36*
G01*
X134170000Y62705000D02*
X134170000Y61755000D01*
G75*
G02*
X133920000Y61505000I-250000J0D01*
G01*
X133245000Y61505000D01*
G75*
G02*
X132995000Y61755000I0J250000D01*
G01*
X132995000Y62705000D01*
G75*
G02*
X133245000Y62955000I250000J0D01*
G01*
X133920000Y62955000D01*
G75*
G02*
X134170000Y62705000I0J-250000D01*
G01*
G37*
%TD*%
%TO.C,C39*%
G36*
G01*
X134170000Y60800000D02*
X134170000Y59850000D01*
G75*
G02*
X133920000Y59600000I-250000J0D01*
G01*
X133245000Y59600000D01*
G75*
G02*
X132995000Y59850000I0J250000D01*
G01*
X132995000Y60800000D01*
G75*
G02*
X133245000Y61050000I250000J0D01*
G01*
X133920000Y61050000D01*
G75*
G02*
X134170000Y60800000I0J-250000D01*
G01*
G37*
G36*
G01*
X136245000Y60800000D02*
X136245000Y59850000D01*
G75*
G02*
X135995000Y59600000I-250000J0D01*
G01*
X135320000Y59600000D01*
G75*
G02*
X135070000Y59850000I0J250000D01*
G01*
X135070000Y60800000D01*
G75*
G02*
X135320000Y61050000I250000J0D01*
G01*
X135995000Y61050000D01*
G75*
G02*
X136245000Y60800000I0J-250000D01*
G01*
G37*
%TD*%
%TO.C,C40*%
G36*
G01*
X124874000Y67495000D02*
X125824000Y67495000D01*
G75*
G02*
X126074000Y67245000I0J-250000D01*
G01*
X126074000Y66570000D01*
G75*
G02*
X125824000Y66320000I-250000J0D01*
G01*
X124874000Y66320000D01*
G75*
G02*
X124624000Y66570000I0J250000D01*
G01*
X124624000Y67245000D01*
G75*
G02*
X124874000Y67495000I250000J0D01*
G01*
G37*
G36*
G01*
X124874000Y69570000D02*
X125824000Y69570000D01*
G75*
G02*
X126074000Y69320000I0J-250000D01*
G01*
X126074000Y68645000D01*
G75*
G02*
X125824000Y68395000I-250000J0D01*
G01*
X124874000Y68395000D01*
G75*
G02*
X124624000Y68645000I0J250000D01*
G01*
X124624000Y69320000D01*
G75*
G02*
X124874000Y69570000I250000J0D01*
G01*
G37*
%TD*%
%TO.C,C41*%
G36*
G01*
X126779000Y67495000D02*
X127729000Y67495000D01*
G75*
G02*
X127979000Y67245000I0J-250000D01*
G01*
X127979000Y66570000D01*
G75*
G02*
X127729000Y66320000I-250000J0D01*
G01*
X126779000Y66320000D01*
G75*
G02*
X126529000Y66570000I0J250000D01*
G01*
X126529000Y67245000D01*
G75*
G02*
X126779000Y67495000I250000J0D01*
G01*
G37*
G36*
G01*
X126779000Y69570000D02*
X127729000Y69570000D01*
G75*
G02*
X127979000Y69320000I0J-250000D01*
G01*
X127979000Y68645000D01*
G75*
G02*
X127729000Y68395000I-250000J0D01*
G01*
X126779000Y68395000D01*
G75*
G02*
X126529000Y68645000I0J250000D01*
G01*
X126529000Y69320000D01*
G75*
G02*
X126779000Y69570000I250000J0D01*
G01*
G37*
%TD*%
%TO.C,C42*%
G36*
G01*
X130589000Y67495000D02*
X131539000Y67495000D01*
G75*
G02*
X131789000Y67245000I0J-250000D01*
G01*
X131789000Y66570000D01*
G75*
G02*
X131539000Y66320000I-250000J0D01*
G01*
X130589000Y66320000D01*
G75*
G02*
X130339000Y66570000I0J250000D01*
G01*
X130339000Y67245000D01*
G75*
G02*
X130589000Y67495000I250000J0D01*
G01*
G37*
G36*
G01*
X130589000Y69570000D02*
X131539000Y69570000D01*
G75*
G02*
X131789000Y69320000I0J-250000D01*
G01*
X131789000Y68645000D01*
G75*
G02*
X131539000Y68395000I-250000J0D01*
G01*
X130589000Y68395000D01*
G75*
G02*
X130339000Y68645000I0J250000D01*
G01*
X130339000Y69320000D01*
G75*
G02*
X130589000Y69570000I250000J0D01*
G01*
G37*
%TD*%
%TO.C,C43*%
G36*
G01*
X107627000Y67150000D02*
X107627000Y66200000D01*
G75*
G02*
X107377000Y65950000I-250000J0D01*
G01*
X106702000Y65950000D01*
G75*
G02*
X106452000Y66200000I0J250000D01*
G01*
X106452000Y67150000D01*
G75*
G02*
X106702000Y67400000I250000J0D01*
G01*
X107377000Y67400000D01*
G75*
G02*
X107627000Y67150000I0J-250000D01*
G01*
G37*
G36*
G01*
X109702000Y67150000D02*
X109702000Y66200000D01*
G75*
G02*
X109452000Y65950000I-250000J0D01*
G01*
X108777000Y65950000D01*
G75*
G02*
X108527000Y66200000I0J250000D01*
G01*
X108527000Y67150000D01*
G75*
G02*
X108777000Y67400000I250000J0D01*
G01*
X109452000Y67400000D01*
G75*
G02*
X109702000Y67150000I0J-250000D01*
G01*
G37*
%TD*%
%TO.C,C44*%
G36*
G01*
X110777000Y64490000D02*
X111727000Y64490000D01*
G75*
G02*
X111977000Y64240000I0J-250000D01*
G01*
X111977000Y63565000D01*
G75*
G02*
X111727000Y63315000I-250000J0D01*
G01*
X110777000Y63315000D01*
G75*
G02*
X110527000Y63565000I0J250000D01*
G01*
X110527000Y64240000D01*
G75*
G02*
X110777000Y64490000I250000J0D01*
G01*
G37*
G36*
G01*
X110777000Y62415000D02*
X111727000Y62415000D01*
G75*
G02*
X111977000Y62165000I0J-250000D01*
G01*
X111977000Y61490000D01*
G75*
G02*
X111727000Y61240000I-250000J0D01*
G01*
X110777000Y61240000D01*
G75*
G02*
X110527000Y61490000I0J250000D01*
G01*
X110527000Y62165000D01*
G75*
G02*
X110777000Y62415000I250000J0D01*
G01*
G37*
%TD*%
%TO.C,C45*%
G36*
G01*
X114267000Y55525000D02*
X113317000Y55525000D01*
G75*
G02*
X113067000Y55775000I0J250000D01*
G01*
X113067000Y56450000D01*
G75*
G02*
X113317000Y56700000I250000J0D01*
G01*
X114267000Y56700000D01*
G75*
G02*
X114517000Y56450000I0J-250000D01*
G01*
X114517000Y55775000D01*
G75*
G02*
X114267000Y55525000I-250000J0D01*
G01*
G37*
G36*
G01*
X114267000Y57600000D02*
X113317000Y57600000D01*
G75*
G02*
X113067000Y57850000I0J250000D01*
G01*
X113067000Y58525000D01*
G75*
G02*
X113317000Y58775000I250000J0D01*
G01*
X114267000Y58775000D01*
G75*
G02*
X114517000Y58525000I0J-250000D01*
G01*
X114517000Y57850000D01*
G75*
G02*
X114267000Y57600000I-250000J0D01*
G01*
G37*
%TD*%
%TO.C,C46*%
G36*
G01*
X90645000Y102050000D02*
X89695000Y102050000D01*
G75*
G02*
X89445000Y102300000I0J250000D01*
G01*
X89445000Y102975000D01*
G75*
G02*
X89695000Y103225000I250000J0D01*
G01*
X90645000Y103225000D01*
G75*
G02*
X90895000Y102975000I0J-250000D01*
G01*
X90895000Y102300000D01*
G75*
G02*
X90645000Y102050000I-250000J0D01*
G01*
G37*
G36*
G01*
X90645000Y99975000D02*
X89695000Y99975000D01*
G75*
G02*
X89445000Y100225000I0J250000D01*
G01*
X89445000Y100900000D01*
G75*
G02*
X89695000Y101150000I250000J0D01*
G01*
X90645000Y101150000D01*
G75*
G02*
X90895000Y100900000I0J-250000D01*
G01*
X90895000Y100225000D01*
G75*
G02*
X90645000Y99975000I-250000J0D01*
G01*
G37*
%TD*%
%TO.C,C47*%
G36*
G01*
X96995000Y99975000D02*
X96045000Y99975000D01*
G75*
G02*
X95795000Y100225000I0J250000D01*
G01*
X95795000Y100900000D01*
G75*
G02*
X96045000Y101150000I250000J0D01*
G01*
X96995000Y101150000D01*
G75*
G02*
X97245000Y100900000I0J-250000D01*
G01*
X97245000Y100225000D01*
G75*
G02*
X96995000Y99975000I-250000J0D01*
G01*
G37*
G36*
G01*
X96995000Y102050000D02*
X96045000Y102050000D01*
G75*
G02*
X95795000Y102300000I0J250000D01*
G01*
X95795000Y102975000D01*
G75*
G02*
X96045000Y103225000I250000J0D01*
G01*
X96995000Y103225000D01*
G75*
G02*
X97245000Y102975000I0J-250000D01*
G01*
X97245000Y102300000D01*
G75*
G02*
X96995000Y102050000I-250000J0D01*
G01*
G37*
%TD*%
%TO.C,C48*%
G36*
G01*
X145095000Y50885000D02*
X145095000Y51985000D01*
G75*
G02*
X145345000Y52235000I250000J0D01*
G01*
X148345000Y52235000D01*
G75*
G02*
X148595000Y51985000I0J-250000D01*
G01*
X148595000Y50885000D01*
G75*
G02*
X148345000Y50635000I-250000J0D01*
G01*
X145345000Y50635000D01*
G75*
G02*
X145095000Y50885000I0J250000D01*
G01*
G37*
G36*
G01*
X139695000Y50885000D02*
X139695000Y51985000D01*
G75*
G02*
X139945000Y52235000I250000J0D01*
G01*
X142945000Y52235000D01*
G75*
G02*
X143195000Y51985000I0J-250000D01*
G01*
X143195000Y50885000D01*
G75*
G02*
X142945000Y50635000I-250000J0D01*
G01*
X139945000Y50635000D01*
G75*
G02*
X139695000Y50885000I0J250000D01*
G01*
G37*
%TD*%
D21*
%TO.C,D1*%
X123571000Y97660000D03*
X123571000Y100460000D03*
%TD*%
D22*
%TO.C,D2*%
X142620000Y92202000D03*
X139320000Y92202000D03*
%TD*%
D23*
%TO.C,D3*%
X91440000Y98790000D03*
X92090000Y96790000D03*
X90790000Y96790000D03*
%TD*%
%TO.C,D4*%
X97140000Y96790000D03*
X98440000Y96790000D03*
X97790000Y98790000D03*
%TD*%
%TO.C,F1*%
G36*
G01*
X143761000Y87519500D02*
X143761000Y87994500D01*
G75*
G02*
X143998500Y88232000I237500J0D01*
G01*
X144573500Y88232000D01*
G75*
G02*
X144811000Y87994500I0J-237500D01*
G01*
X144811000Y87519500D01*
G75*
G02*
X144573500Y87282000I-237500J0D01*
G01*
X143998500Y87282000D01*
G75*
G02*
X143761000Y87519500I0J237500D01*
G01*
G37*
G36*
G01*
X145511000Y87519500D02*
X145511000Y87994500D01*
G75*
G02*
X145748500Y88232000I237500J0D01*
G01*
X146323500Y88232000D01*
G75*
G02*
X146561000Y87994500I0J-237500D01*
G01*
X146561000Y87519500D01*
G75*
G02*
X146323500Y87282000I-237500J0D01*
G01*
X145748500Y87282000D01*
G75*
G02*
X145511000Y87519500I0J237500D01*
G01*
G37*
%TD*%
D24*
%TO.C,J1*%
X146330000Y93805000D03*
D25*
X151130000Y96605000D03*
D26*
X151130000Y90805000D03*
%TD*%
D27*
%TO.C,J2*%
X127000000Y88900000D03*
D28*
X127000000Y86360000D03*
X127000000Y83820000D03*
X127000000Y81280000D03*
X127000000Y78740000D03*
%TD*%
D27*
%TO.C,J3*%
X111125000Y69850000D03*
D28*
X111125000Y72390000D03*
X113665000Y69850000D03*
X113665000Y72390000D03*
X116205000Y69850000D03*
X116205000Y72390000D03*
%TD*%
D29*
%TO.C,J4*%
X82867500Y102870000D03*
D30*
X79375000Y102870000D03*
D29*
X75882500Y102870000D03*
%TD*%
%TO.C,L1*%
G36*
G01*
X142570000Y86175001D02*
X142570000Y85274999D01*
G75*
G02*
X142320001Y85025000I-249999J0D01*
G01*
X141669999Y85025000D01*
G75*
G02*
X141420000Y85274999I0J249999D01*
G01*
X141420000Y86175001D01*
G75*
G02*
X141669999Y86425000I249999J0D01*
G01*
X142320001Y86425000D01*
G75*
G02*
X142570000Y86175001I0J-249999D01*
G01*
G37*
G36*
G01*
X140520000Y86175001D02*
X140520000Y85274999D01*
G75*
G02*
X140270001Y85025000I-249999J0D01*
G01*
X139619999Y85025000D01*
G75*
G02*
X139370000Y85274999I0J249999D01*
G01*
X139370000Y86175001D01*
G75*
G02*
X139619999Y86425000I249999J0D01*
G01*
X140270001Y86425000D01*
G75*
G02*
X140520000Y86175001I0J-249999D01*
G01*
G37*
%TD*%
%TO.C,L2*%
G36*
G01*
X147650000Y75380001D02*
X147650000Y74479999D01*
G75*
G02*
X147400001Y74230000I-249999J0D01*
G01*
X146749999Y74230000D01*
G75*
G02*
X146500000Y74479999I0J249999D01*
G01*
X146500000Y75380001D01*
G75*
G02*
X146749999Y75630000I249999J0D01*
G01*
X147400001Y75630000D01*
G75*
G02*
X147650000Y75380001I0J-249999D01*
G01*
G37*
G36*
G01*
X145600000Y75380001D02*
X145600000Y74479999D01*
G75*
G02*
X145350001Y74230000I-249999J0D01*
G01*
X144699999Y74230000D01*
G75*
G02*
X144450000Y74479999I0J249999D01*
G01*
X144450000Y75380001D01*
G75*
G02*
X144699999Y75630000I249999J0D01*
G01*
X145350001Y75630000D01*
G75*
G02*
X145600000Y75380001I0J-249999D01*
G01*
G37*
%TD*%
%TO.C,L3*%
G36*
G01*
X122370001Y82365000D02*
X121469999Y82365000D01*
G75*
G02*
X121220000Y82614999I0J249999D01*
G01*
X121220000Y83265001D01*
G75*
G02*
X121469999Y83515000I249999J0D01*
G01*
X122370001Y83515000D01*
G75*
G02*
X122620000Y83265001I0J-249999D01*
G01*
X122620000Y82614999D01*
G75*
G02*
X122370001Y82365000I-249999J0D01*
G01*
G37*
G36*
G01*
X122370001Y80315000D02*
X121469999Y80315000D01*
G75*
G02*
X121220000Y80564999I0J249999D01*
G01*
X121220000Y81215001D01*
G75*
G02*
X121469999Y81465000I249999J0D01*
G01*
X122370001Y81465000D01*
G75*
G02*
X122620000Y81215001I0J-249999D01*
G01*
X122620000Y80564999D01*
G75*
G02*
X122370001Y80315000I-249999J0D01*
G01*
G37*
%TD*%
%TO.C,LS1*%
G36*
G01*
X156425000Y67425000D02*
X156425000Y65925000D01*
G75*
G02*
X156175000Y65675000I-250000J0D01*
G01*
X154975000Y65675000D01*
G75*
G02*
X154725000Y65925000I0J250000D01*
G01*
X154725000Y67425000D01*
G75*
G02*
X154975000Y67675000I250000J0D01*
G01*
X156175000Y67675000D01*
G75*
G02*
X156425000Y67425000I0J-250000D01*
G01*
G37*
D31*
X153075000Y66675000D03*
D32*
X157175000Y68675000D03*
%TD*%
D10*
%TO.C,MK1*%
X140335000Y42037000D03*
X142875000Y42037000D03*
%TD*%
D13*
%TO.C,Q1*%
X93787000Y44815000D03*
X91887000Y44815000D03*
X92837000Y42815000D03*
%TD*%
%TO.C,Q2*%
X76515000Y41640000D03*
X74615000Y41640000D03*
X75565000Y39640000D03*
%TD*%
D33*
%TO.C,Q3*%
X104632000Y57470000D03*
X104632000Y59370000D03*
X102632000Y58420000D03*
%TD*%
%TO.C,Q4*%
X102632000Y53975000D03*
X104632000Y54925000D03*
X104632000Y53025000D03*
%TD*%
%TO.C,R1*%
G36*
G01*
X113970000Y66224999D02*
X113970000Y67125001D01*
G75*
G02*
X114219999Y67375000I249999J0D01*
G01*
X114920001Y67375000D01*
G75*
G02*
X115170000Y67125001I0J-249999D01*
G01*
X115170000Y66224999D01*
G75*
G02*
X114920001Y65975000I-249999J0D01*
G01*
X114219999Y65975000D01*
G75*
G02*
X113970000Y66224999I0J249999D01*
G01*
G37*
G36*
G01*
X115970000Y66224999D02*
X115970000Y67125001D01*
G75*
G02*
X116219999Y67375000I249999J0D01*
G01*
X116920001Y67375000D01*
G75*
G02*
X117170000Y67125001I0J-249999D01*
G01*
X117170000Y66224999D01*
G75*
G02*
X116920001Y65975000I-249999J0D01*
G01*
X116219999Y65975000D01*
G75*
G02*
X115970000Y66224999I0J249999D01*
G01*
G37*
%TD*%
%TO.C,R2*%
G36*
G01*
X93287001Y46025000D02*
X92386999Y46025000D01*
G75*
G02*
X92137000Y46274999I0J249999D01*
G01*
X92137000Y46975001D01*
G75*
G02*
X92386999Y47225000I249999J0D01*
G01*
X93287001Y47225000D01*
G75*
G02*
X93537000Y46975001I0J-249999D01*
G01*
X93537000Y46274999D01*
G75*
G02*
X93287001Y46025000I-249999J0D01*
G01*
G37*
G36*
G01*
X93287001Y48025000D02*
X92386999Y48025000D01*
G75*
G02*
X92137000Y48274999I0J249999D01*
G01*
X92137000Y48975001D01*
G75*
G02*
X92386999Y49225000I249999J0D01*
G01*
X93287001Y49225000D01*
G75*
G02*
X93537000Y48975001I0J-249999D01*
G01*
X93537000Y48274999D01*
G75*
G02*
X93287001Y48025000I-249999J0D01*
G01*
G37*
%TD*%
%TO.C,R3*%
G36*
G01*
X90481999Y47225000D02*
X91382001Y47225000D01*
G75*
G02*
X91632000Y46975001I0J-249999D01*
G01*
X91632000Y46274999D01*
G75*
G02*
X91382001Y46025000I-249999J0D01*
G01*
X90481999Y46025000D01*
G75*
G02*
X90232000Y46274999I0J249999D01*
G01*
X90232000Y46975001D01*
G75*
G02*
X90481999Y47225000I249999J0D01*
G01*
G37*
G36*
G01*
X90481999Y49225000D02*
X91382001Y49225000D01*
G75*
G02*
X91632000Y48975001I0J-249999D01*
G01*
X91632000Y48274999D01*
G75*
G02*
X91382001Y48025000I-249999J0D01*
G01*
X90481999Y48025000D01*
G75*
G02*
X90232000Y48274999I0J249999D01*
G01*
X90232000Y48975001D01*
G75*
G02*
X90481999Y49225000I249999J0D01*
G01*
G37*
%TD*%
%TO.C,R4*%
G36*
G01*
X79825001Y49930000D02*
X78924999Y49930000D01*
G75*
G02*
X78675000Y50179999I0J249999D01*
G01*
X78675000Y50880001D01*
G75*
G02*
X78924999Y51130000I249999J0D01*
G01*
X79825001Y51130000D01*
G75*
G02*
X80075000Y50880001I0J-249999D01*
G01*
X80075000Y50179999D01*
G75*
G02*
X79825001Y49930000I-249999J0D01*
G01*
G37*
G36*
G01*
X79825001Y47930000D02*
X78924999Y47930000D01*
G75*
G02*
X78675000Y48179999I0J249999D01*
G01*
X78675000Y48880001D01*
G75*
G02*
X78924999Y49130000I249999J0D01*
G01*
X79825001Y49130000D01*
G75*
G02*
X80075000Y48880001I0J-249999D01*
G01*
X80075000Y48179999D01*
G75*
G02*
X79825001Y47930000I-249999J0D01*
G01*
G37*
%TD*%
%TO.C,R5*%
G36*
G01*
X99422000Y45535001D02*
X99422000Y44634999D01*
G75*
G02*
X99172001Y44385000I-249999J0D01*
G01*
X98471999Y44385000D01*
G75*
G02*
X98222000Y44634999I0J249999D01*
G01*
X98222000Y45535001D01*
G75*
G02*
X98471999Y45785000I249999J0D01*
G01*
X99172001Y45785000D01*
G75*
G02*
X99422000Y45535001I0J-249999D01*
G01*
G37*
G36*
G01*
X101422000Y45535001D02*
X101422000Y44634999D01*
G75*
G02*
X101172001Y44385000I-249999J0D01*
G01*
X100471999Y44385000D01*
G75*
G02*
X100222000Y44634999I0J249999D01*
G01*
X100222000Y45535001D01*
G75*
G02*
X100471999Y45785000I249999J0D01*
G01*
X101172001Y45785000D01*
G75*
G02*
X101422000Y45535001I0J-249999D01*
G01*
G37*
%TD*%
%TO.C,R6*%
G36*
G01*
X79825001Y46120000D02*
X78924999Y46120000D01*
G75*
G02*
X78675000Y46369999I0J249999D01*
G01*
X78675000Y47070001D01*
G75*
G02*
X78924999Y47320000I249999J0D01*
G01*
X79825001Y47320000D01*
G75*
G02*
X80075000Y47070001I0J-249999D01*
G01*
X80075000Y46369999D01*
G75*
G02*
X79825001Y46120000I-249999J0D01*
G01*
G37*
G36*
G01*
X79825001Y44120000D02*
X78924999Y44120000D01*
G75*
G02*
X78675000Y44369999I0J249999D01*
G01*
X78675000Y45070001D01*
G75*
G02*
X78924999Y45320000I249999J0D01*
G01*
X79825001Y45320000D01*
G75*
G02*
X80075000Y45070001I0J-249999D01*
G01*
X80075000Y44369999D01*
G75*
G02*
X79825001Y44120000I-249999J0D01*
G01*
G37*
%TD*%
%TO.C,R7*%
G36*
G01*
X99422000Y47440001D02*
X99422000Y46539999D01*
G75*
G02*
X99172001Y46290000I-249999J0D01*
G01*
X98471999Y46290000D01*
G75*
G02*
X98222000Y46539999I0J249999D01*
G01*
X98222000Y47440001D01*
G75*
G02*
X98471999Y47690000I249999J0D01*
G01*
X99172001Y47690000D01*
G75*
G02*
X99422000Y47440001I0J-249999D01*
G01*
G37*
G36*
G01*
X101422000Y47440001D02*
X101422000Y46539999D01*
G75*
G02*
X101172001Y46290000I-249999J0D01*
G01*
X100471999Y46290000D01*
G75*
G02*
X100222000Y46539999I0J249999D01*
G01*
X100222000Y47440001D01*
G75*
G02*
X100471999Y47690000I249999J0D01*
G01*
X101172001Y47690000D01*
G75*
G02*
X101422000Y47440001I0J-249999D01*
G01*
G37*
%TD*%
%TO.C,R8*%
G36*
G01*
X98222000Y48444999D02*
X98222000Y49345001D01*
G75*
G02*
X98471999Y49595000I249999J0D01*
G01*
X99172001Y49595000D01*
G75*
G02*
X99422000Y49345001I0J-249999D01*
G01*
X99422000Y48444999D01*
G75*
G02*
X99172001Y48195000I-249999J0D01*
G01*
X98471999Y48195000D01*
G75*
G02*
X98222000Y48444999I0J249999D01*
G01*
G37*
G36*
G01*
X100222000Y48444999D02*
X100222000Y49345001D01*
G75*
G02*
X100471999Y49595000I249999J0D01*
G01*
X101172001Y49595000D01*
G75*
G02*
X101422000Y49345001I0J-249999D01*
G01*
X101422000Y48444999D01*
G75*
G02*
X101172001Y48195000I-249999J0D01*
G01*
X100471999Y48195000D01*
G75*
G02*
X100222000Y48444999I0J249999D01*
G01*
G37*
%TD*%
%TO.C,R9*%
G36*
G01*
X117297000Y30930001D02*
X117297000Y30029999D01*
G75*
G02*
X117047001Y29780000I-249999J0D01*
G01*
X116346999Y29780000D01*
G75*
G02*
X116097000Y30029999I0J249999D01*
G01*
X116097000Y30930001D01*
G75*
G02*
X116346999Y31180000I249999J0D01*
G01*
X117047001Y31180000D01*
G75*
G02*
X117297000Y30930001I0J-249999D01*
G01*
G37*
G36*
G01*
X115297000Y30930001D02*
X115297000Y30029999D01*
G75*
G02*
X115047001Y29780000I-249999J0D01*
G01*
X114346999Y29780000D01*
G75*
G02*
X114097000Y30029999I0J249999D01*
G01*
X114097000Y30930001D01*
G75*
G02*
X114346999Y31180000I249999J0D01*
G01*
X115047001Y31180000D01*
G75*
G02*
X115297000Y30930001I0J-249999D01*
G01*
G37*
%TD*%
%TO.C,R10*%
G36*
G01*
X115297000Y32835001D02*
X115297000Y31934999D01*
G75*
G02*
X115047001Y31685000I-249999J0D01*
G01*
X114346999Y31685000D01*
G75*
G02*
X114097000Y31934999I0J249999D01*
G01*
X114097000Y32835001D01*
G75*
G02*
X114346999Y33085000I249999J0D01*
G01*
X115047001Y33085000D01*
G75*
G02*
X115297000Y32835001I0J-249999D01*
G01*
G37*
G36*
G01*
X117297000Y32835001D02*
X117297000Y31934999D01*
G75*
G02*
X117047001Y31685000I-249999J0D01*
G01*
X116346999Y31685000D01*
G75*
G02*
X116097000Y31934999I0J249999D01*
G01*
X116097000Y32835001D01*
G75*
G02*
X116346999Y33085000I249999J0D01*
G01*
X117047001Y33085000D01*
G75*
G02*
X117297000Y32835001I0J-249999D01*
G01*
G37*
%TD*%
%TO.C,R11*%
G36*
G01*
X112217000Y33470001D02*
X112217000Y32569999D01*
G75*
G02*
X111967001Y32320000I-249999J0D01*
G01*
X111266999Y32320000D01*
G75*
G02*
X111017000Y32569999I0J249999D01*
G01*
X111017000Y33470001D01*
G75*
G02*
X111266999Y33720000I249999J0D01*
G01*
X111967001Y33720000D01*
G75*
G02*
X112217000Y33470001I0J-249999D01*
G01*
G37*
G36*
G01*
X110217000Y33470001D02*
X110217000Y32569999D01*
G75*
G02*
X109967001Y32320000I-249999J0D01*
G01*
X109266999Y32320000D01*
G75*
G02*
X109017000Y32569999I0J249999D01*
G01*
X109017000Y33470001D01*
G75*
G02*
X109266999Y33720000I249999J0D01*
G01*
X109967001Y33720000D01*
G75*
G02*
X110217000Y33470001I0J-249999D01*
G01*
G37*
%TD*%
%TO.C,R12*%
G36*
G01*
X110217000Y35375001D02*
X110217000Y34474999D01*
G75*
G02*
X109967001Y34225000I-249999J0D01*
G01*
X109266999Y34225000D01*
G75*
G02*
X109017000Y34474999I0J249999D01*
G01*
X109017000Y35375001D01*
G75*
G02*
X109266999Y35625000I249999J0D01*
G01*
X109967001Y35625000D01*
G75*
G02*
X110217000Y35375001I0J-249999D01*
G01*
G37*
G36*
G01*
X112217000Y35375001D02*
X112217000Y34474999D01*
G75*
G02*
X111967001Y34225000I-249999J0D01*
G01*
X111266999Y34225000D01*
G75*
G02*
X111017000Y34474999I0J249999D01*
G01*
X111017000Y35375001D01*
G75*
G02*
X111266999Y35625000I249999J0D01*
G01*
X111967001Y35625000D01*
G75*
G02*
X112217000Y35375001I0J-249999D01*
G01*
G37*
%TD*%
%TO.C,R13*%
G36*
G01*
X121596999Y35795000D02*
X122497001Y35795000D01*
G75*
G02*
X122747000Y35545001I0J-249999D01*
G01*
X122747000Y34844999D01*
G75*
G02*
X122497001Y34595000I-249999J0D01*
G01*
X121596999Y34595000D01*
G75*
G02*
X121347000Y34844999I0J249999D01*
G01*
X121347000Y35545001D01*
G75*
G02*
X121596999Y35795000I249999J0D01*
G01*
G37*
G36*
G01*
X121596999Y37795000D02*
X122497001Y37795000D01*
G75*
G02*
X122747000Y37545001I0J-249999D01*
G01*
X122747000Y36844999D01*
G75*
G02*
X122497001Y36595000I-249999J0D01*
G01*
X121596999Y36595000D01*
G75*
G02*
X121347000Y36844999I0J249999D01*
G01*
X121347000Y37545001D01*
G75*
G02*
X121596999Y37795000I249999J0D01*
G01*
G37*
%TD*%
%TO.C,R14*%
G36*
G01*
X111436999Y39700000D02*
X112337001Y39700000D01*
G75*
G02*
X112587000Y39450001I0J-249999D01*
G01*
X112587000Y38749999D01*
G75*
G02*
X112337001Y38500000I-249999J0D01*
G01*
X111436999Y38500000D01*
G75*
G02*
X111187000Y38749999I0J249999D01*
G01*
X111187000Y39450001D01*
G75*
G02*
X111436999Y39700000I249999J0D01*
G01*
G37*
G36*
G01*
X111436999Y37700000D02*
X112337001Y37700000D01*
G75*
G02*
X112587000Y37450001I0J-249999D01*
G01*
X112587000Y36749999D01*
G75*
G02*
X112337001Y36500000I-249999J0D01*
G01*
X111436999Y36500000D01*
G75*
G02*
X111187000Y36749999I0J249999D01*
G01*
X111187000Y37450001D01*
G75*
G02*
X111436999Y37700000I249999J0D01*
G01*
G37*
%TD*%
%TO.C,R15*%
G36*
G01*
X118421999Y47860000D02*
X119322001Y47860000D01*
G75*
G02*
X119572000Y47610001I0J-249999D01*
G01*
X119572000Y46909999D01*
G75*
G02*
X119322001Y46660000I-249999J0D01*
G01*
X118421999Y46660000D01*
G75*
G02*
X118172000Y46909999I0J249999D01*
G01*
X118172000Y47610001D01*
G75*
G02*
X118421999Y47860000I249999J0D01*
G01*
G37*
G36*
G01*
X118421999Y49860000D02*
X119322001Y49860000D01*
G75*
G02*
X119572000Y49610001I0J-249999D01*
G01*
X119572000Y48909999D01*
G75*
G02*
X119322001Y48660000I-249999J0D01*
G01*
X118421999Y48660000D01*
G75*
G02*
X118172000Y48909999I0J249999D01*
G01*
X118172000Y49610001D01*
G75*
G02*
X118421999Y49860000I249999J0D01*
G01*
G37*
%TD*%
%TO.C,R16*%
G36*
G01*
X117417001Y46660000D02*
X116516999Y46660000D01*
G75*
G02*
X116267000Y46909999I0J249999D01*
G01*
X116267000Y47610001D01*
G75*
G02*
X116516999Y47860000I249999J0D01*
G01*
X117417001Y47860000D01*
G75*
G02*
X117667000Y47610001I0J-249999D01*
G01*
X117667000Y46909999D01*
G75*
G02*
X117417001Y46660000I-249999J0D01*
G01*
G37*
G36*
G01*
X117417001Y48660000D02*
X116516999Y48660000D01*
G75*
G02*
X116267000Y48909999I0J249999D01*
G01*
X116267000Y49610001D01*
G75*
G02*
X116516999Y49860000I249999J0D01*
G01*
X117417001Y49860000D01*
G75*
G02*
X117667000Y49610001I0J-249999D01*
G01*
X117667000Y48909999D01*
G75*
G02*
X117417001Y48660000I-249999J0D01*
G01*
G37*
%TD*%
%TO.C,R17*%
G36*
G01*
X119322001Y42215000D02*
X118421999Y42215000D01*
G75*
G02*
X118172000Y42464999I0J249999D01*
G01*
X118172000Y43165001D01*
G75*
G02*
X118421999Y43415000I249999J0D01*
G01*
X119322001Y43415000D01*
G75*
G02*
X119572000Y43165001I0J-249999D01*
G01*
X119572000Y42464999D01*
G75*
G02*
X119322001Y42215000I-249999J0D01*
G01*
G37*
G36*
G01*
X119322001Y44215000D02*
X118421999Y44215000D01*
G75*
G02*
X118172000Y44464999I0J249999D01*
G01*
X118172000Y45165001D01*
G75*
G02*
X118421999Y45415000I249999J0D01*
G01*
X119322001Y45415000D01*
G75*
G02*
X119572000Y45165001I0J-249999D01*
G01*
X119572000Y44464999D01*
G75*
G02*
X119322001Y44215000I-249999J0D01*
G01*
G37*
%TD*%
%TO.C,R18*%
G36*
G01*
X120326999Y43415000D02*
X121227001Y43415000D01*
G75*
G02*
X121477000Y43165001I0J-249999D01*
G01*
X121477000Y42464999D01*
G75*
G02*
X121227001Y42215000I-249999J0D01*
G01*
X120326999Y42215000D01*
G75*
G02*
X120077000Y42464999I0J249999D01*
G01*
X120077000Y43165001D01*
G75*
G02*
X120326999Y43415000I249999J0D01*
G01*
G37*
G36*
G01*
X120326999Y45415000D02*
X121227001Y45415000D01*
G75*
G02*
X121477000Y45165001I0J-249999D01*
G01*
X121477000Y44464999D01*
G75*
G02*
X121227001Y44215000I-249999J0D01*
G01*
X120326999Y44215000D01*
G75*
G02*
X120077000Y44464999I0J249999D01*
G01*
X120077000Y45165001D01*
G75*
G02*
X120326999Y45415000I249999J0D01*
G01*
G37*
%TD*%
%TO.C,R19*%
G36*
G01*
X132385000Y42094999D02*
X132385000Y42995001D01*
G75*
G02*
X132634999Y43245000I249999J0D01*
G01*
X133335001Y43245000D01*
G75*
G02*
X133585000Y42995001I0J-249999D01*
G01*
X133585000Y42094999D01*
G75*
G02*
X133335001Y41845000I-249999J0D01*
G01*
X132634999Y41845000D01*
G75*
G02*
X132385000Y42094999I0J249999D01*
G01*
G37*
G36*
G01*
X134385000Y42094999D02*
X134385000Y42995001D01*
G75*
G02*
X134634999Y43245000I249999J0D01*
G01*
X135335001Y43245000D01*
G75*
G02*
X135585000Y42995001I0J-249999D01*
G01*
X135585000Y42094999D01*
G75*
G02*
X135335001Y41845000I-249999J0D01*
G01*
X134634999Y41845000D01*
G75*
G02*
X134385000Y42094999I0J249999D01*
G01*
G37*
%TD*%
%TO.C,R20*%
G36*
G01*
X134925000Y50349999D02*
X134925000Y51250001D01*
G75*
G02*
X135174999Y51500000I249999J0D01*
G01*
X135875001Y51500000D01*
G75*
G02*
X136125000Y51250001I0J-249999D01*
G01*
X136125000Y50349999D01*
G75*
G02*
X135875001Y50100000I-249999J0D01*
G01*
X135174999Y50100000D01*
G75*
G02*
X134925000Y50349999I0J249999D01*
G01*
G37*
G36*
G01*
X136925000Y50349999D02*
X136925000Y51250001D01*
G75*
G02*
X137174999Y51500000I249999J0D01*
G01*
X137875001Y51500000D01*
G75*
G02*
X138125000Y51250001I0J-249999D01*
G01*
X138125000Y50349999D01*
G75*
G02*
X137875001Y50100000I-249999J0D01*
G01*
X137174999Y50100000D01*
G75*
G02*
X136925000Y50349999I0J249999D01*
G01*
G37*
%TD*%
%TO.C,R21*%
G36*
G01*
X135585000Y36899001D02*
X135585000Y35998999D01*
G75*
G02*
X135335001Y35749000I-249999J0D01*
G01*
X134634999Y35749000D01*
G75*
G02*
X134385000Y35998999I0J249999D01*
G01*
X134385000Y36899001D01*
G75*
G02*
X134634999Y37149000I249999J0D01*
G01*
X135335001Y37149000D01*
G75*
G02*
X135585000Y36899001I0J-249999D01*
G01*
G37*
G36*
G01*
X133585000Y36899001D02*
X133585000Y35998999D01*
G75*
G02*
X133335001Y35749000I-249999J0D01*
G01*
X132634999Y35749000D01*
G75*
G02*
X132385000Y35998999I0J249999D01*
G01*
X132385000Y36899001D01*
G75*
G02*
X132634999Y37149000I249999J0D01*
G01*
X133335001Y37149000D01*
G75*
G02*
X133585000Y36899001I0J-249999D01*
G01*
G37*
%TD*%
%TO.C,R22*%
G36*
G01*
X134385000Y38030999D02*
X134385000Y38931001D01*
G75*
G02*
X134634999Y39181000I249999J0D01*
G01*
X135335001Y39181000D01*
G75*
G02*
X135585000Y38931001I0J-249999D01*
G01*
X135585000Y38030999D01*
G75*
G02*
X135335001Y37781000I-249999J0D01*
G01*
X134634999Y37781000D01*
G75*
G02*
X134385000Y38030999I0J249999D01*
G01*
G37*
G36*
G01*
X132385000Y38030999D02*
X132385000Y38931001D01*
G75*
G02*
X132634999Y39181000I249999J0D01*
G01*
X133335001Y39181000D01*
G75*
G02*
X133585000Y38931001I0J-249999D01*
G01*
X133585000Y38030999D01*
G75*
G02*
X133335001Y37781000I-249999J0D01*
G01*
X132634999Y37781000D01*
G75*
G02*
X132385000Y38030999I0J249999D01*
G01*
G37*
%TD*%
%TO.C,R23*%
G36*
G01*
X122993999Y69545000D02*
X123894001Y69545000D01*
G75*
G02*
X124144000Y69295001I0J-249999D01*
G01*
X124144000Y68594999D01*
G75*
G02*
X123894001Y68345000I-249999J0D01*
G01*
X122993999Y68345000D01*
G75*
G02*
X122744000Y68594999I0J249999D01*
G01*
X122744000Y69295001D01*
G75*
G02*
X122993999Y69545000I249999J0D01*
G01*
G37*
G36*
G01*
X122993999Y67545000D02*
X123894001Y67545000D01*
G75*
G02*
X124144000Y67295001I0J-249999D01*
G01*
X124144000Y66594999D01*
G75*
G02*
X123894001Y66345000I-249999J0D01*
G01*
X122993999Y66345000D01*
G75*
G02*
X122744000Y66594999I0J249999D01*
G01*
X122744000Y67295001D01*
G75*
G02*
X122993999Y67545000I249999J0D01*
G01*
G37*
%TD*%
%TO.C,R24*%
G36*
G01*
X129609001Y68345000D02*
X128708999Y68345000D01*
G75*
G02*
X128459000Y68594999I0J249999D01*
G01*
X128459000Y69295001D01*
G75*
G02*
X128708999Y69545000I249999J0D01*
G01*
X129609001Y69545000D01*
G75*
G02*
X129859000Y69295001I0J-249999D01*
G01*
X129859000Y68594999D01*
G75*
G02*
X129609001Y68345000I-249999J0D01*
G01*
G37*
G36*
G01*
X129609001Y66345000D02*
X128708999Y66345000D01*
G75*
G02*
X128459000Y66594999I0J249999D01*
G01*
X128459000Y67295001D01*
G75*
G02*
X128708999Y67545000I249999J0D01*
G01*
X129609001Y67545000D01*
G75*
G02*
X129859000Y67295001I0J-249999D01*
G01*
X129859000Y66594999D01*
G75*
G02*
X129609001Y66345000I-249999J0D01*
G01*
G37*
%TD*%
%TO.C,R25*%
G36*
G01*
X104451999Y62465000D02*
X105352001Y62465000D01*
G75*
G02*
X105602000Y62215001I0J-249999D01*
G01*
X105602000Y61514999D01*
G75*
G02*
X105352001Y61265000I-249999J0D01*
G01*
X104451999Y61265000D01*
G75*
G02*
X104202000Y61514999I0J249999D01*
G01*
X104202000Y62215001D01*
G75*
G02*
X104451999Y62465000I249999J0D01*
G01*
G37*
G36*
G01*
X104451999Y64465000D02*
X105352001Y64465000D01*
G75*
G02*
X105602000Y64215001I0J-249999D01*
G01*
X105602000Y63514999D01*
G75*
G02*
X105352001Y63265000I-249999J0D01*
G01*
X104451999Y63265000D01*
G75*
G02*
X104202000Y63514999I0J249999D01*
G01*
X104202000Y64215001D01*
G75*
G02*
X104451999Y64465000I249999J0D01*
G01*
G37*
%TD*%
%TO.C,R26*%
G36*
G01*
X103447001Y61265000D02*
X102546999Y61265000D01*
G75*
G02*
X102297000Y61514999I0J249999D01*
G01*
X102297000Y62215001D01*
G75*
G02*
X102546999Y62465000I249999J0D01*
G01*
X103447001Y62465000D01*
G75*
G02*
X103697000Y62215001I0J-249999D01*
G01*
X103697000Y61514999D01*
G75*
G02*
X103447001Y61265000I-249999J0D01*
G01*
G37*
G36*
G01*
X103447001Y63265000D02*
X102546999Y63265000D01*
G75*
G02*
X102297000Y63514999I0J249999D01*
G01*
X102297000Y64215001D01*
G75*
G02*
X102546999Y64465000I249999J0D01*
G01*
X103447001Y64465000D01*
G75*
G02*
X103697000Y64215001I0J-249999D01*
G01*
X103697000Y63514999D01*
G75*
G02*
X103447001Y63265000I-249999J0D01*
G01*
G37*
%TD*%
%TO.C,R27*%
G36*
G01*
X107257001Y58820000D02*
X106356999Y58820000D01*
G75*
G02*
X106107000Y59069999I0J249999D01*
G01*
X106107000Y59770001D01*
G75*
G02*
X106356999Y60020000I249999J0D01*
G01*
X107257001Y60020000D01*
G75*
G02*
X107507000Y59770001I0J-249999D01*
G01*
X107507000Y59069999D01*
G75*
G02*
X107257001Y58820000I-249999J0D01*
G01*
G37*
G36*
G01*
X107257001Y56820000D02*
X106356999Y56820000D01*
G75*
G02*
X106107000Y57069999I0J249999D01*
G01*
X106107000Y57770001D01*
G75*
G02*
X106356999Y58020000I249999J0D01*
G01*
X107257001Y58020000D01*
G75*
G02*
X107507000Y57770001I0J-249999D01*
G01*
X107507000Y57069999D01*
G75*
G02*
X107257001Y56820000I-249999J0D01*
G01*
G37*
%TD*%
%TO.C,R28*%
G36*
G01*
X107257001Y54375000D02*
X106356999Y54375000D01*
G75*
G02*
X106107000Y54624999I0J249999D01*
G01*
X106107000Y55325001D01*
G75*
G02*
X106356999Y55575000I249999J0D01*
G01*
X107257001Y55575000D01*
G75*
G02*
X107507000Y55325001I0J-249999D01*
G01*
X107507000Y54624999D01*
G75*
G02*
X107257001Y54375000I-249999J0D01*
G01*
G37*
G36*
G01*
X107257001Y52375000D02*
X106356999Y52375000D01*
G75*
G02*
X106107000Y52624999I0J249999D01*
G01*
X106107000Y53325001D01*
G75*
G02*
X106356999Y53575000I249999J0D01*
G01*
X107257001Y53575000D01*
G75*
G02*
X107507000Y53325001I0J-249999D01*
G01*
X107507000Y52624999D01*
G75*
G02*
X107257001Y52375000I-249999J0D01*
G01*
G37*
%TD*%
%TO.C,R29*%
G36*
G01*
X100907001Y56820000D02*
X100006999Y56820000D01*
G75*
G02*
X99757000Y57069999I0J249999D01*
G01*
X99757000Y57770001D01*
G75*
G02*
X100006999Y58020000I249999J0D01*
G01*
X100907001Y58020000D01*
G75*
G02*
X101157000Y57770001I0J-249999D01*
G01*
X101157000Y57069999D01*
G75*
G02*
X100907001Y56820000I-249999J0D01*
G01*
G37*
G36*
G01*
X100907001Y58820000D02*
X100006999Y58820000D01*
G75*
G02*
X99757000Y59069999I0J249999D01*
G01*
X99757000Y59770001D01*
G75*
G02*
X100006999Y60020000I249999J0D01*
G01*
X100907001Y60020000D01*
G75*
G02*
X101157000Y59770001I0J-249999D01*
G01*
X101157000Y59069999D01*
G75*
G02*
X100907001Y58820000I-249999J0D01*
G01*
G37*
%TD*%
%TO.C,R30*%
G36*
G01*
X100006999Y55575000D02*
X100907001Y55575000D01*
G75*
G02*
X101157000Y55325001I0J-249999D01*
G01*
X101157000Y54624999D01*
G75*
G02*
X100907001Y54375000I-249999J0D01*
G01*
X100006999Y54375000D01*
G75*
G02*
X99757000Y54624999I0J249999D01*
G01*
X99757000Y55325001D01*
G75*
G02*
X100006999Y55575000I249999J0D01*
G01*
G37*
G36*
G01*
X100006999Y53575000D02*
X100907001Y53575000D01*
G75*
G02*
X101157000Y53325001I0J-249999D01*
G01*
X101157000Y52624999D01*
G75*
G02*
X100907001Y52375000I-249999J0D01*
G01*
X100006999Y52375000D01*
G75*
G02*
X99757000Y52624999I0J249999D01*
G01*
X99757000Y53325001D01*
G75*
G02*
X100006999Y53575000I249999J0D01*
G01*
G37*
%TD*%
%TO.C,R31*%
G36*
G01*
X88715001Y96190000D02*
X87814999Y96190000D01*
G75*
G02*
X87565000Y96439999I0J249999D01*
G01*
X87565000Y97140001D01*
G75*
G02*
X87814999Y97390000I249999J0D01*
G01*
X88715001Y97390000D01*
G75*
G02*
X88965000Y97140001I0J-249999D01*
G01*
X88965000Y96439999D01*
G75*
G02*
X88715001Y96190000I-249999J0D01*
G01*
G37*
G36*
G01*
X88715001Y98190000D02*
X87814999Y98190000D01*
G75*
G02*
X87565000Y98439999I0J249999D01*
G01*
X87565000Y99140001D01*
G75*
G02*
X87814999Y99390000I249999J0D01*
G01*
X88715001Y99390000D01*
G75*
G02*
X88965000Y99140001I0J-249999D01*
G01*
X88965000Y98439999D01*
G75*
G02*
X88715001Y98190000I-249999J0D01*
G01*
G37*
%TD*%
%TO.C,R32*%
G36*
G01*
X87814999Y101200000D02*
X88715001Y101200000D01*
G75*
G02*
X88965000Y100950001I0J-249999D01*
G01*
X88965000Y100249999D01*
G75*
G02*
X88715001Y100000000I-249999J0D01*
G01*
X87814999Y100000000D01*
G75*
G02*
X87565000Y100249999I0J249999D01*
G01*
X87565000Y100950001D01*
G75*
G02*
X87814999Y101200000I249999J0D01*
G01*
G37*
G36*
G01*
X87814999Y103200000D02*
X88715001Y103200000D01*
G75*
G02*
X88965000Y102950001I0J-249999D01*
G01*
X88965000Y102249999D01*
G75*
G02*
X88715001Y102000000I-249999J0D01*
G01*
X87814999Y102000000D01*
G75*
G02*
X87565000Y102249999I0J249999D01*
G01*
X87565000Y102950001D01*
G75*
G02*
X87814999Y103200000I249999J0D01*
G01*
G37*
%TD*%
%TO.C,R33*%
G36*
G01*
X92525001Y100000000D02*
X91624999Y100000000D01*
G75*
G02*
X91375000Y100249999I0J249999D01*
G01*
X91375000Y100950001D01*
G75*
G02*
X91624999Y101200000I249999J0D01*
G01*
X92525001Y101200000D01*
G75*
G02*
X92775000Y100950001I0J-249999D01*
G01*
X92775000Y100249999D01*
G75*
G02*
X92525001Y100000000I-249999J0D01*
G01*
G37*
G36*
G01*
X92525001Y102000000D02*
X91624999Y102000000D01*
G75*
G02*
X91375000Y102249999I0J249999D01*
G01*
X91375000Y102950001D01*
G75*
G02*
X91624999Y103200000I249999J0D01*
G01*
X92525001Y103200000D01*
G75*
G02*
X92775000Y102950001I0J-249999D01*
G01*
X92775000Y102249999D01*
G75*
G02*
X92525001Y102000000I-249999J0D01*
G01*
G37*
%TD*%
%TO.C,R34*%
G36*
G01*
X98875001Y102000000D02*
X97974999Y102000000D01*
G75*
G02*
X97725000Y102249999I0J249999D01*
G01*
X97725000Y102950001D01*
G75*
G02*
X97974999Y103200000I249999J0D01*
G01*
X98875001Y103200000D01*
G75*
G02*
X99125000Y102950001I0J-249999D01*
G01*
X99125000Y102249999D01*
G75*
G02*
X98875001Y102000000I-249999J0D01*
G01*
G37*
G36*
G01*
X98875001Y100000000D02*
X97974999Y100000000D01*
G75*
G02*
X97725000Y100249999I0J249999D01*
G01*
X97725000Y100950001D01*
G75*
G02*
X97974999Y101200000I249999J0D01*
G01*
X98875001Y101200000D01*
G75*
G02*
X99125000Y100950001I0J-249999D01*
G01*
X99125000Y100249999D01*
G75*
G02*
X98875001Y100000000I-249999J0D01*
G01*
G37*
%TD*%
%TO.C,R35*%
G36*
G01*
X94164999Y101200000D02*
X95065001Y101200000D01*
G75*
G02*
X95315000Y100950001I0J-249999D01*
G01*
X95315000Y100249999D01*
G75*
G02*
X95065001Y100000000I-249999J0D01*
G01*
X94164999Y100000000D01*
G75*
G02*
X93915000Y100249999I0J249999D01*
G01*
X93915000Y100950001D01*
G75*
G02*
X94164999Y101200000I249999J0D01*
G01*
G37*
G36*
G01*
X94164999Y103200000D02*
X95065001Y103200000D01*
G75*
G02*
X95315000Y102950001I0J-249999D01*
G01*
X95315000Y102249999D01*
G75*
G02*
X95065001Y102000000I-249999J0D01*
G01*
X94164999Y102000000D01*
G75*
G02*
X93915000Y102249999I0J249999D01*
G01*
X93915000Y102950001D01*
G75*
G02*
X94164999Y103200000I249999J0D01*
G01*
G37*
%TD*%
%TO.C,R36*%
G36*
G01*
X95065001Y98190000D02*
X94164999Y98190000D01*
G75*
G02*
X93915000Y98439999I0J249999D01*
G01*
X93915000Y99140001D01*
G75*
G02*
X94164999Y99390000I249999J0D01*
G01*
X95065001Y99390000D01*
G75*
G02*
X95315000Y99140001I0J-249999D01*
G01*
X95315000Y98439999D01*
G75*
G02*
X95065001Y98190000I-249999J0D01*
G01*
G37*
G36*
G01*
X95065001Y96190000D02*
X94164999Y96190000D01*
G75*
G02*
X93915000Y96439999I0J249999D01*
G01*
X93915000Y97140001D01*
G75*
G02*
X94164999Y97390000I249999J0D01*
G01*
X95065001Y97390000D01*
G75*
G02*
X95315000Y97140001I0J-249999D01*
G01*
X95315000Y96439999D01*
G75*
G02*
X95065001Y96190000I-249999J0D01*
G01*
G37*
%TD*%
D34*
%TO.C,SW1*%
X117370000Y12780000D03*
X117370000Y17780000D03*
D35*
X110370000Y9680000D03*
X110370000Y20880000D03*
D34*
X102870000Y12780000D03*
X102870000Y15280000D03*
D36*
X102870000Y17780000D03*
%TD*%
D34*
%TO.C,SW3*%
X85240000Y17780000D03*
X85240000Y13280000D03*
X78740000Y17780000D03*
X78740000Y13280000D03*
%TD*%
%TO.C,SW4*%
X134620000Y13280000D03*
X134620000Y17780000D03*
X141120000Y13280000D03*
X141120000Y17780000D03*
%TD*%
D10*
%TO.C,T1*%
X90805000Y81915000D03*
X90805000Y84455000D03*
X90805000Y86995000D03*
X90805000Y89535000D03*
X68580000Y84455000D03*
X68580000Y89535000D03*
X68580000Y86995000D03*
X68580000Y81915000D03*
%TD*%
D37*
%TO.C,U1*%
X138055000Y94860000D03*
X142615000Y94860000D03*
D38*
X140335000Y101160000D03*
%TD*%
D39*
%TO.C,U2*%
X147320000Y78130000D03*
D40*
X147320000Y84430000D03*
X145020000Y84430000D03*
X149620000Y84430000D03*
%TD*%
D41*
%TO.C,U3*%
X104970000Y84715000D03*
X104970000Y83915000D03*
X104970000Y83115000D03*
X104970000Y82315000D03*
X104970000Y81515000D03*
X104970000Y80715000D03*
X104970000Y79915000D03*
X104970000Y79115000D03*
D42*
X106420000Y77665000D03*
X107220000Y77665000D03*
X108020000Y77665000D03*
X108820000Y77665000D03*
X109620000Y77665000D03*
X110420000Y77665000D03*
X111220000Y77665000D03*
X112020000Y77665000D03*
D41*
X113470000Y79115000D03*
X113470000Y79915000D03*
X113470000Y80715000D03*
X113470000Y81515000D03*
X113470000Y82315000D03*
X113470000Y83115000D03*
X113470000Y83915000D03*
X113470000Y84715000D03*
D42*
X112020000Y86165000D03*
X111220000Y86165000D03*
X110420000Y86165000D03*
X109620000Y86165000D03*
X108820000Y86165000D03*
X108020000Y86165000D03*
X107220000Y86165000D03*
X106420000Y86165000D03*
%TD*%
%TO.C,U4*%
G36*
G01*
X118467000Y37950000D02*
X118467000Y38250000D01*
G75*
G02*
X118617000Y38400000I150000J0D01*
G01*
X120267000Y38400000D01*
G75*
G02*
X120417000Y38250000I0J-150000D01*
G01*
X120417000Y37950000D01*
G75*
G02*
X120267000Y37800000I-150000J0D01*
G01*
X118617000Y37800000D01*
G75*
G02*
X118467000Y37950000I0J150000D01*
G01*
G37*
G36*
G01*
X118467000Y36680000D02*
X118467000Y36980000D01*
G75*
G02*
X118617000Y37130000I150000J0D01*
G01*
X120267000Y37130000D01*
G75*
G02*
X120417000Y36980000I0J-150000D01*
G01*
X120417000Y36680000D01*
G75*
G02*
X120267000Y36530000I-150000J0D01*
G01*
X118617000Y36530000D01*
G75*
G02*
X118467000Y36680000I0J150000D01*
G01*
G37*
G36*
G01*
X118467000Y35410000D02*
X118467000Y35710000D01*
G75*
G02*
X118617000Y35860000I150000J0D01*
G01*
X120267000Y35860000D01*
G75*
G02*
X120417000Y35710000I0J-150000D01*
G01*
X120417000Y35410000D01*
G75*
G02*
X120267000Y35260000I-150000J0D01*
G01*
X118617000Y35260000D01*
G75*
G02*
X118467000Y35410000I0J150000D01*
G01*
G37*
G36*
G01*
X118467000Y34140000D02*
X118467000Y34440000D01*
G75*
G02*
X118617000Y34590000I150000J0D01*
G01*
X120267000Y34590000D01*
G75*
G02*
X120417000Y34440000I0J-150000D01*
G01*
X120417000Y34140000D01*
G75*
G02*
X120267000Y33990000I-150000J0D01*
G01*
X118617000Y33990000D01*
G75*
G02*
X118467000Y34140000I0J150000D01*
G01*
G37*
G36*
G01*
X113517000Y34140000D02*
X113517000Y34440000D01*
G75*
G02*
X113667000Y34590000I150000J0D01*
G01*
X115317000Y34590000D01*
G75*
G02*
X115467000Y34440000I0J-150000D01*
G01*
X115467000Y34140000D01*
G75*
G02*
X115317000Y33990000I-150000J0D01*
G01*
X113667000Y33990000D01*
G75*
G02*
X113517000Y34140000I0J150000D01*
G01*
G37*
G36*
G01*
X113517000Y35410000D02*
X113517000Y35710000D01*
G75*
G02*
X113667000Y35860000I150000J0D01*
G01*
X115317000Y35860000D01*
G75*
G02*
X115467000Y35710000I0J-150000D01*
G01*
X115467000Y35410000D01*
G75*
G02*
X115317000Y35260000I-150000J0D01*
G01*
X113667000Y35260000D01*
G75*
G02*
X113517000Y35410000I0J150000D01*
G01*
G37*
G36*
G01*
X113517000Y36680000D02*
X113517000Y36980000D01*
G75*
G02*
X113667000Y37130000I150000J0D01*
G01*
X115317000Y37130000D01*
G75*
G02*
X115467000Y36980000I0J-150000D01*
G01*
X115467000Y36680000D01*
G75*
G02*
X115317000Y36530000I-150000J0D01*
G01*
X113667000Y36530000D01*
G75*
G02*
X113517000Y36680000I0J150000D01*
G01*
G37*
G36*
G01*
X113517000Y37950000D02*
X113517000Y38250000D01*
G75*
G02*
X113667000Y38400000I150000J0D01*
G01*
X115317000Y38400000D01*
G75*
G02*
X115467000Y38250000I0J-150000D01*
G01*
X115467000Y37950000D01*
G75*
G02*
X115317000Y37800000I-150000J0D01*
G01*
X113667000Y37800000D01*
G75*
G02*
X113517000Y37950000I0J150000D01*
G01*
G37*
%TD*%
D43*
%TO.C,U5*%
X73580000Y50480000D03*
X73580000Y49530000D03*
X73580000Y48580000D03*
X76280000Y48580000D03*
X76280000Y50480000D03*
%TD*%
%TO.C,U6*%
G36*
G01*
X111737000Y48535000D02*
X112037000Y48535000D01*
G75*
G02*
X112187000Y48385000I0J-150000D01*
G01*
X112187000Y46735000D01*
G75*
G02*
X112037000Y46585000I-150000J0D01*
G01*
X111737000Y46585000D01*
G75*
G02*
X111587000Y46735000I0J150000D01*
G01*
X111587000Y48385000D01*
G75*
G02*
X111737000Y48535000I150000J0D01*
G01*
G37*
G36*
G01*
X110467000Y48535000D02*
X110767000Y48535000D01*
G75*
G02*
X110917000Y48385000I0J-150000D01*
G01*
X110917000Y46735000D01*
G75*
G02*
X110767000Y46585000I-150000J0D01*
G01*
X110467000Y46585000D01*
G75*
G02*
X110317000Y46735000I0J150000D01*
G01*
X110317000Y48385000D01*
G75*
G02*
X110467000Y48535000I150000J0D01*
G01*
G37*
G36*
G01*
X109197000Y48535000D02*
X109497000Y48535000D01*
G75*
G02*
X109647000Y48385000I0J-150000D01*
G01*
X109647000Y46735000D01*
G75*
G02*
X109497000Y46585000I-150000J0D01*
G01*
X109197000Y46585000D01*
G75*
G02*
X109047000Y46735000I0J150000D01*
G01*
X109047000Y48385000D01*
G75*
G02*
X109197000Y48535000I150000J0D01*
G01*
G37*
G36*
G01*
X107927000Y48535000D02*
X108227000Y48535000D01*
G75*
G02*
X108377000Y48385000I0J-150000D01*
G01*
X108377000Y46735000D01*
G75*
G02*
X108227000Y46585000I-150000J0D01*
G01*
X107927000Y46585000D01*
G75*
G02*
X107777000Y46735000I0J150000D01*
G01*
X107777000Y48385000D01*
G75*
G02*
X107927000Y48535000I150000J0D01*
G01*
G37*
G36*
G01*
X106657000Y48535000D02*
X106957000Y48535000D01*
G75*
G02*
X107107000Y48385000I0J-150000D01*
G01*
X107107000Y46735000D01*
G75*
G02*
X106957000Y46585000I-150000J0D01*
G01*
X106657000Y46585000D01*
G75*
G02*
X106507000Y46735000I0J150000D01*
G01*
X106507000Y48385000D01*
G75*
G02*
X106657000Y48535000I150000J0D01*
G01*
G37*
G36*
G01*
X105387000Y48535000D02*
X105687000Y48535000D01*
G75*
G02*
X105837000Y48385000I0J-150000D01*
G01*
X105837000Y46735000D01*
G75*
G02*
X105687000Y46585000I-150000J0D01*
G01*
X105387000Y46585000D01*
G75*
G02*
X105237000Y46735000I0J150000D01*
G01*
X105237000Y48385000D01*
G75*
G02*
X105387000Y48535000I150000J0D01*
G01*
G37*
G36*
G01*
X104117000Y48535000D02*
X104417000Y48535000D01*
G75*
G02*
X104567000Y48385000I0J-150000D01*
G01*
X104567000Y46735000D01*
G75*
G02*
X104417000Y46585000I-150000J0D01*
G01*
X104117000Y46585000D01*
G75*
G02*
X103967000Y46735000I0J150000D01*
G01*
X103967000Y48385000D01*
G75*
G02*
X104117000Y48535000I150000J0D01*
G01*
G37*
G36*
G01*
X102847000Y48535000D02*
X103147000Y48535000D01*
G75*
G02*
X103297000Y48385000I0J-150000D01*
G01*
X103297000Y46735000D01*
G75*
G02*
X103147000Y46585000I-150000J0D01*
G01*
X102847000Y46585000D01*
G75*
G02*
X102697000Y46735000I0J150000D01*
G01*
X102697000Y48385000D01*
G75*
G02*
X102847000Y48535000I150000J0D01*
G01*
G37*
G36*
G01*
X102847000Y43585000D02*
X103147000Y43585000D01*
G75*
G02*
X103297000Y43435000I0J-150000D01*
G01*
X103297000Y41785000D01*
G75*
G02*
X103147000Y41635000I-150000J0D01*
G01*
X102847000Y41635000D01*
G75*
G02*
X102697000Y41785000I0J150000D01*
G01*
X102697000Y43435000D01*
G75*
G02*
X102847000Y43585000I150000J0D01*
G01*
G37*
G36*
G01*
X104117000Y43585000D02*
X104417000Y43585000D01*
G75*
G02*
X104567000Y43435000I0J-150000D01*
G01*
X104567000Y41785000D01*
G75*
G02*
X104417000Y41635000I-150000J0D01*
G01*
X104117000Y41635000D01*
G75*
G02*
X103967000Y41785000I0J150000D01*
G01*
X103967000Y43435000D01*
G75*
G02*
X104117000Y43585000I150000J0D01*
G01*
G37*
G36*
G01*
X105387000Y43585000D02*
X105687000Y43585000D01*
G75*
G02*
X105837000Y43435000I0J-150000D01*
G01*
X105837000Y41785000D01*
G75*
G02*
X105687000Y41635000I-150000J0D01*
G01*
X105387000Y41635000D01*
G75*
G02*
X105237000Y41785000I0J150000D01*
G01*
X105237000Y43435000D01*
G75*
G02*
X105387000Y43585000I150000J0D01*
G01*
G37*
G36*
G01*
X106657000Y43585000D02*
X106957000Y43585000D01*
G75*
G02*
X107107000Y43435000I0J-150000D01*
G01*
X107107000Y41785000D01*
G75*
G02*
X106957000Y41635000I-150000J0D01*
G01*
X106657000Y41635000D01*
G75*
G02*
X106507000Y41785000I0J150000D01*
G01*
X106507000Y43435000D01*
G75*
G02*
X106657000Y43585000I150000J0D01*
G01*
G37*
G36*
G01*
X107927000Y43585000D02*
X108227000Y43585000D01*
G75*
G02*
X108377000Y43435000I0J-150000D01*
G01*
X108377000Y41785000D01*
G75*
G02*
X108227000Y41635000I-150000J0D01*
G01*
X107927000Y41635000D01*
G75*
G02*
X107777000Y41785000I0J150000D01*
G01*
X107777000Y43435000D01*
G75*
G02*
X107927000Y43585000I150000J0D01*
G01*
G37*
G36*
G01*
X109197000Y43585000D02*
X109497000Y43585000D01*
G75*
G02*
X109647000Y43435000I0J-150000D01*
G01*
X109647000Y41785000D01*
G75*
G02*
X109497000Y41635000I-150000J0D01*
G01*
X109197000Y41635000D01*
G75*
G02*
X109047000Y41785000I0J150000D01*
G01*
X109047000Y43435000D01*
G75*
G02*
X109197000Y43585000I150000J0D01*
G01*
G37*
G36*
G01*
X110467000Y43585000D02*
X110767000Y43585000D01*
G75*
G02*
X110917000Y43435000I0J-150000D01*
G01*
X110917000Y41785000D01*
G75*
G02*
X110767000Y41635000I-150000J0D01*
G01*
X110467000Y41635000D01*
G75*
G02*
X110317000Y41785000I0J150000D01*
G01*
X110317000Y43435000D01*
G75*
G02*
X110467000Y43585000I150000J0D01*
G01*
G37*
G36*
G01*
X111737000Y43585000D02*
X112037000Y43585000D01*
G75*
G02*
X112187000Y43435000I0J-150000D01*
G01*
X112187000Y41785000D01*
G75*
G02*
X112037000Y41635000I-150000J0D01*
G01*
X111737000Y41635000D01*
G75*
G02*
X111587000Y41785000I0J150000D01*
G01*
X111587000Y43435000D01*
G75*
G02*
X111737000Y43585000I150000J0D01*
G01*
G37*
%TD*%
%TO.C,U8*%
G36*
G01*
X131170000Y58270000D02*
X131170000Y58570000D01*
G75*
G02*
X131320000Y58720000I150000J0D01*
G01*
X132970000Y58720000D01*
G75*
G02*
X133120000Y58570000I0J-150000D01*
G01*
X133120000Y58270000D01*
G75*
G02*
X132970000Y58120000I-150000J0D01*
G01*
X131320000Y58120000D01*
G75*
G02*
X131170000Y58270000I0J150000D01*
G01*
G37*
G36*
G01*
X131170000Y57000000D02*
X131170000Y57300000D01*
G75*
G02*
X131320000Y57450000I150000J0D01*
G01*
X132970000Y57450000D01*
G75*
G02*
X133120000Y57300000I0J-150000D01*
G01*
X133120000Y57000000D01*
G75*
G02*
X132970000Y56850000I-150000J0D01*
G01*
X131320000Y56850000D01*
G75*
G02*
X131170000Y57000000I0J150000D01*
G01*
G37*
G36*
G01*
X131170000Y55730000D02*
X131170000Y56030000D01*
G75*
G02*
X131320000Y56180000I150000J0D01*
G01*
X132970000Y56180000D01*
G75*
G02*
X133120000Y56030000I0J-150000D01*
G01*
X133120000Y55730000D01*
G75*
G02*
X132970000Y55580000I-150000J0D01*
G01*
X131320000Y55580000D01*
G75*
G02*
X131170000Y55730000I0J150000D01*
G01*
G37*
G36*
G01*
X131170000Y54460000D02*
X131170000Y54760000D01*
G75*
G02*
X131320000Y54910000I150000J0D01*
G01*
X132970000Y54910000D01*
G75*
G02*
X133120000Y54760000I0J-150000D01*
G01*
X133120000Y54460000D01*
G75*
G02*
X132970000Y54310000I-150000J0D01*
G01*
X131320000Y54310000D01*
G75*
G02*
X131170000Y54460000I0J150000D01*
G01*
G37*
G36*
G01*
X136120000Y54460000D02*
X136120000Y54760000D01*
G75*
G02*
X136270000Y54910000I150000J0D01*
G01*
X137920000Y54910000D01*
G75*
G02*
X138070000Y54760000I0J-150000D01*
G01*
X138070000Y54460000D01*
G75*
G02*
X137920000Y54310000I-150000J0D01*
G01*
X136270000Y54310000D01*
G75*
G02*
X136120000Y54460000I0J150000D01*
G01*
G37*
G36*
G01*
X136120000Y55730000D02*
X136120000Y56030000D01*
G75*
G02*
X136270000Y56180000I150000J0D01*
G01*
X137920000Y56180000D01*
G75*
G02*
X138070000Y56030000I0J-150000D01*
G01*
X138070000Y55730000D01*
G75*
G02*
X137920000Y55580000I-150000J0D01*
G01*
X136270000Y55580000D01*
G75*
G02*
X136120000Y55730000I0J150000D01*
G01*
G37*
G36*
G01*
X136120000Y57000000D02*
X136120000Y57300000D01*
G75*
G02*
X136270000Y57450000I150000J0D01*
G01*
X137920000Y57450000D01*
G75*
G02*
X138070000Y57300000I0J-150000D01*
G01*
X138070000Y57000000D01*
G75*
G02*
X137920000Y56850000I-150000J0D01*
G01*
X136270000Y56850000D01*
G75*
G02*
X136120000Y57000000I0J150000D01*
G01*
G37*
G36*
G01*
X136120000Y58270000D02*
X136120000Y58570000D01*
G75*
G02*
X136270000Y58720000I150000J0D01*
G01*
X137920000Y58720000D01*
G75*
G02*
X138070000Y58570000I0J-150000D01*
G01*
X138070000Y58270000D01*
G75*
G02*
X137920000Y58120000I-150000J0D01*
G01*
X136270000Y58120000D01*
G75*
G02*
X136120000Y58270000I0J150000D01*
G01*
G37*
%TD*%
D44*
%TO.C,U9*%
X111617000Y59350000D03*
X111117000Y59350000D03*
X110617000Y59350000D03*
X110117000Y59350000D03*
X109617000Y59350000D03*
X109617000Y54950000D03*
X110117000Y54950000D03*
X110617000Y54950000D03*
X111117000Y54950000D03*
X111617000Y54950000D03*
%TD*%
D45*
%TO.C,X1*%
X107027000Y62040000D03*
X109127000Y62040000D03*
X109127000Y63690000D03*
X107027000Y63690000D03*
%TD*%
M02*
