%TF.GenerationSoftware,KiCad,Pcbnew,5.1.10*%
%TF.CreationDate,2021-06-16T16:49:43+02:00*%
%TF.ProjectId,uSDX,75534458-2e6b-4696-9361-645f70636258,rev?*%
%TF.SameCoordinates,Original*%
%TF.FileFunction,Legend,Bot*%
%TF.FilePolarity,Positive*%
%FSLAX46Y46*%
G04 Gerber Fmt 4.6, Leading zero omitted, Abs format (unit mm)*
G04 Created by KiCad (PCBNEW 5.1.10) date 2021-06-16 16:49:43*
%MOMM*%
%LPD*%
G01*
G04 APERTURE LIST*
%ADD10C,0.120000*%
%ADD11C,0.150000*%
G04 APERTURE END LIST*
D10*
%TO.C,JP1*%
X108730000Y92694000D02*
X104630000Y92694000D01*
X104630000Y92694000D02*
X104630000Y90694000D01*
X104630000Y90694000D02*
X108730000Y90694000D01*
X108730000Y90694000D02*
X108730000Y92694000D01*
%TO.C,JP2*%
X113175000Y90694000D02*
X113175000Y92694000D01*
X109075000Y90694000D02*
X113175000Y90694000D01*
X109075000Y92694000D02*
X109075000Y90694000D01*
X113175000Y92694000D02*
X109075000Y92694000D01*
%TO.C,JP1*%
D11*
X107513333Y94041619D02*
X107513333Y93327333D01*
X107560952Y93184476D01*
X107656190Y93089238D01*
X107799047Y93041619D01*
X107894285Y93041619D01*
X107037142Y93041619D02*
X107037142Y94041619D01*
X106656190Y94041619D01*
X106560952Y93994000D01*
X106513333Y93946380D01*
X106465714Y93851142D01*
X106465714Y93708285D01*
X106513333Y93613047D01*
X106560952Y93565428D01*
X106656190Y93517809D01*
X107037142Y93517809D01*
X105513333Y93041619D02*
X106084761Y93041619D01*
X105799047Y93041619D02*
X105799047Y94041619D01*
X105894285Y93898761D01*
X105989523Y93803523D01*
X106084761Y93755904D01*
X104413333Y92241619D02*
X103794285Y92241619D01*
X104127619Y91860666D01*
X103984761Y91860666D01*
X103889523Y91813047D01*
X103841904Y91765428D01*
X103794285Y91670190D01*
X103794285Y91432095D01*
X103841904Y91336857D01*
X103889523Y91289238D01*
X103984761Y91241619D01*
X104270476Y91241619D01*
X104365714Y91289238D01*
X104413333Y91336857D01*
X108994285Y91241619D02*
X109565714Y91241619D01*
X109280000Y91241619D02*
X109280000Y92241619D01*
X109375238Y92098761D01*
X109470476Y92003523D01*
X109565714Y91955904D01*
%TO.C,JP2*%
X111958333Y94041619D02*
X111958333Y93327333D01*
X112005952Y93184476D01*
X112101190Y93089238D01*
X112244047Y93041619D01*
X112339285Y93041619D01*
X111482142Y93041619D02*
X111482142Y94041619D01*
X111101190Y94041619D01*
X111005952Y93994000D01*
X110958333Y93946380D01*
X110910714Y93851142D01*
X110910714Y93708285D01*
X110958333Y93613047D01*
X111005952Y93565428D01*
X111101190Y93517809D01*
X111482142Y93517809D01*
X110529761Y93946380D02*
X110482142Y93994000D01*
X110386904Y94041619D01*
X110148809Y94041619D01*
X110053571Y93994000D01*
X110005952Y93946380D01*
X109958333Y93851142D01*
X109958333Y93755904D01*
X110005952Y93613047D01*
X110577380Y93041619D01*
X109958333Y93041619D01*
X113439285Y91241619D02*
X114010714Y91241619D01*
X113725000Y91241619D02*
X113725000Y92241619D01*
X113820238Y92098761D01*
X113915476Y92003523D01*
X114010714Y91955904D01*
X108858333Y92241619D02*
X108239285Y92241619D01*
X108572619Y91860666D01*
X108429761Y91860666D01*
X108334523Y91813047D01*
X108286904Y91765428D01*
X108239285Y91670190D01*
X108239285Y91432095D01*
X108286904Y91336857D01*
X108334523Y91289238D01*
X108429761Y91241619D01*
X108715476Y91241619D01*
X108810714Y91289238D01*
X108858333Y91336857D01*
%TD*%
M02*
