%TF.GenerationSoftware,KiCad,Pcbnew,5.1.10*%
%TF.CreationDate,2021-06-16T16:49:43+02:00*%
%TF.ProjectId,uSDX,75534458-2e6b-4696-9361-645f70636258,rev?*%
%TF.SameCoordinates,Original*%
%TF.FileFunction,Legend,Top*%
%TF.FilePolarity,Positive*%
%FSLAX46Y46*%
G04 Gerber Fmt 4.6, Leading zero omitted, Abs format (unit mm)*
G04 Created by KiCad (PCBNEW 5.1.10) date 2021-06-16 16:49:43*
%MOMM*%
%LPD*%
G01*
G04 APERTURE LIST*
%ADD10C,0.120000*%
%ADD11C,0.150000*%
G04 APERTURE END LIST*
D10*
%TO.C,L5*%
X130436252Y41835000D02*
X129913748Y41835000D01*
X130436252Y43255000D02*
X129913748Y43255000D01*
%TO.C,C12*%
X130436252Y43715000D02*
X129913748Y43715000D01*
X130436252Y45185000D02*
X129913748Y45185000D01*
%TO.C,SW2*%
X146685000Y10160000D02*
X153035000Y10160000D01*
X153035000Y10160000D02*
X153035000Y25400000D01*
X153035000Y25400000D02*
X146685000Y25400000D01*
X146685000Y25400000D02*
X146685000Y10160000D01*
%TO.C,L4*%
X78803500Y26035000D02*
G75*
G03*
X78803500Y26035000I-2483500J0D01*
G01*
X71660901Y24575000D02*
G75*
G03*
X80979099Y24575000I4659099J1460000D01*
G01*
X71660901Y27495000D02*
G75*
G02*
X80979099Y27495000I4659099J-1460000D01*
G01*
%TO.C,U7*%
X65405000Y73660000D02*
G75*
G02*
X66675000Y74930000I1270000J0D01*
G01*
X66675000Y31750000D02*
G75*
G02*
X65405000Y33020000I0J1270000D01*
G01*
X84455000Y74930000D02*
G75*
G02*
X85725000Y73660000I0J-1270000D01*
G01*
X85725000Y33020000D02*
G75*
G02*
X84455000Y31750000I-1270000J0D01*
G01*
X66675000Y74930000D02*
X84455000Y74930000D01*
X65405000Y33020000D02*
X65405000Y73660000D01*
X84455000Y31750000D02*
X66675000Y31750000D01*
X85725000Y73660000D02*
X85725000Y33020000D01*
X70485000Y33020000D02*
X70485000Y35560000D01*
X70485000Y35560000D02*
X80645000Y35560000D01*
X80645000Y35560000D02*
X80645000Y33020000D01*
X70485000Y33020000D02*
X80645000Y33020000D01*
X70485000Y71120000D02*
X70485000Y73660000D01*
X70485000Y73660000D02*
X80645000Y73660000D01*
X80645000Y73660000D02*
X80645000Y71120000D01*
X80645000Y71120000D02*
X70485000Y71120000D01*
%TO.C,Q6*%
X70175000Y39880000D02*
X70175000Y41340000D01*
X73335000Y39880000D02*
X73335000Y42040000D01*
X73335000Y39880000D02*
X72405000Y39880000D01*
X70175000Y39880000D02*
X71105000Y39880000D01*
%TO.C,Q5*%
X77795000Y39880000D02*
X77795000Y41340000D01*
X80955000Y39880000D02*
X80955000Y42040000D01*
X80955000Y39880000D02*
X80025000Y39880000D01*
X77795000Y39880000D02*
X78725000Y39880000D01*
%TO.C,J6*%
X158885000Y62375000D02*
X159385000Y61825000D01*
X159885000Y62375000D02*
X158885000Y62375000D01*
X159385000Y61825000D02*
X159885000Y62375000D01*
D11*
X165185000Y49525000D02*
X157435000Y49525000D01*
X153085000Y49525000D02*
X150685000Y49525000D01*
X150685000Y49525000D02*
X150685000Y61325000D01*
X150685000Y61325000D02*
X150785000Y61325000D01*
X153385000Y61325000D02*
X157135000Y61325000D01*
X161635000Y61325000D02*
X165185000Y61325000D01*
X165185000Y61325000D02*
X165185000Y49525000D01*
X165185000Y52625000D02*
X168785000Y52625000D01*
X168785000Y52625000D02*
X168785000Y58825000D01*
X168785000Y58825000D02*
X165185000Y58825000D01*
D10*
%TO.C,J5*%
X158885000Y44595000D02*
X159385000Y44045000D01*
X159885000Y44595000D02*
X158885000Y44595000D01*
X159385000Y44045000D02*
X159885000Y44595000D01*
D11*
X165185000Y31745000D02*
X157435000Y31745000D01*
X153085000Y31745000D02*
X150685000Y31745000D01*
X150685000Y31745000D02*
X150685000Y43545000D01*
X150685000Y43545000D02*
X150785000Y43545000D01*
X153385000Y43545000D02*
X157135000Y43545000D01*
X161635000Y43545000D02*
X165185000Y43545000D01*
X165185000Y43545000D02*
X165185000Y31745000D01*
X165185000Y34845000D02*
X168785000Y34845000D01*
X168785000Y34845000D02*
X168785000Y41045000D01*
X168785000Y41045000D02*
X165185000Y41045000D01*
D10*
%TO.C,RV1*%
X122369000Y64760000D02*
X132139000Y64760000D01*
X122369000Y59690000D02*
X132139000Y59690000D01*
X122369000Y64760000D02*
X122369000Y59690000D01*
X132139000Y64760000D02*
X132139000Y59690000D01*
%TO.C,Y1*%
X99950000Y78010000D02*
X103250000Y78010000D01*
X103250000Y78010000D02*
X103250000Y82010000D01*
%TO.C,Brd1*%
X120142000Y100457000D02*
X119888000Y100445000D01*
X120142000Y83820000D02*
X120142000Y100457000D01*
X116802000Y83845000D02*
X120142000Y83820000D01*
X116802000Y100445000D02*
X119888000Y100445000D01*
X101981000Y103251000D02*
X101981000Y100838000D01*
X111760000Y100838000D02*
X101981000Y100838000D01*
X111760000Y103251000D02*
X111760000Y100838000D01*
X101981000Y103251000D02*
X111760000Y103251000D01*
X93702000Y100445000D02*
X116802000Y100445000D01*
X93702000Y83845000D02*
X93702000Y100445000D01*
X116802000Y83845000D02*
X93702000Y83845000D01*
X93280000Y76440000D02*
X93280000Y103740000D01*
X120680000Y76440000D02*
X93280000Y76440000D01*
X120680000Y103740000D02*
X120680000Y76440000D01*
X93280000Y103740000D02*
X120680000Y103740000D01*
%TO.C,C1*%
X126409750Y95016250D02*
X127197250Y95016250D01*
X126803500Y94622500D02*
X126803500Y95410000D01*
X130996563Y95650000D02*
X132061000Y96714437D01*
X126305437Y95650000D02*
X125241000Y96714437D01*
X126305437Y95650000D02*
X127591000Y95650000D01*
X130996563Y95650000D02*
X129711000Y95650000D01*
X132061000Y96714437D02*
X132061000Y102470000D01*
X125241000Y96714437D02*
X125241000Y102470000D01*
X125241000Y102470000D02*
X127591000Y102470000D01*
X132061000Y102470000D02*
X129711000Y102470000D01*
%TO.C,C2*%
X132869000Y100845252D02*
X132869000Y100322748D01*
X134339000Y100845252D02*
X134339000Y100322748D01*
%TO.C,C3*%
X136244000Y100845252D02*
X136244000Y100322748D01*
X134774000Y100845252D02*
X134774000Y100322748D01*
%TO.C,C4*%
X140708748Y88492000D02*
X141231252Y88492000D01*
X140708748Y87022000D02*
X141231252Y87022000D01*
%TO.C,C5*%
X140708748Y88927000D02*
X141231252Y88927000D01*
X140708748Y90397000D02*
X141231252Y90397000D01*
%TO.C,C6*%
X153570000Y82176252D02*
X153570000Y81653748D01*
X155040000Y82176252D02*
X155040000Y81653748D01*
%TO.C,C7*%
X151665000Y82176252D02*
X151665000Y81653748D01*
X153135000Y82176252D02*
X153135000Y81653748D01*
%TO.C,C8*%
X100703748Y84355000D02*
X101226252Y84355000D01*
X100703748Y85825000D02*
X101226252Y85825000D01*
%TO.C,C9*%
X117375000Y82176252D02*
X117375000Y81653748D01*
X118845000Y82176252D02*
X118845000Y81653748D01*
%TO.C,C10*%
X100703748Y83920000D02*
X101226252Y83920000D01*
X100703748Y82450000D02*
X101226252Y82450000D01*
%TO.C,C11*%
X120750000Y82176252D02*
X120750000Y81653748D01*
X119280000Y82176252D02*
X119280000Y81653748D01*
%TO.C,C15*%
X118498252Y40740000D02*
X117975748Y40740000D01*
X118498252Y39270000D02*
X117975748Y39270000D01*
%TO.C,C16*%
X95912000Y44076252D02*
X95912000Y43553748D01*
X97382000Y44076252D02*
X97382000Y43553748D01*
%TO.C,C17*%
X94007000Y47363748D02*
X94007000Y47886252D01*
X95477000Y47363748D02*
X95477000Y47886252D01*
%TO.C,C18*%
X75423752Y53440000D02*
X74901248Y53440000D01*
X75423752Y51970000D02*
X74901248Y51970000D01*
%TO.C,C19*%
X100083252Y42445000D02*
X99560748Y42445000D01*
X100083252Y43915000D02*
X99560748Y43915000D01*
%TO.C,C20*%
X76935000Y45458748D02*
X76935000Y45981252D01*
X75465000Y45458748D02*
X75465000Y45981252D01*
%TO.C,C21*%
X97382000Y47363748D02*
X97382000Y47886252D01*
X95912000Y47363748D02*
X95912000Y47886252D01*
%TO.C,C22*%
X84355000Y30853748D02*
X84355000Y31376252D01*
X85825000Y30853748D02*
X85825000Y31376252D01*
%TO.C,C23*%
X80545000Y49268748D02*
X80545000Y49791252D01*
X82015000Y49268748D02*
X82015000Y49791252D01*
%TO.C,C24*%
X83285000Y30853748D02*
X83285000Y31376252D01*
X81815000Y30853748D02*
X81815000Y31376252D01*
%TO.C,C25*%
X114527000Y45346252D02*
X114527000Y44823748D01*
X113057000Y45346252D02*
X113057000Y44823748D01*
%TO.C,C26*%
X102623252Y33120000D02*
X102100748Y33120000D01*
X102623252Y31650000D02*
X102100748Y31650000D01*
%TO.C,C27*%
X102623252Y34190000D02*
X102100748Y34190000D01*
X102623252Y35660000D02*
X102100748Y35660000D01*
%TO.C,C28*%
X102623252Y38200000D02*
X102100748Y38200000D01*
X102623252Y36730000D02*
X102100748Y36730000D01*
%TO.C,C29*%
X102623252Y39270000D02*
X102100748Y39270000D01*
X102623252Y40740000D02*
X102100748Y40740000D01*
%TO.C,C30*%
X123852000Y36456252D02*
X123852000Y35933748D01*
X125322000Y36456252D02*
X125322000Y35933748D01*
%TO.C,C31*%
X110082000Y38361252D02*
X110082000Y37838748D01*
X108612000Y38361252D02*
X108612000Y37838748D01*
%TO.C,C32*%
X121512000Y48521252D02*
X121512000Y47998748D01*
X120042000Y48521252D02*
X120042000Y47998748D01*
%TO.C,C33*%
X117702000Y43553748D02*
X117702000Y44076252D01*
X116232000Y43553748D02*
X116232000Y44076252D01*
%TO.C,C34*%
X140101250Y62566250D02*
X140101250Y61778750D01*
X139707500Y62172500D02*
X140495000Y62172500D01*
X140735000Y57979437D02*
X141799437Y56915000D01*
X140735000Y62670563D02*
X141799437Y63735000D01*
X140735000Y62670563D02*
X140735000Y61385000D01*
X140735000Y57979437D02*
X140735000Y59265000D01*
X141799437Y56915000D02*
X147555000Y56915000D01*
X141799437Y63735000D02*
X147555000Y63735000D01*
X147555000Y63735000D02*
X147555000Y61385000D01*
X147555000Y56915000D02*
X147555000Y59265000D01*
%TO.C,C35*%
X136263748Y51970000D02*
X136786252Y51970000D01*
X136263748Y53440000D02*
X136786252Y53440000D01*
%TO.C,C36*%
X133723748Y45185000D02*
X134246252Y45185000D01*
X133723748Y43715000D02*
X134246252Y43715000D01*
%TO.C,C37*%
X134246252Y41248000D02*
X133723748Y41248000D01*
X134246252Y39778000D02*
X133723748Y39778000D01*
%TO.C,C38*%
X134881252Y62965000D02*
X134358748Y62965000D01*
X134881252Y61495000D02*
X134358748Y61495000D01*
%TO.C,C39*%
X134881252Y59590000D02*
X134358748Y59590000D01*
X134881252Y61060000D02*
X134358748Y61060000D01*
%TO.C,C40*%
X126084000Y68206252D02*
X126084000Y67683748D01*
X124614000Y68206252D02*
X124614000Y67683748D01*
%TO.C,C41*%
X127989000Y68206252D02*
X127989000Y67683748D01*
X126519000Y68206252D02*
X126519000Y67683748D01*
%TO.C,C42*%
X131799000Y68206252D02*
X131799000Y67683748D01*
X130329000Y68206252D02*
X130329000Y67683748D01*
%TO.C,C43*%
X108338252Y65940000D02*
X107815748Y65940000D01*
X108338252Y67410000D02*
X107815748Y67410000D01*
%TO.C,C44*%
X110517000Y63126252D02*
X110517000Y62603748D01*
X111987000Y63126252D02*
X111987000Y62603748D01*
%TO.C,C45*%
X114527000Y56888748D02*
X114527000Y57411252D01*
X113057000Y56888748D02*
X113057000Y57411252D01*
%TO.C,C46*%
X89435000Y101338748D02*
X89435000Y101861252D01*
X90905000Y101338748D02*
X90905000Y101861252D01*
%TO.C,C47*%
X97255000Y101338748D02*
X97255000Y101861252D01*
X95785000Y101338748D02*
X95785000Y101861252D01*
%TO.C,C48*%
X147555000Y48025000D02*
X147555000Y50375000D01*
X147555000Y54845000D02*
X147555000Y52495000D01*
X141799437Y54845000D02*
X147555000Y54845000D01*
X141799437Y48025000D02*
X147555000Y48025000D01*
X140735000Y49089437D02*
X140735000Y50375000D01*
X140735000Y53780563D02*
X140735000Y52495000D01*
X140735000Y53780563D02*
X141799437Y54845000D01*
X140735000Y49089437D02*
X141799437Y48025000D01*
X139707500Y53282500D02*
X140495000Y53282500D01*
X140101250Y53676250D02*
X140101250Y52888750D01*
%TO.C,D1*%
X122571000Y96860000D02*
X122571000Y100710000D01*
X124571000Y96860000D02*
X124571000Y100710000D01*
X122571000Y96860000D02*
X124571000Y96860000D01*
%TO.C,D2*%
X143220000Y91202000D02*
X139320000Y91202000D01*
X143220000Y93202000D02*
X139320000Y93202000D01*
X143220000Y91202000D02*
X143220000Y93202000D01*
%TO.C,D3*%
X91940000Y98520000D02*
X92600000Y98520000D01*
X90280000Y98520000D02*
X90940000Y98520000D01*
X90280000Y98520000D02*
X90280000Y96490000D01*
X92600000Y97110000D02*
X92600000Y98520000D01*
%TO.C,D4*%
X98950000Y97110000D02*
X98950000Y98520000D01*
X96630000Y98520000D02*
X96630000Y96490000D01*
X96630000Y98520000D02*
X97290000Y98520000D01*
X98290000Y98520000D02*
X98950000Y98520000D01*
%TO.C,F1*%
X144989733Y87247000D02*
X145332267Y87247000D01*
X144989733Y88267000D02*
X145332267Y88267000D01*
%TO.C,J1*%
X155730000Y89805000D02*
X153630000Y89805000D01*
X156030000Y89505000D02*
X156030000Y91105000D01*
X154330000Y89505000D02*
X156030000Y89505000D01*
X146530000Y89805000D02*
X146530000Y91605000D01*
X148630000Y89805000D02*
X146530000Y89805000D01*
X155730000Y104505000D02*
X155730000Y89805000D01*
X146530000Y104505000D02*
X155730000Y104505000D01*
X146530000Y96005000D02*
X146530000Y104505000D01*
%TO.C,J2*%
X125670000Y90230000D02*
X127000000Y90230000D01*
X125670000Y88900000D02*
X125670000Y90230000D01*
X125670000Y87630000D02*
X128330000Y87630000D01*
X128330000Y87630000D02*
X128330000Y77410000D01*
X125670000Y87630000D02*
X125670000Y77410000D01*
X125670000Y77410000D02*
X128330000Y77410000D01*
%TO.C,J3*%
X109795000Y68520000D02*
X109795000Y69850000D01*
X111125000Y68520000D02*
X109795000Y68520000D01*
X109795000Y71120000D02*
X109795000Y73720000D01*
X112395000Y71120000D02*
X109795000Y71120000D01*
X112395000Y68520000D02*
X112395000Y71120000D01*
X109795000Y73720000D02*
X117535000Y73720000D01*
X112395000Y68520000D02*
X117535000Y68520000D01*
X117535000Y68520000D02*
X117535000Y73720000D01*
%TO.C,J4*%
X79625000Y99970000D02*
X79375000Y100470000D01*
X79125000Y99970000D02*
X79625000Y99970000D01*
X79375000Y100470000D02*
X79125000Y99970000D01*
%TO.C,L1*%
X141231252Y86435000D02*
X140708748Y86435000D01*
X141231252Y85015000D02*
X140708748Y85015000D01*
%TO.C,L2*%
X146311252Y75640000D02*
X145788748Y75640000D01*
X146311252Y74220000D02*
X145788748Y74220000D01*
%TO.C,L3*%
X121210000Y81653748D02*
X121210000Y82176252D01*
X122630000Y81653748D02*
X122630000Y82176252D01*
%TO.C,LS1*%
X158425000Y63925000D02*
X158425000Y65175000D01*
X157175000Y63925000D02*
X158425000Y63925000D01*
X151275000Y69425000D02*
X154325000Y69425000D01*
X151275000Y66475000D02*
X151275000Y69425000D01*
X150525000Y66475000D02*
X151275000Y66475000D01*
X154325000Y69425000D02*
X156315000Y69425000D01*
X157375000Y66475000D02*
X157375000Y67815000D01*
X158125000Y66475000D02*
X157375000Y66475000D01*
X150525000Y64225000D02*
X152325000Y64225000D01*
X150525000Y64975000D02*
X150525000Y64225000D01*
X152325000Y64975000D02*
X150525000Y64975000D01*
X152325000Y64225000D02*
X152325000Y64975000D01*
X156325000Y64225000D02*
X158125000Y64225000D01*
X156325000Y64975000D02*
X156325000Y64225000D01*
X158125000Y64975000D02*
X156325000Y64975000D01*
X158125000Y64225000D02*
X158125000Y64975000D01*
X153825000Y64225000D02*
X154825000Y64225000D01*
X153825000Y64975000D02*
X153825000Y64225000D01*
X154825000Y64975000D02*
X153825000Y64975000D01*
X154825000Y64225000D02*
X154825000Y64975000D01*
X150515000Y64215000D02*
X158135000Y64215000D01*
X150515000Y70185000D02*
X150515000Y64215000D01*
X158135000Y70185000D02*
X150515000Y70185000D01*
X158135000Y64215000D02*
X158135000Y70185000D01*
%TO.C,MK1*%
X146685000Y40005000D02*
G75*
G03*
X146685000Y40005000I-5080000J0D01*
G01*
%TO.C,Q1*%
X91257000Y43055000D02*
X91257000Y44515000D01*
X94417000Y43055000D02*
X94417000Y45215000D01*
X94417000Y43055000D02*
X93487000Y43055000D01*
X91257000Y43055000D02*
X92187000Y43055000D01*
%TO.C,Q2*%
X73985000Y39880000D02*
X73985000Y41340000D01*
X77145000Y39880000D02*
X77145000Y42040000D01*
X77145000Y39880000D02*
X76215000Y39880000D01*
X73985000Y39880000D02*
X74915000Y39880000D01*
%TO.C,Q3*%
X102872000Y60000000D02*
X104332000Y60000000D01*
X102872000Y56840000D02*
X105032000Y56840000D01*
X102872000Y56840000D02*
X102872000Y57770000D01*
X102872000Y60000000D02*
X102872000Y59070000D01*
%TO.C,Q4*%
X102872000Y55555000D02*
X102872000Y54625000D01*
X102872000Y52395000D02*
X102872000Y53325000D01*
X102872000Y52395000D02*
X105032000Y52395000D01*
X102872000Y55555000D02*
X104332000Y55555000D01*
%TO.C,R1*%
X115342936Y65940000D02*
X115797064Y65940000D01*
X115342936Y67410000D02*
X115797064Y67410000D01*
%TO.C,R2*%
X93572000Y47397936D02*
X93572000Y47852064D01*
X92102000Y47397936D02*
X92102000Y47852064D01*
%TO.C,R3*%
X91667000Y47852064D02*
X91667000Y47397936D01*
X90197000Y47852064D02*
X90197000Y47397936D01*
%TO.C,R4*%
X78640000Y49302936D02*
X78640000Y49757064D01*
X80110000Y49302936D02*
X80110000Y49757064D01*
%TO.C,R5*%
X100049064Y44350000D02*
X99594936Y44350000D01*
X100049064Y45820000D02*
X99594936Y45820000D01*
%TO.C,R6*%
X78640000Y45492936D02*
X78640000Y45947064D01*
X80110000Y45492936D02*
X80110000Y45947064D01*
%TO.C,R7*%
X100049064Y46255000D02*
X99594936Y46255000D01*
X100049064Y47725000D02*
X99594936Y47725000D01*
%TO.C,R8*%
X99594936Y48160000D02*
X100049064Y48160000D01*
X99594936Y49630000D02*
X100049064Y49630000D01*
%TO.C,R9*%
X115924064Y31215000D02*
X115469936Y31215000D01*
X115924064Y29745000D02*
X115469936Y29745000D01*
%TO.C,R10*%
X115924064Y31650000D02*
X115469936Y31650000D01*
X115924064Y33120000D02*
X115469936Y33120000D01*
%TO.C,R11*%
X110844064Y33755000D02*
X110389936Y33755000D01*
X110844064Y32285000D02*
X110389936Y32285000D01*
%TO.C,R12*%
X110844064Y34190000D02*
X110389936Y34190000D01*
X110844064Y35660000D02*
X110389936Y35660000D01*
%TO.C,R13*%
X122782000Y36422064D02*
X122782000Y35967936D01*
X121312000Y36422064D02*
X121312000Y35967936D01*
%TO.C,R14*%
X111152000Y38327064D02*
X111152000Y37872936D01*
X112622000Y38327064D02*
X112622000Y37872936D01*
%TO.C,R15*%
X119607000Y48487064D02*
X119607000Y48032936D01*
X118137000Y48487064D02*
X118137000Y48032936D01*
%TO.C,R16*%
X117702000Y48032936D02*
X117702000Y48487064D01*
X116232000Y48032936D02*
X116232000Y48487064D01*
%TO.C,R17*%
X119607000Y43587936D02*
X119607000Y44042064D01*
X118137000Y43587936D02*
X118137000Y44042064D01*
%TO.C,R18*%
X121512000Y44042064D02*
X121512000Y43587936D01*
X120042000Y44042064D02*
X120042000Y43587936D01*
%TO.C,R19*%
X133757936Y41810000D02*
X134212064Y41810000D01*
X133757936Y43280000D02*
X134212064Y43280000D01*
%TO.C,R20*%
X136297936Y50065000D02*
X136752064Y50065000D01*
X136297936Y51535000D02*
X136752064Y51535000D01*
%TO.C,R21*%
X134212064Y37184000D02*
X133757936Y37184000D01*
X134212064Y35714000D02*
X133757936Y35714000D01*
%TO.C,R22*%
X133757936Y39216000D02*
X134212064Y39216000D01*
X133757936Y37746000D02*
X134212064Y37746000D01*
%TO.C,R23*%
X122709000Y68172064D02*
X122709000Y67717936D01*
X124179000Y68172064D02*
X124179000Y67717936D01*
%TO.C,R24*%
X128424000Y67717936D02*
X128424000Y68172064D01*
X129894000Y67717936D02*
X129894000Y68172064D01*
%TO.C,R25*%
X105637000Y63092064D02*
X105637000Y62637936D01*
X104167000Y63092064D02*
X104167000Y62637936D01*
%TO.C,R26*%
X103732000Y62637936D02*
X103732000Y63092064D01*
X102262000Y62637936D02*
X102262000Y63092064D01*
%TO.C,R27*%
X106072000Y58192936D02*
X106072000Y58647064D01*
X107542000Y58192936D02*
X107542000Y58647064D01*
%TO.C,R28*%
X106072000Y53747936D02*
X106072000Y54202064D01*
X107542000Y53747936D02*
X107542000Y54202064D01*
%TO.C,R29*%
X101192000Y58192936D02*
X101192000Y58647064D01*
X99722000Y58192936D02*
X99722000Y58647064D01*
%TO.C,R30*%
X99722000Y54202064D02*
X99722000Y53747936D01*
X101192000Y54202064D02*
X101192000Y53747936D01*
%TO.C,R31*%
X89000000Y97562936D02*
X89000000Y98017064D01*
X87530000Y97562936D02*
X87530000Y98017064D01*
%TO.C,R32*%
X89000000Y101827064D02*
X89000000Y101372936D01*
X87530000Y101827064D02*
X87530000Y101372936D01*
%TO.C,R33*%
X92810000Y101372936D02*
X92810000Y101827064D01*
X91340000Y101372936D02*
X91340000Y101827064D01*
%TO.C,R34*%
X97690000Y101372936D02*
X97690000Y101827064D01*
X99160000Y101372936D02*
X99160000Y101827064D01*
%TO.C,R35*%
X95350000Y101827064D02*
X95350000Y101372936D01*
X93880000Y101827064D02*
X93880000Y101372936D01*
%TO.C,R36*%
X93880000Y97562936D02*
X93880000Y98017064D01*
X95350000Y97562936D02*
X95350000Y98017064D01*
%TO.C,SW1*%
X113370000Y15280000D02*
G75*
G03*
X113370000Y15280000I-3000000J0D01*
G01*
X112170000Y21580000D02*
X117070000Y21580000D01*
X117070000Y8980000D02*
X112170000Y8980000D01*
X108570000Y8980000D02*
X103670000Y8980000D01*
X103670000Y8980000D02*
X103670000Y11780000D01*
X108470000Y21580000D02*
X103670000Y21580000D01*
X103670000Y21580000D02*
X103670000Y19080000D01*
X102870000Y19080000D02*
X102570000Y19380000D01*
X102570000Y19380000D02*
X103170000Y19380000D01*
X103170000Y19380000D02*
X102870000Y19080000D01*
X117070000Y21580000D02*
X117070000Y18980000D01*
X117070000Y16580000D02*
X117070000Y13980000D01*
X117070000Y11580000D02*
X117070000Y8980000D01*
X110370000Y15780000D02*
X110370000Y14780000D01*
X109870000Y15280000D02*
X110870000Y15280000D01*
%TO.C,SW3*%
X79740000Y12280000D02*
X84240000Y12280000D01*
X78490000Y16280000D02*
X78490000Y14780000D01*
X84240000Y18780000D02*
X79740000Y18780000D01*
X85490000Y14780000D02*
X85490000Y16280000D01*
%TO.C,SW4*%
X141370000Y14780000D02*
X141370000Y16280000D01*
X140120000Y18780000D02*
X135620000Y18780000D01*
X134370000Y16280000D02*
X134370000Y14780000D01*
X135620000Y12280000D02*
X140120000Y12280000D01*
%TO.C,T1*%
X81915000Y86995000D02*
X85725000Y86995000D01*
X73660000Y86995000D02*
X78105000Y86995000D01*
X81915000Y84455000D02*
X85725000Y84455000D01*
X73660000Y84455000D02*
X78105000Y84455000D01*
X80645000Y81915000D02*
X85725000Y81915000D01*
X73660000Y81915000D02*
X79375000Y81915000D01*
X80645000Y89535000D02*
X85725000Y89535000D01*
X73660000Y89535000D02*
X79375000Y89535000D01*
X72390000Y92075000D02*
X72390000Y78740000D01*
X86995000Y92075000D02*
X72390000Y92075000D01*
X86995000Y78740000D02*
X86995000Y92075000D01*
X72390000Y78740000D02*
X86995000Y78740000D01*
X79375000Y89535000D02*
G75*
G02*
X80645000Y89535000I635000J0D01*
G01*
X79375000Y81915000D02*
G75*
G02*
X80645000Y81915000I635000J0D01*
G01*
X79375000Y84455000D02*
G75*
G02*
X80645000Y84455000I635000J0D01*
G01*
X80645000Y84455000D02*
G75*
G02*
X81915000Y84455000I635000J0D01*
G01*
X78105000Y84455000D02*
G75*
G02*
X79375000Y84455000I635000J0D01*
G01*
X79375000Y86995000D02*
G75*
G02*
X80645000Y86995000I635000J0D01*
G01*
X80645000Y86995000D02*
G75*
G02*
X81915000Y86995000I635000J0D01*
G01*
X78105000Y86995000D02*
G75*
G02*
X79375000Y86995000I635000J0D01*
G01*
%TO.C,U1*%
X143515000Y96590000D02*
X143515000Y95490000D01*
X143785000Y96590000D02*
X143515000Y96590000D01*
X143785000Y98090000D02*
X143785000Y96590000D01*
X137155000Y96590000D02*
X137155000Y93760000D01*
X136885000Y96590000D02*
X137155000Y96590000D01*
X136885000Y98090000D02*
X136885000Y96590000D01*
%TO.C,U2*%
X150730000Y85380000D02*
X150730000Y79370000D01*
X143910000Y83130000D02*
X143910000Y79370000D01*
X150730000Y79370000D02*
X149470000Y79370000D01*
X143910000Y79370000D02*
X145170000Y79370000D01*
D11*
%TO.C,U3*%
X105595000Y85315000D02*
X104170000Y85315000D01*
X112845000Y85540000D02*
X112520000Y85540000D01*
X112845000Y78290000D02*
X112520000Y78290000D01*
X105595000Y78290000D02*
X105920000Y78290000D01*
X105595000Y85540000D02*
X105920000Y85540000D01*
X105595000Y78290000D02*
X105595000Y78615000D01*
X112845000Y78290000D02*
X112845000Y78615000D01*
X112845000Y85540000D02*
X112845000Y85215000D01*
X105595000Y85540000D02*
X105595000Y85315000D01*
D10*
%TO.C,U4*%
X116967000Y33635000D02*
X118917000Y33635000D01*
X116967000Y33635000D02*
X115017000Y33635000D01*
X116967000Y38755000D02*
X118917000Y38755000D01*
X116967000Y38755000D02*
X113517000Y38755000D01*
%TO.C,U5*%
X75830000Y51140000D02*
X73380000Y51140000D01*
X74030000Y47920000D02*
X75830000Y47920000D01*
%TO.C,U6*%
X112502000Y45085000D02*
X112502000Y48535000D01*
X112502000Y45085000D02*
X112502000Y43135000D01*
X102382000Y45085000D02*
X102382000Y47035000D01*
X102382000Y45085000D02*
X102382000Y43135000D01*
%TO.C,U8*%
X134620000Y59075000D02*
X131170000Y59075000D01*
X134620000Y59075000D02*
X136570000Y59075000D01*
X134620000Y53955000D02*
X132670000Y53955000D01*
X134620000Y53955000D02*
X136570000Y53955000D01*
D11*
%TO.C,U9*%
X112067000Y58825000D02*
X112067000Y60050000D01*
X108942000Y58825000D02*
X108942000Y55475000D01*
X112292000Y58825000D02*
X112292000Y55475000D01*
X108942000Y58825000D02*
X109242000Y58825000D01*
X108942000Y55475000D02*
X109242000Y55475000D01*
X112292000Y55475000D02*
X111992000Y55475000D01*
X112292000Y58825000D02*
X112067000Y58825000D01*
D10*
%TO.C,X1*%
X106177000Y61290000D02*
X109977000Y61290000D01*
X106177000Y64440000D02*
X106177000Y61290000D01*
%TO.C,L5*%
D11*
X130008333Y40442619D02*
X129532142Y40442619D01*
X129532142Y41442619D01*
X130817857Y41442619D02*
X130341666Y41442619D01*
X130294047Y40966428D01*
X130341666Y41014047D01*
X130436904Y41061666D01*
X130675000Y41061666D01*
X130770238Y41014047D01*
X130817857Y40966428D01*
X130865476Y40871190D01*
X130865476Y40633095D01*
X130817857Y40537857D01*
X130770238Y40490238D01*
X130675000Y40442619D01*
X130436904Y40442619D01*
X130341666Y40490238D01*
X130294047Y40537857D01*
%TO.C,C12*%
X129532142Y42412857D02*
X129484523Y42365238D01*
X129341666Y42317619D01*
X129246428Y42317619D01*
X129103571Y42365238D01*
X129008333Y42460476D01*
X128960714Y42555714D01*
X128913095Y42746190D01*
X128913095Y42889047D01*
X128960714Y43079523D01*
X129008333Y43174761D01*
X129103571Y43270000D01*
X129246428Y43317619D01*
X129341666Y43317619D01*
X129484523Y43270000D01*
X129532142Y43222380D01*
X130484523Y42317619D02*
X129913095Y42317619D01*
X130198809Y42317619D02*
X130198809Y43317619D01*
X130103571Y43174761D01*
X130008333Y43079523D01*
X129913095Y43031904D01*
X130865476Y43222380D02*
X130913095Y43270000D01*
X131008333Y43317619D01*
X131246428Y43317619D01*
X131341666Y43270000D01*
X131389285Y43222380D01*
X131436904Y43127142D01*
X131436904Y43031904D01*
X131389285Y42889047D01*
X130817857Y42317619D01*
X131436904Y42317619D01*
%TO.C,SW2*%
X148526666Y27535238D02*
X148669523Y27487619D01*
X148907619Y27487619D01*
X149002857Y27535238D01*
X149050476Y27582857D01*
X149098095Y27678095D01*
X149098095Y27773333D01*
X149050476Y27868571D01*
X149002857Y27916190D01*
X148907619Y27963809D01*
X148717142Y28011428D01*
X148621904Y28059047D01*
X148574285Y28106666D01*
X148526666Y28201904D01*
X148526666Y28297142D01*
X148574285Y28392380D01*
X148621904Y28440000D01*
X148717142Y28487619D01*
X148955238Y28487619D01*
X149098095Y28440000D01*
X149431428Y28487619D02*
X149669523Y27487619D01*
X149860000Y28201904D01*
X150050476Y27487619D01*
X150288571Y28487619D01*
X150621904Y28392380D02*
X150669523Y28440000D01*
X150764761Y28487619D01*
X151002857Y28487619D01*
X151098095Y28440000D01*
X151145714Y28392380D01*
X151193333Y28297142D01*
X151193333Y28201904D01*
X151145714Y28059047D01*
X150574285Y27487619D01*
X151193333Y27487619D01*
X149074285Y24312619D02*
X149074285Y25312619D01*
X149645714Y24312619D01*
X149645714Y25312619D01*
X150693333Y24407857D02*
X150645714Y24360238D01*
X150502857Y24312619D01*
X150407619Y24312619D01*
X150264761Y24360238D01*
X150169523Y24455476D01*
X150121904Y24550714D01*
X150074285Y24741190D01*
X150074285Y24884047D01*
X150121904Y25074523D01*
X150169523Y25169761D01*
X150264761Y25265000D01*
X150407619Y25312619D01*
X150502857Y25312619D01*
X150645714Y25265000D01*
X150693333Y25217380D01*
X149050476Y19232619D02*
X149050476Y20232619D01*
X149621904Y19232619D01*
X149621904Y20232619D01*
X150288571Y20232619D02*
X150479047Y20232619D01*
X150574285Y20185000D01*
X150669523Y20089761D01*
X150717142Y19899285D01*
X150717142Y19565952D01*
X150669523Y19375476D01*
X150574285Y19280238D01*
X150479047Y19232619D01*
X150288571Y19232619D01*
X150193333Y19280238D01*
X150098095Y19375476D01*
X150050476Y19565952D01*
X150050476Y19899285D01*
X150098095Y20089761D01*
X150193333Y20185000D01*
X150288571Y20232619D01*
X149074285Y14247857D02*
X149026666Y14200238D01*
X148883809Y14152619D01*
X148788571Y14152619D01*
X148645714Y14200238D01*
X148550476Y14295476D01*
X148502857Y14390714D01*
X148455238Y14581190D01*
X148455238Y14724047D01*
X148502857Y14914523D01*
X148550476Y15009761D01*
X148645714Y15105000D01*
X148788571Y15152619D01*
X148883809Y15152619D01*
X149026666Y15105000D01*
X149074285Y15057380D01*
X149693333Y15152619D02*
X149883809Y15152619D01*
X149979047Y15105000D01*
X150074285Y15009761D01*
X150121904Y14819285D01*
X150121904Y14485952D01*
X150074285Y14295476D01*
X149979047Y14200238D01*
X149883809Y14152619D01*
X149693333Y14152619D01*
X149598095Y14200238D01*
X149502857Y14295476D01*
X149455238Y14485952D01*
X149455238Y14819285D01*
X149502857Y15009761D01*
X149598095Y15105000D01*
X149693333Y15152619D01*
X150550476Y14152619D02*
X150550476Y15152619D01*
X150883809Y14438333D01*
X151217142Y15152619D01*
X151217142Y14152619D01*
%TO.C,L4*%
X76153333Y19570119D02*
X75677142Y19570119D01*
X75677142Y20570119D01*
X76915238Y20236785D02*
X76915238Y19570119D01*
X76677142Y20617738D02*
X76439047Y19903452D01*
X77058095Y19903452D01*
%TO.C,U7*%
X81367380Y36068095D02*
X82176904Y36068095D01*
X82272142Y36115714D01*
X82319761Y36163333D01*
X82367380Y36258571D01*
X82367380Y36449047D01*
X82319761Y36544285D01*
X82272142Y36591904D01*
X82176904Y36639523D01*
X81367380Y36639523D01*
X81367380Y37020476D02*
X81367380Y37687142D01*
X82367380Y37258571D01*
%TO.C,Q6*%
X74802619Y40544761D02*
X74755000Y40449523D01*
X74659761Y40354285D01*
X74516904Y40211428D01*
X74469285Y40116190D01*
X74469285Y40020952D01*
X74707380Y40068571D02*
X74659761Y39973333D01*
X74564523Y39878095D01*
X74374047Y39830476D01*
X74040714Y39830476D01*
X73850238Y39878095D01*
X73755000Y39973333D01*
X73707380Y40068571D01*
X73707380Y40259047D01*
X73755000Y40354285D01*
X73850238Y40449523D01*
X74040714Y40497142D01*
X74374047Y40497142D01*
X74564523Y40449523D01*
X74659761Y40354285D01*
X74707380Y40259047D01*
X74707380Y40068571D01*
X73707380Y41354285D02*
X73707380Y41163809D01*
X73755000Y41068571D01*
X73802619Y41020952D01*
X73945476Y40925714D01*
X74135952Y40878095D01*
X74516904Y40878095D01*
X74612142Y40925714D01*
X74659761Y40973333D01*
X74707380Y41068571D01*
X74707380Y41259047D01*
X74659761Y41354285D01*
X74612142Y41401904D01*
X74516904Y41449523D01*
X74278809Y41449523D01*
X74183571Y41401904D01*
X74135952Y41354285D01*
X74088333Y41259047D01*
X74088333Y41068571D01*
X74135952Y40973333D01*
X74183571Y40925714D01*
X74278809Y40878095D01*
%TO.C,Q5*%
X82422619Y40544761D02*
X82375000Y40449523D01*
X82279761Y40354285D01*
X82136904Y40211428D01*
X82089285Y40116190D01*
X82089285Y40020952D01*
X82327380Y40068571D02*
X82279761Y39973333D01*
X82184523Y39878095D01*
X81994047Y39830476D01*
X81660714Y39830476D01*
X81470238Y39878095D01*
X81375000Y39973333D01*
X81327380Y40068571D01*
X81327380Y40259047D01*
X81375000Y40354285D01*
X81470238Y40449523D01*
X81660714Y40497142D01*
X81994047Y40497142D01*
X82184523Y40449523D01*
X82279761Y40354285D01*
X82327380Y40259047D01*
X82327380Y40068571D01*
X81327380Y41401904D02*
X81327380Y40925714D01*
X81803571Y40878095D01*
X81755952Y40925714D01*
X81708333Y41020952D01*
X81708333Y41259047D01*
X81755952Y41354285D01*
X81803571Y41401904D01*
X81898809Y41449523D01*
X82136904Y41449523D01*
X82232142Y41401904D01*
X82279761Y41354285D01*
X82327380Y41259047D01*
X82327380Y41020952D01*
X82279761Y40925714D01*
X82232142Y40878095D01*
%TO.C,REF\u002A\u002A*%
X68666666Y103347619D02*
X68333333Y103823809D01*
X68095238Y103347619D02*
X68095238Y104347619D01*
X68476190Y104347619D01*
X68571428Y104300000D01*
X68619047Y104252380D01*
X68666666Y104157142D01*
X68666666Y104014285D01*
X68619047Y103919047D01*
X68571428Y103871428D01*
X68476190Y103823809D01*
X68095238Y103823809D01*
X69095238Y103871428D02*
X69428571Y103871428D01*
X69571428Y103347619D02*
X69095238Y103347619D01*
X69095238Y104347619D01*
X69571428Y104347619D01*
X70333333Y103871428D02*
X70000000Y103871428D01*
X70000000Y103347619D02*
X70000000Y104347619D01*
X70476190Y104347619D01*
X71000000Y104347619D02*
X71000000Y104109523D01*
X70761904Y104204761D02*
X71000000Y104109523D01*
X71238095Y104204761D01*
X70857142Y103919047D02*
X71000000Y104109523D01*
X71142857Y103919047D01*
X71761904Y104347619D02*
X71761904Y104109523D01*
X71523809Y104204761D02*
X71761904Y104109523D01*
X72000000Y104204761D01*
X71619047Y103919047D02*
X71761904Y104109523D01*
X71904761Y103919047D01*
X68666666Y13347619D02*
X68333333Y13823809D01*
X68095238Y13347619D02*
X68095238Y14347619D01*
X68476190Y14347619D01*
X68571428Y14300000D01*
X68619047Y14252380D01*
X68666666Y14157142D01*
X68666666Y14014285D01*
X68619047Y13919047D01*
X68571428Y13871428D01*
X68476190Y13823809D01*
X68095238Y13823809D01*
X69095238Y13871428D02*
X69428571Y13871428D01*
X69571428Y13347619D02*
X69095238Y13347619D01*
X69095238Y14347619D01*
X69571428Y14347619D01*
X70333333Y13871428D02*
X70000000Y13871428D01*
X70000000Y13347619D02*
X70000000Y14347619D01*
X70476190Y14347619D01*
X71000000Y14347619D02*
X71000000Y14109523D01*
X70761904Y14204761D02*
X71000000Y14109523D01*
X71238095Y14204761D01*
X70857142Y13919047D02*
X71000000Y14109523D01*
X71142857Y13919047D01*
X71761904Y14347619D02*
X71761904Y14109523D01*
X71523809Y14204761D02*
X71761904Y14109523D01*
X72000000Y14204761D01*
X71619047Y13919047D02*
X71761904Y14109523D01*
X71904761Y13919047D01*
X158666666Y13347619D02*
X158333333Y13823809D01*
X158095238Y13347619D02*
X158095238Y14347619D01*
X158476190Y14347619D01*
X158571428Y14300000D01*
X158619047Y14252380D01*
X158666666Y14157142D01*
X158666666Y14014285D01*
X158619047Y13919047D01*
X158571428Y13871428D01*
X158476190Y13823809D01*
X158095238Y13823809D01*
X159095238Y13871428D02*
X159428571Y13871428D01*
X159571428Y13347619D02*
X159095238Y13347619D01*
X159095238Y14347619D01*
X159571428Y14347619D01*
X160333333Y13871428D02*
X160000000Y13871428D01*
X160000000Y13347619D02*
X160000000Y14347619D01*
X160476190Y14347619D01*
X161000000Y14347619D02*
X161000000Y14109523D01*
X160761904Y14204761D02*
X161000000Y14109523D01*
X161238095Y14204761D01*
X160857142Y13919047D02*
X161000000Y14109523D01*
X161142857Y13919047D01*
X161761904Y14347619D02*
X161761904Y14109523D01*
X161523809Y14204761D02*
X161761904Y14109523D01*
X162000000Y14204761D01*
X161619047Y13919047D02*
X161761904Y14109523D01*
X161904761Y13919047D01*
X158666666Y103347619D02*
X158333333Y103823809D01*
X158095238Y103347619D02*
X158095238Y104347619D01*
X158476190Y104347619D01*
X158571428Y104300000D01*
X158619047Y104252380D01*
X158666666Y104157142D01*
X158666666Y104014285D01*
X158619047Y103919047D01*
X158571428Y103871428D01*
X158476190Y103823809D01*
X158095238Y103823809D01*
X159095238Y103871428D02*
X159428571Y103871428D01*
X159571428Y103347619D02*
X159095238Y103347619D01*
X159095238Y104347619D01*
X159571428Y104347619D01*
X160333333Y103871428D02*
X160000000Y103871428D01*
X160000000Y103347619D02*
X160000000Y104347619D01*
X160476190Y104347619D01*
X161000000Y104347619D02*
X161000000Y104109523D01*
X160761904Y104204761D02*
X161000000Y104109523D01*
X161238095Y104204761D01*
X160857142Y103919047D02*
X161000000Y104109523D01*
X161142857Y103919047D01*
X161761904Y104347619D02*
X161761904Y104109523D01*
X161523809Y104204761D02*
X161761904Y104109523D01*
X162000000Y104204761D01*
X161619047Y103919047D02*
X161761904Y104109523D01*
X161904761Y103919047D01*
%TO.C,J6*%
X162551666Y63172619D02*
X162551666Y62458333D01*
X162504047Y62315476D01*
X162408809Y62220238D01*
X162265952Y62172619D01*
X162170714Y62172619D01*
X163456428Y63172619D02*
X163265952Y63172619D01*
X163170714Y63125000D01*
X163123095Y63077380D01*
X163027857Y62934523D01*
X162980238Y62744047D01*
X162980238Y62363095D01*
X163027857Y62267857D01*
X163075476Y62220238D01*
X163170714Y62172619D01*
X163361190Y62172619D01*
X163456428Y62220238D01*
X163504047Y62267857D01*
X163551666Y62363095D01*
X163551666Y62601190D01*
X163504047Y62696428D01*
X163456428Y62744047D01*
X163361190Y62791666D01*
X163170714Y62791666D01*
X163075476Y62744047D01*
X163027857Y62696428D01*
X162980238Y62601190D01*
%TO.C,J5*%
X162551666Y45392619D02*
X162551666Y44678333D01*
X162504047Y44535476D01*
X162408809Y44440238D01*
X162265952Y44392619D01*
X162170714Y44392619D01*
X163504047Y45392619D02*
X163027857Y45392619D01*
X162980238Y44916428D01*
X163027857Y44964047D01*
X163123095Y45011666D01*
X163361190Y45011666D01*
X163456428Y44964047D01*
X163504047Y44916428D01*
X163551666Y44821190D01*
X163551666Y44583095D01*
X163504047Y44487857D01*
X163456428Y44440238D01*
X163361190Y44392619D01*
X163123095Y44392619D01*
X163027857Y44440238D01*
X162980238Y44487857D01*
%TO.C,RV1*%
X126658761Y65437619D02*
X126325428Y65913809D01*
X126087333Y65437619D02*
X126087333Y66437619D01*
X126468285Y66437619D01*
X126563523Y66390000D01*
X126611142Y66342380D01*
X126658761Y66247142D01*
X126658761Y66104285D01*
X126611142Y66009047D01*
X126563523Y65961428D01*
X126468285Y65913809D01*
X126087333Y65913809D01*
X126944476Y66437619D02*
X127277809Y65437619D01*
X127611142Y66437619D01*
X128468285Y65437619D02*
X127896857Y65437619D01*
X128182571Y65437619D02*
X128182571Y66437619D01*
X128087333Y66294761D01*
X127992095Y66199523D01*
X127896857Y66151904D01*
%TO.C,Y1*%
X99126190Y79533809D02*
X99602380Y79533809D01*
X98602380Y79200476D02*
X99126190Y79533809D01*
X98602380Y79867142D01*
X99602380Y80724285D02*
X99602380Y80152857D01*
X99602380Y80438571D02*
X98602380Y80438571D01*
X98745238Y80343333D01*
X98840476Y80248095D01*
X98888095Y80152857D01*
%TO.C,Brd1*%
X105513333Y91257428D02*
X105656190Y91209809D01*
X105703809Y91162190D01*
X105751428Y91066952D01*
X105751428Y90924095D01*
X105703809Y90828857D01*
X105656190Y90781238D01*
X105560952Y90733619D01*
X105180000Y90733619D01*
X105180000Y91733619D01*
X105513333Y91733619D01*
X105608571Y91686000D01*
X105656190Y91638380D01*
X105703809Y91543142D01*
X105703809Y91447904D01*
X105656190Y91352666D01*
X105608571Y91305047D01*
X105513333Y91257428D01*
X105180000Y91257428D01*
X106180000Y90733619D02*
X106180000Y91400285D01*
X106180000Y91209809D02*
X106227619Y91305047D01*
X106275238Y91352666D01*
X106370476Y91400285D01*
X106465714Y91400285D01*
X107227619Y90733619D02*
X107227619Y91733619D01*
X107227619Y90781238D02*
X107132380Y90733619D01*
X106941904Y90733619D01*
X106846666Y90781238D01*
X106799047Y90828857D01*
X106751428Y90924095D01*
X106751428Y91209809D01*
X106799047Y91305047D01*
X106846666Y91352666D01*
X106941904Y91400285D01*
X107132380Y91400285D01*
X107227619Y91352666D01*
X108227619Y90733619D02*
X107656190Y90733619D01*
X107941904Y90733619D02*
X107941904Y91733619D01*
X107846666Y91590761D01*
X107751428Y91495523D01*
X107656190Y91447904D01*
%TO.C,C1*%
X124658142Y98893333D02*
X124705761Y98845714D01*
X124753380Y98702857D01*
X124753380Y98607619D01*
X124705761Y98464761D01*
X124610523Y98369523D01*
X124515285Y98321904D01*
X124324809Y98274285D01*
X124181952Y98274285D01*
X123991476Y98321904D01*
X123896238Y98369523D01*
X123801000Y98464761D01*
X123753380Y98607619D01*
X123753380Y98702857D01*
X123801000Y98845714D01*
X123848619Y98893333D01*
X124753380Y99845714D02*
X124753380Y99274285D01*
X124753380Y99560000D02*
X123753380Y99560000D01*
X123896238Y99464761D01*
X123991476Y99369523D01*
X124039095Y99274285D01*
%TO.C,C2*%
X135641142Y100417333D02*
X135688761Y100369714D01*
X135736380Y100226857D01*
X135736380Y100131619D01*
X135688761Y99988761D01*
X135593523Y99893523D01*
X135498285Y99845904D01*
X135307809Y99798285D01*
X135164952Y99798285D01*
X134974476Y99845904D01*
X134879238Y99893523D01*
X134784000Y99988761D01*
X134736380Y100131619D01*
X134736380Y100226857D01*
X134784000Y100369714D01*
X134831619Y100417333D01*
X134831619Y100798285D02*
X134784000Y100845904D01*
X134736380Y100941142D01*
X134736380Y101179238D01*
X134784000Y101274476D01*
X134831619Y101322095D01*
X134926857Y101369714D01*
X135022095Y101369714D01*
X135164952Y101322095D01*
X135736380Y100750666D01*
X135736380Y101369714D01*
%TO.C,C3*%
X137546142Y100417333D02*
X137593761Y100369714D01*
X137641380Y100226857D01*
X137641380Y100131619D01*
X137593761Y99988761D01*
X137498523Y99893523D01*
X137403285Y99845904D01*
X137212809Y99798285D01*
X137069952Y99798285D01*
X136879476Y99845904D01*
X136784238Y99893523D01*
X136689000Y99988761D01*
X136641380Y100131619D01*
X136641380Y100226857D01*
X136689000Y100369714D01*
X136736619Y100417333D01*
X136641380Y100750666D02*
X136641380Y101369714D01*
X137022333Y101036380D01*
X137022333Y101179238D01*
X137069952Y101274476D01*
X137117571Y101322095D01*
X137212809Y101369714D01*
X137450904Y101369714D01*
X137546142Y101322095D01*
X137593761Y101274476D01*
X137641380Y101179238D01*
X137641380Y100893523D01*
X137593761Y100798285D01*
X137546142Y100750666D01*
%TO.C,C4*%
X140803333Y89079857D02*
X140755714Y89032238D01*
X140612857Y88984619D01*
X140517619Y88984619D01*
X140374761Y89032238D01*
X140279523Y89127476D01*
X140231904Y89222714D01*
X140184285Y89413190D01*
X140184285Y89556047D01*
X140231904Y89746523D01*
X140279523Y89841761D01*
X140374761Y89937000D01*
X140517619Y89984619D01*
X140612857Y89984619D01*
X140755714Y89937000D01*
X140803333Y89889380D01*
X141660476Y89651285D02*
X141660476Y88984619D01*
X141422380Y90032238D02*
X141184285Y89317952D01*
X141803333Y89317952D01*
%TO.C,C5*%
X140803333Y90984857D02*
X140755714Y90937238D01*
X140612857Y90889619D01*
X140517619Y90889619D01*
X140374761Y90937238D01*
X140279523Y91032476D01*
X140231904Y91127714D01*
X140184285Y91318190D01*
X140184285Y91461047D01*
X140231904Y91651523D01*
X140279523Y91746761D01*
X140374761Y91842000D01*
X140517619Y91889619D01*
X140612857Y91889619D01*
X140755714Y91842000D01*
X140803333Y91794380D01*
X141708095Y91889619D02*
X141231904Y91889619D01*
X141184285Y91413428D01*
X141231904Y91461047D01*
X141327142Y91508666D01*
X141565238Y91508666D01*
X141660476Y91461047D01*
X141708095Y91413428D01*
X141755714Y91318190D01*
X141755714Y91080095D01*
X141708095Y90984857D01*
X141660476Y90937238D01*
X141565238Y90889619D01*
X141327142Y90889619D01*
X141231904Y90937238D01*
X141184285Y90984857D01*
%TO.C,C6*%
X156342142Y81748333D02*
X156389761Y81700714D01*
X156437380Y81557857D01*
X156437380Y81462619D01*
X156389761Y81319761D01*
X156294523Y81224523D01*
X156199285Y81176904D01*
X156008809Y81129285D01*
X155865952Y81129285D01*
X155675476Y81176904D01*
X155580238Y81224523D01*
X155485000Y81319761D01*
X155437380Y81462619D01*
X155437380Y81557857D01*
X155485000Y81700714D01*
X155532619Y81748333D01*
X155437380Y82605476D02*
X155437380Y82415000D01*
X155485000Y82319761D01*
X155532619Y82272142D01*
X155675476Y82176904D01*
X155865952Y82129285D01*
X156246904Y82129285D01*
X156342142Y82176904D01*
X156389761Y82224523D01*
X156437380Y82319761D01*
X156437380Y82510238D01*
X156389761Y82605476D01*
X156342142Y82653095D01*
X156246904Y82700714D01*
X156008809Y82700714D01*
X155913571Y82653095D01*
X155865952Y82605476D01*
X155818333Y82510238D01*
X155818333Y82319761D01*
X155865952Y82224523D01*
X155913571Y82176904D01*
X156008809Y82129285D01*
%TO.C,C7*%
X154437142Y81748333D02*
X154484761Y81700714D01*
X154532380Y81557857D01*
X154532380Y81462619D01*
X154484761Y81319761D01*
X154389523Y81224523D01*
X154294285Y81176904D01*
X154103809Y81129285D01*
X153960952Y81129285D01*
X153770476Y81176904D01*
X153675238Y81224523D01*
X153580000Y81319761D01*
X153532380Y81462619D01*
X153532380Y81557857D01*
X153580000Y81700714D01*
X153627619Y81748333D01*
X153532380Y82081666D02*
X153532380Y82748333D01*
X154532380Y82319761D01*
%TO.C,C8*%
X100798333Y86412857D02*
X100750714Y86365238D01*
X100607857Y86317619D01*
X100512619Y86317619D01*
X100369761Y86365238D01*
X100274523Y86460476D01*
X100226904Y86555714D01*
X100179285Y86746190D01*
X100179285Y86889047D01*
X100226904Y87079523D01*
X100274523Y87174761D01*
X100369761Y87270000D01*
X100512619Y87317619D01*
X100607857Y87317619D01*
X100750714Y87270000D01*
X100798333Y87222380D01*
X101369761Y86889047D02*
X101274523Y86936666D01*
X101226904Y86984285D01*
X101179285Y87079523D01*
X101179285Y87127142D01*
X101226904Y87222380D01*
X101274523Y87270000D01*
X101369761Y87317619D01*
X101560238Y87317619D01*
X101655476Y87270000D01*
X101703095Y87222380D01*
X101750714Y87127142D01*
X101750714Y87079523D01*
X101703095Y86984285D01*
X101655476Y86936666D01*
X101560238Y86889047D01*
X101369761Y86889047D01*
X101274523Y86841428D01*
X101226904Y86793809D01*
X101179285Y86698571D01*
X101179285Y86508095D01*
X101226904Y86412857D01*
X101274523Y86365238D01*
X101369761Y86317619D01*
X101560238Y86317619D01*
X101655476Y86365238D01*
X101703095Y86412857D01*
X101750714Y86508095D01*
X101750714Y86698571D01*
X101703095Y86793809D01*
X101655476Y86841428D01*
X101560238Y86889047D01*
%TO.C,C9*%
X120147142Y81748333D02*
X120194761Y81700714D01*
X120242380Y81557857D01*
X120242380Y81462619D01*
X120194761Y81319761D01*
X120099523Y81224523D01*
X120004285Y81176904D01*
X119813809Y81129285D01*
X119670952Y81129285D01*
X119480476Y81176904D01*
X119385238Y81224523D01*
X119290000Y81319761D01*
X119242380Y81462619D01*
X119242380Y81557857D01*
X119290000Y81700714D01*
X119337619Y81748333D01*
X120242380Y82224523D02*
X120242380Y82415000D01*
X120194761Y82510238D01*
X120147142Y82557857D01*
X120004285Y82653095D01*
X119813809Y82700714D01*
X119432857Y82700714D01*
X119337619Y82653095D01*
X119290000Y82605476D01*
X119242380Y82510238D01*
X119242380Y82319761D01*
X119290000Y82224523D01*
X119337619Y82176904D01*
X119432857Y82129285D01*
X119670952Y82129285D01*
X119766190Y82176904D01*
X119813809Y82224523D01*
X119861428Y82319761D01*
X119861428Y82510238D01*
X119813809Y82605476D01*
X119766190Y82653095D01*
X119670952Y82700714D01*
%TO.C,C10*%
X100322142Y84507857D02*
X100274523Y84460238D01*
X100131666Y84412619D01*
X100036428Y84412619D01*
X99893571Y84460238D01*
X99798333Y84555476D01*
X99750714Y84650714D01*
X99703095Y84841190D01*
X99703095Y84984047D01*
X99750714Y85174523D01*
X99798333Y85269761D01*
X99893571Y85365000D01*
X100036428Y85412619D01*
X100131666Y85412619D01*
X100274523Y85365000D01*
X100322142Y85317380D01*
X101274523Y84412619D02*
X100703095Y84412619D01*
X100988809Y84412619D02*
X100988809Y85412619D01*
X100893571Y85269761D01*
X100798333Y85174523D01*
X100703095Y85126904D01*
X101893571Y85412619D02*
X101988809Y85412619D01*
X102084047Y85365000D01*
X102131666Y85317380D01*
X102179285Y85222142D01*
X102226904Y85031666D01*
X102226904Y84793571D01*
X102179285Y84603095D01*
X102131666Y84507857D01*
X102084047Y84460238D01*
X101988809Y84412619D01*
X101893571Y84412619D01*
X101798333Y84460238D01*
X101750714Y84507857D01*
X101703095Y84603095D01*
X101655476Y84793571D01*
X101655476Y85031666D01*
X101703095Y85222142D01*
X101750714Y85317380D01*
X101798333Y85365000D01*
X101893571Y85412619D01*
%TO.C,C11*%
X122052142Y81272142D02*
X122099761Y81224523D01*
X122147380Y81081666D01*
X122147380Y80986428D01*
X122099761Y80843571D01*
X122004523Y80748333D01*
X121909285Y80700714D01*
X121718809Y80653095D01*
X121575952Y80653095D01*
X121385476Y80700714D01*
X121290238Y80748333D01*
X121195000Y80843571D01*
X121147380Y80986428D01*
X121147380Y81081666D01*
X121195000Y81224523D01*
X121242619Y81272142D01*
X122147380Y82224523D02*
X122147380Y81653095D01*
X122147380Y81938809D02*
X121147380Y81938809D01*
X121290238Y81843571D01*
X121385476Y81748333D01*
X121433095Y81653095D01*
X122147380Y83176904D02*
X122147380Y82605476D01*
X122147380Y82891190D02*
X121147380Y82891190D01*
X121290238Y82795952D01*
X121385476Y82700714D01*
X121433095Y82605476D01*
%TO.C,C15*%
X117594142Y37967857D02*
X117546523Y37920238D01*
X117403666Y37872619D01*
X117308428Y37872619D01*
X117165571Y37920238D01*
X117070333Y38015476D01*
X117022714Y38110714D01*
X116975095Y38301190D01*
X116975095Y38444047D01*
X117022714Y38634523D01*
X117070333Y38729761D01*
X117165571Y38825000D01*
X117308428Y38872619D01*
X117403666Y38872619D01*
X117546523Y38825000D01*
X117594142Y38777380D01*
X118546523Y37872619D02*
X117975095Y37872619D01*
X118260809Y37872619D02*
X118260809Y38872619D01*
X118165571Y38729761D01*
X118070333Y38634523D01*
X117975095Y38586904D01*
X119451285Y38872619D02*
X118975095Y38872619D01*
X118927476Y38396428D01*
X118975095Y38444047D01*
X119070333Y38491666D01*
X119308428Y38491666D01*
X119403666Y38444047D01*
X119451285Y38396428D01*
X119498904Y38301190D01*
X119498904Y38063095D01*
X119451285Y37967857D01*
X119403666Y37920238D01*
X119308428Y37872619D01*
X119070333Y37872619D01*
X118975095Y37920238D01*
X118927476Y37967857D01*
%TO.C,C16*%
X98684142Y43172142D02*
X98731761Y43124523D01*
X98779380Y42981666D01*
X98779380Y42886428D01*
X98731761Y42743571D01*
X98636523Y42648333D01*
X98541285Y42600714D01*
X98350809Y42553095D01*
X98207952Y42553095D01*
X98017476Y42600714D01*
X97922238Y42648333D01*
X97827000Y42743571D01*
X97779380Y42886428D01*
X97779380Y42981666D01*
X97827000Y43124523D01*
X97874619Y43172142D01*
X98779380Y44124523D02*
X98779380Y43553095D01*
X98779380Y43838809D02*
X97779380Y43838809D01*
X97922238Y43743571D01*
X98017476Y43648333D01*
X98065095Y43553095D01*
X97779380Y44981666D02*
X97779380Y44791190D01*
X97827000Y44695952D01*
X97874619Y44648333D01*
X98017476Y44553095D01*
X98207952Y44505476D01*
X98588904Y44505476D01*
X98684142Y44553095D01*
X98731761Y44600714D01*
X98779380Y44695952D01*
X98779380Y44886428D01*
X98731761Y44981666D01*
X98684142Y45029285D01*
X98588904Y45076904D01*
X98350809Y45076904D01*
X98255571Y45029285D01*
X98207952Y44981666D01*
X98160333Y44886428D01*
X98160333Y44695952D01*
X98207952Y44600714D01*
X98255571Y44553095D01*
X98350809Y44505476D01*
%TO.C,C17*%
X93419142Y46982142D02*
X93466761Y46934523D01*
X93514380Y46791666D01*
X93514380Y46696428D01*
X93466761Y46553571D01*
X93371523Y46458333D01*
X93276285Y46410714D01*
X93085809Y46363095D01*
X92942952Y46363095D01*
X92752476Y46410714D01*
X92657238Y46458333D01*
X92562000Y46553571D01*
X92514380Y46696428D01*
X92514380Y46791666D01*
X92562000Y46934523D01*
X92609619Y46982142D01*
X93514380Y47934523D02*
X93514380Y47363095D01*
X93514380Y47648809D02*
X92514380Y47648809D01*
X92657238Y47553571D01*
X92752476Y47458333D01*
X92800095Y47363095D01*
X92514380Y48267857D02*
X92514380Y48934523D01*
X93514380Y48505952D01*
%TO.C,C18*%
X74519642Y54252857D02*
X74472023Y54205238D01*
X74329166Y54157619D01*
X74233928Y54157619D01*
X74091071Y54205238D01*
X73995833Y54300476D01*
X73948214Y54395714D01*
X73900595Y54586190D01*
X73900595Y54729047D01*
X73948214Y54919523D01*
X73995833Y55014761D01*
X74091071Y55110000D01*
X74233928Y55157619D01*
X74329166Y55157619D01*
X74472023Y55110000D01*
X74519642Y55062380D01*
X75472023Y54157619D02*
X74900595Y54157619D01*
X75186309Y54157619D02*
X75186309Y55157619D01*
X75091071Y55014761D01*
X74995833Y54919523D01*
X74900595Y54871904D01*
X76043452Y54729047D02*
X75948214Y54776666D01*
X75900595Y54824285D01*
X75852976Y54919523D01*
X75852976Y54967142D01*
X75900595Y55062380D01*
X75948214Y55110000D01*
X76043452Y55157619D01*
X76233928Y55157619D01*
X76329166Y55110000D01*
X76376785Y55062380D01*
X76424404Y54967142D01*
X76424404Y54919523D01*
X76376785Y54824285D01*
X76329166Y54776666D01*
X76233928Y54729047D01*
X76043452Y54729047D01*
X75948214Y54681428D01*
X75900595Y54633809D01*
X75852976Y54538571D01*
X75852976Y54348095D01*
X75900595Y54252857D01*
X75948214Y54205238D01*
X76043452Y54157619D01*
X76233928Y54157619D01*
X76329166Y54205238D01*
X76376785Y54252857D01*
X76424404Y54348095D01*
X76424404Y54538571D01*
X76376785Y54633809D01*
X76329166Y54681428D01*
X76233928Y54729047D01*
%TO.C,C19*%
X99179142Y41142857D02*
X99131523Y41095238D01*
X98988666Y41047619D01*
X98893428Y41047619D01*
X98750571Y41095238D01*
X98655333Y41190476D01*
X98607714Y41285714D01*
X98560095Y41476190D01*
X98560095Y41619047D01*
X98607714Y41809523D01*
X98655333Y41904761D01*
X98750571Y42000000D01*
X98893428Y42047619D01*
X98988666Y42047619D01*
X99131523Y42000000D01*
X99179142Y41952380D01*
X100131523Y41047619D02*
X99560095Y41047619D01*
X99845809Y41047619D02*
X99845809Y42047619D01*
X99750571Y41904761D01*
X99655333Y41809523D01*
X99560095Y41761904D01*
X100607714Y41047619D02*
X100798190Y41047619D01*
X100893428Y41095238D01*
X100941047Y41142857D01*
X101036285Y41285714D01*
X101083904Y41476190D01*
X101083904Y41857142D01*
X101036285Y41952380D01*
X100988666Y42000000D01*
X100893428Y42047619D01*
X100702952Y42047619D01*
X100607714Y42000000D01*
X100560095Y41952380D01*
X100512476Y41857142D01*
X100512476Y41619047D01*
X100560095Y41523809D01*
X100607714Y41476190D01*
X100702952Y41428571D01*
X100893428Y41428571D01*
X100988666Y41476190D01*
X101036285Y41523809D01*
X101083904Y41619047D01*
%TO.C,C20*%
X74877142Y45077142D02*
X74924761Y45029523D01*
X74972380Y44886666D01*
X74972380Y44791428D01*
X74924761Y44648571D01*
X74829523Y44553333D01*
X74734285Y44505714D01*
X74543809Y44458095D01*
X74400952Y44458095D01*
X74210476Y44505714D01*
X74115238Y44553333D01*
X74020000Y44648571D01*
X73972380Y44791428D01*
X73972380Y44886666D01*
X74020000Y45029523D01*
X74067619Y45077142D01*
X74067619Y45458095D02*
X74020000Y45505714D01*
X73972380Y45600952D01*
X73972380Y45839047D01*
X74020000Y45934285D01*
X74067619Y45981904D01*
X74162857Y46029523D01*
X74258095Y46029523D01*
X74400952Y45981904D01*
X74972380Y45410476D01*
X74972380Y46029523D01*
X73972380Y46648571D02*
X73972380Y46743809D01*
X74020000Y46839047D01*
X74067619Y46886666D01*
X74162857Y46934285D01*
X74353333Y46981904D01*
X74591428Y46981904D01*
X74781904Y46934285D01*
X74877142Y46886666D01*
X74924761Y46839047D01*
X74972380Y46743809D01*
X74972380Y46648571D01*
X74924761Y46553333D01*
X74877142Y46505714D01*
X74781904Y46458095D01*
X74591428Y46410476D01*
X74353333Y46410476D01*
X74162857Y46458095D01*
X74067619Y46505714D01*
X74020000Y46553333D01*
X73972380Y46648571D01*
%TO.C,C21*%
X95324142Y46982142D02*
X95371761Y46934523D01*
X95419380Y46791666D01*
X95419380Y46696428D01*
X95371761Y46553571D01*
X95276523Y46458333D01*
X95181285Y46410714D01*
X94990809Y46363095D01*
X94847952Y46363095D01*
X94657476Y46410714D01*
X94562238Y46458333D01*
X94467000Y46553571D01*
X94419380Y46696428D01*
X94419380Y46791666D01*
X94467000Y46934523D01*
X94514619Y46982142D01*
X94514619Y47363095D02*
X94467000Y47410714D01*
X94419380Y47505952D01*
X94419380Y47744047D01*
X94467000Y47839285D01*
X94514619Y47886904D01*
X94609857Y47934523D01*
X94705095Y47934523D01*
X94847952Y47886904D01*
X95419380Y47315476D01*
X95419380Y47934523D01*
X95419380Y48886904D02*
X95419380Y48315476D01*
X95419380Y48601190D02*
X94419380Y48601190D01*
X94562238Y48505952D01*
X94657476Y48410714D01*
X94705095Y48315476D01*
%TO.C,C22*%
X83767142Y30472142D02*
X83814761Y30424523D01*
X83862380Y30281666D01*
X83862380Y30186428D01*
X83814761Y30043571D01*
X83719523Y29948333D01*
X83624285Y29900714D01*
X83433809Y29853095D01*
X83290952Y29853095D01*
X83100476Y29900714D01*
X83005238Y29948333D01*
X82910000Y30043571D01*
X82862380Y30186428D01*
X82862380Y30281666D01*
X82910000Y30424523D01*
X82957619Y30472142D01*
X82957619Y30853095D02*
X82910000Y30900714D01*
X82862380Y30995952D01*
X82862380Y31234047D01*
X82910000Y31329285D01*
X82957619Y31376904D01*
X83052857Y31424523D01*
X83148095Y31424523D01*
X83290952Y31376904D01*
X83862380Y30805476D01*
X83862380Y31424523D01*
X82957619Y31805476D02*
X82910000Y31853095D01*
X82862380Y31948333D01*
X82862380Y32186428D01*
X82910000Y32281666D01*
X82957619Y32329285D01*
X83052857Y32376904D01*
X83148095Y32376904D01*
X83290952Y32329285D01*
X83862380Y31757857D01*
X83862380Y32376904D01*
%TO.C,C23*%
X79957142Y48887142D02*
X80004761Y48839523D01*
X80052380Y48696666D01*
X80052380Y48601428D01*
X80004761Y48458571D01*
X79909523Y48363333D01*
X79814285Y48315714D01*
X79623809Y48268095D01*
X79480952Y48268095D01*
X79290476Y48315714D01*
X79195238Y48363333D01*
X79100000Y48458571D01*
X79052380Y48601428D01*
X79052380Y48696666D01*
X79100000Y48839523D01*
X79147619Y48887142D01*
X79147619Y49268095D02*
X79100000Y49315714D01*
X79052380Y49410952D01*
X79052380Y49649047D01*
X79100000Y49744285D01*
X79147619Y49791904D01*
X79242857Y49839523D01*
X79338095Y49839523D01*
X79480952Y49791904D01*
X80052380Y49220476D01*
X80052380Y49839523D01*
X79052380Y50172857D02*
X79052380Y50791904D01*
X79433333Y50458571D01*
X79433333Y50601428D01*
X79480952Y50696666D01*
X79528571Y50744285D01*
X79623809Y50791904D01*
X79861904Y50791904D01*
X79957142Y50744285D01*
X80004761Y50696666D01*
X80052380Y50601428D01*
X80052380Y50315714D01*
X80004761Y50220476D01*
X79957142Y50172857D01*
%TO.C,C24*%
X81227142Y30472142D02*
X81274761Y30424523D01*
X81322380Y30281666D01*
X81322380Y30186428D01*
X81274761Y30043571D01*
X81179523Y29948333D01*
X81084285Y29900714D01*
X80893809Y29853095D01*
X80750952Y29853095D01*
X80560476Y29900714D01*
X80465238Y29948333D01*
X80370000Y30043571D01*
X80322380Y30186428D01*
X80322380Y30281666D01*
X80370000Y30424523D01*
X80417619Y30472142D01*
X80417619Y30853095D02*
X80370000Y30900714D01*
X80322380Y30995952D01*
X80322380Y31234047D01*
X80370000Y31329285D01*
X80417619Y31376904D01*
X80512857Y31424523D01*
X80608095Y31424523D01*
X80750952Y31376904D01*
X81322380Y30805476D01*
X81322380Y31424523D01*
X80655714Y32281666D02*
X81322380Y32281666D01*
X80274761Y32043571D02*
X80989047Y31805476D01*
X80989047Y32424523D01*
%TO.C,C25*%
X115829142Y44442142D02*
X115876761Y44394523D01*
X115924380Y44251666D01*
X115924380Y44156428D01*
X115876761Y44013571D01*
X115781523Y43918333D01*
X115686285Y43870714D01*
X115495809Y43823095D01*
X115352952Y43823095D01*
X115162476Y43870714D01*
X115067238Y43918333D01*
X114972000Y44013571D01*
X114924380Y44156428D01*
X114924380Y44251666D01*
X114972000Y44394523D01*
X115019619Y44442142D01*
X115019619Y44823095D02*
X114972000Y44870714D01*
X114924380Y44965952D01*
X114924380Y45204047D01*
X114972000Y45299285D01*
X115019619Y45346904D01*
X115114857Y45394523D01*
X115210095Y45394523D01*
X115352952Y45346904D01*
X115924380Y44775476D01*
X115924380Y45394523D01*
X114924380Y46299285D02*
X114924380Y45823095D01*
X115400571Y45775476D01*
X115352952Y45823095D01*
X115305333Y45918333D01*
X115305333Y46156428D01*
X115352952Y46251666D01*
X115400571Y46299285D01*
X115495809Y46346904D01*
X115733904Y46346904D01*
X115829142Y46299285D01*
X115876761Y46251666D01*
X115924380Y46156428D01*
X115924380Y45918333D01*
X115876761Y45823095D01*
X115829142Y45775476D01*
%TO.C,C26*%
X101719142Y30347857D02*
X101671523Y30300238D01*
X101528666Y30252619D01*
X101433428Y30252619D01*
X101290571Y30300238D01*
X101195333Y30395476D01*
X101147714Y30490714D01*
X101100095Y30681190D01*
X101100095Y30824047D01*
X101147714Y31014523D01*
X101195333Y31109761D01*
X101290571Y31205000D01*
X101433428Y31252619D01*
X101528666Y31252619D01*
X101671523Y31205000D01*
X101719142Y31157380D01*
X102100095Y31157380D02*
X102147714Y31205000D01*
X102242952Y31252619D01*
X102481047Y31252619D01*
X102576285Y31205000D01*
X102623904Y31157380D01*
X102671523Y31062142D01*
X102671523Y30966904D01*
X102623904Y30824047D01*
X102052476Y30252619D01*
X102671523Y30252619D01*
X103528666Y31252619D02*
X103338190Y31252619D01*
X103242952Y31205000D01*
X103195333Y31157380D01*
X103100095Y31014523D01*
X103052476Y30824047D01*
X103052476Y30443095D01*
X103100095Y30347857D01*
X103147714Y30300238D01*
X103242952Y30252619D01*
X103433428Y30252619D01*
X103528666Y30300238D01*
X103576285Y30347857D01*
X103623904Y30443095D01*
X103623904Y30681190D01*
X103576285Y30776428D01*
X103528666Y30824047D01*
X103433428Y30871666D01*
X103242952Y30871666D01*
X103147714Y30824047D01*
X103100095Y30776428D01*
X103052476Y30681190D01*
%TO.C,C27*%
X101719142Y32887857D02*
X101671523Y32840238D01*
X101528666Y32792619D01*
X101433428Y32792619D01*
X101290571Y32840238D01*
X101195333Y32935476D01*
X101147714Y33030714D01*
X101100095Y33221190D01*
X101100095Y33364047D01*
X101147714Y33554523D01*
X101195333Y33649761D01*
X101290571Y33745000D01*
X101433428Y33792619D01*
X101528666Y33792619D01*
X101671523Y33745000D01*
X101719142Y33697380D01*
X102100095Y33697380D02*
X102147714Y33745000D01*
X102242952Y33792619D01*
X102481047Y33792619D01*
X102576285Y33745000D01*
X102623904Y33697380D01*
X102671523Y33602142D01*
X102671523Y33506904D01*
X102623904Y33364047D01*
X102052476Y32792619D01*
X102671523Y32792619D01*
X103004857Y33792619D02*
X103671523Y33792619D01*
X103242952Y32792619D01*
%TO.C,C28*%
X101719142Y35427857D02*
X101671523Y35380238D01*
X101528666Y35332619D01*
X101433428Y35332619D01*
X101290571Y35380238D01*
X101195333Y35475476D01*
X101147714Y35570714D01*
X101100095Y35761190D01*
X101100095Y35904047D01*
X101147714Y36094523D01*
X101195333Y36189761D01*
X101290571Y36285000D01*
X101433428Y36332619D01*
X101528666Y36332619D01*
X101671523Y36285000D01*
X101719142Y36237380D01*
X102100095Y36237380D02*
X102147714Y36285000D01*
X102242952Y36332619D01*
X102481047Y36332619D01*
X102576285Y36285000D01*
X102623904Y36237380D01*
X102671523Y36142142D01*
X102671523Y36046904D01*
X102623904Y35904047D01*
X102052476Y35332619D01*
X102671523Y35332619D01*
X103242952Y35904047D02*
X103147714Y35951666D01*
X103100095Y35999285D01*
X103052476Y36094523D01*
X103052476Y36142142D01*
X103100095Y36237380D01*
X103147714Y36285000D01*
X103242952Y36332619D01*
X103433428Y36332619D01*
X103528666Y36285000D01*
X103576285Y36237380D01*
X103623904Y36142142D01*
X103623904Y36094523D01*
X103576285Y35999285D01*
X103528666Y35951666D01*
X103433428Y35904047D01*
X103242952Y35904047D01*
X103147714Y35856428D01*
X103100095Y35808809D01*
X103052476Y35713571D01*
X103052476Y35523095D01*
X103100095Y35427857D01*
X103147714Y35380238D01*
X103242952Y35332619D01*
X103433428Y35332619D01*
X103528666Y35380238D01*
X103576285Y35427857D01*
X103623904Y35523095D01*
X103623904Y35713571D01*
X103576285Y35808809D01*
X103528666Y35856428D01*
X103433428Y35904047D01*
%TO.C,C29*%
X101719142Y37967857D02*
X101671523Y37920238D01*
X101528666Y37872619D01*
X101433428Y37872619D01*
X101290571Y37920238D01*
X101195333Y38015476D01*
X101147714Y38110714D01*
X101100095Y38301190D01*
X101100095Y38444047D01*
X101147714Y38634523D01*
X101195333Y38729761D01*
X101290571Y38825000D01*
X101433428Y38872619D01*
X101528666Y38872619D01*
X101671523Y38825000D01*
X101719142Y38777380D01*
X102100095Y38777380D02*
X102147714Y38825000D01*
X102242952Y38872619D01*
X102481047Y38872619D01*
X102576285Y38825000D01*
X102623904Y38777380D01*
X102671523Y38682142D01*
X102671523Y38586904D01*
X102623904Y38444047D01*
X102052476Y37872619D01*
X102671523Y37872619D01*
X103147714Y37872619D02*
X103338190Y37872619D01*
X103433428Y37920238D01*
X103481047Y37967857D01*
X103576285Y38110714D01*
X103623904Y38301190D01*
X103623904Y38682142D01*
X103576285Y38777380D01*
X103528666Y38825000D01*
X103433428Y38872619D01*
X103242952Y38872619D01*
X103147714Y38825000D01*
X103100095Y38777380D01*
X103052476Y38682142D01*
X103052476Y38444047D01*
X103100095Y38348809D01*
X103147714Y38301190D01*
X103242952Y38253571D01*
X103433428Y38253571D01*
X103528666Y38301190D01*
X103576285Y38348809D01*
X103623904Y38444047D01*
%TO.C,C30*%
X126624142Y35552142D02*
X126671761Y35504523D01*
X126719380Y35361666D01*
X126719380Y35266428D01*
X126671761Y35123571D01*
X126576523Y35028333D01*
X126481285Y34980714D01*
X126290809Y34933095D01*
X126147952Y34933095D01*
X125957476Y34980714D01*
X125862238Y35028333D01*
X125767000Y35123571D01*
X125719380Y35266428D01*
X125719380Y35361666D01*
X125767000Y35504523D01*
X125814619Y35552142D01*
X125719380Y35885476D02*
X125719380Y36504523D01*
X126100333Y36171190D01*
X126100333Y36314047D01*
X126147952Y36409285D01*
X126195571Y36456904D01*
X126290809Y36504523D01*
X126528904Y36504523D01*
X126624142Y36456904D01*
X126671761Y36409285D01*
X126719380Y36314047D01*
X126719380Y36028333D01*
X126671761Y35933095D01*
X126624142Y35885476D01*
X125719380Y37123571D02*
X125719380Y37218809D01*
X125767000Y37314047D01*
X125814619Y37361666D01*
X125909857Y37409285D01*
X126100333Y37456904D01*
X126338428Y37456904D01*
X126528904Y37409285D01*
X126624142Y37361666D01*
X126671761Y37314047D01*
X126719380Y37218809D01*
X126719380Y37123571D01*
X126671761Y37028333D01*
X126624142Y36980714D01*
X126528904Y36933095D01*
X126338428Y36885476D01*
X126100333Y36885476D01*
X125909857Y36933095D01*
X125814619Y36980714D01*
X125767000Y37028333D01*
X125719380Y37123571D01*
%TO.C,C31*%
X111384142Y37457142D02*
X111431761Y37409523D01*
X111479380Y37266666D01*
X111479380Y37171428D01*
X111431761Y37028571D01*
X111336523Y36933333D01*
X111241285Y36885714D01*
X111050809Y36838095D01*
X110907952Y36838095D01*
X110717476Y36885714D01*
X110622238Y36933333D01*
X110527000Y37028571D01*
X110479380Y37171428D01*
X110479380Y37266666D01*
X110527000Y37409523D01*
X110574619Y37457142D01*
X110479380Y37790476D02*
X110479380Y38409523D01*
X110860333Y38076190D01*
X110860333Y38219047D01*
X110907952Y38314285D01*
X110955571Y38361904D01*
X111050809Y38409523D01*
X111288904Y38409523D01*
X111384142Y38361904D01*
X111431761Y38314285D01*
X111479380Y38219047D01*
X111479380Y37933333D01*
X111431761Y37838095D01*
X111384142Y37790476D01*
X111479380Y39361904D02*
X111479380Y38790476D01*
X111479380Y39076190D02*
X110479380Y39076190D01*
X110622238Y38980952D01*
X110717476Y38885714D01*
X110765095Y38790476D01*
%TO.C,C32*%
X122814142Y47617142D02*
X122861761Y47569523D01*
X122909380Y47426666D01*
X122909380Y47331428D01*
X122861761Y47188571D01*
X122766523Y47093333D01*
X122671285Y47045714D01*
X122480809Y46998095D01*
X122337952Y46998095D01*
X122147476Y47045714D01*
X122052238Y47093333D01*
X121957000Y47188571D01*
X121909380Y47331428D01*
X121909380Y47426666D01*
X121957000Y47569523D01*
X122004619Y47617142D01*
X121909380Y47950476D02*
X121909380Y48569523D01*
X122290333Y48236190D01*
X122290333Y48379047D01*
X122337952Y48474285D01*
X122385571Y48521904D01*
X122480809Y48569523D01*
X122718904Y48569523D01*
X122814142Y48521904D01*
X122861761Y48474285D01*
X122909380Y48379047D01*
X122909380Y48093333D01*
X122861761Y47998095D01*
X122814142Y47950476D01*
X122004619Y48950476D02*
X121957000Y48998095D01*
X121909380Y49093333D01*
X121909380Y49331428D01*
X121957000Y49426666D01*
X122004619Y49474285D01*
X122099857Y49521904D01*
X122195095Y49521904D01*
X122337952Y49474285D01*
X122909380Y48902857D01*
X122909380Y49521904D01*
%TO.C,C33*%
X115644142Y43172142D02*
X115691761Y43124523D01*
X115739380Y42981666D01*
X115739380Y42886428D01*
X115691761Y42743571D01*
X115596523Y42648333D01*
X115501285Y42600714D01*
X115310809Y42553095D01*
X115167952Y42553095D01*
X114977476Y42600714D01*
X114882238Y42648333D01*
X114787000Y42743571D01*
X114739380Y42886428D01*
X114739380Y42981666D01*
X114787000Y43124523D01*
X114834619Y43172142D01*
X114739380Y43505476D02*
X114739380Y44124523D01*
X115120333Y43791190D01*
X115120333Y43934047D01*
X115167952Y44029285D01*
X115215571Y44076904D01*
X115310809Y44124523D01*
X115548904Y44124523D01*
X115644142Y44076904D01*
X115691761Y44029285D01*
X115739380Y43934047D01*
X115739380Y43648333D01*
X115691761Y43553095D01*
X115644142Y43505476D01*
X114739380Y44457857D02*
X114739380Y45076904D01*
X115120333Y44743571D01*
X115120333Y44886428D01*
X115167952Y44981666D01*
X115215571Y45029285D01*
X115310809Y45076904D01*
X115548904Y45076904D01*
X115644142Y45029285D01*
X115691761Y44981666D01*
X115739380Y44886428D01*
X115739380Y44600714D01*
X115691761Y44505476D01*
X115644142Y44457857D01*
%TO.C,C34*%
X143502142Y64317857D02*
X143454523Y64270238D01*
X143311666Y64222619D01*
X143216428Y64222619D01*
X143073571Y64270238D01*
X142978333Y64365476D01*
X142930714Y64460714D01*
X142883095Y64651190D01*
X142883095Y64794047D01*
X142930714Y64984523D01*
X142978333Y65079761D01*
X143073571Y65175000D01*
X143216428Y65222619D01*
X143311666Y65222619D01*
X143454523Y65175000D01*
X143502142Y65127380D01*
X143835476Y65222619D02*
X144454523Y65222619D01*
X144121190Y64841666D01*
X144264047Y64841666D01*
X144359285Y64794047D01*
X144406904Y64746428D01*
X144454523Y64651190D01*
X144454523Y64413095D01*
X144406904Y64317857D01*
X144359285Y64270238D01*
X144264047Y64222619D01*
X143978333Y64222619D01*
X143883095Y64270238D01*
X143835476Y64317857D01*
X145311666Y64889285D02*
X145311666Y64222619D01*
X145073571Y65270238D02*
X144835476Y64555952D01*
X145454523Y64555952D01*
%TO.C,C35*%
X135882142Y54027857D02*
X135834523Y53980238D01*
X135691666Y53932619D01*
X135596428Y53932619D01*
X135453571Y53980238D01*
X135358333Y54075476D01*
X135310714Y54170714D01*
X135263095Y54361190D01*
X135263095Y54504047D01*
X135310714Y54694523D01*
X135358333Y54789761D01*
X135453571Y54885000D01*
X135596428Y54932619D01*
X135691666Y54932619D01*
X135834523Y54885000D01*
X135882142Y54837380D01*
X136215476Y54932619D02*
X136834523Y54932619D01*
X136501190Y54551666D01*
X136644047Y54551666D01*
X136739285Y54504047D01*
X136786904Y54456428D01*
X136834523Y54361190D01*
X136834523Y54123095D01*
X136786904Y54027857D01*
X136739285Y53980238D01*
X136644047Y53932619D01*
X136358333Y53932619D01*
X136263095Y53980238D01*
X136215476Y54027857D01*
X137739285Y54932619D02*
X137263095Y54932619D01*
X137215476Y54456428D01*
X137263095Y54504047D01*
X137358333Y54551666D01*
X137596428Y54551666D01*
X137691666Y54504047D01*
X137739285Y54456428D01*
X137786904Y54361190D01*
X137786904Y54123095D01*
X137739285Y54027857D01*
X137691666Y53980238D01*
X137596428Y53932619D01*
X137358333Y53932619D01*
X137263095Y53980238D01*
X137215476Y54027857D01*
%TO.C,C36*%
X133342142Y45772857D02*
X133294523Y45725238D01*
X133151666Y45677619D01*
X133056428Y45677619D01*
X132913571Y45725238D01*
X132818333Y45820476D01*
X132770714Y45915714D01*
X132723095Y46106190D01*
X132723095Y46249047D01*
X132770714Y46439523D01*
X132818333Y46534761D01*
X132913571Y46630000D01*
X133056428Y46677619D01*
X133151666Y46677619D01*
X133294523Y46630000D01*
X133342142Y46582380D01*
X133675476Y46677619D02*
X134294523Y46677619D01*
X133961190Y46296666D01*
X134104047Y46296666D01*
X134199285Y46249047D01*
X134246904Y46201428D01*
X134294523Y46106190D01*
X134294523Y45868095D01*
X134246904Y45772857D01*
X134199285Y45725238D01*
X134104047Y45677619D01*
X133818333Y45677619D01*
X133723095Y45725238D01*
X133675476Y45772857D01*
X135151666Y46677619D02*
X134961190Y46677619D01*
X134865952Y46630000D01*
X134818333Y46582380D01*
X134723095Y46439523D01*
X134675476Y46249047D01*
X134675476Y45868095D01*
X134723095Y45772857D01*
X134770714Y45725238D01*
X134865952Y45677619D01*
X135056428Y45677619D01*
X135151666Y45725238D01*
X135199285Y45772857D01*
X135246904Y45868095D01*
X135246904Y46106190D01*
X135199285Y46201428D01*
X135151666Y46249047D01*
X135056428Y46296666D01*
X134865952Y46296666D01*
X134770714Y46249047D01*
X134723095Y46201428D01*
X134675476Y46106190D01*
%TO.C,C37*%
X133342142Y38475857D02*
X133294523Y38428238D01*
X133151666Y38380619D01*
X133056428Y38380619D01*
X132913571Y38428238D01*
X132818333Y38523476D01*
X132770714Y38618714D01*
X132723095Y38809190D01*
X132723095Y38952047D01*
X132770714Y39142523D01*
X132818333Y39237761D01*
X132913571Y39333000D01*
X133056428Y39380619D01*
X133151666Y39380619D01*
X133294523Y39333000D01*
X133342142Y39285380D01*
X133675476Y39380619D02*
X134294523Y39380619D01*
X133961190Y38999666D01*
X134104047Y38999666D01*
X134199285Y38952047D01*
X134246904Y38904428D01*
X134294523Y38809190D01*
X134294523Y38571095D01*
X134246904Y38475857D01*
X134199285Y38428238D01*
X134104047Y38380619D01*
X133818333Y38380619D01*
X133723095Y38428238D01*
X133675476Y38475857D01*
X134627857Y39380619D02*
X135294523Y39380619D01*
X134865952Y38380619D01*
%TO.C,C38*%
X133977142Y60192857D02*
X133929523Y60145238D01*
X133786666Y60097619D01*
X133691428Y60097619D01*
X133548571Y60145238D01*
X133453333Y60240476D01*
X133405714Y60335714D01*
X133358095Y60526190D01*
X133358095Y60669047D01*
X133405714Y60859523D01*
X133453333Y60954761D01*
X133548571Y61050000D01*
X133691428Y61097619D01*
X133786666Y61097619D01*
X133929523Y61050000D01*
X133977142Y61002380D01*
X134310476Y61097619D02*
X134929523Y61097619D01*
X134596190Y60716666D01*
X134739047Y60716666D01*
X134834285Y60669047D01*
X134881904Y60621428D01*
X134929523Y60526190D01*
X134929523Y60288095D01*
X134881904Y60192857D01*
X134834285Y60145238D01*
X134739047Y60097619D01*
X134453333Y60097619D01*
X134358095Y60145238D01*
X134310476Y60192857D01*
X135500952Y60669047D02*
X135405714Y60716666D01*
X135358095Y60764285D01*
X135310476Y60859523D01*
X135310476Y60907142D01*
X135358095Y61002380D01*
X135405714Y61050000D01*
X135500952Y61097619D01*
X135691428Y61097619D01*
X135786666Y61050000D01*
X135834285Y61002380D01*
X135881904Y60907142D01*
X135881904Y60859523D01*
X135834285Y60764285D01*
X135786666Y60716666D01*
X135691428Y60669047D01*
X135500952Y60669047D01*
X135405714Y60621428D01*
X135358095Y60573809D01*
X135310476Y60478571D01*
X135310476Y60288095D01*
X135358095Y60192857D01*
X135405714Y60145238D01*
X135500952Y60097619D01*
X135691428Y60097619D01*
X135786666Y60145238D01*
X135834285Y60192857D01*
X135881904Y60288095D01*
X135881904Y60478571D01*
X135834285Y60573809D01*
X135786666Y60621428D01*
X135691428Y60669047D01*
%TO.C,C39*%
X133977142Y58287857D02*
X133929523Y58240238D01*
X133786666Y58192619D01*
X133691428Y58192619D01*
X133548571Y58240238D01*
X133453333Y58335476D01*
X133405714Y58430714D01*
X133358095Y58621190D01*
X133358095Y58764047D01*
X133405714Y58954523D01*
X133453333Y59049761D01*
X133548571Y59145000D01*
X133691428Y59192619D01*
X133786666Y59192619D01*
X133929523Y59145000D01*
X133977142Y59097380D01*
X134310476Y59192619D02*
X134929523Y59192619D01*
X134596190Y58811666D01*
X134739047Y58811666D01*
X134834285Y58764047D01*
X134881904Y58716428D01*
X134929523Y58621190D01*
X134929523Y58383095D01*
X134881904Y58287857D01*
X134834285Y58240238D01*
X134739047Y58192619D01*
X134453333Y58192619D01*
X134358095Y58240238D01*
X134310476Y58287857D01*
X135405714Y58192619D02*
X135596190Y58192619D01*
X135691428Y58240238D01*
X135739047Y58287857D01*
X135834285Y58430714D01*
X135881904Y58621190D01*
X135881904Y59002142D01*
X135834285Y59097380D01*
X135786666Y59145000D01*
X135691428Y59192619D01*
X135500952Y59192619D01*
X135405714Y59145000D01*
X135358095Y59097380D01*
X135310476Y59002142D01*
X135310476Y58764047D01*
X135358095Y58668809D01*
X135405714Y58621190D01*
X135500952Y58573571D01*
X135691428Y58573571D01*
X135786666Y58621190D01*
X135834285Y58668809D01*
X135881904Y58764047D01*
%TO.C,C40*%
X127386142Y67302142D02*
X127433761Y67254523D01*
X127481380Y67111666D01*
X127481380Y67016428D01*
X127433761Y66873571D01*
X127338523Y66778333D01*
X127243285Y66730714D01*
X127052809Y66683095D01*
X126909952Y66683095D01*
X126719476Y66730714D01*
X126624238Y66778333D01*
X126529000Y66873571D01*
X126481380Y67016428D01*
X126481380Y67111666D01*
X126529000Y67254523D01*
X126576619Y67302142D01*
X126814714Y68159285D02*
X127481380Y68159285D01*
X126433761Y67921190D02*
X127148047Y67683095D01*
X127148047Y68302142D01*
X126481380Y68873571D02*
X126481380Y68968809D01*
X126529000Y69064047D01*
X126576619Y69111666D01*
X126671857Y69159285D01*
X126862333Y69206904D01*
X127100428Y69206904D01*
X127290904Y69159285D01*
X127386142Y69111666D01*
X127433761Y69064047D01*
X127481380Y68968809D01*
X127481380Y68873571D01*
X127433761Y68778333D01*
X127386142Y68730714D01*
X127290904Y68683095D01*
X127100428Y68635476D01*
X126862333Y68635476D01*
X126671857Y68683095D01*
X126576619Y68730714D01*
X126529000Y68778333D01*
X126481380Y68873571D01*
%TO.C,C41*%
X129291142Y67302142D02*
X129338761Y67254523D01*
X129386380Y67111666D01*
X129386380Y67016428D01*
X129338761Y66873571D01*
X129243523Y66778333D01*
X129148285Y66730714D01*
X128957809Y66683095D01*
X128814952Y66683095D01*
X128624476Y66730714D01*
X128529238Y66778333D01*
X128434000Y66873571D01*
X128386380Y67016428D01*
X128386380Y67111666D01*
X128434000Y67254523D01*
X128481619Y67302142D01*
X128719714Y68159285D02*
X129386380Y68159285D01*
X128338761Y67921190D02*
X129053047Y67683095D01*
X129053047Y68302142D01*
X129386380Y69206904D02*
X129386380Y68635476D01*
X129386380Y68921190D02*
X128386380Y68921190D01*
X128529238Y68825952D01*
X128624476Y68730714D01*
X128672095Y68635476D01*
%TO.C,C42*%
X133101142Y67302142D02*
X133148761Y67254523D01*
X133196380Y67111666D01*
X133196380Y67016428D01*
X133148761Y66873571D01*
X133053523Y66778333D01*
X132958285Y66730714D01*
X132767809Y66683095D01*
X132624952Y66683095D01*
X132434476Y66730714D01*
X132339238Y66778333D01*
X132244000Y66873571D01*
X132196380Y67016428D01*
X132196380Y67111666D01*
X132244000Y67254523D01*
X132291619Y67302142D01*
X132529714Y68159285D02*
X133196380Y68159285D01*
X132148761Y67921190D02*
X132863047Y67683095D01*
X132863047Y68302142D01*
X132291619Y68635476D02*
X132244000Y68683095D01*
X132196380Y68778333D01*
X132196380Y69016428D01*
X132244000Y69111666D01*
X132291619Y69159285D01*
X132386857Y69206904D01*
X132482095Y69206904D01*
X132624952Y69159285D01*
X133196380Y68587857D01*
X133196380Y69206904D01*
%TO.C,C43*%
X107434142Y64637857D02*
X107386523Y64590238D01*
X107243666Y64542619D01*
X107148428Y64542619D01*
X107005571Y64590238D01*
X106910333Y64685476D01*
X106862714Y64780714D01*
X106815095Y64971190D01*
X106815095Y65114047D01*
X106862714Y65304523D01*
X106910333Y65399761D01*
X107005571Y65495000D01*
X107148428Y65542619D01*
X107243666Y65542619D01*
X107386523Y65495000D01*
X107434142Y65447380D01*
X108291285Y65209285D02*
X108291285Y64542619D01*
X108053190Y65590238D02*
X107815095Y64875952D01*
X108434142Y64875952D01*
X108719857Y65542619D02*
X109338904Y65542619D01*
X109005571Y65161666D01*
X109148428Y65161666D01*
X109243666Y65114047D01*
X109291285Y65066428D01*
X109338904Y64971190D01*
X109338904Y64733095D01*
X109291285Y64637857D01*
X109243666Y64590238D01*
X109148428Y64542619D01*
X108862714Y64542619D01*
X108767476Y64590238D01*
X108719857Y64637857D01*
%TO.C,C44*%
X113289142Y62222142D02*
X113336761Y62174523D01*
X113384380Y62031666D01*
X113384380Y61936428D01*
X113336761Y61793571D01*
X113241523Y61698333D01*
X113146285Y61650714D01*
X112955809Y61603095D01*
X112812952Y61603095D01*
X112622476Y61650714D01*
X112527238Y61698333D01*
X112432000Y61793571D01*
X112384380Y61936428D01*
X112384380Y62031666D01*
X112432000Y62174523D01*
X112479619Y62222142D01*
X112717714Y63079285D02*
X113384380Y63079285D01*
X112336761Y62841190D02*
X113051047Y62603095D01*
X113051047Y63222142D01*
X112717714Y64031666D02*
X113384380Y64031666D01*
X112336761Y63793571D02*
X113051047Y63555476D01*
X113051047Y64174523D01*
%TO.C,C45*%
X112469142Y56507142D02*
X112516761Y56459523D01*
X112564380Y56316666D01*
X112564380Y56221428D01*
X112516761Y56078571D01*
X112421523Y55983333D01*
X112326285Y55935714D01*
X112135809Y55888095D01*
X111992952Y55888095D01*
X111802476Y55935714D01*
X111707238Y55983333D01*
X111612000Y56078571D01*
X111564380Y56221428D01*
X111564380Y56316666D01*
X111612000Y56459523D01*
X111659619Y56507142D01*
X111897714Y57364285D02*
X112564380Y57364285D01*
X111516761Y57126190D02*
X112231047Y56888095D01*
X112231047Y57507142D01*
X111564380Y58364285D02*
X111564380Y57888095D01*
X112040571Y57840476D01*
X111992952Y57888095D01*
X111945333Y57983333D01*
X111945333Y58221428D01*
X111992952Y58316666D01*
X112040571Y58364285D01*
X112135809Y58411904D01*
X112373904Y58411904D01*
X112469142Y58364285D01*
X112516761Y58316666D01*
X112564380Y58221428D01*
X112564380Y57983333D01*
X112516761Y57888095D01*
X112469142Y57840476D01*
%TO.C,C46*%
X88847142Y100957142D02*
X88894761Y100909523D01*
X88942380Y100766666D01*
X88942380Y100671428D01*
X88894761Y100528571D01*
X88799523Y100433333D01*
X88704285Y100385714D01*
X88513809Y100338095D01*
X88370952Y100338095D01*
X88180476Y100385714D01*
X88085238Y100433333D01*
X87990000Y100528571D01*
X87942380Y100671428D01*
X87942380Y100766666D01*
X87990000Y100909523D01*
X88037619Y100957142D01*
X88275714Y101814285D02*
X88942380Y101814285D01*
X87894761Y101576190D02*
X88609047Y101338095D01*
X88609047Y101957142D01*
X87942380Y102766666D02*
X87942380Y102576190D01*
X87990000Y102480952D01*
X88037619Y102433333D01*
X88180476Y102338095D01*
X88370952Y102290476D01*
X88751904Y102290476D01*
X88847142Y102338095D01*
X88894761Y102385714D01*
X88942380Y102480952D01*
X88942380Y102671428D01*
X88894761Y102766666D01*
X88847142Y102814285D01*
X88751904Y102861904D01*
X88513809Y102861904D01*
X88418571Y102814285D01*
X88370952Y102766666D01*
X88323333Y102671428D01*
X88323333Y102480952D01*
X88370952Y102385714D01*
X88418571Y102338095D01*
X88513809Y102290476D01*
%TO.C,C47*%
X95197142Y100957142D02*
X95244761Y100909523D01*
X95292380Y100766666D01*
X95292380Y100671428D01*
X95244761Y100528571D01*
X95149523Y100433333D01*
X95054285Y100385714D01*
X94863809Y100338095D01*
X94720952Y100338095D01*
X94530476Y100385714D01*
X94435238Y100433333D01*
X94340000Y100528571D01*
X94292380Y100671428D01*
X94292380Y100766666D01*
X94340000Y100909523D01*
X94387619Y100957142D01*
X94625714Y101814285D02*
X95292380Y101814285D01*
X94244761Y101576190D02*
X94959047Y101338095D01*
X94959047Y101957142D01*
X94292380Y102242857D02*
X94292380Y102909523D01*
X95292380Y102480952D01*
%TO.C,C48*%
X143502142Y55427857D02*
X143454523Y55380238D01*
X143311666Y55332619D01*
X143216428Y55332619D01*
X143073571Y55380238D01*
X142978333Y55475476D01*
X142930714Y55570714D01*
X142883095Y55761190D01*
X142883095Y55904047D01*
X142930714Y56094523D01*
X142978333Y56189761D01*
X143073571Y56285000D01*
X143216428Y56332619D01*
X143311666Y56332619D01*
X143454523Y56285000D01*
X143502142Y56237380D01*
X144359285Y55999285D02*
X144359285Y55332619D01*
X144121190Y56380238D02*
X143883095Y55665952D01*
X144502142Y55665952D01*
X145025952Y55904047D02*
X144930714Y55951666D01*
X144883095Y55999285D01*
X144835476Y56094523D01*
X144835476Y56142142D01*
X144883095Y56237380D01*
X144930714Y56285000D01*
X145025952Y56332619D01*
X145216428Y56332619D01*
X145311666Y56285000D01*
X145359285Y56237380D01*
X145406904Y56142142D01*
X145406904Y56094523D01*
X145359285Y55999285D01*
X145311666Y55951666D01*
X145216428Y55904047D01*
X145025952Y55904047D01*
X144930714Y55856428D01*
X144883095Y55808809D01*
X144835476Y55713571D01*
X144835476Y55523095D01*
X144883095Y55427857D01*
X144930714Y55380238D01*
X145025952Y55332619D01*
X145216428Y55332619D01*
X145311666Y55380238D01*
X145359285Y55427857D01*
X145406904Y55523095D01*
X145406904Y55713571D01*
X145359285Y55808809D01*
X145311666Y55856428D01*
X145216428Y55904047D01*
%TO.C,D1*%
X122118380Y98194904D02*
X121118380Y98194904D01*
X121118380Y98433000D01*
X121166000Y98575857D01*
X121261238Y98671095D01*
X121356476Y98718714D01*
X121546952Y98766333D01*
X121689809Y98766333D01*
X121880285Y98718714D01*
X121975523Y98671095D01*
X122070761Y98575857D01*
X122118380Y98433000D01*
X122118380Y98194904D01*
X122118380Y99718714D02*
X122118380Y99147285D01*
X122118380Y99433000D02*
X121118380Y99433000D01*
X121261238Y99337761D01*
X121356476Y99242523D01*
X121404095Y99147285D01*
%TO.C,D2*%
X140231904Y89749619D02*
X140231904Y90749619D01*
X140470000Y90749619D01*
X140612857Y90702000D01*
X140708095Y90606761D01*
X140755714Y90511523D01*
X140803333Y90321047D01*
X140803333Y90178190D01*
X140755714Y89987714D01*
X140708095Y89892476D01*
X140612857Y89797238D01*
X140470000Y89749619D01*
X140231904Y89749619D01*
X141184285Y90654380D02*
X141231904Y90702000D01*
X141327142Y90749619D01*
X141565238Y90749619D01*
X141660476Y90702000D01*
X141708095Y90654380D01*
X141755714Y90559142D01*
X141755714Y90463904D01*
X141708095Y90321047D01*
X141136666Y89749619D01*
X141755714Y89749619D01*
%TO.C,D3*%
X89942380Y97001904D02*
X88942380Y97001904D01*
X88942380Y97240000D01*
X88990000Y97382857D01*
X89085238Y97478095D01*
X89180476Y97525714D01*
X89370952Y97573333D01*
X89513809Y97573333D01*
X89704285Y97525714D01*
X89799523Y97478095D01*
X89894761Y97382857D01*
X89942380Y97240000D01*
X89942380Y97001904D01*
X88942380Y97906666D02*
X88942380Y98525714D01*
X89323333Y98192380D01*
X89323333Y98335238D01*
X89370952Y98430476D01*
X89418571Y98478095D01*
X89513809Y98525714D01*
X89751904Y98525714D01*
X89847142Y98478095D01*
X89894761Y98430476D01*
X89942380Y98335238D01*
X89942380Y98049523D01*
X89894761Y97954285D01*
X89847142Y97906666D01*
%TO.C,D4*%
X96292380Y97001904D02*
X95292380Y97001904D01*
X95292380Y97240000D01*
X95340000Y97382857D01*
X95435238Y97478095D01*
X95530476Y97525714D01*
X95720952Y97573333D01*
X95863809Y97573333D01*
X96054285Y97525714D01*
X96149523Y97478095D01*
X96244761Y97382857D01*
X96292380Y97240000D01*
X96292380Y97001904D01*
X95625714Y98430476D02*
X96292380Y98430476D01*
X95244761Y98192380D02*
X95959047Y97954285D01*
X95959047Y98573333D01*
%TO.C,F1*%
X144827666Y89258428D02*
X144494333Y89258428D01*
X144494333Y88734619D02*
X144494333Y89734619D01*
X144970523Y89734619D01*
X145875285Y88734619D02*
X145303857Y88734619D01*
X145589571Y88734619D02*
X145589571Y89734619D01*
X145494333Y89591761D01*
X145399095Y89496523D01*
X145303857Y89448904D01*
%TO.C,J1*%
X150796666Y93892619D02*
X150796666Y93178333D01*
X150749047Y93035476D01*
X150653809Y92940238D01*
X150510952Y92892619D01*
X150415714Y92892619D01*
X151796666Y92892619D02*
X151225238Y92892619D01*
X151510952Y92892619D02*
X151510952Y93892619D01*
X151415714Y93749761D01*
X151320476Y93654523D01*
X151225238Y93606904D01*
%TO.C,J2*%
X126666666Y91777619D02*
X126666666Y91063333D01*
X126619047Y90920476D01*
X126523809Y90825238D01*
X126380952Y90777619D01*
X126285714Y90777619D01*
X127095238Y91682380D02*
X127142857Y91730000D01*
X127238095Y91777619D01*
X127476190Y91777619D01*
X127571428Y91730000D01*
X127619047Y91682380D01*
X127666666Y91587142D01*
X127666666Y91491904D01*
X127619047Y91349047D01*
X127047619Y90777619D01*
X127666666Y90777619D01*
%TO.C,J3*%
X108247380Y70786666D02*
X108961666Y70786666D01*
X109104523Y70739047D01*
X109199761Y70643809D01*
X109247380Y70500952D01*
X109247380Y70405714D01*
X108247380Y71167619D02*
X108247380Y71786666D01*
X108628333Y71453333D01*
X108628333Y71596190D01*
X108675952Y71691428D01*
X108723571Y71739047D01*
X108818809Y71786666D01*
X109056904Y71786666D01*
X109152142Y71739047D01*
X109199761Y71691428D01*
X109247380Y71596190D01*
X109247380Y71310476D01*
X109199761Y71215238D01*
X109152142Y71167619D01*
%TO.C,J4*%
X84927380Y101831666D02*
X85641666Y101831666D01*
X85784523Y101784047D01*
X85879761Y101688809D01*
X85927380Y101545952D01*
X85927380Y101450714D01*
X85260714Y102736428D02*
X85927380Y102736428D01*
X84879761Y102498333D02*
X85594047Y102260238D01*
X85594047Y102879285D01*
%TO.C,L1*%
X140803333Y83622619D02*
X140327142Y83622619D01*
X140327142Y84622619D01*
X141660476Y83622619D02*
X141089047Y83622619D01*
X141374761Y83622619D02*
X141374761Y84622619D01*
X141279523Y84479761D01*
X141184285Y84384523D01*
X141089047Y84336904D01*
%TO.C,L2*%
X145883333Y72827619D02*
X145407142Y72827619D01*
X145407142Y73827619D01*
X146169047Y73732380D02*
X146216666Y73780000D01*
X146311904Y73827619D01*
X146550000Y73827619D01*
X146645238Y73780000D01*
X146692857Y73732380D01*
X146740476Y73637142D01*
X146740476Y73541904D01*
X146692857Y73399047D01*
X146121428Y72827619D01*
X146740476Y72827619D01*
%TO.C,L3*%
X120722380Y81748333D02*
X120722380Y81272142D01*
X119722380Y81272142D01*
X119722380Y81986428D02*
X119722380Y82605476D01*
X120103333Y82272142D01*
X120103333Y82415000D01*
X120150952Y82510238D01*
X120198571Y82557857D01*
X120293809Y82605476D01*
X120531904Y82605476D01*
X120627142Y82557857D01*
X120674761Y82510238D01*
X120722380Y82415000D01*
X120722380Y82129285D01*
X120674761Y82034047D01*
X120627142Y81986428D01*
%TO.C,LS1*%
X153682142Y62672619D02*
X153205952Y62672619D01*
X153205952Y63672619D01*
X153967857Y62720238D02*
X154110714Y62672619D01*
X154348809Y62672619D01*
X154444047Y62720238D01*
X154491666Y62767857D01*
X154539285Y62863095D01*
X154539285Y62958333D01*
X154491666Y63053571D01*
X154444047Y63101190D01*
X154348809Y63148809D01*
X154158333Y63196428D01*
X154063095Y63244047D01*
X154015476Y63291666D01*
X153967857Y63386904D01*
X153967857Y63482142D01*
X154015476Y63577380D01*
X154063095Y63625000D01*
X154158333Y63672619D01*
X154396428Y63672619D01*
X154539285Y63625000D01*
X155491666Y62672619D02*
X154920238Y62672619D01*
X155205952Y62672619D02*
X155205952Y63672619D01*
X155110714Y63529761D01*
X155015476Y63434523D01*
X154920238Y63386904D01*
%TO.C,MK1*%
X140295476Y39052619D02*
X140295476Y40052619D01*
X140628809Y39338333D01*
X140962142Y40052619D01*
X140962142Y39052619D01*
X141438333Y39052619D02*
X141438333Y40052619D01*
X142009761Y39052619D02*
X141581190Y39624047D01*
X142009761Y40052619D02*
X141438333Y39481190D01*
X142962142Y39052619D02*
X142390714Y39052619D01*
X142676428Y39052619D02*
X142676428Y40052619D01*
X142581190Y39909761D01*
X142485952Y39814523D01*
X142390714Y39766904D01*
%TO.C,Q1*%
X95884619Y43719761D02*
X95837000Y43624523D01*
X95741761Y43529285D01*
X95598904Y43386428D01*
X95551285Y43291190D01*
X95551285Y43195952D01*
X95789380Y43243571D02*
X95741761Y43148333D01*
X95646523Y43053095D01*
X95456047Y43005476D01*
X95122714Y43005476D01*
X94932238Y43053095D01*
X94837000Y43148333D01*
X94789380Y43243571D01*
X94789380Y43434047D01*
X94837000Y43529285D01*
X94932238Y43624523D01*
X95122714Y43672142D01*
X95456047Y43672142D01*
X95646523Y43624523D01*
X95741761Y43529285D01*
X95789380Y43434047D01*
X95789380Y43243571D01*
X95789380Y44624523D02*
X95789380Y44053095D01*
X95789380Y44338809D02*
X94789380Y44338809D01*
X94932238Y44243571D01*
X95027476Y44148333D01*
X95075095Y44053095D01*
%TO.C,Q2*%
X78612619Y40544761D02*
X78565000Y40449523D01*
X78469761Y40354285D01*
X78326904Y40211428D01*
X78279285Y40116190D01*
X78279285Y40020952D01*
X78517380Y40068571D02*
X78469761Y39973333D01*
X78374523Y39878095D01*
X78184047Y39830476D01*
X77850714Y39830476D01*
X77660238Y39878095D01*
X77565000Y39973333D01*
X77517380Y40068571D01*
X77517380Y40259047D01*
X77565000Y40354285D01*
X77660238Y40449523D01*
X77850714Y40497142D01*
X78184047Y40497142D01*
X78374523Y40449523D01*
X78469761Y40354285D01*
X78517380Y40259047D01*
X78517380Y40068571D01*
X77612619Y40878095D02*
X77565000Y40925714D01*
X77517380Y41020952D01*
X77517380Y41259047D01*
X77565000Y41354285D01*
X77612619Y41401904D01*
X77707857Y41449523D01*
X77803095Y41449523D01*
X77945952Y41401904D01*
X78517380Y40830476D01*
X78517380Y41449523D01*
%TO.C,Q3*%
X103536761Y55372380D02*
X103441523Y55420000D01*
X103346285Y55515238D01*
X103203428Y55658095D01*
X103108190Y55705714D01*
X103012952Y55705714D01*
X103060571Y55467619D02*
X102965333Y55515238D01*
X102870095Y55610476D01*
X102822476Y55800952D01*
X102822476Y56134285D01*
X102870095Y56324761D01*
X102965333Y56420000D01*
X103060571Y56467619D01*
X103251047Y56467619D01*
X103346285Y56420000D01*
X103441523Y56324761D01*
X103489142Y56134285D01*
X103489142Y55800952D01*
X103441523Y55610476D01*
X103346285Y55515238D01*
X103251047Y55467619D01*
X103060571Y55467619D01*
X103822476Y56467619D02*
X104441523Y56467619D01*
X104108190Y56086666D01*
X104251047Y56086666D01*
X104346285Y56039047D01*
X104393904Y55991428D01*
X104441523Y55896190D01*
X104441523Y55658095D01*
X104393904Y55562857D01*
X104346285Y55515238D01*
X104251047Y55467619D01*
X103965333Y55467619D01*
X103870095Y55515238D01*
X103822476Y55562857D01*
%TO.C,Q4*%
X103536761Y50927380D02*
X103441523Y50975000D01*
X103346285Y51070238D01*
X103203428Y51213095D01*
X103108190Y51260714D01*
X103012952Y51260714D01*
X103060571Y51022619D02*
X102965333Y51070238D01*
X102870095Y51165476D01*
X102822476Y51355952D01*
X102822476Y51689285D01*
X102870095Y51879761D01*
X102965333Y51975000D01*
X103060571Y52022619D01*
X103251047Y52022619D01*
X103346285Y51975000D01*
X103441523Y51879761D01*
X103489142Y51689285D01*
X103489142Y51355952D01*
X103441523Y51165476D01*
X103346285Y51070238D01*
X103251047Y51022619D01*
X103060571Y51022619D01*
X104346285Y51689285D02*
X104346285Y51022619D01*
X104108190Y52070238D02*
X103870095Y51355952D01*
X104489142Y51355952D01*
%TO.C,R1*%
X115403333Y67872619D02*
X115070000Y68348809D01*
X114831904Y67872619D02*
X114831904Y68872619D01*
X115212857Y68872619D01*
X115308095Y68825000D01*
X115355714Y68777380D01*
X115403333Y68682142D01*
X115403333Y68539285D01*
X115355714Y68444047D01*
X115308095Y68396428D01*
X115212857Y68348809D01*
X114831904Y68348809D01*
X116355714Y67872619D02*
X115784285Y67872619D01*
X116070000Y67872619D02*
X116070000Y68872619D01*
X115974761Y68729761D01*
X115879523Y68634523D01*
X115784285Y68586904D01*
%TO.C,R2*%
X91639380Y47458333D02*
X91163190Y47125000D01*
X91639380Y46886904D02*
X90639380Y46886904D01*
X90639380Y47267857D01*
X90687000Y47363095D01*
X90734619Y47410714D01*
X90829857Y47458333D01*
X90972714Y47458333D01*
X91067952Y47410714D01*
X91115571Y47363095D01*
X91163190Y47267857D01*
X91163190Y46886904D01*
X90734619Y47839285D02*
X90687000Y47886904D01*
X90639380Y47982142D01*
X90639380Y48220238D01*
X90687000Y48315476D01*
X90734619Y48363095D01*
X90829857Y48410714D01*
X90925095Y48410714D01*
X91067952Y48363095D01*
X91639380Y47791666D01*
X91639380Y48410714D01*
%TO.C,R3*%
X93034380Y47458333D02*
X92558190Y47125000D01*
X93034380Y46886904D02*
X92034380Y46886904D01*
X92034380Y47267857D01*
X92082000Y47363095D01*
X92129619Y47410714D01*
X92224857Y47458333D01*
X92367714Y47458333D01*
X92462952Y47410714D01*
X92510571Y47363095D01*
X92558190Y47267857D01*
X92558190Y46886904D01*
X92034380Y47791666D02*
X92034380Y48410714D01*
X92415333Y48077380D01*
X92415333Y48220238D01*
X92462952Y48315476D01*
X92510571Y48363095D01*
X92605809Y48410714D01*
X92843904Y48410714D01*
X92939142Y48363095D01*
X92986761Y48315476D01*
X93034380Y48220238D01*
X93034380Y47934523D01*
X92986761Y47839285D01*
X92939142Y47791666D01*
%TO.C,R4*%
X78177380Y49363333D02*
X77701190Y49030000D01*
X78177380Y48791904D02*
X77177380Y48791904D01*
X77177380Y49172857D01*
X77225000Y49268095D01*
X77272619Y49315714D01*
X77367857Y49363333D01*
X77510714Y49363333D01*
X77605952Y49315714D01*
X77653571Y49268095D01*
X77701190Y49172857D01*
X77701190Y48791904D01*
X77510714Y50220476D02*
X78177380Y50220476D01*
X77129761Y49982380D02*
X77844047Y49744285D01*
X77844047Y50363333D01*
%TO.C,R5*%
X99655333Y42982619D02*
X99322000Y43458809D01*
X99083904Y42982619D02*
X99083904Y43982619D01*
X99464857Y43982619D01*
X99560095Y43935000D01*
X99607714Y43887380D01*
X99655333Y43792142D01*
X99655333Y43649285D01*
X99607714Y43554047D01*
X99560095Y43506428D01*
X99464857Y43458809D01*
X99083904Y43458809D01*
X100560095Y43982619D02*
X100083904Y43982619D01*
X100036285Y43506428D01*
X100083904Y43554047D01*
X100179142Y43601666D01*
X100417238Y43601666D01*
X100512476Y43554047D01*
X100560095Y43506428D01*
X100607714Y43411190D01*
X100607714Y43173095D01*
X100560095Y43077857D01*
X100512476Y43030238D01*
X100417238Y42982619D01*
X100179142Y42982619D01*
X100083904Y43030238D01*
X100036285Y43077857D01*
%TO.C,R6*%
X78177380Y45553333D02*
X77701190Y45220000D01*
X78177380Y44981904D02*
X77177380Y44981904D01*
X77177380Y45362857D01*
X77225000Y45458095D01*
X77272619Y45505714D01*
X77367857Y45553333D01*
X77510714Y45553333D01*
X77605952Y45505714D01*
X77653571Y45458095D01*
X77701190Y45362857D01*
X77701190Y44981904D01*
X77177380Y46410476D02*
X77177380Y46220000D01*
X77225000Y46124761D01*
X77272619Y46077142D01*
X77415476Y45981904D01*
X77605952Y45934285D01*
X77986904Y45934285D01*
X78082142Y45981904D01*
X78129761Y46029523D01*
X78177380Y46124761D01*
X78177380Y46315238D01*
X78129761Y46410476D01*
X78082142Y46458095D01*
X77986904Y46505714D01*
X77748809Y46505714D01*
X77653571Y46458095D01*
X77605952Y46410476D01*
X77558333Y46315238D01*
X77558333Y46124761D01*
X77605952Y46029523D01*
X77653571Y45981904D01*
X77748809Y45934285D01*
%TO.C,R7*%
X99655333Y44887619D02*
X99322000Y45363809D01*
X99083904Y44887619D02*
X99083904Y45887619D01*
X99464857Y45887619D01*
X99560095Y45840000D01*
X99607714Y45792380D01*
X99655333Y45697142D01*
X99655333Y45554285D01*
X99607714Y45459047D01*
X99560095Y45411428D01*
X99464857Y45363809D01*
X99083904Y45363809D01*
X99988666Y45887619D02*
X100655333Y45887619D01*
X100226761Y44887619D01*
%TO.C,R8*%
X99655333Y50092619D02*
X99322000Y50568809D01*
X99083904Y50092619D02*
X99083904Y51092619D01*
X99464857Y51092619D01*
X99560095Y51045000D01*
X99607714Y50997380D01*
X99655333Y50902142D01*
X99655333Y50759285D01*
X99607714Y50664047D01*
X99560095Y50616428D01*
X99464857Y50568809D01*
X99083904Y50568809D01*
X100226761Y50664047D02*
X100131523Y50711666D01*
X100083904Y50759285D01*
X100036285Y50854523D01*
X100036285Y50902142D01*
X100083904Y50997380D01*
X100131523Y51045000D01*
X100226761Y51092619D01*
X100417238Y51092619D01*
X100512476Y51045000D01*
X100560095Y50997380D01*
X100607714Y50902142D01*
X100607714Y50854523D01*
X100560095Y50759285D01*
X100512476Y50711666D01*
X100417238Y50664047D01*
X100226761Y50664047D01*
X100131523Y50616428D01*
X100083904Y50568809D01*
X100036285Y50473571D01*
X100036285Y50283095D01*
X100083904Y50187857D01*
X100131523Y50140238D01*
X100226761Y50092619D01*
X100417238Y50092619D01*
X100512476Y50140238D01*
X100560095Y50187857D01*
X100607714Y50283095D01*
X100607714Y50473571D01*
X100560095Y50568809D01*
X100512476Y50616428D01*
X100417238Y50664047D01*
%TO.C,R9*%
X115530333Y28377619D02*
X115197000Y28853809D01*
X114958904Y28377619D02*
X114958904Y29377619D01*
X115339857Y29377619D01*
X115435095Y29330000D01*
X115482714Y29282380D01*
X115530333Y29187142D01*
X115530333Y29044285D01*
X115482714Y28949047D01*
X115435095Y28901428D01*
X115339857Y28853809D01*
X114958904Y28853809D01*
X116006523Y28377619D02*
X116197000Y28377619D01*
X116292238Y28425238D01*
X116339857Y28472857D01*
X116435095Y28615714D01*
X116482714Y28806190D01*
X116482714Y29187142D01*
X116435095Y29282380D01*
X116387476Y29330000D01*
X116292238Y29377619D01*
X116101761Y29377619D01*
X116006523Y29330000D01*
X115958904Y29282380D01*
X115911285Y29187142D01*
X115911285Y28949047D01*
X115958904Y28853809D01*
X116006523Y28806190D01*
X116101761Y28758571D01*
X116292238Y28758571D01*
X116387476Y28806190D01*
X116435095Y28853809D01*
X116482714Y28949047D01*
%TO.C,R10*%
X115054142Y30282619D02*
X114720809Y30758809D01*
X114482714Y30282619D02*
X114482714Y31282619D01*
X114863666Y31282619D01*
X114958904Y31235000D01*
X115006523Y31187380D01*
X115054142Y31092142D01*
X115054142Y30949285D01*
X115006523Y30854047D01*
X114958904Y30806428D01*
X114863666Y30758809D01*
X114482714Y30758809D01*
X116006523Y30282619D02*
X115435095Y30282619D01*
X115720809Y30282619D02*
X115720809Y31282619D01*
X115625571Y31139761D01*
X115530333Y31044523D01*
X115435095Y30996904D01*
X116625571Y31282619D02*
X116720809Y31282619D01*
X116816047Y31235000D01*
X116863666Y31187380D01*
X116911285Y31092142D01*
X116958904Y30901666D01*
X116958904Y30663571D01*
X116911285Y30473095D01*
X116863666Y30377857D01*
X116816047Y30330238D01*
X116720809Y30282619D01*
X116625571Y30282619D01*
X116530333Y30330238D01*
X116482714Y30377857D01*
X116435095Y30473095D01*
X116387476Y30663571D01*
X116387476Y30901666D01*
X116435095Y31092142D01*
X116482714Y31187380D01*
X116530333Y31235000D01*
X116625571Y31282619D01*
%TO.C,R11*%
X109974142Y30917619D02*
X109640809Y31393809D01*
X109402714Y30917619D02*
X109402714Y31917619D01*
X109783666Y31917619D01*
X109878904Y31870000D01*
X109926523Y31822380D01*
X109974142Y31727142D01*
X109974142Y31584285D01*
X109926523Y31489047D01*
X109878904Y31441428D01*
X109783666Y31393809D01*
X109402714Y31393809D01*
X110926523Y30917619D02*
X110355095Y30917619D01*
X110640809Y30917619D02*
X110640809Y31917619D01*
X110545571Y31774761D01*
X110450333Y31679523D01*
X110355095Y31631904D01*
X111878904Y30917619D02*
X111307476Y30917619D01*
X111593190Y30917619D02*
X111593190Y31917619D01*
X111497952Y31774761D01*
X111402714Y31679523D01*
X111307476Y31631904D01*
%TO.C,R12*%
X109974142Y32822619D02*
X109640809Y33298809D01*
X109402714Y32822619D02*
X109402714Y33822619D01*
X109783666Y33822619D01*
X109878904Y33775000D01*
X109926523Y33727380D01*
X109974142Y33632142D01*
X109974142Y33489285D01*
X109926523Y33394047D01*
X109878904Y33346428D01*
X109783666Y33298809D01*
X109402714Y33298809D01*
X110926523Y32822619D02*
X110355095Y32822619D01*
X110640809Y32822619D02*
X110640809Y33822619D01*
X110545571Y33679761D01*
X110450333Y33584523D01*
X110355095Y33536904D01*
X111307476Y33727380D02*
X111355095Y33775000D01*
X111450333Y33822619D01*
X111688428Y33822619D01*
X111783666Y33775000D01*
X111831285Y33727380D01*
X111878904Y33632142D01*
X111878904Y33536904D01*
X111831285Y33394047D01*
X111259857Y32822619D01*
X111878904Y32822619D01*
%TO.C,R13*%
X124149380Y35552142D02*
X123673190Y35218809D01*
X124149380Y34980714D02*
X123149380Y34980714D01*
X123149380Y35361666D01*
X123197000Y35456904D01*
X123244619Y35504523D01*
X123339857Y35552142D01*
X123482714Y35552142D01*
X123577952Y35504523D01*
X123625571Y35456904D01*
X123673190Y35361666D01*
X123673190Y34980714D01*
X124149380Y36504523D02*
X124149380Y35933095D01*
X124149380Y36218809D02*
X123149380Y36218809D01*
X123292238Y36123571D01*
X123387476Y36028333D01*
X123435095Y35933095D01*
X123149380Y36837857D02*
X123149380Y37456904D01*
X123530333Y37123571D01*
X123530333Y37266428D01*
X123577952Y37361666D01*
X123625571Y37409285D01*
X123720809Y37456904D01*
X123958904Y37456904D01*
X124054142Y37409285D01*
X124101761Y37361666D01*
X124149380Y37266428D01*
X124149380Y36980714D01*
X124101761Y36885476D01*
X124054142Y36837857D01*
%TO.C,R14*%
X113989380Y37457142D02*
X113513190Y37123809D01*
X113989380Y36885714D02*
X112989380Y36885714D01*
X112989380Y37266666D01*
X113037000Y37361904D01*
X113084619Y37409523D01*
X113179857Y37457142D01*
X113322714Y37457142D01*
X113417952Y37409523D01*
X113465571Y37361904D01*
X113513190Y37266666D01*
X113513190Y36885714D01*
X113989380Y38409523D02*
X113989380Y37838095D01*
X113989380Y38123809D02*
X112989380Y38123809D01*
X113132238Y38028571D01*
X113227476Y37933333D01*
X113275095Y37838095D01*
X113322714Y39266666D02*
X113989380Y39266666D01*
X112941761Y39028571D02*
X113656047Y38790476D01*
X113656047Y39409523D01*
%TO.C,R15*%
X120974380Y47617142D02*
X120498190Y47283809D01*
X120974380Y47045714D02*
X119974380Y47045714D01*
X119974380Y47426666D01*
X120022000Y47521904D01*
X120069619Y47569523D01*
X120164857Y47617142D01*
X120307714Y47617142D01*
X120402952Y47569523D01*
X120450571Y47521904D01*
X120498190Y47426666D01*
X120498190Y47045714D01*
X120974380Y48569523D02*
X120974380Y47998095D01*
X120974380Y48283809D02*
X119974380Y48283809D01*
X120117238Y48188571D01*
X120212476Y48093333D01*
X120260095Y47998095D01*
X119974380Y49474285D02*
X119974380Y48998095D01*
X120450571Y48950476D01*
X120402952Y48998095D01*
X120355333Y49093333D01*
X120355333Y49331428D01*
X120402952Y49426666D01*
X120450571Y49474285D01*
X120545809Y49521904D01*
X120783904Y49521904D01*
X120879142Y49474285D01*
X120926761Y49426666D01*
X120974380Y49331428D01*
X120974380Y49093333D01*
X120926761Y48998095D01*
X120879142Y48950476D01*
%TO.C,R16*%
X115769380Y47617142D02*
X115293190Y47283809D01*
X115769380Y47045714D02*
X114769380Y47045714D01*
X114769380Y47426666D01*
X114817000Y47521904D01*
X114864619Y47569523D01*
X114959857Y47617142D01*
X115102714Y47617142D01*
X115197952Y47569523D01*
X115245571Y47521904D01*
X115293190Y47426666D01*
X115293190Y47045714D01*
X115769380Y48569523D02*
X115769380Y47998095D01*
X115769380Y48283809D02*
X114769380Y48283809D01*
X114912238Y48188571D01*
X115007476Y48093333D01*
X115055095Y47998095D01*
X114769380Y49426666D02*
X114769380Y49236190D01*
X114817000Y49140952D01*
X114864619Y49093333D01*
X115007476Y48998095D01*
X115197952Y48950476D01*
X115578904Y48950476D01*
X115674142Y48998095D01*
X115721761Y49045714D01*
X115769380Y49140952D01*
X115769380Y49331428D01*
X115721761Y49426666D01*
X115674142Y49474285D01*
X115578904Y49521904D01*
X115340809Y49521904D01*
X115245571Y49474285D01*
X115197952Y49426666D01*
X115150333Y49331428D01*
X115150333Y49140952D01*
X115197952Y49045714D01*
X115245571Y48998095D01*
X115340809Y48950476D01*
%TO.C,R17*%
X117674380Y43172142D02*
X117198190Y42838809D01*
X117674380Y42600714D02*
X116674380Y42600714D01*
X116674380Y42981666D01*
X116722000Y43076904D01*
X116769619Y43124523D01*
X116864857Y43172142D01*
X117007714Y43172142D01*
X117102952Y43124523D01*
X117150571Y43076904D01*
X117198190Y42981666D01*
X117198190Y42600714D01*
X117674380Y44124523D02*
X117674380Y43553095D01*
X117674380Y43838809D02*
X116674380Y43838809D01*
X116817238Y43743571D01*
X116912476Y43648333D01*
X116960095Y43553095D01*
X116674380Y44457857D02*
X116674380Y45124523D01*
X117674380Y44695952D01*
%TO.C,R18*%
X122879380Y43172142D02*
X122403190Y42838809D01*
X122879380Y42600714D02*
X121879380Y42600714D01*
X121879380Y42981666D01*
X121927000Y43076904D01*
X121974619Y43124523D01*
X122069857Y43172142D01*
X122212714Y43172142D01*
X122307952Y43124523D01*
X122355571Y43076904D01*
X122403190Y42981666D01*
X122403190Y42600714D01*
X122879380Y44124523D02*
X122879380Y43553095D01*
X122879380Y43838809D02*
X121879380Y43838809D01*
X122022238Y43743571D01*
X122117476Y43648333D01*
X122165095Y43553095D01*
X122307952Y44695952D02*
X122260333Y44600714D01*
X122212714Y44553095D01*
X122117476Y44505476D01*
X122069857Y44505476D01*
X121974619Y44553095D01*
X121927000Y44600714D01*
X121879380Y44695952D01*
X121879380Y44886428D01*
X121927000Y44981666D01*
X121974619Y45029285D01*
X122069857Y45076904D01*
X122117476Y45076904D01*
X122212714Y45029285D01*
X122260333Y44981666D01*
X122307952Y44886428D01*
X122307952Y44695952D01*
X122355571Y44600714D01*
X122403190Y44553095D01*
X122498428Y44505476D01*
X122688904Y44505476D01*
X122784142Y44553095D01*
X122831761Y44600714D01*
X122879380Y44695952D01*
X122879380Y44886428D01*
X122831761Y44981666D01*
X122784142Y45029285D01*
X122688904Y45076904D01*
X122498428Y45076904D01*
X122403190Y45029285D01*
X122355571Y44981666D01*
X122307952Y44886428D01*
%TO.C,R19*%
X133342142Y43742619D02*
X133008809Y44218809D01*
X132770714Y43742619D02*
X132770714Y44742619D01*
X133151666Y44742619D01*
X133246904Y44695000D01*
X133294523Y44647380D01*
X133342142Y44552142D01*
X133342142Y44409285D01*
X133294523Y44314047D01*
X133246904Y44266428D01*
X133151666Y44218809D01*
X132770714Y44218809D01*
X134294523Y43742619D02*
X133723095Y43742619D01*
X134008809Y43742619D02*
X134008809Y44742619D01*
X133913571Y44599761D01*
X133818333Y44504523D01*
X133723095Y44456904D01*
X134770714Y43742619D02*
X134961190Y43742619D01*
X135056428Y43790238D01*
X135104047Y43837857D01*
X135199285Y43980714D01*
X135246904Y44171190D01*
X135246904Y44552142D01*
X135199285Y44647380D01*
X135151666Y44695000D01*
X135056428Y44742619D01*
X134865952Y44742619D01*
X134770714Y44695000D01*
X134723095Y44647380D01*
X134675476Y44552142D01*
X134675476Y44314047D01*
X134723095Y44218809D01*
X134770714Y44171190D01*
X134865952Y44123571D01*
X135056428Y44123571D01*
X135151666Y44171190D01*
X135199285Y44218809D01*
X135246904Y44314047D01*
%TO.C,R20*%
X135882142Y51997619D02*
X135548809Y52473809D01*
X135310714Y51997619D02*
X135310714Y52997619D01*
X135691666Y52997619D01*
X135786904Y52950000D01*
X135834523Y52902380D01*
X135882142Y52807142D01*
X135882142Y52664285D01*
X135834523Y52569047D01*
X135786904Y52521428D01*
X135691666Y52473809D01*
X135310714Y52473809D01*
X136263095Y52902380D02*
X136310714Y52950000D01*
X136405952Y52997619D01*
X136644047Y52997619D01*
X136739285Y52950000D01*
X136786904Y52902380D01*
X136834523Y52807142D01*
X136834523Y52711904D01*
X136786904Y52569047D01*
X136215476Y51997619D01*
X136834523Y51997619D01*
X137453571Y52997619D02*
X137548809Y52997619D01*
X137644047Y52950000D01*
X137691666Y52902380D01*
X137739285Y52807142D01*
X137786904Y52616666D01*
X137786904Y52378571D01*
X137739285Y52188095D01*
X137691666Y52092857D01*
X137644047Y52045238D01*
X137548809Y51997619D01*
X137453571Y51997619D01*
X137358333Y52045238D01*
X137310714Y52092857D01*
X137263095Y52188095D01*
X137215476Y52378571D01*
X137215476Y52616666D01*
X137263095Y52807142D01*
X137310714Y52902380D01*
X137358333Y52950000D01*
X137453571Y52997619D01*
%TO.C,R21*%
X133342142Y34346619D02*
X133008809Y34822809D01*
X132770714Y34346619D02*
X132770714Y35346619D01*
X133151666Y35346619D01*
X133246904Y35299000D01*
X133294523Y35251380D01*
X133342142Y35156142D01*
X133342142Y35013285D01*
X133294523Y34918047D01*
X133246904Y34870428D01*
X133151666Y34822809D01*
X132770714Y34822809D01*
X133723095Y35251380D02*
X133770714Y35299000D01*
X133865952Y35346619D01*
X134104047Y35346619D01*
X134199285Y35299000D01*
X134246904Y35251380D01*
X134294523Y35156142D01*
X134294523Y35060904D01*
X134246904Y34918047D01*
X133675476Y34346619D01*
X134294523Y34346619D01*
X135246904Y34346619D02*
X134675476Y34346619D01*
X134961190Y34346619D02*
X134961190Y35346619D01*
X134865952Y35203761D01*
X134770714Y35108523D01*
X134675476Y35060904D01*
%TO.C,R22*%
X133469142Y39678619D02*
X133135809Y40154809D01*
X132897714Y39678619D02*
X132897714Y40678619D01*
X133278666Y40678619D01*
X133373904Y40631000D01*
X133421523Y40583380D01*
X133469142Y40488142D01*
X133469142Y40345285D01*
X133421523Y40250047D01*
X133373904Y40202428D01*
X133278666Y40154809D01*
X132897714Y40154809D01*
X133850095Y40583380D02*
X133897714Y40631000D01*
X133992952Y40678619D01*
X134231047Y40678619D01*
X134326285Y40631000D01*
X134373904Y40583380D01*
X134421523Y40488142D01*
X134421523Y40392904D01*
X134373904Y40250047D01*
X133802476Y39678619D01*
X134421523Y39678619D01*
X134802476Y40583380D02*
X134850095Y40631000D01*
X134945333Y40678619D01*
X135183428Y40678619D01*
X135278666Y40631000D01*
X135326285Y40583380D01*
X135373904Y40488142D01*
X135373904Y40392904D01*
X135326285Y40250047D01*
X134754857Y39678619D01*
X135373904Y39678619D01*
%TO.C,R23*%
X125546380Y67302142D02*
X125070190Y66968809D01*
X125546380Y66730714D02*
X124546380Y66730714D01*
X124546380Y67111666D01*
X124594000Y67206904D01*
X124641619Y67254523D01*
X124736857Y67302142D01*
X124879714Y67302142D01*
X124974952Y67254523D01*
X125022571Y67206904D01*
X125070190Y67111666D01*
X125070190Y66730714D01*
X124641619Y67683095D02*
X124594000Y67730714D01*
X124546380Y67825952D01*
X124546380Y68064047D01*
X124594000Y68159285D01*
X124641619Y68206904D01*
X124736857Y68254523D01*
X124832095Y68254523D01*
X124974952Y68206904D01*
X125546380Y67635476D01*
X125546380Y68254523D01*
X124546380Y68587857D02*
X124546380Y69206904D01*
X124927333Y68873571D01*
X124927333Y69016428D01*
X124974952Y69111666D01*
X125022571Y69159285D01*
X125117809Y69206904D01*
X125355904Y69206904D01*
X125451142Y69159285D01*
X125498761Y69111666D01*
X125546380Y69016428D01*
X125546380Y68730714D01*
X125498761Y68635476D01*
X125451142Y68587857D01*
%TO.C,R24*%
X127961380Y67302142D02*
X127485190Y66968809D01*
X127961380Y66730714D02*
X126961380Y66730714D01*
X126961380Y67111666D01*
X127009000Y67206904D01*
X127056619Y67254523D01*
X127151857Y67302142D01*
X127294714Y67302142D01*
X127389952Y67254523D01*
X127437571Y67206904D01*
X127485190Y67111666D01*
X127485190Y66730714D01*
X127056619Y67683095D02*
X127009000Y67730714D01*
X126961380Y67825952D01*
X126961380Y68064047D01*
X127009000Y68159285D01*
X127056619Y68206904D01*
X127151857Y68254523D01*
X127247095Y68254523D01*
X127389952Y68206904D01*
X127961380Y67635476D01*
X127961380Y68254523D01*
X127294714Y69111666D02*
X127961380Y69111666D01*
X126913761Y68873571D02*
X127628047Y68635476D01*
X127628047Y69254523D01*
%TO.C,R25*%
X107004380Y62222142D02*
X106528190Y61888809D01*
X107004380Y61650714D02*
X106004380Y61650714D01*
X106004380Y62031666D01*
X106052000Y62126904D01*
X106099619Y62174523D01*
X106194857Y62222142D01*
X106337714Y62222142D01*
X106432952Y62174523D01*
X106480571Y62126904D01*
X106528190Y62031666D01*
X106528190Y61650714D01*
X106099619Y62603095D02*
X106052000Y62650714D01*
X106004380Y62745952D01*
X106004380Y62984047D01*
X106052000Y63079285D01*
X106099619Y63126904D01*
X106194857Y63174523D01*
X106290095Y63174523D01*
X106432952Y63126904D01*
X107004380Y62555476D01*
X107004380Y63174523D01*
X106004380Y64079285D02*
X106004380Y63603095D01*
X106480571Y63555476D01*
X106432952Y63603095D01*
X106385333Y63698333D01*
X106385333Y63936428D01*
X106432952Y64031666D01*
X106480571Y64079285D01*
X106575809Y64126904D01*
X106813904Y64126904D01*
X106909142Y64079285D01*
X106956761Y64031666D01*
X107004380Y63936428D01*
X107004380Y63698333D01*
X106956761Y63603095D01*
X106909142Y63555476D01*
%TO.C,R26*%
X101799380Y62222142D02*
X101323190Y61888809D01*
X101799380Y61650714D02*
X100799380Y61650714D01*
X100799380Y62031666D01*
X100847000Y62126904D01*
X100894619Y62174523D01*
X100989857Y62222142D01*
X101132714Y62222142D01*
X101227952Y62174523D01*
X101275571Y62126904D01*
X101323190Y62031666D01*
X101323190Y61650714D01*
X100894619Y62603095D02*
X100847000Y62650714D01*
X100799380Y62745952D01*
X100799380Y62984047D01*
X100847000Y63079285D01*
X100894619Y63126904D01*
X100989857Y63174523D01*
X101085095Y63174523D01*
X101227952Y63126904D01*
X101799380Y62555476D01*
X101799380Y63174523D01*
X100799380Y64031666D02*
X100799380Y63841190D01*
X100847000Y63745952D01*
X100894619Y63698333D01*
X101037476Y63603095D01*
X101227952Y63555476D01*
X101608904Y63555476D01*
X101704142Y63603095D01*
X101751761Y63650714D01*
X101799380Y63745952D01*
X101799380Y63936428D01*
X101751761Y64031666D01*
X101704142Y64079285D01*
X101608904Y64126904D01*
X101370809Y64126904D01*
X101275571Y64079285D01*
X101227952Y64031666D01*
X101180333Y63936428D01*
X101180333Y63745952D01*
X101227952Y63650714D01*
X101275571Y63603095D01*
X101370809Y63555476D01*
%TO.C,R27*%
X105609380Y57777142D02*
X105133190Y57443809D01*
X105609380Y57205714D02*
X104609380Y57205714D01*
X104609380Y57586666D01*
X104657000Y57681904D01*
X104704619Y57729523D01*
X104799857Y57777142D01*
X104942714Y57777142D01*
X105037952Y57729523D01*
X105085571Y57681904D01*
X105133190Y57586666D01*
X105133190Y57205714D01*
X104704619Y58158095D02*
X104657000Y58205714D01*
X104609380Y58300952D01*
X104609380Y58539047D01*
X104657000Y58634285D01*
X104704619Y58681904D01*
X104799857Y58729523D01*
X104895095Y58729523D01*
X105037952Y58681904D01*
X105609380Y58110476D01*
X105609380Y58729523D01*
X104609380Y59062857D02*
X104609380Y59729523D01*
X105609380Y59300952D01*
%TO.C,R28*%
X105609380Y53332142D02*
X105133190Y52998809D01*
X105609380Y52760714D02*
X104609380Y52760714D01*
X104609380Y53141666D01*
X104657000Y53236904D01*
X104704619Y53284523D01*
X104799857Y53332142D01*
X104942714Y53332142D01*
X105037952Y53284523D01*
X105085571Y53236904D01*
X105133190Y53141666D01*
X105133190Y52760714D01*
X104704619Y53713095D02*
X104657000Y53760714D01*
X104609380Y53855952D01*
X104609380Y54094047D01*
X104657000Y54189285D01*
X104704619Y54236904D01*
X104799857Y54284523D01*
X104895095Y54284523D01*
X105037952Y54236904D01*
X105609380Y53665476D01*
X105609380Y54284523D01*
X105037952Y54855952D02*
X104990333Y54760714D01*
X104942714Y54713095D01*
X104847476Y54665476D01*
X104799857Y54665476D01*
X104704619Y54713095D01*
X104657000Y54760714D01*
X104609380Y54855952D01*
X104609380Y55046428D01*
X104657000Y55141666D01*
X104704619Y55189285D01*
X104799857Y55236904D01*
X104847476Y55236904D01*
X104942714Y55189285D01*
X104990333Y55141666D01*
X105037952Y55046428D01*
X105037952Y54855952D01*
X105085571Y54760714D01*
X105133190Y54713095D01*
X105228428Y54665476D01*
X105418904Y54665476D01*
X105514142Y54713095D01*
X105561761Y54760714D01*
X105609380Y54855952D01*
X105609380Y55046428D01*
X105561761Y55141666D01*
X105514142Y55189285D01*
X105418904Y55236904D01*
X105228428Y55236904D01*
X105133190Y55189285D01*
X105085571Y55141666D01*
X105037952Y55046428D01*
%TO.C,R29*%
X99259380Y57777142D02*
X98783190Y57443809D01*
X99259380Y57205714D02*
X98259380Y57205714D01*
X98259380Y57586666D01*
X98307000Y57681904D01*
X98354619Y57729523D01*
X98449857Y57777142D01*
X98592714Y57777142D01*
X98687952Y57729523D01*
X98735571Y57681904D01*
X98783190Y57586666D01*
X98783190Y57205714D01*
X98354619Y58158095D02*
X98307000Y58205714D01*
X98259380Y58300952D01*
X98259380Y58539047D01*
X98307000Y58634285D01*
X98354619Y58681904D01*
X98449857Y58729523D01*
X98545095Y58729523D01*
X98687952Y58681904D01*
X99259380Y58110476D01*
X99259380Y58729523D01*
X99259380Y59205714D02*
X99259380Y59396190D01*
X99211761Y59491428D01*
X99164142Y59539047D01*
X99021285Y59634285D01*
X98830809Y59681904D01*
X98449857Y59681904D01*
X98354619Y59634285D01*
X98307000Y59586666D01*
X98259380Y59491428D01*
X98259380Y59300952D01*
X98307000Y59205714D01*
X98354619Y59158095D01*
X98449857Y59110476D01*
X98687952Y59110476D01*
X98783190Y59158095D01*
X98830809Y59205714D01*
X98878428Y59300952D01*
X98878428Y59491428D01*
X98830809Y59586666D01*
X98783190Y59634285D01*
X98687952Y59681904D01*
%TO.C,R30*%
X102559380Y53332142D02*
X102083190Y52998809D01*
X102559380Y52760714D02*
X101559380Y52760714D01*
X101559380Y53141666D01*
X101607000Y53236904D01*
X101654619Y53284523D01*
X101749857Y53332142D01*
X101892714Y53332142D01*
X101987952Y53284523D01*
X102035571Y53236904D01*
X102083190Y53141666D01*
X102083190Y52760714D01*
X101559380Y53665476D02*
X101559380Y54284523D01*
X101940333Y53951190D01*
X101940333Y54094047D01*
X101987952Y54189285D01*
X102035571Y54236904D01*
X102130809Y54284523D01*
X102368904Y54284523D01*
X102464142Y54236904D01*
X102511761Y54189285D01*
X102559380Y54094047D01*
X102559380Y53808333D01*
X102511761Y53713095D01*
X102464142Y53665476D01*
X101559380Y54903571D02*
X101559380Y54998809D01*
X101607000Y55094047D01*
X101654619Y55141666D01*
X101749857Y55189285D01*
X101940333Y55236904D01*
X102178428Y55236904D01*
X102368904Y55189285D01*
X102464142Y55141666D01*
X102511761Y55094047D01*
X102559380Y54998809D01*
X102559380Y54903571D01*
X102511761Y54808333D01*
X102464142Y54760714D01*
X102368904Y54713095D01*
X102178428Y54665476D01*
X101940333Y54665476D01*
X101749857Y54713095D01*
X101654619Y54760714D01*
X101607000Y54808333D01*
X101559380Y54903571D01*
%TO.C,R31*%
X87067380Y97147142D02*
X86591190Y96813809D01*
X87067380Y96575714D02*
X86067380Y96575714D01*
X86067380Y96956666D01*
X86115000Y97051904D01*
X86162619Y97099523D01*
X86257857Y97147142D01*
X86400714Y97147142D01*
X86495952Y97099523D01*
X86543571Y97051904D01*
X86591190Y96956666D01*
X86591190Y96575714D01*
X86067380Y97480476D02*
X86067380Y98099523D01*
X86448333Y97766190D01*
X86448333Y97909047D01*
X86495952Y98004285D01*
X86543571Y98051904D01*
X86638809Y98099523D01*
X86876904Y98099523D01*
X86972142Y98051904D01*
X87019761Y98004285D01*
X87067380Y97909047D01*
X87067380Y97623333D01*
X87019761Y97528095D01*
X86972142Y97480476D01*
X87067380Y99051904D02*
X87067380Y98480476D01*
X87067380Y98766190D02*
X86067380Y98766190D01*
X86210238Y98670952D01*
X86305476Y98575714D01*
X86353095Y98480476D01*
%TO.C,R32*%
X90367380Y100957142D02*
X89891190Y100623809D01*
X90367380Y100385714D02*
X89367380Y100385714D01*
X89367380Y100766666D01*
X89415000Y100861904D01*
X89462619Y100909523D01*
X89557857Y100957142D01*
X89700714Y100957142D01*
X89795952Y100909523D01*
X89843571Y100861904D01*
X89891190Y100766666D01*
X89891190Y100385714D01*
X89367380Y101290476D02*
X89367380Y101909523D01*
X89748333Y101576190D01*
X89748333Y101719047D01*
X89795952Y101814285D01*
X89843571Y101861904D01*
X89938809Y101909523D01*
X90176904Y101909523D01*
X90272142Y101861904D01*
X90319761Y101814285D01*
X90367380Y101719047D01*
X90367380Y101433333D01*
X90319761Y101338095D01*
X90272142Y101290476D01*
X89462619Y102290476D02*
X89415000Y102338095D01*
X89367380Y102433333D01*
X89367380Y102671428D01*
X89415000Y102766666D01*
X89462619Y102814285D01*
X89557857Y102861904D01*
X89653095Y102861904D01*
X89795952Y102814285D01*
X90367380Y102242857D01*
X90367380Y102861904D01*
%TO.C,R33*%
X90877380Y100957142D02*
X90401190Y100623809D01*
X90877380Y100385714D02*
X89877380Y100385714D01*
X89877380Y100766666D01*
X89925000Y100861904D01*
X89972619Y100909523D01*
X90067857Y100957142D01*
X90210714Y100957142D01*
X90305952Y100909523D01*
X90353571Y100861904D01*
X90401190Y100766666D01*
X90401190Y100385714D01*
X89877380Y101290476D02*
X89877380Y101909523D01*
X90258333Y101576190D01*
X90258333Y101719047D01*
X90305952Y101814285D01*
X90353571Y101861904D01*
X90448809Y101909523D01*
X90686904Y101909523D01*
X90782142Y101861904D01*
X90829761Y101814285D01*
X90877380Y101719047D01*
X90877380Y101433333D01*
X90829761Y101338095D01*
X90782142Y101290476D01*
X89877380Y102242857D02*
X89877380Y102861904D01*
X90258333Y102528571D01*
X90258333Y102671428D01*
X90305952Y102766666D01*
X90353571Y102814285D01*
X90448809Y102861904D01*
X90686904Y102861904D01*
X90782142Y102814285D01*
X90829761Y102766666D01*
X90877380Y102671428D01*
X90877380Y102385714D01*
X90829761Y102290476D01*
X90782142Y102242857D01*
%TO.C,R34*%
X97227380Y100957142D02*
X96751190Y100623809D01*
X97227380Y100385714D02*
X96227380Y100385714D01*
X96227380Y100766666D01*
X96275000Y100861904D01*
X96322619Y100909523D01*
X96417857Y100957142D01*
X96560714Y100957142D01*
X96655952Y100909523D01*
X96703571Y100861904D01*
X96751190Y100766666D01*
X96751190Y100385714D01*
X96227380Y101290476D02*
X96227380Y101909523D01*
X96608333Y101576190D01*
X96608333Y101719047D01*
X96655952Y101814285D01*
X96703571Y101861904D01*
X96798809Y101909523D01*
X97036904Y101909523D01*
X97132142Y101861904D01*
X97179761Y101814285D01*
X97227380Y101719047D01*
X97227380Y101433333D01*
X97179761Y101338095D01*
X97132142Y101290476D01*
X96560714Y102766666D02*
X97227380Y102766666D01*
X96179761Y102528571D02*
X96894047Y102290476D01*
X96894047Y102909523D01*
%TO.C,R35*%
X96717380Y100957142D02*
X96241190Y100623809D01*
X96717380Y100385714D02*
X95717380Y100385714D01*
X95717380Y100766666D01*
X95765000Y100861904D01*
X95812619Y100909523D01*
X95907857Y100957142D01*
X96050714Y100957142D01*
X96145952Y100909523D01*
X96193571Y100861904D01*
X96241190Y100766666D01*
X96241190Y100385714D01*
X95717380Y101290476D02*
X95717380Y101909523D01*
X96098333Y101576190D01*
X96098333Y101719047D01*
X96145952Y101814285D01*
X96193571Y101861904D01*
X96288809Y101909523D01*
X96526904Y101909523D01*
X96622142Y101861904D01*
X96669761Y101814285D01*
X96717380Y101719047D01*
X96717380Y101433333D01*
X96669761Y101338095D01*
X96622142Y101290476D01*
X95717380Y102814285D02*
X95717380Y102338095D01*
X96193571Y102290476D01*
X96145952Y102338095D01*
X96098333Y102433333D01*
X96098333Y102671428D01*
X96145952Y102766666D01*
X96193571Y102814285D01*
X96288809Y102861904D01*
X96526904Y102861904D01*
X96622142Y102814285D01*
X96669761Y102766666D01*
X96717380Y102671428D01*
X96717380Y102433333D01*
X96669761Y102338095D01*
X96622142Y102290476D01*
%TO.C,R36*%
X93417380Y97147142D02*
X92941190Y96813809D01*
X93417380Y96575714D02*
X92417380Y96575714D01*
X92417380Y96956666D01*
X92465000Y97051904D01*
X92512619Y97099523D01*
X92607857Y97147142D01*
X92750714Y97147142D01*
X92845952Y97099523D01*
X92893571Y97051904D01*
X92941190Y96956666D01*
X92941190Y96575714D01*
X92417380Y97480476D02*
X92417380Y98099523D01*
X92798333Y97766190D01*
X92798333Y97909047D01*
X92845952Y98004285D01*
X92893571Y98051904D01*
X92988809Y98099523D01*
X93226904Y98099523D01*
X93322142Y98051904D01*
X93369761Y98004285D01*
X93417380Y97909047D01*
X93417380Y97623333D01*
X93369761Y97528095D01*
X93322142Y97480476D01*
X92417380Y98956666D02*
X92417380Y98766190D01*
X92465000Y98670952D01*
X92512619Y98623333D01*
X92655476Y98528095D01*
X92845952Y98480476D01*
X93226904Y98480476D01*
X93322142Y98528095D01*
X93369761Y98575714D01*
X93417380Y98670952D01*
X93417380Y98861428D01*
X93369761Y98956666D01*
X93322142Y99004285D01*
X93226904Y99051904D01*
X92988809Y99051904D01*
X92893571Y99004285D01*
X92845952Y98956666D01*
X92798333Y98861428D01*
X92798333Y98670952D01*
X92845952Y98575714D01*
X92893571Y98528095D01*
X92988809Y98480476D01*
%TO.C,SW1*%
X104336666Y22075238D02*
X104479523Y22027619D01*
X104717619Y22027619D01*
X104812857Y22075238D01*
X104860476Y22122857D01*
X104908095Y22218095D01*
X104908095Y22313333D01*
X104860476Y22408571D01*
X104812857Y22456190D01*
X104717619Y22503809D01*
X104527142Y22551428D01*
X104431904Y22599047D01*
X104384285Y22646666D01*
X104336666Y22741904D01*
X104336666Y22837142D01*
X104384285Y22932380D01*
X104431904Y22980000D01*
X104527142Y23027619D01*
X104765238Y23027619D01*
X104908095Y22980000D01*
X105241428Y23027619D02*
X105479523Y22027619D01*
X105670000Y22741904D01*
X105860476Y22027619D01*
X106098571Y23027619D01*
X107003333Y22027619D02*
X106431904Y22027619D01*
X106717619Y22027619D02*
X106717619Y23027619D01*
X106622380Y22884761D01*
X106527142Y22789523D01*
X106431904Y22741904D01*
%TO.C,SW3*%
X80656666Y19375238D02*
X80799523Y19327619D01*
X81037619Y19327619D01*
X81132857Y19375238D01*
X81180476Y19422857D01*
X81228095Y19518095D01*
X81228095Y19613333D01*
X81180476Y19708571D01*
X81132857Y19756190D01*
X81037619Y19803809D01*
X80847142Y19851428D01*
X80751904Y19899047D01*
X80704285Y19946666D01*
X80656666Y20041904D01*
X80656666Y20137142D01*
X80704285Y20232380D01*
X80751904Y20280000D01*
X80847142Y20327619D01*
X81085238Y20327619D01*
X81228095Y20280000D01*
X81561428Y20327619D02*
X81799523Y19327619D01*
X81990000Y20041904D01*
X82180476Y19327619D01*
X82418571Y20327619D01*
X82704285Y20327619D02*
X83323333Y20327619D01*
X82990000Y19946666D01*
X83132857Y19946666D01*
X83228095Y19899047D01*
X83275714Y19851428D01*
X83323333Y19756190D01*
X83323333Y19518095D01*
X83275714Y19422857D01*
X83228095Y19375238D01*
X83132857Y19327619D01*
X82847142Y19327619D01*
X82751904Y19375238D01*
X82704285Y19422857D01*
%TO.C,SW4*%
X136536666Y19375238D02*
X136679523Y19327619D01*
X136917619Y19327619D01*
X137012857Y19375238D01*
X137060476Y19422857D01*
X137108095Y19518095D01*
X137108095Y19613333D01*
X137060476Y19708571D01*
X137012857Y19756190D01*
X136917619Y19803809D01*
X136727142Y19851428D01*
X136631904Y19899047D01*
X136584285Y19946666D01*
X136536666Y20041904D01*
X136536666Y20137142D01*
X136584285Y20232380D01*
X136631904Y20280000D01*
X136727142Y20327619D01*
X136965238Y20327619D01*
X137108095Y20280000D01*
X137441428Y20327619D02*
X137679523Y19327619D01*
X137870000Y20041904D01*
X138060476Y19327619D01*
X138298571Y20327619D01*
X139108095Y19994285D02*
X139108095Y19327619D01*
X138870000Y20375238D02*
X138631904Y19660952D01*
X139250952Y19660952D01*
%TO.C,T1*%
X71628095Y78787619D02*
X72199523Y78787619D01*
X71913809Y77787619D02*
X71913809Y78787619D01*
X73056666Y77787619D02*
X72485238Y77787619D01*
X72770952Y77787619D02*
X72770952Y78787619D01*
X72675714Y78644761D01*
X72580476Y78549523D01*
X72485238Y78501904D01*
%TO.C,U1*%
X135287380Y98298095D02*
X136096904Y98298095D01*
X136192142Y98345714D01*
X136239761Y98393333D01*
X136287380Y98488571D01*
X136287380Y98679047D01*
X136239761Y98774285D01*
X136192142Y98821904D01*
X136096904Y98869523D01*
X135287380Y98869523D01*
X136287380Y99869523D02*
X136287380Y99298095D01*
X136287380Y99583809D02*
X135287380Y99583809D01*
X135430238Y99488571D01*
X135525476Y99393333D01*
X135573095Y99298095D01*
%TO.C,U2*%
X151272380Y80518095D02*
X152081904Y80518095D01*
X152177142Y80565714D01*
X152224761Y80613333D01*
X152272380Y80708571D01*
X152272380Y80899047D01*
X152224761Y80994285D01*
X152177142Y81041904D01*
X152081904Y81089523D01*
X151272380Y81089523D01*
X151367619Y81518095D02*
X151320000Y81565714D01*
X151272380Y81660952D01*
X151272380Y81899047D01*
X151320000Y81994285D01*
X151367619Y82041904D01*
X151462857Y82089523D01*
X151558095Y82089523D01*
X151700952Y82041904D01*
X152272380Y81470476D01*
X152272380Y82089523D01*
%TO.C,U3*%
X108458095Y88512619D02*
X108458095Y87703095D01*
X108505714Y87607857D01*
X108553333Y87560238D01*
X108648571Y87512619D01*
X108839047Y87512619D01*
X108934285Y87560238D01*
X108981904Y87607857D01*
X109029523Y87703095D01*
X109029523Y88512619D01*
X109410476Y88512619D02*
X110029523Y88512619D01*
X109696190Y88131666D01*
X109839047Y88131666D01*
X109934285Y88084047D01*
X109981904Y88036428D01*
X110029523Y87941190D01*
X110029523Y87703095D01*
X109981904Y87607857D01*
X109934285Y87560238D01*
X109839047Y87512619D01*
X109553333Y87512619D01*
X109458095Y87560238D01*
X109410476Y87607857D01*
%TO.C,U4*%
X116205095Y40142619D02*
X116205095Y39333095D01*
X116252714Y39237857D01*
X116300333Y39190238D01*
X116395571Y39142619D01*
X116586047Y39142619D01*
X116681285Y39190238D01*
X116728904Y39237857D01*
X116776523Y39333095D01*
X116776523Y40142619D01*
X117681285Y39809285D02*
X117681285Y39142619D01*
X117443190Y40190238D02*
X117205095Y39475952D01*
X117824142Y39475952D01*
%TO.C,U5*%
X74168095Y52977619D02*
X74168095Y52168095D01*
X74215714Y52072857D01*
X74263333Y52025238D01*
X74358571Y51977619D01*
X74549047Y51977619D01*
X74644285Y52025238D01*
X74691904Y52072857D01*
X74739523Y52168095D01*
X74739523Y52977619D01*
X75691904Y52977619D02*
X75215714Y52977619D01*
X75168095Y52501428D01*
X75215714Y52549047D01*
X75310952Y52596666D01*
X75549047Y52596666D01*
X75644285Y52549047D01*
X75691904Y52501428D01*
X75739523Y52406190D01*
X75739523Y52168095D01*
X75691904Y52072857D01*
X75644285Y52025238D01*
X75549047Y51977619D01*
X75310952Y51977619D01*
X75215714Y52025238D01*
X75168095Y52072857D01*
%TO.C,U6*%
X106894380Y44323095D02*
X107703904Y44323095D01*
X107799142Y44370714D01*
X107846761Y44418333D01*
X107894380Y44513571D01*
X107894380Y44704047D01*
X107846761Y44799285D01*
X107799142Y44846904D01*
X107703904Y44894523D01*
X106894380Y44894523D01*
X106894380Y45799285D02*
X106894380Y45608809D01*
X106942000Y45513571D01*
X106989619Y45465952D01*
X107132476Y45370714D01*
X107322952Y45323095D01*
X107703904Y45323095D01*
X107799142Y45370714D01*
X107846761Y45418333D01*
X107894380Y45513571D01*
X107894380Y45704047D01*
X107846761Y45799285D01*
X107799142Y45846904D01*
X107703904Y45894523D01*
X107465809Y45894523D01*
X107370571Y45846904D01*
X107322952Y45799285D01*
X107275333Y45704047D01*
X107275333Y45513571D01*
X107322952Y45418333D01*
X107370571Y45370714D01*
X107465809Y45323095D01*
%TO.C,U8*%
X133858095Y60462619D02*
X133858095Y59653095D01*
X133905714Y59557857D01*
X133953333Y59510238D01*
X134048571Y59462619D01*
X134239047Y59462619D01*
X134334285Y59510238D01*
X134381904Y59557857D01*
X134429523Y59653095D01*
X134429523Y60462619D01*
X135048571Y60034047D02*
X134953333Y60081666D01*
X134905714Y60129285D01*
X134858095Y60224523D01*
X134858095Y60272142D01*
X134905714Y60367380D01*
X134953333Y60415000D01*
X135048571Y60462619D01*
X135239047Y60462619D01*
X135334285Y60415000D01*
X135381904Y60367380D01*
X135429523Y60272142D01*
X135429523Y60224523D01*
X135381904Y60129285D01*
X135334285Y60081666D01*
X135239047Y60034047D01*
X135048571Y60034047D01*
X134953333Y59986428D01*
X134905714Y59938809D01*
X134858095Y59843571D01*
X134858095Y59653095D01*
X134905714Y59557857D01*
X134953333Y59510238D01*
X135048571Y59462619D01*
X135239047Y59462619D01*
X135334285Y59510238D01*
X135381904Y59557857D01*
X135429523Y59653095D01*
X135429523Y59843571D01*
X135381904Y59938809D01*
X135334285Y59986428D01*
X135239047Y60034047D01*
%TO.C,U9*%
X112669380Y56388095D02*
X113478904Y56388095D01*
X113574142Y56435714D01*
X113621761Y56483333D01*
X113669380Y56578571D01*
X113669380Y56769047D01*
X113621761Y56864285D01*
X113574142Y56911904D01*
X113478904Y56959523D01*
X112669380Y56959523D01*
X113669380Y57483333D02*
X113669380Y57673809D01*
X113621761Y57769047D01*
X113574142Y57816666D01*
X113431285Y57911904D01*
X113240809Y57959523D01*
X112859857Y57959523D01*
X112764619Y57911904D01*
X112717000Y57864285D01*
X112669380Y57769047D01*
X112669380Y57578571D01*
X112717000Y57483333D01*
X112764619Y57435714D01*
X112859857Y57388095D01*
X113097952Y57388095D01*
X113193190Y57435714D01*
X113240809Y57483333D01*
X113288428Y57578571D01*
X113288428Y57769047D01*
X113240809Y57864285D01*
X113193190Y57911904D01*
X113097952Y57959523D01*
%TO.C,X1*%
X107267476Y65862619D02*
X107934142Y64862619D01*
X107934142Y65862619D02*
X107267476Y64862619D01*
X108838904Y64862619D02*
X108267476Y64862619D01*
X108553190Y64862619D02*
X108553190Y65862619D01*
X108457952Y65719761D01*
X108362714Y65624523D01*
X108267476Y65576904D01*
%TD*%
M02*
