M48
; DRILL file {KiCad 5.1.10} date Wed Jun 16 16:49:49 2021
; FORMAT={-:-/ absolute / inch / decimal}
; #@! TF.CreationDate,2021-06-16T16:49:49+02:00
; #@! TF.GenerationSoftware,Kicad,Pcbnew,5.1.10
FMAT,2
INCH
T1C0.0157
T2C0.0181
T3C0.0300
T4C0.0315
T5C0.0394
T6C0.0433
T7C0.0472
T8C0.0512
T9C0.0866
T10C0.1260
T11C0.0472
%
G90
G05
T1
X2.725Y1.6
X2.8Y1.75
X2.825Y2.0
X3.15Y1.5
X3.2Y3.85
X3.25Y2.1
X3.3Y3.85
X3.3Y2.7
X3.505Y1.5
X3.525Y2.1
X3.525Y2.0
X3.5347Y2.8153
X3.6Y2.725
X3.6049Y2.8451
X3.665Y1.63
X3.675Y3.725
X3.675Y2.8
X3.7149Y3.7601
X3.725Y2.8465
X3.725Y2.675
X3.745Y1.78
X3.765Y1.63
X3.775Y2.6965
X3.775Y2.04
X3.8183Y3.275
X3.825Y3.325
X3.825Y2.9035
X3.8465Y2.1
X3.8618Y2.3396
X3.875Y2.9035
X3.925Y2.4
X3.925Y1.55
X3.95Y3.4
X3.955Y2.205
X3.975Y2.7535
X3.975Y2.6965
X4.0035Y2.475
X4.025Y1.95
X4.075Y3.725
X4.075Y3.425
X4.075Y3.325
X4.075Y3.275
X4.08Y2.2
X4.0806Y3.7694
X4.125Y1.8
X4.1265Y1.575
X4.13Y2.575
X4.1488Y3.5512
X4.155Y1.5
X4.205Y1.425
X4.22Y3.47
X4.25Y3.7043
X4.2557Y3.442
X4.2835Y1.375
X4.3187Y3.0
X4.32Y3.5
X4.3203Y2.5728
X4.325Y3.55
X4.33Y1.6
X4.35Y2.625
X4.3895Y1.9691
X4.4Y3.51
X4.425Y3.675
X4.4407Y3.4643
X4.455Y1.275
X4.455Y1.2
X4.475Y3.725
X4.475Y2.525
X4.48Y3.4515
X4.48Y1.7342
X4.525Y3.6
X4.525Y3.275
X4.525Y1.575
X4.5429Y3.1768
X4.5673Y3.5423
X4.6Y3.1768
X4.6Y3.1
X4.6Y1.86
X4.625Y1.625
X4.65Y4.0
X4.65Y3.775
X4.6715Y3.3215
X4.675Y3.075
X4.68Y1.82
X4.7Y3.35
X4.7191Y3.0953
X4.7285Y2.6644
X4.7285Y2.625
X4.75Y3.325
X4.75Y3.1197
X4.75Y1.575
X4.76Y1.76
X4.775Y2.35
X4.8Y2.5
X4.8015Y1.65
X4.85Y3.0
X4.85Y2.85
X4.8585Y1.7
X4.8871Y1.8
X4.9Y3.275
X4.9Y3.15
X4.9098Y2.9652
X4.9565Y2.912
X5.05Y1.675
X5.25Y3.15
X5.25Y3.05
X5.45Y3.55
X5.45Y3.5
X5.45Y3.45
X5.725Y1.7754
X5.85Y1.6
T2
X2.9875Y3.9325
X3.2625Y3.9325
T3
X2.7Y3.525
X2.7Y3.425
X2.7Y3.325
X2.7Y3.225
X2.825Y2.85
X2.825Y1.35
X2.925Y2.85
X2.925Y1.35
X3.025Y2.85
X3.025Y1.35
X3.125Y2.85
X3.125Y1.35
X3.575Y3.525
X3.575Y3.425
X3.575Y3.325
X3.575Y3.225
X5.525Y1.655
X5.625Y1.655
X5.9Y0.9
X5.9Y0.7
X5.9Y0.5
T4
X4.91Y2.45
X5.01Y2.45
X5.11Y2.45
T5
X4.05Y0.7
X4.05Y0.6016
X4.05Y0.5031
X4.0575Y4.0173
X4.1575Y4.0173
X4.2575Y4.0173
X4.3575Y4.0173
X4.375Y2.85
X4.375Y2.75
X4.475Y2.85
X4.475Y2.75
X4.575Y2.85
X4.575Y2.75
X4.6209Y0.7
X4.6209Y0.5031
X5.0Y3.5
X5.0Y3.4
X5.0Y3.3
X5.0Y3.2
X5.0Y3.1
X6.0266Y2.625
X6.125Y2.625
T6
X3.1Y0.7
X3.1Y0.5228
X3.3559Y0.7
X3.3559Y0.5228
X5.3Y0.7
X5.3Y0.5228
X5.5559Y0.7
X5.5559Y0.5228
T7
X2.7094Y1.025
X3.3Y1.025
T8
X5.9876Y2.3553
X5.9876Y1.6553
X6.1136Y1.9892
X6.1136Y1.2892
X6.1608Y2.0955
X6.1608Y1.3955
X6.275Y2.375
X6.275Y1.675
X6.4285Y2.1939
X6.4285Y1.4939
T9
X4.3453Y0.822
X4.3453Y0.3811
T10
X2.7559Y3.937
X2.7559Y0.3937
X6.2992Y3.937
X6.2992Y0.3937
T11
X6.188Y2.7037
T4
G00X5.761Y3.7364
M15
G01X5.761Y3.6498
M16
G05
G00X5.9933Y3.8033
M15
G01X5.9067Y3.8033
M16
G05
G00X6.0012Y3.575
M15
G01X5.8988Y3.575
M16
G05
T0
M30
